<svg height="100%" stroke-miterlimit="10"
    style="fill-rule:nonzero;clip-rule:evenodd;stroke-linecap:round;stroke-linejoin:round;" version="1.1"
    viewBox="0 0 512 512" width="100%" xml:space="preserve" xmlns="http://www.w3.org/2000/svg"
    xmlns:vectornator="http://vectornator.io" xmlns:xlink="http://www.w3.org/1999/xlink">
    <g id="Layer-1">
        <path
            d="M150.119 91.0703C150.119 90.3862 149.774 89.0473 149.774 89.0473C149.774 89.0473 150.204 91.0886 150.466 92.0976C150.969 94.0291 151.309 95.5885 151.794 97.479C153.31 103.395 156.191 108.257 158.55 114.003C159.487 116.283 160.971 118.633 162.246 120.756C163.669 123.126 164.237 126.17 165.623 128.501C168.529 133.387 171.109 138.55 174.394 143.346C176.726 146.751 178.016 149.536 179.792 153.116C180.461 154.466 181.815 155.961 181.815 157.505"
            fill="#f95209" fill-opacity="0" fill-rule="nonzero" opacity="1" stroke="#000000" stroke-linecap="round"
            stroke-linejoin="round" stroke-width="3" />
        <path
            d="M149.774 88.7233C152.002 88.7233 152.101 90.2932 153.817 91.4286C158.593 94.5874 162.642 97.6409 166.31 102.194C167.477 103.642 169.378 104.309 170.672 105.587C174.294 109.163 178.25 112.687 181.467 116.711C186.261 122.705 189.731 129.53 193.939 135.926C195.561 138.39 198.51 140.528 200.693 142.677"
            fill="#f95209" fill-opacity="0" fill-rule="nonzero" opacity="1" stroke="#000000" stroke-linecap="round"
            stroke-linejoin="round" stroke-width="3" />
        <path
            d="M150.119 89.7322C151.584 95.3702 147.165 105.428 145.733 110.968C143.459 119.768 143.051 131.148 144.376 140.296C146.354 153.941 147.623 168.916 153.151 181.791C155.837 188.047 160.685 195.406 162.246 201.997C162.674 203.803 162.342 206.03 162.936 207.739C163.402 209.08 163.659 211.642 163.281 213.123C160.899 222.472 153.307 228.699 147.089 236.401C145.62 238.222 142.923 240.495 141.026 241.78C140.712 241.992 137.938 243.127 138.313 243.476C138.459 243.612 140.479 242.357 141.347 242.807C144.468 244.423 148.313 241.943 151.794 240.771C152.678 240.473 153.462 241.111 154.162 241.111C154.498 241.111 155.171 240.774 155.171 241.111C155.171 241.47 151.573 242.86 151.133 243.152C147.725 245.412 144.632 248.447 142.356 251.91C141.957 252.518 139.672 253.887 139.672 254.618C139.672 254.677 140.584 254.293 140.681 254.26C141.411 254.011 142.08 253.556 142.701 253.246C143.371 252.911 144.667 252.577 145.388 252.577C146.151 252.577 150.725 250.818 151.133 251.223C151.258 251.347 150.823 252.199 150.785 252.237C148.899 254.123 146.722 255.797 145.069 257.979C144.938 258.152 144.17 260.342 144.376 260.342C145.623 260.342 147.192 258 148.098 257.31C149.96 255.894 152.315 256.296 154.507 256.296C156.253 256.296 157.656 255.287 159.559 255.287C159.721 255.287 160.02 255.515 159.904 255.627C157.574 257.886 153.151 260.424 153.151 264.372C153.151 265.007 153.977 263.384 154.507 263.034C155.727 262.227 157.717 261.389 159.214 261.011C161.202 260.509 163.923 260.342 165.968 260.342C166.682 260.342 167.326 260.788 167.986 261.011C168.14 261.063 168.479 261.426 168.333 261.353C168.043 261.209 167.873 260.897 167.643 260.669"
            fill="#f95209" fill-opacity="0" fill-rule="nonzero" opacity="1" stroke="#000000" stroke-linecap="round"
            stroke-linejoin="round" stroke-width="3" />
        <path
            d="M167.986 139.285C169.678 137.586 165.51 140.614 164.957 140.997C163.687 141.876 160.571 140.641 159.559 139.972C156.423 137.898 155.313 128.501 150.466 128.501"
            fill="#f95209" fill-opacity="0" fill-rule="nonzero" opacity="1" stroke="#000000" stroke-linecap="round"
            stroke-linejoin="round" stroke-width="3" />
        <path d="M160.226 151.093C159.022 149.097 153.076 144.106 151.794 145.369" fill="#f95209" fill-opacity="0"
            fill-rule="nonzero" opacity="1" stroke="#000000" stroke-linecap="round" stroke-linejoin="round"
            stroke-width="3" />
        <path d="M160.226 157.844C157.855 156.879 155.694 155.456 153.496 154.144" fill="#f95209" fill-opacity="0"
            fill-rule="nonzero" opacity="1" stroke="#000000" stroke-linecap="round" stroke-linejoin="round"
            stroke-width="3" />
        <path
            d="M318.029 143.689C325.034 129.456 335.028 115.236 344.991 103.206C348.519 98.9452 352.222 94.7132 356.131 90.7595C357.246 89.6313 360.516 87.0053 360.516 85.3438C360.516 85.1217 360.516 84.6774 360.516 84.6774C360.516 84.6774 360.174 85.3311 360.174 85.6862C360.174 87.9846 359.829 91.2926 359.829 94.1206C359.829 100.049 361.556 106.649 362.858 112.325C364.048 117.511 366.513 122.458 367.246 127.818C369.451 143.938 365.727 160.136 360.174 175.04C359.349 177.254 357.19 178.992 355.786 180.779C352.207 185.334 349.25 190.47 346.693 195.604C344.908 199.187 344.355 203.329 342.304 206.73C341.439 208.165 341.638 206.431 341.638 206.401"
            fill="#f95209" fill-opacity="0" fill-rule="nonzero" opacity="1" stroke="#000000" stroke-linecap="round"
            stroke-linejoin="round" stroke-width="3" />
        <path
            d="M330.156 157.844C329.893 158.245 329.524 159.183 328.823 159.183C328.033 159.183 330.053 158.158 330.498 157.505C331.619 155.86 333.01 154.371 334.22 152.774C337.618 148.288 340.701 143.859 343.316 138.616C345.444 134.348 345.447 129.569 347.356 125.126C351.65 115.139 356.616 104.924 359.829 94.787"
            fill="#f95209" fill-opacity="0" fill-rule="nonzero" opacity="1" stroke="#000000" stroke-linecap="round"
            stroke-linejoin="round" stroke-width="3" />
        <path
            d="M339.594 144.7C342.226 139.457 348.037 137.163 353.099 135.257C355.638 134.301 358.036 131.88 360.838 131.88"
            fill="#f95209" fill-opacity="0" fill-rule="nonzero" opacity="1" stroke="#000000" stroke-linecap="round"
            stroke-linejoin="round" stroke-width="3" />
        <path d="M347.014 131.211C348.718 128.705 356.452 122.113 356.452 119.076" fill="#f95209" fill-opacity="0"
            fill-rule="nonzero" opacity="1" stroke="#000000" stroke-linecap="round" stroke-linejoin="round"
            stroke-width="3" />
        <path
            d="M185.855 157.844C192.169 148.286 204.734 135.257 217.204 135.257C221.906 135.257 227.471 134.335 232.041 133.234C233.385 132.911 235.048 132.547 236.427 132.547C236.869 132.547 238.541 132.223 237.784 132.223"
            fill="#f95209" fill-opacity="0" fill-rule="nonzero" opacity="1" stroke="#000000" stroke-linecap="round"
            stroke-linejoin="round" stroke-width="3" />
        <path
            d="M238.795 130.869C239.076 131.158 239.862 131.88 239.459 131.88C236.566 131.88 231.9 122.997 231.378 120.411C230.743 117.27 231.168 114.947 232.386 111.98C232.883 110.771 234.407 108.621 234.407 108.621C234.407 108.621 234.083 110.686 234.407 111.637C234.732 112.592 238.585 118.932 239.804 117.722C240.325 117.206 239.325 114.449 239.459 113.66C239.835 111.454 240.409 107.824 241.824 105.929C247.219 98.7079 254.18 94.8819 262.405 92.0976C264.409 91.4189 266.802 91.4728 268.811 90.7595C269.477 90.5228 277.159 88.9656 277.242 89.0473C277.506 89.3072 276.032 90.2076 275.886 90.4013C274.192 92.6478 271.182 94.9034 268.811 96.4702C265.24 98.8289 262.067 102.105 259.691 105.587C258.783 106.918 257.958 108.667 257.007 109.633C256.722 109.923 256.317 110.642 256.317 110.642C256.317 110.642 258.067 108.996 259.028 108.279C260.853 106.915 262.649 106.444 264.746 105.929C266.965 105.384 276.006 104.825 278.251 105.587C280.103 106.215 281.672 107.61 283.625 107.61C283.879 107.61 284.315 107.936 284.315 107.936C284.315 107.936 283.62 108.116 283.303 108.279C282.003 108.947 280.58 109.64 279.263 110.302C276.253 111.812 273.629 113.008 270.831 114.672C270.13 115.088 265.755 116.17 265.755 117.053C265.755 117.39 266.434 117.109 266.767 117.053C268.216 116.808 269.011 116.384 270.489 116.384C273.825 116.384 276.903 117.124 279.263 119.403C279.523 119.654 275.875 121.875 275.541 122.095C274.273 122.93 269.132 128.093 269.132 129.531"
            fill="#f95209" fill-opacity="0" fill-rule="nonzero" opacity="1" stroke="#000000" stroke-linecap="round"
            stroke-linejoin="round" stroke-width="3" />
        <path
            d="M270.489 130.869C269.266 130.474 269.831 130.542 268.811 130.542C268.561 130.542 269.3 130.376 269.477 130.2C269.562 130.115 270.357 130.2 270.489 130.2C271.471 130.2 272.101 129.531 273.173 129.531C276.081 129.531 278.593 129.674 281.283 130.542C285.966 132.054 291.518 134.417 296.44 135.257C300.107 135.883 303.608 136.331 306.889 137.949C308.592 138.789 316.675 140.514 316.675 142.677"
            fill="#f95209" fill-opacity="0" fill-rule="nonzero" opacity="1" stroke="#000000" stroke-linecap="round"
            stroke-linejoin="round" stroke-width="3" />
        <path
            d="M331.165 160.194C331.165 160.194 332.644 163.524 333.211 165.251C334.215 168.305 335.596 171.285 336.907 174.352C340.75 183.339 343.316 191.177 343.316 200.988C343.316 203.272 343.586 205.42 342.649 207.415"
            fill="#f95209" fill-opacity="0" fill-rule="nonzero" opacity="1" stroke="#000000" stroke-linecap="round"
            stroke-linejoin="round" stroke-width="3" />
        <path
            d="M342.304 205.05C342.304 208.527 340.784 214.092 341.959 217.528C342.786 219.946 344.516 223.021 346 225.274C348.043 228.376 350.806 230.797 353.42 233.364C353.685 233.624 356.131 235.18 356.131 235.387C356.131 235.617 355.67 235.387 355.44 235.387C354.328 235.387 352.509 236.122 351.397 236.401C350.344 236.665 343.98 240.221 343.98 240.441C343.98 240.448 343.98 241.11 343.98 241.111C344.564 241.686 347.384 240.985 348.023 240.771C350.962 239.783 355.277 241.386 358.154 241.78C359.574 241.974 360.93 243.476 362.192 243.476C362.994 243.476 363.242 243.495 363.87 243.821C364.074 243.927 364.79 243.821 364.56 243.821C359.453 243.821 348.003 241.784 344.672 246.853C344.177 247.607 346.527 246.866 347.356 246.51C348.9 245.849 352.774 245.297 354.432 245.844C356.886 246.653 359.565 248.569 361.849 249.887C362.421 250.217 363 250.535 363.551 250.899C363.756 251.035 364.461 251.223 364.215 251.223C362.222 251.223 360.471 250.778 358.496 250.554C357.378 250.427 356.239 250.439 355.119 250.554C354.055 250.663 350.989 250.45 350.07 250.899C349.457 251.198 351.418 251.108 352.09 251.223C353.246 251.42 354.752 252.122 355.786 252.577C358.962 253.976 359.672 256.176 361.849 258.319C362.611 259.069 362.633 258.103 363.203 259.333C363.502 259.979 361.841 258.916 361.183 258.646C360.348 258.303 359.386 258.465 358.496 258.319C355.105 257.763 352.496 257.294 349.377 255.956C349.254 255.903 348.3 255.363 348.023 255.627C347.727 255.909 348.583 256.51 348.713 256.641C349.397 257.328 354.554 262.55 353.42 263.703C352.937 264.194 348.799 261.856 348.023 261.68C345.634 261.14 343.383 261.68 340.95 261.68"
            fill="#f95209" fill-opacity="0" fill-rule="nonzero" opacity="1" stroke="#000000" stroke-linecap="round"
            stroke-linejoin="round" stroke-width="3" />
        <path
            d="M171.365 261.011C175.086 261.011 162.255 265.717 162.246 265.726C162.075 265.896 165.744 268.482 166.31 268.776C167.696 269.497 169.638 269.197 171.02 270.112C173.665 271.862 176.699 272.863 179.447 274.5C181.468 275.705 182.926 277.301 185.189 278.201C190.577 280.344 196.472 280.908 202.047 282.265C203.242 282.557 204.424 283.722 205.743 283.943C215.247 285.542 225.034 287.527 234.407 288.658C240.496 289.393 246.592 290.719 252.619 291.69C254.591 292.008 257.344 292.506 259.349 292.019C264.07 290.874 269.291 290.88 273.865 289.327C284.03 285.877 295.358 282.966 305.88 281.251C310.154 280.555 314.082 279.277 318.374 277.861C320.277 277.233 321.773 275.838 323.747 275.169C325.657 274.523 329.271 273.695 330.498 272.477C331.877 271.109 339.093 268.145 340.95 267.762C342.03 267.54 343 267.758 343.658 267.404C344.341 267.037 348.713 265.538 348.713 264.712C348.713 264.597 348.483 264.712 348.368 264.712C347.458 264.712 346.816 264.571 346 264.372C343.801 263.837 341.573 263.332 339.594 262.02"
            fill="#f95209" fill-opacity="0" fill-rule="nonzero" opacity="1" stroke="#000000" stroke-linecap="round"
            stroke-linejoin="round" stroke-width="3" />
        <path
            d="M245.88 252.749C244.75 247.603 261.381 248.876 264.746 248.876C265.947 248.876 269.634 248.354 270.489 249.202C272.562 251.26 264.661 260.044 262.726 260.669C260.071 261.526 259.314 260.982 256.662 260.342C255.399 260.037 253.894 260.265 252.619 260.002C248.658 259.186 246.511 255.624 245.88 252.749Z"
            fill="#f95209" fill-opacity="0" fill-rule="nonzero" opacity="1" stroke="#000000" stroke-linecap="round"
            stroke-linejoin="round" stroke-width="3" />
        <path
            d="M257.329 267.093C257.665 266.751 258.008 265.717 258.337 266.066C259.21 266.989 256.418 269.218 255.996 269.785C253.941 272.543 248.66 276.424 244.856 274.5C242.555 273.336 239.869 272.697 237.439 271.468C234.014 269.736 231.148 267.489 227.656 265.726C226.501 265.143 225.526 262.365 223.96 262.365"
            fill="#f95209" fill-opacity="0" fill-rule="nonzero" opacity="1" stroke="#000000" stroke-linecap="round"
            stroke-linejoin="round" stroke-width="3" />
        <path
            d="M258.683 268.431C258.683 268.208 258.584 267.562 258.683 267.762C259.578 269.582 260.016 270.869 261.714 272.135C264.122 273.929 267.785 275.404 270.831 274.824C275.276 273.978 281.135 271.324 284.315 268.107C285.711 266.694 287.744 265.398 289.022 263.703C289.42 263.175 289.129 262.689 289.712 262.689"
            fill="#f95209" fill-opacity="0" fill-rule="nonzero" opacity="1" stroke="#000000" stroke-linecap="round"
            stroke-linejoin="round" stroke-width="3" />
        <path
            d="M190.244 246.51C190.244 242.974 187.036 238.866 186.2 235.387C184.854 229.778 184.448 224.155 183.49 218.536C182.641 213.558 183.687 207.871 184.844 203.351C185.897 199.235 186.288 191.722 190.586 189.522C195.709 186.9 202.43 194.14 206.09 196.618C209.398 198.858 214.294 205.682 216.537 209.093C219.465 213.545 225.479 218.254 229.01 221.897C231.27 224.23 232.527 228.269 234.407 231.017C235.948 233.269 238.499 234.995 240.149 236.741C240.366 236.97 241.598 236.842 241.824 237.067C244.92 240.139 246.681 229.889 247.569 227.297C247.901 226.331 247.569 224.296 247.569 223.251C247.569 222.915 247.569 222.243 247.569 222.243C247.569 222.243 247.425 222.948 247.569 223.251C247.982 224.118 248.947 225.641 249.59 226.286C251.386 228.089 256.603 232.223 259.349 231.341C260.961 230.823 263.539 229.287 264.425 227.966C265.014 227.089 266.1 225.274 266.1 225.274C266.1 225.274 266.479 227.755 266.767 228.975C267.287 231.186 268.206 232.496 269.132 234.378C269.527 235.18 270.866 235.136 271.497 236.056C275.011 241.172 275.308 236.741 277.906 236.741"
            fill="#f95209" fill-opacity="0" fill-rule="nonzero" opacity="1" stroke="#000000" stroke-linecap="round"
            stroke-linejoin="round" stroke-width="3" />
        <path
            d="M276.207 237.752C281.943 232.148 285.324 225.106 290.376 219.205C294.084 214.875 297.187 210.106 300.825 205.719C301.803 204.54 303.242 203.634 304.205 202.342C308.194 196.992 312.688 191.432 318.374 188.51C322.65 186.313 327.632 193.345 328.823 196.273C329.938 199.015 329.385 202.564 329.834 205.392C330.587 210.123 330.849 215.12 330.156 219.875C329.396 225.087 330.198 230.01 328.481 235.044C326.658 240.387 321.364 245.761 316.008 247.867C314.219 248.57 311.82 248.415 309.945 248.876C308.129 249.322 306.747 250.376 305.214 250.899C303.6 251.449 301.933 251.189 300.825 252.237"
            fill="#f95209" fill-opacity="0" fill-rule="nonzero" opacity="1" stroke="#000000" stroke-linecap="round"
            stroke-linejoin="round" stroke-width="3" />
        <path
            d="M288.701 247.867C291.524 245.021 296.704 244.907 300.483 244.161C308.412 242.595 317.559 241.224 321.405 233.709C325.618 225.477 324.437 215.659 324.437 206.401C324.437 204.489 324.824 197.627 323.081 197.627"
            fill="#f95209" fill-opacity="0" fill-rule="nonzero" opacity="1" stroke="#000000" stroke-linecap="round"
            stroke-linejoin="round" stroke-width="3" />
        <path d="M280.593 235.387C280.593 242.685 284.419 244.83 291.042 244.83" fill="#f95209" fill-opacity="0"
            fill-rule="nonzero" opacity="1" stroke="#000000" stroke-linecap="round" stroke-linejoin="round"
            stroke-width="3" />
        <path
            d="M289.873 232.867C287.593 232.554 289.516 229.929 290.031 228.29C291.398 223.939 298.05 220.292 301.17 216.155C303.822 212.64 304.636 208.605 305.88 204.689C306.042 204.178 306.921 201.663 307.9 201.997C312.748 203.651 312.631 208.906 312.631 213.463C312.631 214.584 312.791 216.695 311.965 217.528C311.227 218.271 310.539 219.949 309.602 220.886C308.096 222.393 305.253 222.869 303.857 224.266C300.485 227.638 294.771 233.54 289.873 232.867Z"
            fill="#f95209" fill-opacity="0" fill-rule="nonzero" opacity="1" stroke="#000000" stroke-linecap="round"
            stroke-linejoin="round" stroke-width="3" />
        <path
            d="M293.086 243.476C292.741 243.813 292.393 244.147 292.051 244.487C291.694 244.843 292.96 244.053 293.408 243.821C294.035 243.496 294.455 243.375 295.107 243.152C296.981 242.511 299.773 241.596 301.518 240.441C303.504 239.128 308.173 230.779 309.945 231.686C310.791 232.119 312.952 234.369 312.976 234.378C314.739 234.981 314.41 236.365 314.999 238.079"
            fill="#f95209" fill-opacity="0" fill-rule="nonzero" opacity="1" stroke="#000000" stroke-linecap="round"
            stroke-linejoin="round" stroke-width="3" />
        <path
            d="M190.244 196.273C190.244 198.317 191.013 200.586 190.586 202.684C189.381 208.609 189.899 215.085 189.899 221.228C189.899 224.429 189.488 228.063 190.244 231.017C190.727 232.906 192.833 236.672 194.284 238.079C197.466 241.164 201.177 239.776 205.079 241.111C206.771 241.689 208.631 242.365 210.476 242.807C212.298 243.243 215.223 242.645 216.885 243.476C224.691 247.379 232.732 243.732 232.732 234.033"
            fill="#f95209" fill-opacity="0" fill-rule="nonzero" opacity="1" stroke="#000000" stroke-linecap="round"
            stroke-linejoin="round" stroke-width="3" />
        <path
            d="M201.543 214.982C200.13 212.881 202.721 203.319 207.102 205.392C208.834 206.212 211.569 210.638 212.499 212.454C213.155 213.736 214.44 214.915 215.183 216.155C217.536 220.08 218.824 225.887 221.937 228.975C222.743 229.775 224.282 230.659 224.969 231.341C227.272 233.626 223.179 235.359 221.271 234.718C218.856 233.906 216.293 232.293 214.174 231.017C208.422 227.552 205.262 220.514 201.543 214.982Z"
            fill="#f95209" fill-opacity="0" fill-rule="nonzero" opacity="1" stroke="#000000" stroke-linecap="round"
            stroke-linejoin="round" stroke-width="3" />
        <path
            d="M196.995 239.757C196.995 236.936 202.262 230.457 205.424 232.026C207.78 233.194 211.9 238.146 210.476 241.111"
            fill="#f95209" fill-opacity="0" fill-rule="nonzero" opacity="1" stroke="#000000" stroke-linecap="round"
            stroke-linejoin="round" stroke-width="3" />
        <path
            d="M189.899 244.487C191.177 245.124 191.538 246.947 192.928 247.867C195.196 249.367 198.397 249.687 201.038 250.214C204.798 250.965 207.827 252.577 212.151 252.577C214.006 252.577 220.259 252.267 220.259 250.214"
            fill="#f95209" fill-opacity="0" fill-rule="nonzero" opacity="1" stroke="#000000" stroke-linecap="round"
            stroke-linejoin="round" stroke-width="3" />
        <path
            d="M207.766 287.989C208.103 287.761 208.832 286.901 208.777 287.304C208.517 289.202 206.827 291.252 205.743 292.718C204.517 294.375 204.035 297.21 203.38 299.113C201.069 305.832 198.67 312.781 195.983 319.338C195.258 321.108 194.334 322.469 193.939 324.395C191.76 335.028 190.552 345.712 193.273 356.431C193.782 358.438 196.994 366.886 198.325 368.237C199.404 369.332 202.368 371.973 202.368 373.621C202.368 375.136 199.763 376.55 198.67 378.009C196.61 380.76 191.721 390.675 192.928 394.204C193.289 395.26 200.231 392.914 201.36 392.165C201.512 392.064 203.024 390.07 203.38 390.811C205.529 395.286 206.353 394.208 210.476 391.48C210.773 391.284 211.041 390.943 211.488 391.153C212.34 391.555 212.915 393.151 213.853 392.834C214.333 392.671 215.597 390.859 216.195 391.153C216.908 391.504 216.899 392.498 217.549 392.834C219.148 393.66 222.628 393.222 223.612 392.165C225.449 390.191 223.377 382.876 223.96 380.014C224.659 376.582 224.969 369.591 224.969 369.591C224.969 369.591 228.762 357.687 232.386 354.063"
            fill="#f95209" fill-opacity="0" fill-rule="nonzero" opacity="1" stroke="#000000" stroke-linecap="round"
            stroke-linejoin="round" stroke-width="3" />
        <path
            d="M299.471 285.966C299.471 285.611 299.557 284.714 299.816 284.958C301.287 286.338 303.631 294.405 304.547 296.748C307.292 303.762 312.302 310.269 316.327 316.63C324.333 329.283 325.772 345.252 322.072 359.463C320.747 364.552 317.934 368.891 315.663 373.294C313.773 376.959 321.956 384.181 318.695 389.13C316.648 392.237 311.466 390.109 308.936 391.822C307.698 392.661 307.803 394.791 306.223 395.542C306.015 395.64 304.428 393.795 303.193 394.204C301.1 394.897 299.233 395.834 297.13 396.553C295.586 397.081 294.037 396.367 292.744 395.884C291.03 395.245 288.876 395.544 287.347 394.53C285.936 393.595 285.669 388.46 285.669 386.765C285.669 383.66 287.601 380.97 288.356 378.009C290.26 370.538 289.858 358.783 282.292 355.074"
            fill="#f95209" fill-opacity="0" fill-rule="nonzero" opacity="1" stroke="#000000" stroke-linecap="round"
            stroke-linejoin="round" stroke-width="3" />
        <path
            d="M225.635 293.387C225.996 292.857 226.549 291.554 226.989 292.019C227.304 292.353 224.314 295.055 224.302 295.07C222.285 297.759 220.252 300.449 218.215 303.159C212.071 311.335 207.216 317.061 212.151 327.087C212.811 328.428 214.163 331.576 215.528 332.5C217.834 334.061 221.46 335.67 223.294 337.884C227.473 342.931 232.093 347.706 235.763 353.051C237.836 356.069 239.661 359.451 241.824 362.155C243.149 363.81 242.999 366.233 243.847 367.879C243.909 367.998 245.011 365.289 245.201 364.847C246.221 362.481 246.213 360.36 246.213 357.785C246.213 356.544 246.213 354.063 246.213 354.063C246.213 354.063 246.377 355.212 246.555 355.762C247.159 357.617 247.71 358.792 248.578 360.471C250.113 363.442 251.745 366.791 253.285 369.92C253.861 371.089 253.191 375.137 253.975 375.986C254.405 376.451 254.908 375.123 255.306 374.63C256.313 373.381 257.505 371.924 258.337 370.586C261.317 365.799 263.209 358.768 267.112 355.074C267.493 354.713 267.722 355.243 267.775 355.401C268.536 357.649 268.306 360.328 267.457 362.494C267.299 362.896 267.243 363.468 267.112 363.851C267.004 364.165 266.875 365.08 267.112 364.847C270.303 361.704 272.889 357.269 275.541 353.72C277.908 350.552 282.618 346.891 285.99 344.635C290.394 341.69 298.879 329.219 299.816 323.726C300.665 318.753 298.264 313.491 296.121 309.228C294.849 306.697 294.361 303.668 293.086 301.136C292.075 299.127 289.441 295.512 288.01 294.056C286.984 293.011 285.131 292.57 284.315 291.35C283.094 289.526 282.67 288.772 281.283 287.304"
            fill="#f95209" fill-opacity="0" fill-rule="nonzero" opacity="1" stroke="#000000" stroke-linecap="round"
            stroke-linejoin="round" stroke-width="3" />
        <path
            d="M189.899 327.087C189.899 325.845 186.731 325.749 185.51 325.749C182.387 325.749 181.134 327.895 178.783 329.45C177.746 330.136 176.745 330.153 175.751 331.146C170.803 336.094 166.666 350.703 168.333 357.785C169.468 362.603 173.43 367.208 176.762 370.586C178.973 372.827 180.3 375.563 182.826 377.664C183.409 378.149 194.059 385.087 191.253 385.087"
            fill="#f95209" fill-opacity="0" fill-rule="nonzero" opacity="1" stroke="#000000" stroke-linecap="round"
            stroke-linejoin="round" stroke-width="3" />
        <path
            d="M321.405 327.087C321.975 325.275 325.581 326.073 327.469 326.073C332.404 326.073 338.59 329.297 340.95 333.838C342.065 335.984 344.153 338.408 344.672 340.916C345.386 344.362 344.873 348.302 345.681 351.697C345.976 352.936 346.3 354.473 346 355.762C344.314 363.007 336.607 368.894 331.165 373.294C328.035 375.825 324.887 378.61 321.405 380.717C320.565 381.226 320.083 382.737 319.04 382.737"
            fill="#f95209" fill-opacity="0" fill-rule="nonzero" opacity="1" stroke="#000000" stroke-linecap="round"
            stroke-linejoin="round" stroke-width="3" />
        <path
            d="M346 346.982C350.342 346.982 352.397 343.976 355.44 341.585C359.891 338.09 365.082 335.125 367.934 330.119C369.532 327.313 370.973 324.304 371.977 321.361C372.049 321.15 372.176 320.793 371.977 320.694C370.218 319.825 363.206 323.716 361.183 324.395C360.069 324.769 358.954 325.154 357.806 325.404C357.249 325.525 355.619 326.001 356.131 325.749C363.309 322.214 368.242 313.852 370.968 306.536C371.781 304.356 372.36 301.664 372.989 299.44C373.264 298.467 373.999 295.684 373.31 296.424C369.611 300.396 364.262 303.003 359.507 306.191C357.671 307.422 355.641 308.095 353.765 309.228C353.031 309.671 350.813 310.865 351.397 310.237C352.123 309.457 353.456 309.658 354.432 309.228C356.203 308.448 358.366 306.818 359.829 305.522C364.96 300.974 366.021 294.194 366.58 287.644C366.724 285.953 367.412 281.433 365.571 280.242C364.992 279.868 361.402 285.401 360.838 285.966C359.115 287.694 357.899 288.601 355.786 289.667C354.892 290.118 353.099 291.005 353.099 291.005C353.099 291.005 355.242 289.332 356.131 288.313C357.09 287.213 361.28 279.213 359.507 277.535C359.27 277.31 358.783 278.109 356.452 280.242C353.612 282.842 351.43 285.963 348.713 288.658C347.864 289.501 346.935 290.26 346 291.005C345.806 291.16 345.446 291.575 345.339 291.35C345.201 291.062 347.573 284.708 346.693 284.27C345.338 283.595 344.344 286.194 343.316 287.304C342.585 288.094 337.56 294.725 336.907 294.725C336.639 294.725 337.208 290.83 336.907 290.681C334.787 289.634 332.497 293.976 331.855 295.07C331.444 295.77 330.498 297.905 330.498 297.093C330.498 295.838 330.863 294.605 331.165 293.387C331.534 291.896 332.143 290.472 332.519 288.982C332.555 288.837 333.082 281.456 332.866 281.251C332.651 281.048 331.727 280.77 331.51 280.566C330.99 280.078 330.957 277.535 330.498 277.535"
            fill="#f95209" fill-opacity="0" fill-rule="nonzero" opacity="1" stroke="#000000" stroke-linecap="round"
            stroke-linejoin="round" stroke-width="3" />
        <path
            d="M191.368 191.769C191.368 197.762 191.643 204.046 190.475 209.775C190.236 210.951 190.838 212.422 190.475 213.562C189.787 215.723 189.815 220.374 190.475 222.458C191.075 224.349 189.978 226.76 190.475 228.685C190.942 230.492 194.99 239.83 196.929 238.023C198.482 236.576 199.965 234.046 201.821 232.247C203.196 230.913 205.601 231.359 206.713 230.247C207.693 229.267 204.099 223.906 203.591 222.899C200.968 217.701 198.155 210.555 203.151 205.559C207.099 201.611 210.658 207.546 212.709 210.668C213.262 211.509 214.228 212.092 214.709 213.121C214.975 213.691 215.619 215.685 216.269 216.004C217.389 216.556 218.913 213.485 218.496 212.679C217.734 211.209 216.82 210.065 215.602 208.896C212.136 205.572 210.322 200.81 206.273 197.783C205.237 197.009 203.517 196.197 202.714 195.341C202.328 194.93 201.841 194.01 201.154 193.545C198.994 192.083 195.286 191.685 193.595 189.994C192.973 189.371 191.084 190.504 190.703 190.887C189.616 191.978 189.887 197.783 191.808 197.783"
            fill="#0b0602" fill-rule="nonzero" opacity="1" stroke="#000000" stroke-linecap="round"
            stroke-linejoin="round" stroke-opacity="0" stroke-width="3" />
        <path
            d="M201.154 218.23C202.574 218.23 204.049 221.578 205.38 222.244C206.945 223.027 208.328 225.584 209.377 227.126C211.279 229.919 215.29 233.172 218.496 234.689C220.558 235.665 225.16 237.168 226.507 234.463C227.336 232.8 225.769 231.038 225.159 229.794C223.362 226.127 213.644 218.163 219.389 215.348C219.839 215.127 226.086 221.433 226.947 222.017C228.348 222.966 229.712 225.236 230.279 226.901C230.977 228.954 231.768 231.483 232.733 233.355C234.427 236.638 227.924 244.235 225.159 245.584C223.964 246.168 221.365 245.422 220.268 245.143C215.683 243.977 212.923 242.126 211.377 237.581C211.036 236.579 210.979 235.43 210.498 234.463C210.061 233.587 208.994 231.481 208.272 231.128C207.472 230.736 206.273 229.354 206.273 229.354C206.273 229.354 207.5 230.254 207.817 230.913C208.645 232.628 210.454 234.091 211.377 236.011C211.65 236.579 211.711 237.305 212.042 237.809C212.209 238.063 212.27 238.995 212.27 238.691C212.27 237.163 211.048 234.974 210.498 233.794C209.284 231.192 206.908 229.265 204.941 231.128C204.512 231.534 203.07 230.113 202.486 230.688C202.213 230.957 202.372 231.581 201.821 231.581"
            fill="#0b0602" fill-rule="nonzero" opacity="1" stroke="#000000" stroke-linecap="round"
            stroke-linejoin="round" stroke-opacity="0" stroke-width="3" />
        <path
            d="M216.935 213.789C216.495 213.856 216.04 213.715 215.602 213.789C215.125 213.87 218.544 218.708 218.935 218.898C219.14 218.998 219.304 219.493 219.6 219.34C221.262 218.479 219.142 214.823 218.723 214.014C218.615 213.805 218.728 213.314 218.496 213.348C217.961 213.426 217.469 213.707 216.935 213.789Z"
            fill="#0b0602" fill-rule="nonzero" opacity="1" stroke="#000000" stroke-linecap="round"
            stroke-linejoin="round" stroke-opacity="0" stroke-width="3" />
        <path
            d="M204.485 230.687C204.338 232.003 207.794 231.092 209.377 232.688C211.247 234.572 211.34 237.569 212.499 239.798C212.924 240.615 212.385 241.441 213.164 242.251C214.45 243.588 216.224 239.899 216.496 239.357C217.724 236.911 212.054 231.493 210.498 230.461C210.063 230.172 207.654 229.516 207.15 230.02C206.948 230.222 207.517 230.326 207.605 230.461C208.248 231.433 208.903 232.458 209.377 233.57C210.204 235.508 211.712 237.008 212.499 238.916C213.421 241.148 213.115 244.332 216.496 241.132C217.853 239.848 216.448 236.367 215.829 235.129C214.034 231.538 211.796 229.127 207.605 229.127C207.167 229.127 204.999 228.841 204.713 229.127C204.341 229.498 204.543 230.164 204.485 230.687Z"
            fill="#0b0602" fill-rule="nonzero" opacity="1" stroke="#000000" stroke-linecap="round"
            stroke-linejoin="round" stroke-opacity="0" stroke-width="3" />
        <path
            d="M303.155 204.835C304.438 205.074 303.451 212.425 302.979 213.342C301.415 216.374 298.94 218.607 296.68 220.73C294.786 222.508 291.601 223.447 290.759 225.922C290.266 227.371 287.875 229.664 288.921 231.843C290.05 234.193 292.603 234.802 294.842 233.686C295.454 233.381 295.737 231.935 296.68 231.467C298.217 230.705 300.126 230.245 301.493 228.872C303.538 226.82 307.181 222.155 309.63 224.454C311.262 225.987 307.94 232.25 307.414 233.308C305.005 238.144 297.879 242.004 293.732 244.045C292.525 244.639 289.768 245.98 288.161 245.155C285.31 243.69 283.083 241.076 281.134 239.231C279.643 237.82 282.531 233.109 283.001 232.201C285.198 227.957 289.264 224.447 291.49 219.996C292.201 218.574 293.928 217.737 294.463 216.67C295.992 213.624 298.977 210.524 300.384 207.797C301.124 206.362 302.847 204.778 303.155 204.835Z"
            fill="#0b0602" fill-rule="nonzero" opacity="1" stroke="#000000" stroke-linecap="round"
            stroke-linejoin="round" stroke-opacity="0" stroke-width="3" />
        <path
            d="M308.507 199.852C308.502 198.234 315.546 191.532 316.657 191.156C318.091 190.671 320.653 189.156 321.471 190.781C323.283 194.377 321.635 199.195 322.93 202.983C324.286 206.947 324.088 216.689 322.202 220.375C321.037 222.65 322.083 226.306 320.361 228.141C319.951 228.579 320.276 230.168 319.983 230.733C318.861 232.9 318.87 235.562 317.388 237.032C314.746 239.654 314.103 232.036 312.953 231.467C311.634 230.815 309.098 232.068 308.87 231.843C308.476 231.455 306.69 227.682 307.763 226.674C309.066 225.451 309.114 222.632 310.737 221.109C313.25 218.748 317.388 214.783 317.388 211.123C317.388 205.674 313.721 203.916 311.115 201.139C310.542 200.529 310.809 199.405 310.358 198.92C309.751 198.269 308.508 200.03 308.507 199.852Z"
            fill="#0b0602" fill-rule="nonzero" opacity="1" stroke="#000000" stroke-linecap="round"
            stroke-linejoin="round" stroke-opacity="0" stroke-width="3" />
        <path
            d="M304.816 203.359C307.886 198.711 310.907 201.683 313.334 204.093C313.904 204.658 314.022 206.977 314.441 207.797C315.768 210.39 314.065 215.675 314.065 218.155C314.065 219.05 313.776 222.027 315.551 221.109C320.408 218.593 321.232 202.402 316.657 200.033C315.535 199.452 312.186 195.642 310.737 197.08"
            fill="#0b0602" fill-rule="nonzero" opacity="1" stroke="#000000" stroke-linecap="round"
            stroke-linejoin="round" stroke-opacity="0" stroke-width="3" />
        <path
            d="M204.22 217.404C203.355 214.868 203.016 211.259 204.22 208.924C204.526 208.33 206.907 206.419 207.549 207.046C209.02 208.483 210.854 213.757 211.978 215.936C214.039 219.932 219.742 222.952 220.875 227.763C221.161 228.98 225.379 232.341 223.443 234.42C221.398 236.617 217.95 232.625 216.792 231.467C215.393 230.069 214.556 228.154 213.088 226.674C210.276 223.84 206.019 220.078 204.951 215.936C204.658 214.801 203.311 208.152 205.329 208.152"
            fill="#fddf19" fill-rule="nonzero" opacity="1" stroke="#000000" stroke-linecap="round"
            stroke-linejoin="round" stroke-opacity="0" stroke-width="3" />
        <path
            d="M291.327 229.991C290.674 230.195 289.933 230.167 289.274 229.982C289.006 229.907 289.796 229.78 290.028 229.627C290.464 229.337 290.767 228.884 291.138 228.514C292.049 227.605 292.701 226.225 293.732 225.188C296.351 222.556 299.403 220.113 301.493 217.049C302.177 216.047 303.299 215.3 303.71 214.096C304.566 211.586 306.792 202.12 310.737 204.093C313.088 205.268 312.447 209.151 312.953 211.123C314.185 215.919 312.691 218.767 309.252 222.215C308.191 223.278 306.253 224.215 304.816 225.188C303.032 226.397 301.733 228.336 300.002 229.627C297.601 231.417 295.316 232.059 292.626 232.935C290.267 233.703 293.978 229.161 291.327 229.991Z"
            fill="#fddf19" fill-rule="nonzero" opacity="1" stroke="#000000" stroke-linecap="round"
            stroke-linejoin="round" stroke-opacity="0" stroke-width="3" />
        <path
            d="M199.042 238.686C197.601 238.412 200.701 237.051 201.247 235.905C205.093 227.831 214.795 243.957 205.329 240.719C202.313 239.688 202.711 239.386 199.042 238.686Z"
            fill="#fddf19" fill-rule="nonzero" opacity="1" stroke="#000000" stroke-linecap="round"
            stroke-linejoin="round" stroke-opacity="0" stroke-width="3" />
        <path
            d="M300.384 242.938C301.401 241.384 303.279 240.064 304.438 238.873C305.627 237.651 306.356 235.886 307.414 234.793C309.374 232.768 313.215 236.824 314.065 238.5C314.639 239.63 310.77 241.042 310.358 241.45C310.079 241.727 310.737 241.817 310.737 242.204"
            fill="#fddf19" fill-rule="nonzero" opacity="1" stroke="#000000" stroke-linecap="round"
            stroke-linejoin="round" stroke-opacity="0" stroke-width="3" />
        <path d="M195.705 220.73C195.831 220.612 195.957 220.493 196.083 220.375" fill="#fddf19" fill-rule="nonzero"
            opacity="1" stroke="#000000" stroke-linecap="round" stroke-linejoin="round" stroke-opacity="0"
            stroke-width="3" />
        <path
            d="M224.424 383.922C232.951 389.71 243.574 386.955 253.331 388.29C258.218 388.958 264.556 389.539 269.417 388.552C274.668 387.485 280.356 388.607 284.149 385.017"
            fill="#f95209" fill-opacity="0" fill-rule="nonzero" opacity="1" stroke="#000000" stroke-linecap="round"
            stroke-linejoin="round" stroke-width="3" />
    </g>
</svg>