<svg xmlns="http://www.w3.org/2000/svg" xml:space="preserve" stroke-miterlimit="10" style="fill-rule:nonzero;clip-rule:evenodd;stroke-linecap:round;stroke-linejoin:round" viewBox="0 70 841.995 455.35"><g fill="none" stroke="currentColor"><path d="M144.215 207.196c-5.037 5.538 29.405 5.923 34.28 6.18 23.846 1.26 47.28 5.45 71.289 5.607 36.095.237 72.569 1.936 108.642 1.703 19.637-.127 39.699-2.725 59.262-1.267 11.341.845 53.693 9.915 54.133-9.878.231-10.394-13.276-14.927-21.376-16.965-22.997-5.785-47.437-6.709-71.012-8.176-61.631-3.834-124.953-5.646-186.503-.99-6.4.485-50.341-3.281-56.255 2.305-2.496 2.359-4.666 11.936-2.075 14.775.64.701 4.916 5.597 5.61 5.814 2.318.729 6.739-2.113 4.005.892"/><path d="M163.981 188.096c-3.502.509-6.505-.679-9.995 2.11-12.302 9.83 13.591 17.575 13.974 4.724.422-14.162-18.911-5.912-16.401.428 2.884 7.284 20.925 7.082 15.845-3.028-5.587-11.121-19.736 2.682-11.373 7.613 10.129 5.973 17.168-13.189 7.95-11.847m270.314 12.52c.192.087-2.459.179-3.235.564-2.344 1.165-7.617 3.93-5.157 7.399 4.475 6.309 21.427 4.398 18.601-5.249-2.691-9.189-26.089-7.784-23.553 2.111 2.414 9.424 23.685 2.157 20.647-5.134-3.633-8.72-25.81-5.013-20.799 5.769 2.528 5.44 20 9.696 23.274 3.869 2.574-4.582-2.712-9.955-3.914-14m-74.725-15.912-.278.481m-.051.178c-.929 2.178.35-4.735.229-7.1a601 601 0 0 1-.528-13.951c-.24-8.497-3.892-48.721 4.861-47.769 22.837 2.483 45.497 7.462 68.408 8.999 13.902.932 33.235-1.647 46.524 2.9.626.214.315 14.805.528 16.523.523 4.228 4.615 48.926 3.706 49.53-.613.406-3.214-.919-4.17-.766-1.391.224 2.916.764 4.22.232"/><path d="M484.764 187.303c1.042.427-8.004.788-9.628.904-2.911.208-18.136 3.219-19.383-.381M377.12 122c.121-4.107-4.24 5.544-2.705 7.338 3.173 3.71 9.449.934 13.141.493"/><path d="M388.934 125.819c2.687-1.747-4.834.77-1.479 4.088 2.48 2.454 8.709 3.765 10.487-.212 4.289-9.588-11.005-2.578-9.008-3.876"/><path d="M399.181 125.529c.429-2.082 3.285 6.867 6.519 6.762 1.769-.057-.158-5.797.987-6.56.06-.04.118.09.151.154 5.232 10.138 7.05 4.963 11.398-2.853m-211.999-15.003c-1.463-10.71 5.147 9.966 1.666 10.294-.857.081-.741-2.945-.631-3.364.227-.866 6.212-.836 7.708-3.105.391-.593 1.924-9.151.457-8.422-1.852.92 1.734 12.13 2.347 14.294m5.789-9.583v-.408l.051.052.101.204.151.281.278.664.202.561.177.637.152.739.1.816.076.789.025.738v.942l-.051.483-.05.331-.025.229.05-.178.076-.305.101-.406m.458-15.091-.329-.435-.151-.103-.101-.077-.127-.051h-.075l-.152.049-.101.101-.152.305-.101.279-.076.33-.025.356.076.332.075.153m15.855 15.528c-1.542-16.402-9.531-6.716-8.25-4.406.523.943 1.36 1.684 2.4 2.001 2.56.778 6.334-2.638 4.02-4.988-2.075-2.106.804 5.88 1.64 8.715 1.288 4.365 4.831 10.981 3.763 15.602-.892 3.862-8.981-3.916-9.324-6.093-.845-5.371 6.123-6.883 5.751-10.831m4.994-16.41c.034-.714 3.271 11.276 3.612 14.303.015.136.035.544.05.407 1.761-15.96 8.097 4.98 11.321 3.46m125.796 30.983c-.157-.791-.525 3.485-.557 4.197-.108 2.381.434 16.731.933 8.38"/><path d="M391.419 146.935c4.575.832-8.418 2.332-8.163 2.976m8.01 5.219c.252-.507-8.409-.364-8.289-.003m14.152 1.009-.127-.688-.075-.306-.101-.306-.152-.256-.101-.179-.051-.051-.075.025-.127.177-.101.28-.101.635v1.171l.05.688.05.713.102.713.151.994.151.586.152.536.101.408.126.408.051.102.025.051.076-.051.126-.228.127-.381.05-.254m-1.69-13.959-.051-.637.127.23.025.102.101.433.025.306.051.306.05.331.051.255.075.204m10.487 5.515c1.901.013-4.094 7.723-3.944 6.821"/><path d="M402.461 153.88c-1.303-2.634 3.227 6.282 6.165 6.302m10.136-9.428c.356.988 2.143 8.942 1.262 9.527-2.155 1.433 8.783-7.679 5.131-7.704-.093 0 1.382 6.51 1.49 6.348m2.578-1.409c2.454 1.076 6.795-5.367 5.409-5.997-4.349-1.976-2.153 7.519 2.576 8.951m7.658-2.597c-.677-1.225-2.542-7.842-5.432-3.981-.819 1.094.746 3.295 1.515 4.032 1.728 1.655 3.068-1.427 2.932-2.934-.091-1.011 1.477 3.772.985 2.883m9.351-3.044c2.954-10.383-14.226 5.284-2.199 3.244 5.177-.879 2.753-15.084 1.772-14.981-2.053.216-.491 16.363 5.759 14.699 2.258-.601 5.379-9.476 3.085-9.601-3.985-.218.203 12.284 6.594 8.035 2.207-1.467-4.059-7.663-1.414-7.823 9.064-.55-1.017 12.854 11.042 8.751M219.78 141.961c.302-.91.068-2.136-.64-2.818-3.461-3.335-8.068 17.086 1.361 10.62m1.309-3.89c-.472.116.253-1.104.682-1.231 4.042-1.195-1.809 11.328 5.096 4.934.57-.528 2.42-1.952 2.018-2.938-.105-.259-6.433 4.249.872 3.822m7.564-1.475c-2.47-6.298-7.162-1.768-4.77 1.246 1.458 1.837 3.595-1.241 3.857-2.611.103-.537 1.113 1.875.913 1.365m6.53-8.687c-.128-.228-3.518 10.006-1.623 9.2"/><path d="M245.185 146.149c.665-.771-4.477-.287-5.479-.42m6.678 2.117c2.433 1.066 5.896-4.454 4.798-4.623-4.285-.657-2.396 10.545 1.757 6.725a81 81 0 0 1 3.244-2.848m10.932-3.429c0-.278-1.714 4.926-1.078 5.25.758.387 2.278-4.662 3.667-4.012 1.065.499.295 5.629 1.021 5.018m2.713-1.644c1.653 1.676 5.106-3.263 3.994-4.037-1.515-1.054-4.546 5.918-.792 6.79 2.989.694 3.663-4.313 4.84-5.885.862-1.152-.57 5.094.613 4.273.59-.409.937-1.177 1.308-1.762 2.945-4.64.3 4.201 2.167 3.515 3.022-1.111 3.558-7.37 6.502-7.975m-53.758 20.117c4.268-4.27-7.907-1.233-.423 4.156 2.039 1.468 8.438-5.276 6.052-4.49-1.475.485-1.995 4.928-.341 5.433 3.397 1.039 6.176-3.679 4.58-6.476-1.263-2.214-6.671 2.344-5.793 4.56m7.088-3.797c.558-.687.337 4.878.708 5.674.771 1.658 1.453-3.923 3.203-4.454.185-.056.08 3.171.654 3.367 1.471.504 2.57-3.963 3.803-3.764.977.158-.164 5.523 1.485 4.842m2.85-6.982c1.415 2.504-1.22 10.375-1.625 12.989-.024.157-.103.625-.095.466.149-2.987.552-12.971 4.705-13.71 4.469-.796-2.728 5.585-1.759 4.779m5.806-2.666c-.035-3.118-.588-.945-.927.227-1.226 4.245 5.105 4.785 5.956.794.302-1.415-.007-3.545-1.88-3.417-1.879.129-3.133 3.767-3.149 2.396m6.761-1.301c.968-1.694-1.812 7.064-.288 5.846.962-.769 1.4-2.829 2.291-3.843 2.97-3.382 1.269 3.962 2.002 3.967m1.473-1.102c2.276 1.936 5.218-3.616 4.321-4.145-1.176-.694-5.949 9.277 2.711 4.973m2.509-4.486c0-.329-1.193 4.322-.737 5.706.52 1.578 1.897-3.9 3.517-3.533 1.335.303.145 5.014 1.035 3.974m6.708-12.407c.871-.33.439.341.245.935-1.118 3.429-.33 8.783.579 11.267"/><path d="M303.938 163.679c.193.055-3.638 1.08-5.057.324m77.574 193.522c-5.7 5.705 10.775 24.229 13.688 27.418 19.986 21.876 46.611 39.436 73.736 51.092 2.872 1.234 28.06 12.218 28.522 11.557"/><path d="M487.691 435.49c-1.987-1.67 10.57 12.927 10.148 17.583-.163 1.806-16.055-.268-16.286-.966M184.158 181.686c-.592-.675.867-36.065.665-39.757-.332-6.092-.78-45.623 2.422-49.634 3.394-4.252 30.326-2.098 35.446-2.504 21.637-1.716 42.48-.352 64.075-.482 11.766-.071 27.571-2.577 39.359-.525.484.085-1.222 15.437-1.234 16.491-.202 17.629 2.3 34.974.918 52.715a208 208 0 0 0-.627 16.105c-.001 2.714-.368 6.665-.136 6.422m-148.806 114.6c.459 24.547 9.029 53.438 12.842 78.903.329 2.195 3.159 23.712 4.259 23.857 23.288 3.073 48.897-.771 72.503-.616 5.129.033 61.275-4.768 62.762-6.755 2.613-3.489-.623-41.583-1.096-46.687-.754-8.136-1.363-16.254-2.447-24.357-5.042-37.661 2.341-34.236-34.522-35.291-6.188-.177-12.351.234-18.535.369-10.09.219-20.16.655-30.243 1.115-8.476.386-60.04-1.544-67.024 4.034-1.732 1.383 1.485 4.562 1.501 5.428"/><path d="M178.667 309.739c-2.667 1.57 13.108-1.611 15.221-1.925 10.155-1.507 20.757-.874 30.994-1.11 30.773-.711 63.113 2.102 93.423-1.77M187.97 293.402c.001-4.118 1.9 12.317 2.671 10.964"/><path d="M194.641 296.36c-2.007 1.504-5.245 1.444-7.798 2.375-1.157.421-4.704 1.369-3.601.822"/><path d="M191.395 292.935c1.929-2.903-6.821 12.136-4.84 9.269"/><path d="M193.956 298.959c2.222 4.772-9.587-3.654-9.587-3.4m19.706-1.629c-3.231 1.752-1.929 9.446 3.931 7.39 6.637-2.329 3.637-11.495-3.931-7.39m10.514 5.075c1.002-2.513-.576 5.39-.576 8.095"/><path d="M214.92 300.898c-.23-1.256.793-5.621 3.27-3.983 3.481 2.301-2.697 7.114-3.27 3.983m11.511-8.98c-4.816 3.392-3.69 14.638.639 9.215"/><path d="m226.96 298.285-.353-.158-.133-.112-.044-.023-.088-.045-.155-.046-.287-.09-.265-.069-.332-.047-.375-.047-.663-.071-.442-.002-.441-.003-.442.041-.442.086-.398.154-.508.308-.199.199m9.919.955-.133.088-.088.066-.088.088-.111.111-.199.243-.11.222-.111.266-.088.311-.089.356-.044.422-.066.778v.579l.022.578.044.512.044.468.044.356.066.312.022.045.067-.022.154-.177.199-.332m.686-8.184-.022-.133.022-.067.045-.089.044-.111.044-.133.111-.199.044-.111.088-.067.066-.021m4.396 2.676c1.323 1.532-1.152 4.661-.266 5.561.116.118 2.51-5.218 3.557-5.094 1.21.143 1.311 3.39 1.701 3.393 1.112.007 2.937-5.445 4.596-4.265 1.471 1.048-.306 4.576 1.965 3.551m3.853-3.594c.174-2.446-.265 6.675.744 4.395m.573-8.127-.149.112m4.892 2.796c-1.372-2.972 4.159-1.118 4.658-2.121.467-.937-.958 1.899-1.131 2.932-.218 1.306-.127 7.372-2.348 7.19-.724-.06-1.81-2.237-.968-2.571 1.762-.698 4.455 2.546 6.383.617"/><path d="M264.282 299.543c-1.338.74-3.391-.022-4.756.97m8.321-2.798c-.265-.002 1.319 10.262 2.048 5.042m-.123-7.844-.012.501m5.501 2.462c-.196-1.68-.689 6.476.247 5.068.769-1.157.921-2.867 1.442-4.156 2.705-6.695 3.548 4.152 4.954 2.846m10.011-4.65c4.748-3.794-13.767 1.867-3.702 5.23 3.9 1.303 3.893-7.011 3.826-6.755-.907 3.493 7.026 19.501 3.486 20.436-8.207 2.167-5.193-8.453 2.746-10.927m-107.226 12.758c-.73-.673 2.812 2.274 3.539 2.763.677.454 8.68 4.376 8.63 4.772-.045.366-11.062 10.269-8.409 8.95m13.177-1.152c-1.671-.685 3.605-.239 5.402-.415 3.118-.304 6.705.008 9.65-.9"/></g><g fill="none" stroke="currentColor"><path d="M538.935 415.787c-2.548.575 5.193-.588 7.79-.867 5.086-.546 10.054-1.931 15.102-2.726 6.214-.978 12.47-2.015 18.746-2.885m30.686-2.042c10.835.01 21.772-.196 32.745-.394m34.133-.342.258.002m7.999.091c13.903.245 27.73.966 41.349 2.623 6.152.748 15.433-1.416 20.949.33"/><path d="M668.714 386.467c-1.605-1.858-3.074-3.376-4.193-4.385a58 58 0 0 0-3.893-3.214m-63.691-3.736a43 43 0 0 0-6.315 5.769c-5.425 6.028-12.476 19.079-12.023 29.495m96.483-.454c-.62 3.002-1.221 5.543-1.463 6.387-3.894 13.58-17.302 30.461-33.443 29.427-3.579-.229-5.146-3.322-7.237-5.793-2.576-3.043-3.615-5.896-3.638-8.603m.112-1.667c1.166-8.205 11.051-15.093 14.174-21.986.177-.39.283-.842.337-1.328m-.001-1.862c-.19-2.225-.908-4.483-.79-4.779"/><path d="M666.616 434.751c36.948-18.357 2.328 39.527-4.131 47.701-9.278 11.742-69.414 5.302-85.979 5.715-5.188.129-21.46 4.079-25.551-.481a8 8 0 0 1-.535-.659"/><path d="M658.361 486.746c-2.301 1.144-7.009-14.317-8.218-16.518-5.438-9.898-14.388-28.992-23.627-35.256a28 28 0 0 0-1.626-1.021m-3.327-1.66q-.75-.318-1.519-.598m-.549-.195c-17.557-6.064-41.896 1.685-58.703 2.344-10.292.404-21.513-1.982-31.663-.617-31.485 4.234 16.85 56.346 17.296 53.321"/><path d="M653.551 476.283c-.212 1.488 1.003-1.515 1.155-1.897.839-2.105 1.911-4.085 2.797-6.161 2.201-5.156 6.9-12.335 6.026-18.204-.412-2.767-9.886-3.684-12.033-3.157-1.019.25-3.466 1.254-2.762.29"/><path d="M654.111 450.336c-.058-.463-5.254 10.929-5.426 14.718m-2.148-16.022c-.239-.098-.297.793-.317.91-.589 3.407-2.075 6.612-2.707 9.97"/><path d="M658.806 462.76c-.9-3.633-11.807-.355-14.354-.139m15.193-7.084c1.46-.935-3.918-.955-4.233-.963-1.287-.03-10.768-.526-11.457.165m-65.381-86.212c-.561.105 4.001 2.426 4.028 2.439 2.689 1.268 5.218 2.732 8.01 3.808 8.681 3.346 17.545 5.848 26.813 7.218 26.245 3.88 75.124.244 66.408-37.775-8.859-38.646-74.007-43.154-100.708-21.348-14.309 11.687-16.527 37.86.429 48.579"/><path d="M611.835 309.913c.725.004-3.314-3.541-3.523-3.696-2.698-1.993-5.357-4.022-8.142-5.904-6.918-4.677-20.159-19.108-29.263-12.992-10.655 7.157-8.368 28.005-5.709 38.315.944 3.664 2.065 7.272 3.248 10.87.231.704 1.724 5.182 1.969 4.903m98.424 44.34c-.013.033 6.136 9.765 6.471 11.536.58 3.079-1.824 13.198-.791 15.027m1.619-7.259c.186 1.12 11.34 2.256 13.201 2.402m-111.886 1.821c-1.065-2.869-.15 6.14.212 9.179.889 7.482 3.356 11.538 11.154 11.589 2.369.015 5.29 1.619 5.621.422m14.736-16.908c1.123.061 3.557-2.128 2.449-2.322-2.843-.497-9.819 15.695-9.819 19.557M621.8 307.556c1.725-1.726-3.013 3.864-4.195 5.999-2.332 4.211-2.839 9.721-.429 14.107m13.119-17.091c-.417-1.083-3.438 2.902-3.812 3.449-2.995 4.382-4.414 9.408-2.132 14.482m16.44-17.326c-6.849 1.488-6.016 16.41-3.815 20.368m-54.509 22.975c.202-1.62-3.914-2.269-4.811-2.433-13.406-2.445-26.188 1.569-37.538 8.418m38.303-.2c.595-1.893-9.529.724-10.519 1.132-6.582 2.712-8.321 9.837-7.987 16.31m109.781-17.424c2.481 1.89 7.935.493 10.751.906 8.411 1.235 15.225 5.215 20.97 11.352m-34.086-4.147c-1.371-.729 6.369 1.576 7.941 2.583 5.049 3.233 8.411 7.455 11.899 12.215m-51.388-35.9c-1.06-5.338 10.952-5.38 13.423-4.224 1.891.885 3.308 3.111 3.9 5.061.138.455.285 3.273.513 1.921m-36.137-4.755c.088.892-.959-1.528-1.571-2.183-1.309-1.4-2.887-2.665-4.813-3.015-2.477-.451-4.288.081-6.518 1.157-.628.303-2.061 1.211-2.031.979m22.669 18.223c.477.524.261.62.496.503.09-.045-1.957-1.64-2.609-.634-.537.827 1.981 1.031 2.496.566.615-.555-1.241-1.276-1.831-.629-1.301 1.43 4.678-.579.194-.609-.249-.001-.492.101-.7.231-1.367.855 1.564 1.267 2.018.422 1.256-2.342-5.382 2.03-.367.353.819-.274.59-.975-.079-1.288-.505-.237-1.832-.443-2.084.295-.523 1.527 3.431.34 2.011-.108-.216-.068-1.996-.385-1.905.216.09.59 2.28.594 2.36.682"/><path d="M624.669 360.864c-.206-.313-.926 1.918-.912 2.314.089 2.709.818 4.416 3.394 5.521 4.72 2.024 9.783-1.219 8.483-4.92m-11.95-1.969c.006-.019-.771 4.719-3.21 5.249-4.67 1.015-7.983-1.109-7.982-5.611m34.71-48.729c7.047-7.047 28.937-36.619 37.937-26.876 9.686 10.487 11.149 26.83 7.552 40.023-1.209 4.434-3.205 9.199-5.703 13.088-.905 1.409-4.72 5.88-2.92 4.517m-87.443-29.245c3.048-6.121-16.893-20.702-21.567-22.04-.47-.135-.597-.205-.787.271-.013.033-.089.429-.148.251"/><path d="M658.842 316.332c-.844.774 1.731-7.394 2.841-9.18 2.558-4.117 14.742-19.737 20.012-16.164m-177.648-60.577c4.035-.863 12.515-4.148 16.651-5.292 20.926-5.791 41.046-13.6 61.826-19.784 6.952-2.069 22.812-9.965 30.332-6.458 13.421 6.259 20.399 34.727 24.23 47.58.948 3.181 5.974 13.107 3.288 16.102-5.895 6.576-20.989 6.733-28.873 7.871-19.643 2.835-36.913 11.705-55.993 16.052-5.967 1.36-11.972 2.743-17.618 5.163-.726.311-4.826 3.054-5.654 2.771-12.641-4.327-21.334-34.04-26.256-45.41-1.841-4.249-6.726-10.649-5.896-15.65.208-1.256 2.655-2.665 3.963-2.945"/><path d="M530.841 229.683c-.462-2.336-1.502 9.259 1.806 9.774 2.809.438 6.989-10.865 5.487-11.884-.299-.204-.747 2.972-.749 3.128-.022 1.436-.134 6.665 1.676 7.238m2.105-4.783c-.732-1.295-.642-4.763 1.304-2.929 1.109 1.044 2.234-.726 3.266-.72 2.079.013-1.869 4.725-.427 6.224 2.076 2.159 4.454-.927 5.473-2.356m6.183-5.029c1.205.502 1.178-2.648-.955-1.826-1.705.656-3.999 6.207-1.563 7.074 3.599 1.281 3.704-7.313 3.124-5.777-1.708 4.524 8.117 14.394 5.263 17.518-3.565 3.903-7.491-1.85-5.2-5.623m4.881-11.616c.793 2.112 5.002-4.374 2.053-4.393-3.944-.026-2.539 7.492.515 7.764 2.831.252 4.702-2.357 5.215-4.802.165-.788.477-2.852-.193-2.406-1.79 1.189.497 8.378 1.173 6.338.325-.981.439-2.12.697-3.128 2.594-10.123 3.843 1.474 6.531.718m4.817-13.162c.045-.235-1.122 8.016.127 10.855.834 1.896 5.767.76 5.511-1.173"/><path d="M586.742 220.468c-.907-.371-5.656.739-5.847 1.794m12.16-12.608c.389-.569.142 1.698.206 2.212.339 2.685.698 5.442 1.548 8.017m.541 5.464.103-.156.078-.038h.038l.039.013.026.014.013.039-.052.103-.129.168-.026.221.245.301.207.144m-75.936 29.858c.371 1.494 1.978 8.214 4.323 7.385 2.4-.848 1.36-11.681 2.183-10.255m2.903 2.567c-1.053.788 1.406 4.878 1.652 3.586m-1.742-6.875.026 1.118m4.62 3.02c1.986 1.347 2.116-5.631-.077-4.226-2.845 1.825 1.853 8.515 4.969 2.958m-.051-4.368c2.768 8.402 2.439 1.756 3.937-1.249.844-1.692 1.721 6.115 3.058 4.778 1.983-1.983-.154-6.075 2.015-8.202m19.231.749c1.493.01 3.597-8.667 2.105-8.734-3.195-.145-3.044 9.755 3.845 8.643m4.35-5.535c.078-.936-.611-2.659-1.884-1.962-2.981 1.632-1.377 11.351 1.458 5.82 2.609-5.09.31 2.129 2.955-.683m1.602-8.14c-.665.498 2.98 12.861 4.349 7.568"/><path d="M585.719 239.856c-.314-1.456-4.905 1.262-4.905 2.529m6.273-1.61c2.174.89 2.495-5.37 1.253-5.244-1.375.14-2.424 11.562 4.413 4.722m2.401-3.715c2.073-4.507-8.85.377 3.471 3.402 3.17.779-.688 3.44-.646 3.324m3.256-14.317c.414.107 3.186 12.158 3.624 10.618"/><path d="M604.963 235.757c.063-.975-6.023 2.012-6.712 2.829m-62.913 34.596c.928.492-3.237-5.102-3.318 1.655-.045 3.771 4.065 5.014 6.982 3.27m6.965-5.635c-4.53-6.278-7.384 3.391-5.08 4.477 2.371 1.118 4.926-6.307 3.447-7.062-2.244-1.145 6.33 9.095 1.633 2.585m.963-9.029c-.69 3.809 4.424 15.283 6.826 6.948"/><path d="M551.201 267.358c-.832.484-5.24 2.023-5.24 2.774m21.568-5.527c-.841-4.246 1.537 6.055 1.689 6.056.086 0-.033-7.368 1.383-8.012 1.425-.648 1.047 5.281 2.154 4.174.8-.8-.024-7.213 2.028-6.876 1.784.292 1.404 5.938 2.348 4.851m1.795-1.938c2.074-.601 3.694-6.289 2.156-6.057-2.209.333-2.906 13.867 4.091 5.148m1.446-5.242c-.058-.117.232 7.112.915 7.117.657.004 1.076-6.447 1.925-7.332.482-.503 1.831 4.027 2.206 3.888 2.109-.783.958-5.769 2.841-6.494 1.741-.671 2.2 6.403 3.019 5.401m2.672-2.738c2.564-.135 3.823-6.66 1.434-6.152-2.222.472-.4 12.807 6.052 3.809m2.738-6.846c-.461-1.965-4.523 2.434-3.292 4.58.643 1.122 2.093.94 3.175.983 8.097.321 1.17 2.733-.13 5.55"/></g><g fill="none" stroke="currentColor"><path d="M332.809 360.725c-1.002-1.018 2.5-1.385 3.788-2.003 7.557-3.633 18.066.244 26.222-.65a19 19 0 0 0 1.87-.277c19.227-3.787 39.742-1.029 59.372-2.364 2.944-.201 14.788 2.775 16.803 1.099 2.392-1.99.795-22.056.867-24.884.586-22.999-3.359-41.947-9.24-63.89-1.091-4.071-1.385-11.69-3.976-14.97-3.079-3.898-20.315-4.191-24.664-4.41-24.433-1.23-53.866 2.513-77.998 6.515-5.739.952-21.052-3.182-25.743-.071-1.178.781.453 37.302 3.207 28.773"/><path d="M302.935 274.513c-1.303.337 10.435-1.221 13.351-1.24 10.121-.066 19.454 2.228 29.674 1.28 12.501-1.159 25.058 1.349 37.608 1.139 16.798-.281 33.919-4.11 50.696-2.976m-119.901-14.301c.894-3.892.12 15.338 1.994 11.812"/><path d="M320.946 264.525c2.57 3.038-15.743 2.316-11.785 1.898"/><path d="M318.671 261.088c.572 1.445-6.425 7.397-6.972 10.149"/><path d="M320.385 270.659c1.179 3.572-11.745-9.381-8.632-7.27m18.808-1.941c-1.054.449-1.401 7.946-.702 8.656"/><path d="M330.56 265.584c-.193-.612-.453-1.49-.087-2.143 4.248-7.577 2.58 10.068.087 2.143m6.743-3.421c-.115-.811-1.917 4.49 1.19 5.581 3.477 1.221 5.045-5.644 4.606-5.702-.571-.076-2.348 8.128.857 5.526m2.961-5.096c-2.702-2.057 2.817-2.004 2.101-.568-3.348 6.721-.196 5.202 3.396 5.225m1.227-3.925c.419-1.824 4.17-5.246 4.168-1.86-.001 1.828-3.618 4.496-1.77 6.903.66.858 4.017.714 4.956.72m2.382-4.094.438.091.228.001.245-.016.245-.033.263-.034.385-.05.245-.052.245-.033.245-.034.211-.034.28-.016.175-.016.193.001.28.02.402.02.246-.016m7.933-2.647c1.112-2.018-.184-6.058-.858-3.215-.718 3.033 2.414 11.453-.055 13.457-.779.632-2.709-.085-2.819-1.024"/><path d="m376.984 264.944-.07-.089-.193-.124-.157-.037-.333.016-.298.051-.315.068-.35.104-.368.086-.368.103-.525.12-.333.033-.298.034-.227.016-.105.017m8.055.123c2.139.201 3.293-4.765 1.507-4.417-4.104.8-2.307 9.854 4.114 7.875m6.323-6.467c-2.357-4.289-9.726 11.899 2.818 4.763m5.606-9.858c-1.186 2.512.01 11.455.015 11.447"/><path d="M402.989 264.038c-.587-.743-4.806-.565-5.726-.478m10.367-1.396c-.453 1.137-1.857 7.438-.754 5.78m1.035-9.853.788.605m5.655 4.005c-.513-.233-1.227 4.924-.579 5.799 1.341 1.811 1.137-5.654 3.381-5.851 2.701-.237 1.352 5.965 2.871 4.905m6.515-2.392c1.697-.416 1.493-5.567-.98-4.821-3.045.919-3.598 9.648 2.434 3.614 1.095-1.096.559 3.051.734 4.59.293 2.569.461 5.387-.036 7.937-.42 2.151-8.4.665-6.392 1.545m-99.365 18.082c-.821-2.073 4.62-6.514 4.099-8.615-.431-1.741-8.804-5.796-5.848-5.859m6.46 13.729c3.4.707 7.858-.602 11.172-.756M255.026 396.04c2.389 1.218 5.956 47.369 9.237 49.869s43.366 2.197 48.682 1.799c7.424-.555 15.045.789 22.467 1.064 4.599.171 9.237-.387 13.817-.738 4.124-.317 16.687.99 19.683-1.777 2.132-1.967-1.077-11.281-1.521-13.485-2.584-12.833-4.21-24.549-3.618-37.697.622-13.787 1.213-27.162-1.008-40.29"/><path d="M273.726 412.75c2.506-8.928-1.735.715 1.498 1.062 2.046.22 5.08-6.267 3.313-5.211-1.32.789 1.29 6.995 1.304 8.176.015 1.199-3.39 3.393-2.543 2.544m5.994-6.965c1.879-.903 3.725-5.33 1.293-3.549-4.889 3.578.042 6.259 4.012 4.553m5.21-6.237c.713-1.929-3.68.519-2.818 3.013.836 2.42 3.735-.523 4.797.834 1.63 2.086-3.066 2.777-3.396 3.356m-25.769-4.681c-1.813-.926 5.579 1.235 5.181 3.231-.35 1.752-4.913 5.149-3.891 3.685m7.311 6.803c-.325-1.478-.07 6.053-.069 4.54 0-1.614.863-5.388 3.23-5.032 1.188.179 1.755 3.947 2.157 3.544m3.045-3.621c-.4 1.081-1.107 7.736 3.278 4.382 5.026-3.844-1.962-7.929-3.278-4.382m-9.588 10.195c0-2.736 1.281 10.797.425 8.198m.447-5.645c-.314-.726.041-5.19 2.496-4.026 3.438 1.631-.518 8.594-2.496 4.026m11.222.108c-6.315-8.711-4.407.418-3.944.729 1.507 1.013 2.764-.613 3.024-1.988.397-2.102 3.057 4.206.92 1.259m2.09-4.271c2.047.93 5.203 10.977 4.123 1.162-.257-2.335 1.375 4.329 3.161 4.451 2.072.141 1.62-5.361 2.172-6.285m5.415.257c.992-1.741-.002-3.214-1.827-1.756-3.366 2.69 3.469 4.245 3.627 6.004.166 1.84-3.176 1.189-3.079 2.361m16.274-6.67c.172.02-.224 7.692 3.642 3.644 6.526-6.836-7.507-4.081-3.642-3.644m7.148-3.269c1.394 1.648.997 4.979 1.964 6.935.802 1.623 1.079-6.189 2.351-4.899 1.623 1.646.749 7.077 3.077 7.634m248.04 20.953c2.859 1.701-15.672-17.093-16.796 3.288-.545 9.887 18.042 16.466 25.449 12.786 8.604-4.277 12.648-23.744-.388-24.486-4.379-.249-9.11 7.91-8.265 8.412"/></g></svg>