<svg stroke-miterlimit="10" style="fill-rule:nonzero;clip-rule:evenodd;stroke-linecap:round;stroke-linejoin:round" viewBox="0 0 2388 1668" xml:space="preserve" xmlns="http://www.w3.org/2000/svg" xmlns:xlink="http://www.w3.org/1999/xlink"><g  stroke="#000" stroke-width="6"><path d="m793 451 2-1M798 449c-6.729 0-18.741 9.741-23 14-1.247 1.247-2.58 4.053-4 5-.555.37-1.445-.37-2 0-2.618 1.746-4.741 5.741-7 8-12.869 12.869-22.584 29.169-31 46-3.037 6.073-7.344 11.375-9 18-3.637 14.548-9.573 29.146-16 42-1.893 3.786-3.466 8.622-6 12-3.174 4.232-7.286 8.929-10 13-.974 1.46-1.351 4.351-3 6-4.881 4.881-11.266 10.398-15 16-5.519 8.278-3.218 23.127-1 32 2.217 8.868 8.678 10.259 15 15 4.125 3.093 7.806 8.204 12 11 1.625 1.083 5.858 1.929 8 3 16.421 8.21 36.117 10.471 54 6 5.323-1.331 11.074-5.537 16-8 2.142-1.071 6.376-1.917 8-3 .62-.413.38-1.587 1-2 5.104-3.402 17.384-7.768 20-13M749 701c0 3.631 2.63 6.753 6 9 1.109.74 2.891-.74 4 0 .62.413.38 1.587 1 2 2.671 1.781 6.647 2.162 10 3 3.996.999.015 1.008 4 3 2.666 1.333 7.045 2.261 10 3 2.824.706 5.176 3.294 8 4 5.718 1.43 12.289-.428 18 1 28.576 7.144 60.871-1.218 88-8 5.576-1.394 8.511-5.511 12-9 1.466-1.466 4.335-1.751 6-3 4.708-3.531 8.983-6.983 13-11 1.054-1.054 2.946-.946 4-2 4.934-4.934 8.066-11.066 13-16 6.364-6.364 12.069-10.802 19-16 1.695-1.271 3.521-4.014 5-5 .555-.37 1.445.37 2 0 3.022-2.014 4.238-5.119 8-7" fill="none"/><path d="M677 624c7.076 0 15.698-1.849 22-5 1.194-.597 6.776-2.224 8-1 3.596 3.596-1.245 12.491-3 16-2.413 4.827-7.949 10.794-9 15-2.154 8.616-4.464 19.732-13 24M795 439c.667.333 1.473 1.527 2 1 .527-.527-.819-1.277-1-2-1.02-4.08 0-9.774 0-14 0-11.053-.631-23.477 2-34 2.471-9.885 3.551-20.203 6-30 1.196-4.785 3.806-9.226 5-14 .64-2.558 2.529-4.038 4-6 4.069-5.425 5.926-12.568 10-18 3.566-4.755 7.458-8.277 11-13 4.89-6.52 8.318-14.636 12-22 .412-.824 2.206-5.735 3-6 1.107-.369 9.307 13.307 11 15 4.298 4.298 6.657 10.657 11 15 9.79 9.79 23 22.614 23 38" fill="none"/><path d="M977 268c-1.905 3.809-2.515 8.687-5 12-12.335 16.447-30.04 29.04-44 43-3.683 3.683-11.351 6.567-15 9-12.41 8.273-20.945 18.927-30 31-1.824 2.432-1.834 5.669-3 8-1.079 2.158-3.343 3.372-4 6-1.719 6.877-2.761 26.954-1 34 1.69 6.759 4.314 13.256 6 20 .88 3.521 2.639 5.597 4 9 3.421 8.552 3.749 18.498 8 27M970 506c-1.727-3.455-.837-5.653 0-9 1.281-5.125.692-10.769 2-16 .862-3.45 3.135-6.539 4-10 1.544-6.174 4.624-12.624 9-17 4.097-4.097 5.51-11.347 9-16 4.137-5.517 8.88-10.507 13-16 5.26-7.014 6.03-16.11 8-24 .73-2.908 0-6.989 0-10 0-15.761-4.25-25.505-11-39-2.1-4.203-2.53-7.526-6-11-3.411-3.411-5.904-11.617-7-16-.706-2.824-3.294-5.176-4-8-3.603-14.413-10-28.791-10-44" fill="none"/><path d="M916 480c0-6.819 2.74-15.041 1-22-1.718-6.87-2.817-13.9-4-21-1.168-7.008.716-15.138-1-22-3.385-13.539-2.147-33.706 4-46 1.893-3.786 3.466-8.622 6-12 2.505-3.34 6.799-4.599 10-7 8.364-6.273 18.585-11.293 28-16 4.207-2.103 8.812-7.624 11-12l3-6s-1 6.65-1 10c0 5.436-1.312 12.751 0 18 2.375 9.499 6.625 18.501 9 28 2.133 8.533 2.862 17.45 5 26 .958 3.831 0 9.014 0 13 0 21.644-7.791 33.722-20 50-.894 1.193-2.76 1.173-4 2-1.602 1.068-3.225 4.58-5 6-5.428 4.343-9.802 7.604-13 14M971 274c0-3.233 1.255-6.018 2-9 3.133-12.53-2.102-33.407-5-45-1.585-6.34-3.429-12.716-5-19-.12-.479-2.704-6-3-6-.667 0 0 1.333 0 2M979 278c0-16.814-.26-33.7 3-50 1.162-5.809 1.264-11.529 4-17M980 281c3.372-6.744 6.089-20.356 8-28 2.778-11.11 10.001-20.002 15-30M843 291c9.865-19.73 5.701-43.39 3-65-1.01-8.077-1.269-17.537-5-25M852 288c0-4.923 1.096-9.482 2-14 1.857-9.285-1.341-19.616 0-29 1.692-11.843 5.271-21.814 9-33M853 283c.667 0 1.657.572 2 0 1.414-2.357 1.131-5.392 2-8 2.349-7.048 4.602-14.01 6-21 2.941-14.704 15.635-24.271 22-37M860 729c-1.954 3.909-2.972 7.889-4 12-1.331 5.323-5.537 11.074-8 16-.811 1.623-1.726 4.726-3 6-6.433 6.433-10.332 16.332-17 23-11.713 11.713-25.561 22.64-43 27-3.529.882-6.471 4.118-10 5l-20 5c-7.484 1.871-16.952-2.524-24 1" fill="none"/><path d="M910 748c-5.855 11.71-12.988 21.988-22 31-2.5 2.5-3.5 6.5-6 9-14.234 14.234-30.135 30.568-49 40-15.034 7.517-32.446 11.861-49 16-8.17 2.043-15.837 5.959-24 8-22.61 5.653-47.153-1.569-70 3-2.356.471-4.686.422-7 1-2.646.662-5.552 2.776-8 4-1.229.615-4-.374-4 1 0 .745 1.587.38 2 1 .762 1.144.028 3.028 1 4 3.129 3.129 7.881 3.97 12 5 4.235 1.059 7.765 4.941 12 6 1.717.429 11.892.434 11 4-.187.748-16.454 13.969-18 15-.555.37-1.445-.37-2 0-3.091 2.061-3.492 7.492-6 10-.957.957-5.376 4.935-4 7 2.014 3.02 10.946.236 14 1 3.957.989 6.043 5.011 10 6 2.116.529 7-1.038 7 3 0 2.951-3.52 2.52-5 4-4.343 4.343-7.702 9.702-12 14-1.467 1.467-3.422 6.385-1 8 1.203.802 4.567-.358 6 0 8.229 2.057 13.771 2.057 22 0 6.625-1.656 23.008-7.008 28-12 10.308-10.308 23.701-19 39-19 7.773 0 14.716.179 22 2 7.993 1.998 16.989-.003 25 2 5.647 1.412 12.353-1.412 18 0 5.75 1.438 12.271-.432 18 1 5.965 1.491 12.022 2.505 18 4 7.282 1.82 15.719-.82 23 1 7.208 1.802 15.399 1 23 1h37c14.503 0 30.24 1.44 44-2 7.29-1.822 15.7.826 23-1 13.53-3.383 28.41-7.707 41-14 4.79-2.395 10.64-2.729 15-6 9.96-7.47 21.04-13.528 31-21 2.93-2.2 7.07-2.8 10-5 4.15-3.111 6.4-6.701 11-9M598 807c3.572-1.786 6.82-4.615 10-7 10.436-7.827 25.993-12.998 38-16 2.118-.529 3.882-2.471 6-3l24-6c7.374-1.844 18.13-1 26-1 9.703 0 15.017 11.978 9 20-3.005 4.007-6.042 7.056-9 11a51.275 51.275 0 0 1-10 10c-16.773 12.58-34.441 23.581-51 36-7.352 5.514-16.629 8.472-24 14-3.033 2.275-7.255 1.942-10 4-13.545 10.159-30.659 15.327-44 26-9.682 7.745-24.301 13.075-36 16-3.833.958-8.172.043-12 1-1.851.463-10.304 2.696-12 1-.943-.943.323-2.706 0-4-1.811-7.242 3.887-11.773 7-18 7.368-14.737 19.908-28.908 32-41 3.448-3.448 8.728-6.456 11-11" fill="none"/><path d="M561.5 742.5c.491.191.5-1.5.5-1.5v6c0 4.136 1.024 8.096 2 12 3.64 14.562 8.183 29.366 15 43 3.167 6.333 8.763 12.351 13 18 2.976 3.968 7.895 6.79 10 11 1.025 2.051 6.741 6.037 6 9-.575 2.3-12.659 4.659-15 7l-5 5c-1.054 1.054-.509 4-2 4-1.374 0-3.659-10.636-4-12-1.188-4.75-6.466-15.776-9-20-1.214-2.023-3.95-3.9-5-6-1.462-2.923-1.742-6.99-4-10-8.144-10.859-13.471-23.471-23-33-2.262-2.262-9.173-5.586-12-7-.555-.278-5.817-.634-6-1-.722-1.443 7.93-6.465 9-7 6.135-3.068 14.449-6.837 20-11 2.883-2.162 5.452-8.073 9.5-6.5ZM716 797c0 5.106 1.835 7.339 3 12 1.781 7.126 1.221 14.885 3 22 1.559 6.236 3 12.392 3 19M749 948c0-4.753-.461 7.845-1 10-1.921 7.683-.083 16.334-2 24-2.276 9.104-1.726 18.9-4 28-1.856 7.43-5.392 24.39-11 30-.527.53-1.587.38-2 1-.37.55.37 1.45 0 2-2.75 4.12-12.38 8.69-17 11M503 926c0-.423.596-4.298-2-3-1.5.75 2.598 5.196 3 6 3.425 6.85 7.898 13.796 11 20 3.35 6.7 8.525 13.033 13 19 5.022 6.696 8.846 14.128 14 21 2.378 3.17 9.631 8.262 11 11 .298.6-.37 1.45 0 2 .925 1.39 3 1.67 4 3 6.262 8.35 16.724 12.79 25 19 2.522 1.89 11.345 8.47 14 9 2.236.45 5.953-.02 8 1 20.616 10.31 46.062 15.27 69 21 3.451.86 7.549-.86 11 0 9.252 2.31 20.285 1 30 1M1009 441v30c0 10.77 2.44 21.76 5 32 2.18 8.738 2.85 17.696 7 26 6.51 13.012 12.64 26.737 20 39 2.06 3.438 5.36 6.364 8 9 2.98 2.983 4.43 8.574 7 12 2.95 3.937 7.02 10.015 11 13 1.19.894 2.95.946 4 2 2.18 2.176 3.82 5.824 6 8 4.77 4.773 10.94 8.592 15 14 4.97 6.621 10.25 13.247 16 19 8.19 8.195 19.55 13.911 29 21 6.17 4.626 13.84 7.379 20 12 5.75 4.315 13.86 9.216 21 11 6.81 1.702 14.19 4.517 20 8 2.63 1.576 5.26.631 8 2 21.73 10.864 43.65 18.191 65 31 5.54 3.327 11.95 5.213 17 9 6.47 4.856 14.56 7.169 21 12 3.37 2.525 5.46 6.348 9 9 17.32 12.992 33.88 29.471 45 48 2.59 4.311 7.19 7.78 10 12 4.26 6.386 6.07 14.443 10 21 2.09 3.491 5.51 7.265 7 11 .93 2.319 1.35 5.796 3 8 4.98 6.641 9.98 13.461 13 21 .92 2.295 1.08 5.705 2 8 4.21 10.523 11.26 21.042 14 32 2.75 11.012 5.79 21.956 8 33 2.51 12.527 7.9 24.619 11 37 .86 3.451-.86 7.549 0 11 1.36 5.46 1 11.22 1 17 0 16.02 1.07 32.67-2 48-1.17 5.87-5.57 12.14-8 17-1.53 3.06-2.75 7.87-4 11-2.62 6.55-7.88 12.51-12 18-2.4 3.2-3.27 6.27-6 9-1.47 1.47-1.75 4.33-3 6-3.61 4.82-6.75 10.75-11 15-6.39 6.39-12.37 13.5-18 21-3.8 5.06-9.22 8.95-13 14-5.45 7.27-14.74 11.98-20 19-3.17 4.23-8.28 8.28-12 12-1.05 1.05-1.11 2.81-2 4-4.69 6.25-8.61 12.22-12 19-2.49 4.99-7.57 10.28-9 16-2.02 8.1-4 16-6 24-1.11 4.44 1.17 8.42-4 11" fill="none"/><path d="M908 1285c8.854 4.43 25.296-.43 35 2 7.492 1.87 15.243 3.45 23 5 6.204 1.24 12.904.48 19 2 16.12 4.03 32.98 6 49 10 2.51.63 5.49-.63 8 0 5.9 1.47 12.1 1.52 18 3 3.14.78 6.86-.78 10 0 7.89 1.97 16.02.4 24 2 12.76 2.55 25.82 2 39 2 28.05 0 54.95-1.59 82-7 16.04-3.21 32.16-4.04 48-8 1.88-.47 4.12.47 6 0 12.84-3.21 25.46-6.46 35-16" fill="none"/><path d="M1082.46 1170.85c-19.28 9.64-42.18 5-62.81 9.12-6.83 1.37-14.41-1.14-21.277 0-15.608 2.6-32.055 1.18-47.613 5.07-9.54 2.38-18.714 5.69-28.366 8.1-3.334.84-6.764.45-10.13 1.01-9.99 1.67-19.516 5.64-29.378 8.11-3.45.86-9.42 2.33-12.157 5.06-5.67 5.67-11.597 11.6-17.222 17.23-2.276 2.27-.989 6.05-3.039 8.1-2.488 2.49-2.129 4.47-3.039 8.11-2.821 11.28-3.617 22.72 5.065 31.4 1.52 1.52 1.52 4.56 3.039 6.08 1.774 1.77 5.842 2.92 8.105 4.05 15.726 7.86 35.074 7.09 52.678 7.09" fill="none"/><path d="M892.003 1223.53c-4.372 2.19-7.825-3.18-12.157-4.05-9.594-1.92-16.349-.91-24.313 5.07-2.6 1.95-5.608 3.11-7.091 6.07M889.977 1254.94c-5.511 0-24.257-1.73-28.365 1.01-1.439.96-2.79 3.8-4.053 5.07-3.177 3.17-6.839 5.82-10.13 9.11" fill="none"/><path d="M850.468 1226.57c-3.957-6.16-12.817 8.41-15.196 13.17-.367.74-4.483 5.65-4.052 6.08.417.42 7.349-5.51 8.105-6.08 2.269-1.7 3.809-4.37 6.078-6.08 3.034-2.27 7.416-3.43 5.065-7.09ZM854.014 1263.04c-5.312 4.35-8.693 6.86-12.663 12.16-1.013 1.35-4.233 2.86-3.039 4.05.533.53 1.492-.48 2.026-1.01 4.287-4.29 9.089-9.52 13.169-14.18.249-.29.799-1.26.507-1.02ZM667.106 860.862c1.722 0 3.526-.243 5.066-1.013h-11.144c1.949.65 4.024 1.013 6.078 1.013ZM679.77 913.034c1.588-.706 3.664-1.042 4.558-2.532 1.548-2.581-11.861 3.503-9.117 4.052 1.57.314 3.095-.869 4.559-1.52ZM694.459 951.023c1.381-.172 5.444-1.013 4.052-1.013-2.723 0-5.463.353-8.104 1.013-1.311.328 2.711.168 4.052 0ZM1005.46 1179.97c-8.803-4.4-7.28-10.51-11.139-18.23-1.666-3.33-4.855-5.13-7.091-8.11-3.979-5.3-3.58-12.29-5.066-18.23-1.612-6.45-4.789-11.79-6.078-18.24-.421-2.1-2.359-4.03-3.039-6.07-1.241-3.73-1.117-7.51-2.026-11.15-.598-2.39-2.442-4.7-3.039-7.09-2.94-11.76-.673-24.63-3.039-36.47-1.07-5.35-2.857-10.4-2.027-16.21.704-4.93 2.883-9.5 4.053-14.18 3.518-14.07 7.669-30.006 15.195-42.549 15.918-26.529 42.176-46.247 70.916-57.744 18.78-7.514 37.02-13.393 56.73-16.209 6.83-.975 13.46 1.014 20.26 1.014 9.36 0 19.28-.804 28.36 1.013 13.05 2.609 26.03 10.208 38.5 15.195 3.3 1.318 6.84 1.721 10.13 3.039 2.42.969 3.76 2.891 6.08 4.053 10.66 5.328 20.24 11.385 29.38 18.234 5.24 3.93 11.97 6.195 17.22 10.131 3.42 2.565 4.27 7.308 7.09 10.13 4.76 4.76 10.04 7.642 14.18 13.17 2.38 3.175 2.32 7.238 6.08 9.118" fill="none"/><path d="M1166.54 677.501c-2.16-4.312-2.13-9.63-3.04-14.183-1.21-6.053-4.63-11.448-6.08-17.222-2.74-10.964-4.85-22.211-7.09-33.431-1.75-8.734-5.33-17.524-7.09-26.339-3.51-17.523-3.53-35.829-6.08-53.691-1.63-11.402 1.02-23.345 2.03-34.444.62-6.882-.35-15.486 1.01-22.287 2.01-10.06 3.77-21.031 5.07-31.405 2.15-17.278 5.31-34.816 10.13-51.665 1.42-4.995 4.36-9.461 6.07-14.183 5.3-14.554 9.26-29.656 16.21-43.561 6.6-13.195 10.68-27.442 17.22-40.522 2.71-5.411 7.1-10.135 10.13-15.195 3.28-5.457 5.8-11.677 9.12-17.222 1.11-1.854 3.09-3.131 4.05-5.065 9.03-18.061 20.94-36.024 33.44-52.679 4.09-5.456 6.86-11.879 11.14-17.222 13.56-16.95 26.28-33.373 41.53-48.626 1.07-1.068 2.99-.958 4.06-2.026 14.03-14.035 49.64-35.457 49.64-35.457s17.75-12.423 27.35-17.222c2.92-1.46 5.84-4.247 9.11-5.065 13.35-3.337 26.87-7.398 40.53-10.13 9.67-1.935 19.81-.113 29.38-2.026 9.15-1.83 18.93-1.013 28.36-1.013 4.05 0 9.16-.802 13.17 0 24.67 4.934 50.09 8.194 74.97 13.17 9.62 1.924 18.97 6.768 28.36 9.117 1.97.491 3.25 2.313 5.07 3.039 12 4.8 25.03 10.417 35.45 18.235 4.72 3.535 11.51 4.578 16.21 8.104 22.26 16.694 46.45 29.774 68.89 46.6 6.57 4.927 14.9 7.057 21.27 12.157 5.28 4.222 9.54 9.541 14.19 14.182 8.61 8.618 16.99 16.575 24.31 26.34 2.64 3.515 6.87 6.379 9.12 10.13 9.7 16.171 18.17 30.751 25.32 48.626 3.81 9.513 10.47 19.219 12.16 29.379 2.07 12.448 5.67 25.292 8.1 37.483.92 4.577.35 9.545 1.02 14.182 1.74 12.207 3.04 23.979 3.04 36.47 0 5.574 1.1 12.711 0 18.235-1.87 9.346-3.71 18.836-5.07 28.365-1.08 7.579-6.29 14.022-8.1 21.274-4.55 18.184-17.08 32.488-28.37 46.6-8.03 10.038-18.04 16.62-29.38 22.288-2.76 1.382-4.98 3.428-8.1 4.052-11.32 2.263-22.88 3.413-34.45 5.065-8.86 1.266-14.72 1.013-23.3 1.013-2.64 0-8.27.755-10.13-2.026-1.39-2.094 4.23-9.046 5.07-11.144 3.17-7.935 4.68-17.935 6.08-26.339 1.26-7.6-.08-15.675 1.01-23.3 1.75-12.237 4.11-27.016 2.03-39.509-1.64-9.792-5.41-19.097-9.12-28.365-2.11-5.264-5.03-12.12-9.12-16.209-4.66-4.662-7.91-9.895-12.16-15.196-5.69-7.12-14.9-12.697-22.28-18.235-10.34-7.754-23.72-9.256-35.46-13.169-26.86-8.952-71.35-19.823-94.21 3.039-1.39 1.392-3.53 1.809-5.07 3.039-5.4 4.324-9.69 9.395-13.17 15.196-4.46 7.436-6.03 16.042-8.1 24.313-1.88 7.526-5.6 14.806-7.09 22.287-.88 4.362-.38 8.74-1.02 13.17-1.67 11.703-1.1 23.85-3.04 35.456-1.34 8.096-2.68 19.987-1.01 28.366 4.68 23.38 12.63 44.507 23.3 65.848 4.02 8.034 9.72 15.486 14.18 23.3 3 5.248 4.14 11.044 7.1 16.209 7.58 13.269 15.51 26.658 26.34 37.482 8.87 8.876 18.31 16.776 28.36 24.314 6.31 4.735 14.13 7.251 20.26 12.156 8.92 7.137 17.19 15.426 26.34 22.287 7.85 5.888 14.41 12.379 21.27 19.248 1.81 1.803 4.4 2.824 6.08 5.065 11.09 14.783 23.49 27.933 34.45 42.548 4.85 6.472 5.55 16.178 9.11 23.3 7.08 14.162 9.73 28.978 15.2 43.562 9.24 24.651 16.12 50.232 21.27 75.978 1.9 9.506-.88 19.917 1.02 29.379 2.18 10.939 1.01 23.181 1.01 34.443 0 4.764.79 10.454 0 15.196-2.06 12.356-4.05 25.305-7.09 37.485-3 11.98-9.36 23.19-14.18 34.44-2.8 6.52-4.6 13.61-7.1 20.26-.85 2.28-2.79 3.99-4.05 6.08-1.1 1.83-1.07 4.17-2.02 6.08-3.93 7.86-8.25 15.47-12.16 23.3-6.42 12.84-17.13 23.49-24.31 35.46-4.59 7.64-13.1 13.09-19.25 19.24-12.46 12.46-25.42 22.87-39.51 33.43-11.43 8.57-32.09 17.42-45.59 21.28-7.93 2.26-16.6 3.18-24.31 6.08-20.35 7.63-42.36 13.14-63.82 16.21-5.77.82-11.47 3.09-17.22 4.05-5.97.99-12.28.02-18.24 1.01-18.02 3-38.43 3.3-56.73 1.01-11.04-1.38-20.14-7.72-30.39-11.14-9.13-3.04-17.34-8.14-26.34-11.14-3.11-1.04-7.8-1.42-9.12-4.06M765.879 587.339c1.073-8.55 1.491-17.108 3.545-25.326.715-2.86-.715-6.257 0-9.117 4.401-17.604 10.404-26.612 23.3-39.509 4.804-4.804 15.894-8.852 22.287-10.131 1.481-.296 2.588-1.66 4.053-2.026 5.939-1.485 12.295-1.554 18.234-3.039 4.149-1.037 8.018-3.017 12.157-4.052 5.549-1.387 11.68-.641 17.222-2.026 6.05-1.513 12.167-2.535 18.235-4.052.655-.164 1.548-.478 2.026 0 .111.111-2.026 11.376-2.026 13.169 0 11.596-.77 25.124-3.039 36.47-1.046 5.226-4.763 9.933-6.079 15.196-7.736 30.947-41.923 40.522-69.9 40.522-7.49 0-20.195.418-27.352-1.014-1.481-.296-2.587-1.659-4.053-2.026-3.266-.816-9.103.882-8.61-3.039Z" fill="none"/><path d="M775.503 536.687c0 12.09.205 21.081 3.039 32.417.496 1.985.339 4.392 2.026 6.079 5.758 5.758 12.206 11.193 18.235 17.221M817.038 505.282c3.844-1.922 27.579-3.824 30.391-1.013 15.589 15.59 32.968 41.447 21.274 64.835" fill="none"/><path d="M835.103 542.516c-2.219-.522-4.595-.596-6.658-1.567-.598-.281 1.324-9.993 1.567-10.966 1.928-7.712 6.551-18.43 16.45-16.45 3.085.617 10.955 3.111 12.533 6.266 2.574 5.149 1.793 17.456-3.133 21.15-6.282 4.712-13.669 3.235-20.759 1.567Z" fill="none"/><path d="M809.188 512.938c-1.349.04-2.763.221-4.25.593-5.674 1.419-15.511 9.115-18 14.094-3.25 6.498-.624 29.939 4.687 35.25 1.218 1.218 3.321 2.108 4.719 3.156 2.322 1.742 3.479 4.26 5.468 6.25 5.243 5.243 11.546 9.934 18.813 11.75 4.322 1.081 8.562-1.515 11.75-3.906 6.823-5.117 9.704-10.627 11.75-18.813.553-2.211-.553-4.819 0-7.031.9-3.599.897-6.599 0-10.187-.019-.078-.073-.142-.094-.219-6.521.127-13.294-1.598-14.031-5.281-.893-4.466-.063-8.255 1.625-11.656-.141-.146-.299-.325-.437-.469-6.296-6.579-12.562-13.818-22-13.531Zm-8.273 20.262c.604-.046 4.837 1.586 5.518 1.756 1.694.423 5.569 3.771 7.041 4.507 7.039 3.519-.795 14.309-4.599 17.162a7.77 7.77 0 0 1-4.719 1.563c-4.376 0-9.117.823-11.75-3.126-1.599-2.399-9.077-12.429-1.644-18.97.718-.632 5.928-2.57 10.153-2.892Z" fill-opacity=".996" fill-rule="evenodd"/></g></svg>