<?xml version="1.0" encoding="UTF-8" standalone="no"?>
<!DOCTYPE svg PUBLIC "-//W3C//DTD SVG 1.1//EN" "http://www.w3.org/Graphics/SVG/1.1/DTD/svg11.dtd"
endMode CDATA #IMPLIED >

<svg height="100%" stroke-miterlimit="10" style="fill-rule:nonzero;clip-rule:evenodd;stroke-linecap:round;stroke-linejoin:round;" version="1.1" viewBox="0 0 2388 1668" width="100%" xmlns="http://www.w3.org/2000/svg">
<defs/>
<g id="Layer-2">
<g opacity="0.691142">
<path d="M790.906 765.249C791.308 765.064 791.71 764.879 792.111 764.695" fill="none" fill-rule="evenodd" opacity="1" stroke="#000000" stroke-linecap="round" stroke-linejoin="round" stroke-width="6"/>
<path d="M793.918 764.142C789.871 764.127 782.623 769.547 780.052 771.918C779.299 772.613 778.49 774.179 777.634 774.705C777.3 774.91 776.766 774.495 776.431 774.7C774.852 775.67 773.566 777.899 772.202 779.157C764.432 786.323 758.55 795.414 753.449 804.805C751.608 808.194 749.005 811.148 747.993 814.848C745.772 822.973 742.167 831.121 738.271 838.292C737.124 840.405 736.166 843.105 734.634 844.988C732.716 847.347 730.231 849.963 728.589 852.233C728 853.048 727.766 854.663 726.771 855.581C723.824 858.299 719.971 861.369 717.711 864.493C714.373 869.108 715.721 877.414 717.035 882.38C718.347 887.342 722.23 888.134 726.021 890.798C728.495 892.536 730.697 895.401 733.213 896.974C734.187 897.583 736.731 898.065 738.017 898.668C747.874 903.294 759.715 904.601 770.482 902.14C773.686 901.408 777.156 899.069 780.124 897.703C781.415 897.109 783.963 896.645 784.943 896.043C785.317 895.814 785.175 895.157 785.549 894.928C788.626 893.037 796.023 890.623 797.608 887.704" fill="none" fill-rule="evenodd" opacity="1" stroke="#000000" stroke-linecap="round" stroke-linejoin="round" stroke-width="6"/>
<path d="M763.854 904.912C763.845 906.941 765.42 908.693 767.442 909.956C768.107 910.372 769.182 909.549 769.847 909.965C770.219 910.197 770.072 910.852 770.444 911.085C772.046 912.086 774.437 912.308 776.452 912.784C778.853 913.351 776.458 913.347 778.85 914.47C780.451 915.221 783.082 915.749 784.858 916.169C786.554 916.569 787.964 918.022 789.66 918.422C793.096 919.234 797.052 918.21 800.484 919.021C817.655 923.077 837.098 918.473 853.431 914.741C856.788 913.974 858.563 911.678 860.67 909.736C861.555 908.92 863.281 908.766 864.285 908.072C867.125 906.108 869.705 904.187 872.13 901.951C872.767 901.364 873.904 901.428 874.541 900.842C877.52 898.094 879.418 894.673 882.397 891.925C886.24 888.382 889.682 885.913 893.863 883.022C894.885 882.315 895.99 880.786 896.882 880.238C897.216 880.033 897.75 880.448 898.084 880.243C899.907 879.123 900.646 877.39 902.913 876.347" fill="none" fill-rule="evenodd" opacity="1" stroke="#000000" stroke-linecap="round" stroke-linejoin="round" stroke-width="6"/>
<path d="M720.73 861.709C724.986 861.724 730.176 860.709 733.974 858.961C734.694 858.63 738.055 857.733 738.788 858.42C740.943 860.438 738.01 865.4 736.946 867.358C735.483 870.051 732.14 873.375 731.498 875.724C730.182 880.535 728.766 886.745 723.622 889.112" fill="none" fill-rule="evenodd" opacity="1" stroke="#000000" stroke-linecap="round" stroke-linejoin="round" stroke-width="6"/>
<path d="M792.137 758.545C792.537 758.733 793.02 759.402 793.338 759.109C793.656 758.815 792.848 758.393 792.741 757.988C792.137 755.705 792.764 752.524 792.774 750.162C792.8 743.983 792.45 737.036 794.057 731.159C795.566 725.639 796.24 719.873 797.736 714.401C798.467 711.729 800.047 709.252 800.776 706.586C801.167 705.157 802.307 704.334 803.196 703.24C805.656 700.216 806.79 696.227 809.253 693.199C811.409 690.549 813.758 688.588 815.9 685.956C818.856 682.322 820.937 677.792 823.169 673.684C823.419 673.224 824.509 670.482 824.987 670.336C825.654 670.132 830.554 677.795 831.568 678.745C834.143 681.158 835.547 684.718 838.149 687.155C844.014 692.649 851.929 699.847 851.893 708.449" fill="none" fill-rule="evenodd" opacity="1" stroke="#000000" stroke-linecap="round" stroke-linejoin="round" stroke-width="6"/>
<path d="M902.004 663.348C900.85 665.474 900.471 668.199 898.969 670.046C891.511 679.213 880.833 686.215 872.404 693.988C870.18 696.039 865.561 697.634 863.361 698.987C855.877 703.585 850.719 709.521 845.244 716.251C844.141 717.607 844.127 719.416 843.421 720.717C842.767 721.921 841.402 722.594 841.001 724.062C839.951 727.903 839.277 739.124 840.32 743.067C841.32 746.849 842.883 750.487 843.881 754.261C844.402 756.232 845.455 757.396 846.266 759.301C848.303 764.089 848.477 769.65 851.014 774.412" fill="none" fill-rule="evenodd" opacity="1" stroke="#000000" stroke-linecap="round" stroke-linejoin="round" stroke-width="6"/>
<path d="M897.234 796.383C896.204 794.448 896.744 793.221 897.256 791.352C898.038 788.49 897.697 785.333 898.496 782.412C899.023 780.485 900.397 778.763 900.925 776.83C901.868 773.382 903.736 769.783 906.378 767.346C908.852 765.065 909.719 761.015 911.829 758.421C914.331 755.346 917.195 752.567 919.686 749.505C922.866 745.596 923.349 740.512 924.554 736.106C924.998 734.482 924.57 732.199 924.577 730.515C924.614 721.705 922.08 716.248 918.053 708.689C916.799 706.335 916.552 704.476 914.47 702.527C912.427 700.612 910.946 696.019 910.298 693.567C909.88 691.987 908.329 690.666 907.911 689.086C905.777 681.021 901.964 672.969 902 664.466" fill="none" fill-rule="evenodd" opacity="1" stroke="#000000" stroke-linecap="round" stroke-linejoin="round" stroke-width="6"/>
<path d="M864.817 781.73C864.833 777.918 866.5 773.328 865.47 769.434C864.453 765.589 863.809 761.657 863.114 757.685C862.428 753.765 863.58 749.224 862.564 745.384C860.56 737.808 861.352 726.537 865.078 719.677C866.225 717.565 867.183 714.865 868.715 712.982C870.23 711.12 872.815 710.426 874.746 709.091C879.791 705.602 885.951 702.818 891.624 700.207C894.159 699.041 896.942 695.965 898.269 693.523C898.875 692.407 900.087 690.175 900.087 690.175C900.087 690.175 899.47 693.891 899.462 695.764C899.449 698.802 898.643 702.889 899.42 705.826C900.826 711.142 903.361 716.183 904.767 721.499C906.03 726.274 906.448 731.26 907.713 736.045C908.28 738.189 907.692 741.084 907.683 743.312C907.632 755.412 902.917 762.147 895.536 771.22C894.995 771.885 893.873 771.87 893.125 772.329C892.159 772.923 891.175 774.882 890.104 775.673C886.829 778.088 884.191 779.902 882.252 783.471" fill="none" fill-rule="evenodd" opacity="1" stroke="#000000" stroke-linecap="round" stroke-linejoin="round" stroke-width="6"/>
<path d="M898.381 666.689C898.389 664.882 899.15 663.328 899.606 661.662C901.519 654.665 898.42 642.982 896.704 636.495C895.766 632.947 894.672 629.379 893.742 625.862C893.671 625.594 892.129 622.502 891.951 622.502C891.55 622.5 891.948 623.247 891.947 623.62" fill="none" fill-rule="evenodd" opacity="1" stroke="#000000" stroke-linecap="round" stroke-linejoin="round" stroke-width="6"/>
<path d="M903.184 668.943C903.223 659.543 903.107 650.103 905.106 640.998C905.818 637.753 905.893 634.556 907.552 631.503" fill="none" fill-rule="evenodd" opacity="1" stroke="#000000" stroke-linecap="round" stroke-linejoin="round" stroke-width="6"/>
<path d="M903.778 670.622C905.822 666.86 907.488 659.256 908.656 654.987C910.352 648.782 914.718 643.827 917.748 638.249" fill="none" fill-rule="evenodd" opacity="1" stroke="#000000" stroke-linecap="round" stroke-linejoin="round" stroke-width="6"/>
<path d="M821.355 675.913C827.335 664.905 824.886 651.669 823.312 639.583C822.724 635.065 822.591 629.776 820.364 625.596" fill="none" fill-rule="evenodd" opacity="1" stroke="#000000" stroke-linecap="round" stroke-linejoin="round" stroke-width="6"/>
<path d="M826.775 674.256C826.787 671.504 827.457 668.957 828.011 666.434C829.15 661.247 827.251 655.465 828.079 650.222C829.125 643.605 831.301 638.038 833.57 631.793" fill="none" fill-rule="evenodd" opacity="1" stroke="#000000" stroke-linecap="round" stroke-linejoin="round" stroke-width="6"/>
<path d="M827.389 671.463C827.389 671.463 828.384 671.786 828.591 671.467C829.448 670.153 829.284 668.455 829.813 666.999C831.243 663.064 832.614 659.177 833.471 655.273C835.275 647.059 842.932 641.739 846.79 634.636" fill="none" fill-rule="evenodd" opacity="1" stroke="#000000" stroke-linecap="round" stroke-linejoin="round" stroke-width="6"/>
<path d="M830.55 920.807C829.365 922.988 828.744 925.211 828.116 927.507C827.303 930.48 824.759 933.686 823.266 936.434C822.775 937.339 822.217 939.072 821.448 939.781C817.563 943.364 815.195 948.889 811.169 952.602C804.097 959.124 795.742 965.203 785.243 967.602C783.118 968.088 781.342 969.89 779.217 970.375C775.201 971.293 771.188 972.21 767.176 973.127C762.67 974.156 756.986 971.679 752.739 973.633" fill="none" fill-rule="evenodd" opacity="1" stroke="#000000" stroke-linecap="round" stroke-linejoin="round" stroke-width="6"/>
<path d="M860.578 931.538C857.029 938.072 852.715 943.802 847.273 948.82C845.763 950.212 845.153 952.446 843.643 953.838C835.048 961.764 825.446 970.861 814.078 976.092C805.018 980.262 794.535 982.652 784.569 984.93C779.65 986.054 775.029 988.227 770.115 989.35C756.503 992.46 741.758 988.369 728.006 990.874C726.588 991.132 725.186 991.099 723.793 991.417C722.2 991.782 720.448 992.957 718.972 993.636C718.232 993.977 716.567 993.418 716.564 994.186C716.562 994.603 717.518 994.402 717.765 994.75C718.221 995.391 717.775 996.443 718.357 996.988C720.231 998.744 723.087 999.225 725.562 999.81C728.107 1000.41 730.221 1002.59 732.766 1003.19C733.797 1003.43 739.917 1003.46 739.372 1005.45C739.258 1005.87 729.443 1013.22 728.511 1013.8C728.176 1014 727.643 1013.59 727.308 1013.79C725.444 1014.94 725.19 1017.97 723.676 1019.37C723.098 1019.9 720.431 1022.12 721.254 1023.27C722.458 1024.97 727.836 1023.43 729.672 1023.86C732.049 1024.43 733.294 1026.68 735.672 1027.24C736.944 1027.54 739.885 1026.67 739.875 1028.93C739.868 1030.58 737.752 1030.33 736.858 1031.16C734.236 1033.58 732.203 1036.56 729.608 1038.96C728.722 1039.77 727.535 1042.52 728.988 1043.43C729.709 1043.88 731.735 1043.24 732.596 1043.44C737.541 1044.61 740.874 1044.62 745.829 1043.49C749.817 1042.58 759.683 1039.62 762.697 1036.84C768.922 1031.1 776.998 1026.27 786.199 1026.3C790.874 1026.32 795.05 1026.44 799.426 1027.47C804.229 1028.61 809.644 1027.51 814.458 1028.64C817.851 1029.45 821.891 1027.88 825.284 1028.68C828.739 1029.5 832.666 1028.47 836.108 1029.28C839.692 1030.13 843.333 1030.71 846.925 1031.56C851.3 1032.59 856.381 1031.13 860.756 1032.17C865.087 1033.19 870.015 1032.76 874.587 1032.78C882.005 1032.8 889.423 1032.83 896.841 1032.86C905.564 1032.89 915.025 1033.73 923.31 1031.83C927.697 1030.83 932.748 1032.33 937.145 1031.33C945.291 1029.46 954.253 1027.08 961.838 1023.59C964.725 1022.26 968.243 1022.09 970.874 1020.27C976.882 1016.11 983.559 1012.75 989.569 1008.6C991.338 1007.37 993.825 1007.05 995.595 1005.82C998.097 1004.09 999.461 1002.09 1002.23 1000.82" fill="none" fill-rule="evenodd" opacity="1" stroke="#000000" stroke-linecap="round" stroke-linejoin="round" stroke-width="6"/>
<path d="M672.785 963.839C674.938 962.848 676.898 961.274 678.816 959.948C685.111 955.595 694.48 952.738 701.709 951.086C702.984 950.795 704.05 949.713 705.325 949.422C710.138 948.322 714.954 947.222 719.774 946.12C724.213 945.106 730.681 945.601 735.414 945.618C741.25 945.639 744.418 952.347 740.78 956.819C738.963 959.052 737.13 960.75 735.341 962.948C733.727 964.933 731.612 966.92 729.303 968.517C719.185 975.513 708.533 981.624 698.544 988.53C694.109 991.597 688.522 993.23 684.076 996.304C682.246 997.57 679.708 997.374 678.052 998.519C669.881 1004.17 659.576 1007.02 651.527 1012.96C645.686 1017.27 636.88 1020.21 629.837 1021.82C627.529 1022.35 624.922 1021.83 622.617 1022.36C621.503 1022.61 616.413 1023.84 615.397 1022.89C614.832 1022.36 615.598 1021.38 615.407 1020.65C614.335 1016.6 617.772 1014.08 619.659 1010.61C624.126 1002.38 631.701 994.488 639.002 987.755C641.084 985.835 644.267 984.165 645.644 981.63" fill="none" fill-rule="evenodd" opacity="1" stroke="#000000" stroke-linecap="round" stroke-linejoin="round" stroke-width="6"/>
<path d="M650.984 927.702C651.279 927.809 651.288 926.864 651.288 926.864C651.288 926.864 651.278 929.1 651.274 930.218C651.264 932.53 651.87 934.746 652.448 936.931C654.604 945.079 657.301 953.366 661.369 961.002C663.259 964.55 666.611 967.926 669.146 971.093C670.926 973.318 673.878 974.906 675.134 977.265C675.746 978.413 679.174 980.654 678.722 982.309C678.371 983.593 671.097 984.886 669.684 986.189C668.754 987.047 667.594 988.116 666.665 988.974C666.028 989.561 666.349 991.209 665.452 991.205C664.626 991.202 663.277 985.252 663.075 984.488C662.372 981.83 659.223 975.655 657.709 973.288C656.983 972.155 655.342 971.099 654.715 969.923C653.843 968.285 653.684 966.012 652.333 964.324C647.46 958.235 644.286 951.173 638.577 945.825C637.222 944.556 633.073 942.682 631.376 941.886C631.043 941.729 627.879 941.519 627.77 941.314C627.339 940.505 632.554 937.717 633.199 937.42C636.897 935.719 641.906 933.63 645.254 931.314C646.993 930.112 648.552 926.813 650.984 927.702Z" fill="none" fill-rule="evenodd" opacity="1" stroke="#000000" stroke-linecap="round" stroke-linejoin="round" stroke-width="6"/>
<path d="M743.78 958.507C743.768 961.361 744.866 962.613 745.556 965.222C746.611 969.209 746.256 973.545 747.309 977.527C748.232 981.016 749.084 984.461 749.069 988.155" fill="none" fill-rule="evenodd" opacity="1" stroke="#000000" stroke-linecap="round" stroke-linejoin="round" stroke-width="6"/>
<path d="M763.273 1042.99C763.284 1040.34 762.977 1047.38 762.648 1048.58C761.475 1052.87 762.559 1057.71 761.389 1061.99C759.998 1067.08 760.306 1072.56 758.917 1077.64C757.783 1081.78 755.616 1091.26 752.23 1094.38C751.912 1094.68 751.275 1094.59 751.025 1094.94C750.801 1095.25 751.244 1095.75 751.021 1096.06C749.357 1098.36 743.554 1100.89 740.77 1102.17" fill="none" fill-rule="evenodd" opacity="1" stroke="#000000" stroke-linecap="round" stroke-linejoin="round" stroke-width="6"/>
<path d="M615.367 1030.16C615.368 1029.92 615.736 1027.75 614.171 1028.47C613.267 1028.89 615.721 1031.39 615.961 1031.84C618.005 1035.67 620.679 1039.57 622.53 1043.04C624.529 1046.79 627.627 1050.34 630.304 1053.69C633.309 1057.44 635.592 1061.61 638.675 1065.46C640.098 1067.24 644.449 1070.1 645.265 1071.63C645.443 1071.97 645.04 1072.44 645.261 1072.75C645.814 1073.53 647.061 1073.69 647.66 1074.44C651.406 1079.12 657.688 1081.63 662.651 1085.11C664.163 1086.18 669.455 1089.87 671.05 1090.18C672.394 1090.43 674.631 1090.18 675.86 1090.75C688.235 1096.56 703.528 1099.39 717.311 1102.64C719.384 1103.13 721.853 1102.18 723.927 1102.67C729.486 1103.98 736.125 1103.27 741.968 1103.29" fill="none" fill-rule="evenodd" opacity="1" stroke="#000000" stroke-linecap="round" stroke-linejoin="round" stroke-width="6"/>
<path d="M920.844 760.131C920.857 756.934 920.824 764.961 920.82 765.721C920.805 769.448 920.789 773.175 920.773 776.902C920.748 782.923 922.19 789.072 923.705 794.802C924.999 799.692 925.377 804.701 927.854 809.352C931.737 816.641 935.395 824.327 939.792 831.198C941.024 833.125 943.003 834.768 944.582 836.247C946.37 837.922 947.227 841.05 948.764 842.971C950.531 845.178 952.963 848.585 955.35 850.262C956.065 850.765 957.119 850.798 957.751 851.389C959.055 852.61 960.037 854.653 961.341 855.875C964.2 858.553 967.903 860.702 970.33 863.734C973.301 867.446 976.462 871.162 979.908 874.39C984.818 878.989 991.633 882.21 997.301 886.194C1001 888.793 1005.61 890.349 1009.3 892.946C1012.75 895.371 1017.62 898.128 1021.91 899.141C1026 900.107 1030.43 901.697 1033.92 903.657C1035.49 904.544 1037.08 904.021 1038.72 904.793C1051.77 910.914 1064.94 915.057 1077.75 922.265C1081.07 924.137 1084.92 925.205 1087.95 927.333C1091.83 930.062 1096.69 931.373 1100.55 934.087C1102.57 935.507 1103.82 937.648 1105.94 939.138C1116.33 946.439 1126.25 955.688 1132.9 966.07C1134.44 968.486 1137.2 970.435 1138.88 972.801C1141.43 976.38 1142.5 980.888 1144.85 984.562C1146.1 986.518 1148.14 988.636 1149.03 990.727C1149.58 992.025 1149.83 993.97 1150.82 995.206C1153.8 998.929 1156.79 1002.75 1158.59 1006.97C1159.13 1008.26 1159.22 1010.17 1159.77 1011.45C1162.28 1017.34 1166.49 1023.24 1168.12 1029.37C1169.75 1035.53 1171.55 1041.66 1172.85 1047.84C1174.33 1054.84 1177.55 1061.62 1179.38 1068.54C1179.89 1070.48 1178.84 1072.76 1179.35 1074.69C1180.16 1077.75 1179.93 1080.97 1179.91 1084.2C1179.88 1093.15 1180.48 1102.46 1178.6 1111.03C1177.88 1114.31 1175.22 1117.81 1173.75 1120.51C1172.82 1122.22 1172.08 1124.91 1171.32 1126.66C1169.72 1130.31 1166.54 1133.63 1164.06 1136.69C1162.61 1138.47 1162.07 1140.19 1160.43 1141.71C1159.54 1142.53 1159.36 1144.13 1158.61 1145.06C1156.42 1147.74 1154.52 1151.05 1151.96 1153.42C1148.1 1156.98 1144.48 1160.94 1141.08 1165.12C1138.78 1167.94 1135.52 1170.11 1133.23 1172.92C1129.93 1176.97 1124.34 1179.58 1121.15 1183.5C1119.24 1185.85 1116.16 1188.11 1113.91 1190.18C1113.27 1190.76 1113.24 1191.74 1112.7 1192.41C1109.86 1195.89 1107.49 1199.22 1105.43 1203C1103.92 1205.79 1100.86 1208.73 1099.98 1211.93C1098.75 1216.45 1097.54 1220.86 1096.32 1225.33C1095.64 1227.81 1097 1230.04 1093.89 1231.47" fill="none" fill-rule="evenodd" opacity="1" stroke="#000000" stroke-linecap="round" stroke-linejoin="round" stroke-width="6"/>
<path d="M858.112 1231.73C863.426 1234.23 873.328 1231.55 879.158 1232.93C883.659 1233.99 888.318 1234.89 892.98 1235.77C896.709 1236.48 900.74 1236.07 904.403 1236.93C914.089 1239.22 924.225 1240.36 933.851 1242.63C935.359 1242.99 937.154 1242.29 938.662 1242.65C942.205 1243.49 945.935 1243.53 949.481 1244.37C951.366 1244.81 953.611 1243.94 955.496 1244.39C960.235 1245.51 965.128 1244.65 969.926 1245.56C977.596 1247.01 985.453 1246.73 993.378 1246.76C1010.25 1246.82 1026.43 1245.99 1042.71 1243.03C1052.37 1241.27 1062.07 1240.84 1071.6 1238.66C1072.74 1238.4 1074.08 1238.93 1075.21 1238.67C1082.94 1236.91 1090.54 1235.12 1096.3 1229.81" fill="none" fill-rule="evenodd" opacity="1" stroke="#000000" stroke-linecap="round" stroke-linejoin="round" stroke-width="6"/>
<path d="M963.308 1168.31C951.694 1173.65 937.929 1171 925.51 1173.26C921.403 1174.01 916.848 1172.59 912.714 1173.22C903.321 1174.64 893.432 1173.81 884.065 1175.95C878.322 1177.26 872.796 1179.09 866.986 1180.41C864.978 1180.87 862.916 1180.65 860.89 1180.96C854.878 1181.87 849.139 1184.07 843.201 1185.43C841.124 1185.9 837.531 1186.71 835.878 1188.23C832.454 1191.39 828.875 1194.69 825.479 1197.82C824.104 1199.09 824.87 1201.2 823.632 1202.34C822.13 1203.73 822.341 1204.84 821.785 1206.87C820.062 1213.17 819.556 1219.56 824.758 1224.44C825.668 1225.29 825.661 1226.99 826.571 1227.84C827.634 1228.84 830.078 1229.49 831.436 1230.12C840.876 1234.55 852.515 1234.16 863.103 1234.2" fill="none" fill-rule="evenodd" opacity="1" stroke="#000000" stroke-linecap="round" stroke-linejoin="round" stroke-width="6"/>
<path d="M848.635 1197.34C846 1198.55 843.936 1195.54 841.333 1195.05C835.567 1193.95 831.501 1194.5 826.698 1197.82C825.129 1198.91 823.317 1199.55 822.418 1201.21" fill="none" fill-rule="evenodd" opacity="1" stroke="#000000" stroke-linecap="round" stroke-linejoin="round" stroke-width="6"/>
<path d="M847.342 1214.89C844.028 1214.88 832.757 1213.87 830.28 1215.39C829.412 1215.93 828.593 1217.51 827.83 1218.22C825.912 1219.99 823.703 1221.46 821.716 1223.29" fill="none" fill-rule="evenodd" opacity="1" stroke="#000000" stroke-linecap="round" stroke-linejoin="round" stroke-width="6"/>
<path d="M823.646 1198.95C821.281 1195.49 815.918 1203.62 814.476 1206.28C814.253 1206.68 811.766 1209.42 812.024 1209.66C812.274 1209.9 816.458 1206.6 816.913 1206.28C818.282 1205.34 819.214 1203.85 820.583 1202.9C822.413 1201.63 825.052 1201 823.646 1198.95Z" fill="none" fill-rule="evenodd" opacity="1" stroke="#000000" stroke-linecap="round" stroke-linejoin="round" stroke-width="6"/>
<path d="M825.693 1219.34C822.488 1221.76 820.449 1223.16 818.048 1226.11C817.436 1226.86 815.496 1227.7 816.211 1228.37C816.531 1228.67 817.109 1228.1 817.432 1227.81C820.02 1225.42 822.921 1222.5 825.386 1219.91C825.536 1219.75 825.869 1219.21 825.693 1219.34Z" fill="none" fill-rule="evenodd" opacity="1" stroke="#000000" stroke-linecap="round" stroke-linejoin="round" stroke-width="6"/>
<path d="M714.223 994.101C715.258 994.105 716.343 993.973 717.272 993.546C717.272 993.546 715.429 993.539 713.616 993.532C713.277 993.531 710.569 993.521 710.569 993.521C711.74 993.889 712.987 994.096 714.223 994.101Z" fill="none" fill-rule="evenodd" opacity="1" stroke="#000000" stroke-linecap="round" stroke-linejoin="round" stroke-width="6"/>
<path d="M721.716 1023.29C722.673 1022.9 723.923 1022.72 724.464 1021.89C725.401 1020.45 717.322 1023.82 718.971 1024.13C719.915 1024.31 720.834 1023.65 721.716 1023.29Z" fill="none" fill-rule="evenodd" opacity="1" stroke="#000000" stroke-linecap="round" stroke-linejoin="round" stroke-width="6"/>
<path d="M730.462 1044.56C731.293 1044.47 733.739 1044.01 732.901 1044.01C731.264 1044 729.615 1044.19 728.025 1044.55C727.236 1044.74 729.655 1044.65 730.462 1044.56Z" fill="none" fill-rule="evenodd" opacity="1" stroke="#000000" stroke-linecap="round" stroke-linejoin="round" stroke-width="6"/>
<path d="M916.979 1173.23C911.692 1170.75 912.623 1167.34 910.32 1163.02C909.326 1161.15 907.412 1160.14 906.074 1158.47C903.693 1155.5 903.95 1151.59 903.07 1148.26C902.116 1144.66 900.217 1141.66 899.457 1138.06C899.209 1136.88 898.048 1135.79 897.644 1134.65C896.906 1132.57 896.989 1130.45 896.451 1128.42C896.098 1127.08 894.994 1125.78 894.64 1124.45C892.9 1117.87 894.294 1110.67 892.898 1104.05C892.267 1101.06 891.205 1098.23 891.717 1094.99C892.152 1092.23 893.474 1089.68 894.188 1087.07C896.337 1079.21 898.872 1070.31 903.428 1063.32C913.064 1048.52 928.901 1037.55 946.215 1031.19C957.531 1027.03 968.514 1023.78 980.374 1022.25C984.482 1021.72 988.469 1022.85 992.558 1022.86C998.186 1022.88 1004.16 1022.46 1009.62 1023.49C1017.46 1024.98 1025.25 1029.26 1032.73 1032.07C1034.71 1032.81 1036.84 1033.05 1038.82 1033.79C1040.27 1034.34 1041.07 1035.42 1042.47 1036.07C1048.86 1039.07 1054.62 1042.48 1060.09 1046.33C1063.23 1048.54 1067.28 1049.82 1070.43 1052.03C1072.48 1053.47 1072.98 1056.12 1074.67 1057.71C1077.52 1060.38 1080.69 1062 1083.17 1065.1C1084.59 1066.88 1084.55 1069.15 1086.8 1070.21" fill="none" fill-rule="evenodd" opacity="1" stroke="#000000" stroke-linecap="round" stroke-linejoin="round" stroke-width="6"/>
<path d="M1015.04 892.687C1013.75 890.273 1013.78 887.299 1013.25 884.752C1012.53 881.366 1010.49 878.342 1009.63 875.111C1008.01 868.976 1006.77 862.684 1005.44 856.407C1004.41 851.52 1002.28 846.598 1001.24 841.667C999.174 831.863 999.204 821.629 997.711 811.638C996.759 805.261 998.378 798.59 999.011 792.387C999.403 788.542 998.839 783.73 999.673 779.93C1000.91 774.311 1001.99 768.182 1002.79 762.385C1004.13 752.731 1006.07 742.933 1009.01 733.525C1009.88 730.735 1011.65 728.245 1012.7 725.609C1015.91 717.485 1018.33 709.051 1022.55 701.293C1026.55 693.93 1029.04 685.975 1033 678.677C1034.64 675.658 1037.29 673.027 1039.13 670.205C1041.11 667.161 1042.64 663.69 1044.65 660.597C1045.33 659.563 1046.52 658.853 1047.1 657.774C1052.58 647.698 1059.78 637.681 1067.33 628.398C1069.81 625.357 1071.49 621.772 1074.08 618.795C1082.27 609.349 1089.96 600.196 1099.17 591.702C1099.82 591.107 1100.97 591.173 1101.62 590.578C1110.09 582.763 1131.55 570.865 1131.55 570.865C1131.55 570.865 1142.26 563.959 1148.05 561.297C1149.81 560.487 1151.57 558.936 1153.54 558.486C1161.58 556.65 1169.72 554.408 1177.94 552.911C1183.76 551.851 1189.85 552.891 1195.61 551.843C1201.12 550.839 1207.01 551.318 1212.68 551.338C1215.11 551.347 1218.19 550.91 1220.6 551.367C1235.42 554.18 1250.7 556.058 1265.65 558.893C1271.44 559.99 1277.05 562.719 1282.69 564.052C1283.87 564.331 1284.64 565.352 1285.73 565.762C1292.94 568.472 1300.76 571.641 1307.01 576.034C1309.84 578.02 1313.93 578.618 1316.74 580.6C1330.09 589.981 1344.61 597.346 1358.07 606.801C1362.01 609.57 1367.01 610.779 1370.83 613.644C1374 616.016 1376.55 618.999 1379.33 621.604C1384.49 626.44 1389.51 630.906 1393.89 636.381C1395.47 638.352 1398.01 639.962 1399.35 642.064C1405.15 651.125 1410.21 659.295 1414.47 669.304C1416.74 674.63 1420.72 680.07 1421.71 685.754C1422.93 692.717 1425.06 699.905 1426.5 706.725C1427.04 709.286 1426.69 712.062 1427.08 714.656C1428.1 721.484 1428.85 728.068 1428.82 735.051C1428.8 738.167 1429.45 742.159 1428.77 745.245C1427.63 750.465 1426.5 755.766 1425.66 761.091C1424.99 765.325 1421.84 768.916 1420.74 772.966C1417.96 783.121 1410.39 791.09 1403.57 798.955C1398.71 804.549 1392.68 808.206 1385.84 811.35C1384.18 812.117 1382.84 813.256 1380.96 813.598C1374.15 814.838 1367.19 815.456 1360.23 816.354C1354.9 817.042 1351.38 816.888 1346.22 816.869C1344.63 816.864 1341.24 817.273 1340.13 815.715C1339.29 814.541 1342.69 810.667 1343.2 809.496C1345.13 805.067 1346.06 799.48 1346.92 794.785C1347.7 790.539 1346.91 786.022 1347.58 781.761C1348.66 774.924 1350.12 766.668 1348.89 759.679C1347.94 754.201 1345.69 748.991 1343.48 743.802C1342.22 740.854 1340.48 737.016 1338.03 734.721C1335.24 732.104 1333.29 729.172 1330.76 726.199C1327.35 722.206 1321.82 719.068 1317.39 715.957C1311.19 711.599 1303.15 710.73 1296.1 708.517C1279.97 703.454 1253.23 697.279 1239.43 710.01C1238.59 710.785 1237.3 711.013 1236.37 711.698C1233.11 714.103 1230.52 716.928 1228.42 720.164C1225.72 724.311 1224.75 729.119 1223.48 733.738C1222.34 737.941 1220.08 742.003 1219.17 746.182C1218.63 748.618 1218.92 751.067 1218.53 753.542C1217.49 760.081 1217.81 766.872 1216.62 773.357C1215.79 777.879 1214.95 784.524 1215.94 789.212C1218.7 802.292 1223.43 814.12 1229.8 826.074C1232.2 830.574 1235.61 834.753 1238.27 839.13C1240.07 842.071 1240.74 845.314 1242.5 848.207C1247.03 855.642 1251.77 863.144 1258.25 869.219C1263.57 874.2 1269.23 878.637 1275.26 882.873C1279.04 885.534 1283.74 886.957 1287.42 889.713C1292.76 893.722 1297.72 898.374 1303.21 902.23C1307.91 905.538 1311.84 909.181 1315.96 913.037C1317.04 914.048 1318.59 914.625 1319.6 915.881C1326.23 924.17 1333.66 931.548 1340.22 939.743C1343.12 943.371 1343.52 948.799 1345.64 952.788C1349.87 960.72 1351.43 969.009 1354.68 977.173C1360.18 990.975 1364.26 1005.29 1367.3 1019.69C1368.42 1025.01 1366.72 1030.83 1367.84 1036.12C1369.13 1042.24 1368.39 1049.08 1368.37 1055.38C1368.36 1058.04 1368.82 1061.22 1368.33 1063.87C1367.06 1070.78 1365.84 1078.01 1363.98 1084.81C1362.15 1091.5 1358.29 1097.76 1355.37 1104.04C1353.67 1107.68 1352.57 1111.63 1351.05 1115.35C1350.53 1116.62 1349.36 1117.57 1348.6 1118.74C1347.94 1119.76 1347.95 1121.06 1347.37 1122.13C1344.99 1126.51 1342.37 1130.76 1340 1135.13C1336.11 1142.29 1329.64 1148.22 1325.3 1154.9C1322.52 1159.16 1317.39 1162.19 1313.67 1165.61C1306.15 1172.55 1298.33 1178.34 1289.83 1184.22C1282.94 1188.98 1270.49 1193.88 1262.36 1196.01C1257.59 1197.26 1252.37 1197.75 1247.73 1199.35C1235.47 1203.58 1222.22 1206.61 1209.3 1208.28C1205.83 1208.72 1202.4 1209.98 1198.93 1210.5C1195.34 1211.05 1191.55 1210.49 1187.96 1211.03C1177.12 1212.67 1164.84 1212.79 1153.84 1211.47C1147.21 1210.68 1141.75 1207.11 1135.59 1205.18C1130.1 1203.46 1125.18 1200.59 1119.77 1198.89C1117.91 1198.3 1115.09 1198.08 1114.3 1196.6" fill="none" fill-rule="evenodd" opacity="1" stroke="#000000" stroke-linecap="round" stroke-linejoin="round" stroke-width="6"/>
<path d="M774.273 841.408C774.939 836.631 775.21 831.847 776.465 827.258C776.902 825.66 776.05 823.758 776.487 822.161C779.175 812.329 782.806 807.307 790.594 800.125C793.494 797.45 800.173 795.211 804.022 794.51C804.913 794.348 805.582 793.588 806.464 793.387C810.04 792.57 813.863 792.545 817.439 791.727C819.936 791.157 822.268 790.058 824.76 789.489C828.1 788.725 831.786 789.156 835.123 788.394C838.765 787.561 842.446 787.003 846.1 786.168C846.494 786.078 847.032 785.905 847.318 786.173C847.385 786.235 846.073 792.528 846.069 793.531C846.041 800.013 845.547 807.574 844.155 813.912C843.514 816.831 841.267 819.454 840.464 822.393C835.737 839.677 815.153 844.955 798.326 844.894C793.822 844.877 786.179 845.083 781.877 844.268C780.988 844.099 780.325 843.334 779.445 843.126C777.482 842.662 773.968 843.599 774.273 841.408Z" fill="none" fill-rule="evenodd" opacity="1" stroke="#000000" stroke-linecap="round" stroke-linejoin="round" stroke-width="6"/>
<path d="M780.181 813.113C780.152 819.872 780.254 824.898 781.932 831.242C782.226 832.353 782.126 833.698 783.137 834.644C786.586 837.876 790.452 840.928 794.064 844.312" fill="none" fill-rule="evenodd" opacity="1" stroke="#000000" stroke-linecap="round" stroke-linejoin="round" stroke-width="6"/>
<path d="M805.236 795.647C807.553 794.581 821.833 793.57 823.517 795.148C832.857 803.897 843.249 818.39 836.16 831.439" fill="none" fill-rule="evenodd" opacity="1" stroke="#000000" stroke-linecap="round" stroke-linejoin="round" stroke-width="6"/>
<path d="M816.014 816.502C814.681 816.205 813.252 816.159 812.013 815.611C811.654 815.453 812.833 810.027 812.981 809.484C814.159 805.177 816.965 799.196 822.914 800.324C824.768 800.676 829.496 802.087 830.437 803.855C831.974 806.739 831.474 813.617 828.503 815.671C824.714 818.292 820.274 817.45 816.014 816.502Z" fill="none" fill-rule="evenodd" opacity="1" stroke="#000000" stroke-linecap="round" stroke-linejoin="round" stroke-width="6"/>
<path d="M800.496 799.91C799.685 799.93 798.834 800.028 797.939 800.232C794.523 801.013 788.589 805.294 787.08 808.072C785.11 811.697 786.634 824.808 789.816 827.788C790.546 828.472 791.809 828.974 792.647 829.563C794.039 830.542 794.729 831.952 795.921 833.069C799.062 836.011 802.842 838.647 807.208 839.679C809.805 840.292 812.361 838.851 814.285 837.521C818.401 834.675 820.146 831.601 821.396 827.029C821.734 825.794 821.075 824.334 821.413 823.099C821.962 821.089 821.967 819.411 821.437 817.404C821.425 817.36 821.393 817.324 821.381 817.281C817.458 817.338 813.388 816.359 812.954 814.298C812.427 811.799 812.936 809.683 813.959 807.785C813.874 807.704 813.779 807.603 813.697 807.522C809.926 803.831 806.174 799.77 800.496 799.91ZM795.473 811.219C795.836 811.195 798.379 812.116 798.788 812.213C799.806 812.453 802.128 814.333 803.012 814.748C807.237 816.731 802.501 822.745 800.206 824.332C799.362 824.915 798.382 825.199 797.364 825.195C794.732 825.186 791.878 825.636 790.304 823.422C789.348 822.078 784.874 816.454 789.36 812.813C789.793 812.462 792.931 811.39 795.473 811.219Z" fill="#000000" fill-opacity="0.995993" fill-rule="evenodd" opacity="1" stroke="#000000" stroke-linecap="round" stroke-linejoin="round" stroke-width="6"/>
</g>
<g opacity="1">
<path d="M1275.05 548.52C1275.48 548.623 1275.91 548.726 1276.34 548.828" fill="none" fill-rule="evenodd" opacity="1" stroke="#c934ae" stroke-dasharray="4.709819346665401,3.1673178736672156,3.8818263886749875,15.0" stroke-linecap="round" stroke-linejoin="round" stroke-width="8"/>
<path d="M1278.1 549.509C1274.93 546.999 1265.88 546.786 1262.39 547.064C1261.37 547.145 1259.77 547.878 1258.77 547.763C1258.38 547.718 1258.22 547.062 1257.83 547.017C1255.99 546.805 1253.6 547.764 1251.75 547.911C1241.21 548.75 1230.97 552.269 1221.16 556.506C1217.62 558.035 1213.75 558.752 1210.67 561.037C1203.9 566.056 1196.04 570.24 1188.54 573.476C1186.34 574.429 1183.92 575.961 1181.55 576.496C1178.58 577.167 1175.01 577.691 1172.32 578.463C1171.35 578.74 1170.17 579.866 1168.82 579.973C1164.83 580.292 1159.9 580.328 1156.19 581.389C1150.72 582.958 1146.65 590.325 1144.62 595.041C1142.58 599.755 1145.15 602.775 1146.49 607.212C1147.36 610.107 1147.32 613.72 1148.33 616.51C1148.72 617.591 1150.42 619.541 1151.06 620.81C1155.96 630.535 1164.47 638.874 1174.46 643.587C1177.43 644.99 1181.6 645.292 1184.78 646.05C1186.16 646.38 1188.45 647.589 1189.6 647.72C1190.03 647.77 1190.33 647.167 1190.76 647.217C1194.35 647.63 1201.66 650.298 1204.71 648.981" fill="none" fill-rule="evenodd" opacity="1" stroke="#c934ae" stroke-dasharray="4.709819346665401,3.1673178736672156,3.8818263886749875,15.0" stroke-linecap="round" stroke-linejoin="round" stroke-width="8"/>
<path d="M1167.53 641.674C1166.27 643.266 1166.43 645.615 1167.24 647.857C1167.51 648.595 1168.86 648.612 1169.13 649.35C1169.28 649.762 1168.75 650.187 1168.9 650.599C1169.55 652.376 1171.29 654.027 1172.58 655.645C1174.12 657.574 1172.24 656.093 1173.43 658.453C1174.22 660.031 1175.96 662.072 1177.1 663.498C1178.19 664.861 1178.4 666.873 1179.49 668.236C1181.69 670.996 1185.43 672.634 1187.63 675.39C1198.63 689.183 1216.77 697.568 1231.92 704.717C1235.04 706.186 1237.85 705.477 1240.71 705.25C1241.91 705.154 1243.36 706.099 1244.58 706.173C1248.03 706.382 1251.24 706.464 1254.53 706.203C1255.39 706.134 1256.25 706.887 1257.11 706.818C1261.15 706.497 1264.76 704.978 1268.8 704.656C1274.01 704.241 1278.24 704.425 1283.31 704.733C1284.55 704.808 1286.37 704.287 1287.41 704.407C1287.8 704.452 1287.96 705.108 1288.35 705.153C1290.47 705.397 1292.13 704.491 1294.55 705.07" fill="none" fill-rule="evenodd" opacity="1" stroke="#c934ae" stroke-dasharray="4.709819346665401,3.1673178736672156,3.8818263886749875,15.0" stroke-linecap="round" stroke-linejoin="round" stroke-width="8"/>
<path d="M1160.29 581.063C1163.63 583.703 1168.33 586.11 1172.4 587.08C1173.17 587.264 1176.37 588.633 1176.52 589.627C1176.97 592.545 1171.6 594.637 1169.55 595.52C1166.74 596.735 1162.06 597.285 1160.1 598.736C1156.1 601.709 1151.15 605.719 1145.64 604.405" fill="none" fill-rule="evenodd" opacity="1" stroke="#c934ae" stroke-dasharray="4.709819346665401,3.1673178736672156,3.8818263886749875,15.0" stroke-linecap="round" stroke-linejoin="round" stroke-width="8"/>
<path d="M1280.16 544.007C1280.35 544.402 1280.32 545.226 1280.75 545.192C1281.18 545.157 1280.81 544.326 1280.97 543.942C1281.91 541.773 1284.37 539.658 1285.83 537.806C1289.67 532.962 1293.68 527.281 1298.58 523.651C1303.17 520.241 1307.26 516.121 1311.82 512.741C1314.04 511.09 1316.81 510.118 1319.03 508.471C1320.22 507.588 1321.63 507.644 1323 507.333C1326.81 506.474 1330.16 504.036 1333.97 503.175C1337.3 502.422 1340.36 502.33 1343.67 501.582C1348.24 500.548 1352.67 498.27 1356.96 496.417C1357.44 496.209 1360 494.726 1360.46 494.906C1361.11 495.157 1360.23 504.211 1360.45 505.585C1360.98 509.072 1359.89 512.739 1360.43 516.263C1361.65 524.206 1363.43 534.755 1358.09 541.499" fill="none" fill-rule="evenodd" opacity="1" stroke="#c934ae" stroke-dasharray="4.709819346665401,3.1673178736672156,3.8818263886749875,15.0" stroke-linecap="round" stroke-linejoin="round" stroke-width="8"/>
<path d="M1425.36 536.965C1423.14 537.924 1421.16 539.834 1418.83 540.359C1407.31 542.965 1394.59 541.879 1383.16 542.789C1380.14 543.029 1375.52 541.432 1372.96 541.137C1364.23 540.133 1356.51 541.618 1348.04 543.531C1346.34 543.916 1345.21 545.331 1343.85 545.918C1342.6 546.461 1341.11 546.148 1339.88 547.055C1336.69 549.427 1329.23 557.838 1327.61 561.583C1326.06 565.176 1325.05 569.003 1323.5 572.588C1322.7 574.459 1322.81 576.025 1322.27 578.025C1320.91 583.049 1317.62 587.53 1316.67 592.843" fill="none" fill-rule="evenodd" opacity="1" stroke="#c934ae" stroke-dasharray="4.709819346665401,3.1673178736672156,3.8818263886749875,15.0" stroke-linecap="round" stroke-linejoin="round" stroke-width="8"/>
<path d="M1339.46 638.665C1339.85 636.506 1341.03 635.875 1342.58 634.72C1344.97 632.952 1346.65 630.258 1349.08 628.454C1350.68 627.264 1352.83 626.758 1354.44 625.563C1357.31 623.433 1361 621.756 1364.58 621.47C1367.94 621.203 1371.12 618.553 1374.38 617.816C1378.25 616.942 1382.22 616.524 1386.07 615.654C1390.98 614.542 1394.5 610.842 1398.17 608.12C1399.52 607.116 1400.6 605.057 1401.64 603.737C1407.11 596.829 1408.49 590.972 1409.99 582.54C1410.45 579.914 1411.41 578.299 1410.97 575.48C1410.55 572.713 1412.22 568.186 1413.22 565.856C1413.87 564.355 1413.46 562.358 1414.11 560.857C1417.41 553.196 1419.39 544.508 1424.66 537.842" fill="none" fill-rule="evenodd" opacity="1" stroke="#c934ae" stroke-dasharray="4.709819346665401,3.1673178736672156,3.8818263886749875,15.0" stroke-linecap="round" stroke-linejoin="round" stroke-width="8"/>
<path d="M1323.01 607.122C1325.38 604.133 1329.52 601.552 1331.12 597.853C1332.69 594.201 1334.61 590.71 1336.52 587.156C1338.4 583.649 1342.11 580.789 1343.68 577.141C1346.78 569.945 1354.36 561.568 1361.53 558.473C1363.74 557.52 1366.16 555.987 1368.53 555.452C1370.87 554.923 1373.33 555.973 1375.67 556.115C1381.79 556.486 1388.36 558.1 1394.43 559.549C1397.15 560.197 1401.24 559.496 1403.79 558.394C1404.95 557.891 1407.28 556.884 1407.28 556.884C1407.28 556.884 1404.51 559.425 1403.34 560.893C1401.46 563.276 1398.3 565.992 1397.1 568.782C1394.92 573.832 1393.8 579.363 1391.62 584.412C1389.67 588.948 1386.92 593.128 1384.96 597.673C1384.08 599.709 1381.83 601.624 1380.45 603.371C1372.94 612.857 1365.07 615.243 1353.66 617.823C1352.83 618.012 1351.95 617.307 1351.08 617.207C1349.95 617.077 1347.97 618.011 1346.64 617.971C1342.57 617.849 1339.38 617.647 1335.65 619.257" fill="none" fill-rule="evenodd" opacity="1" stroke="#c934ae" stroke-dasharray="4.709819346665401,3.1673178736672156,3.8818263886749875,15.0" stroke-linecap="round" stroke-linejoin="round" stroke-width="8"/>
<path d="M1420.45 537.356C1421.57 535.939 1423.13 535.187 1424.51 534.158C1430.34 529.835 1435.11 518.732 1437.77 512.57C1439.22 509.2 1440.57 505.717 1442 502.377C1442.11 502.122 1442.81 498.739 1442.67 498.628C1442.36 498.379 1442.21 499.213 1441.98 499.505" fill="none" fill-rule="evenodd" opacity="1" stroke="#c934ae" stroke-dasharray="4.709819346665401,3.1673178736672156,3.8818263886749875,15.0" stroke-linecap="round" stroke-linejoin="round" stroke-width="8"/>
<path d="M1422.83 542.094C1428.67 534.725 1434.4 527.227 1441.6 521.3C1444.16 519.187 1446.2 516.719 1449.38 515.341" fill="none" fill-rule="evenodd" opacity="1" stroke="#c934ae" stroke-dasharray="4.709819346665401,3.1673178736672156,3.8818263886749875,15.0" stroke-linecap="round" stroke-linejoin="round" stroke-width="8"/>
<path d="M1422.26 543.782C1426.19 542.085 1432.2 537.132 1435.75 534.495C1440.92 530.662 1447.41 529.46 1453.24 526.943" fill="none" fill-rule="evenodd" opacity="1" stroke="#c934ae" stroke-dasharray="4.709819346665401,3.1673178736672156,3.8818263886749875,15.0" stroke-linecap="round" stroke-linejoin="round" stroke-width="8"/>
<path d="M1354.16 497.05C1365.66 492.084 1371.91 480.161 1378.13 469.682C1380.46 465.765 1383.62 461.522 1384.45 456.859" fill="none" fill-rule="evenodd" opacity="1" stroke="#c934ae" stroke-dasharray="4.709819346665401,3.1673178736672156,3.8818263886749875,15.0" stroke-linecap="round" stroke-linejoin="round" stroke-width="8"/>
<path d="M1359.45 499.094C1361.16 496.936 1363.26 495.347 1365.25 493.704C1369.35 490.327 1371.43 484.606 1375.31 480.994C1380.22 476.434 1385.37 473.4 1391.01 469.888" fill="none" fill-rule="evenodd" opacity="1" stroke="#c934ae" stroke-dasharray="4.709819346665401,3.1673178736672156,3.8818263886749875,15.0" stroke-linecap="round" stroke-linejoin="round" stroke-width="8"/>
<path d="M1361.66 497.275C1361.66 497.275 1362.24 498.144 1362.6 498.021C1364.08 497.516 1365 496.08 1366.32 495.261C1369.87 493.049 1373.35 490.838 1376.44 488.296C1382.93 482.949 1392.24 483.492 1399.66 480.288" fill="none" fill-rule="evenodd" opacity="1" stroke="#c934ae" stroke-dasharray="4.709819346665401,3.1673178736672156,3.8818263886749875,15.0" stroke-linecap="round" stroke-linejoin="round" stroke-width="8"/>
<path d="M1210.18 695.36C1207.9 696.344 1206.04 697.709 1204.13 699.127C1201.65 700.964 1197.67 701.915 1194.8 703.155C1193.86 703.563 1192.35 704.582 1191.3 704.665C1186.04 705.085 1180.76 707.968 1175.3 708.403C1165.71 709.166 1155.39 708.789 1145.65 704.193C1143.68 703.263 1141.17 703.584 1139.19 702.654C1135.47 700.896 1131.75 699.139 1128.02 697.383C1123.84 695.411 1120.9 689.952 1116.35 688.867" fill="none" fill-rule="evenodd" opacity="1" stroke="#c934ae" stroke-dasharray="4.709819346665401,3.1673178736672156,3.8818263886749875,15.0" stroke-linecap="round" stroke-linejoin="round" stroke-width="8"/>
<path d="M1227.17 722.343C1220.35 725.29 1213.42 727.134 1206.04 727.721C1203.99 727.884 1202.13 729.264 1200.08 729.427C1188.43 730.355 1175.26 731.581 1163.09 728.676C1153.38 726.362 1143.66 721.769 1134.42 717.407C1129.85 715.254 1124.88 714.11 1120.32 711.959C1107.69 706 1098.62 693.678 1086.25 687.157C1084.98 686.484 1083.9 685.593 1082.61 684.983C1081.13 684.286 1079.02 684.129 1077.44 683.752C1076.65 683.562 1075.69 682.095 1075.21 682.697C1074.95 683.024 1075.83 683.456 1075.81 683.882C1075.77 684.668 1074.77 685.22 1074.89 686.008C1075.28 688.547 1077.23 690.688 1078.82 692.677C1080.45 694.721 1080.76 697.739 1082.39 699.784C1083.05 700.612 1087.85 704.411 1086.2 705.641C1085.85 705.899 1073.59 705.624 1072.5 705.499C1072.11 705.454 1071.94 704.798 1071.55 704.753C1069.38 704.503 1067.31 706.734 1065.25 706.897C1064.47 706.96 1061 707.054 1060.94 708.473C1060.84 710.548 1066.02 712.66 1067.19 714.135C1068.72 716.045 1068.31 718.585 1069.83 720.495C1070.65 721.517 1073.49 722.652 1072.09 724.422C1071.07 725.715 1069.56 724.213 1068.34 724.309C1064.79 724.592 1061.34 725.688 1057.82 725.968C1056.62 726.064 1053.99 727.49 1054.58 729.101C1054.87 729.902 1056.86 730.648 1057.41 731.34C1060.58 735.312 1063.19 737.379 1067.79 739.548C1071.49 741.294 1081.07 745.061 1085.16 744.735C1093.6 744.064 1102.93 745.251 1110.15 750.959C1113.82 753.859 1117.03 756.528 1119.84 760.044C1122.91 763.902 1127.85 766.381 1130.94 770.248C1133.11 772.974 1137.25 774.238 1139.43 776.964C1141.64 779.739 1145.37 781.353 1147.57 784.118C1149.87 786.997 1152.37 789.701 1154.68 792.587C1157.48 796.101 1162.38 798.092 1165.18 801.606C1167.95 805.085 1172.1 807.79 1175.68 810.626C1181.5 815.227 1187.32 819.829 1193.14 824.43C1199.98 829.842 1206.9 836.344 1214.59 839.97C1218.66 841.891 1221.71 846.188 1225.78 848.113C1233.34 851.679 1241.86 855.337 1249.99 857.274C1253.08 858.012 1255.95 860.048 1259.14 860.241C1266.44 860.683 1273.76 862.161 1281.06 862.604C1283.2 862.734 1285.36 864.013 1287.51 864.143C1290.54 864.327 1292.85 863.595 1295.82 864.303" fill="none" fill-rule="evenodd" opacity="1" stroke="#c934ae" stroke-dasharray="4.709819346665401,3.1673178736672156,3.8818263886749875,15.0" stroke-linecap="round" stroke-linejoin="round" stroke-width="8"/>
<path d="M1059.51 631.794C1061.82 632.344 1064.33 632.316 1066.66 632.457C1074.3 632.92 1083.43 636.458 1090.14 639.622C1091.32 640.18 1092.83 639.988 1094.01 640.546C1098.47 642.653 1102.94 644.761 1107.41 646.871C1111.53 648.814 1116.31 653.197 1120.03 656.133C1124.6 659.753 1122.95 666.985 1117.33 668.257C1114.52 668.891 1112.03 669.095 1109.27 669.72C1106.77 670.284 1103.88 670.542 1101.08 670.372C1088.8 669.627 1076.65 667.857 1064.53 667.122C1059.15 666.795 1053.74 664.63 1048.35 664.303C1046.13 664.169 1044.25 662.447 1042.24 662.325C1032.33 661.724 1022.46 657.604 1012.46 657.304C1005.21 657.087 996.459 653.968 989.925 650.885C987.784 649.875 986.055 647.855 983.917 646.846C982.883 646.358 978.121 644.183 977.909 642.807C977.792 642.042 979.001 641.742 979.297 641.054C980.956 637.204 985.217 637.344 988.846 635.777C997.436 632.067 1008.27 630.535 1018.17 629.746C1020.99 629.522 1024.53 630.173 1027.18 629.029" fill="none" fill-rule="evenodd" opacity="1" stroke="#c934ae" stroke-dasharray="4.709819346665401,3.1673178736672156,3.8818263886749875,15.0" stroke-linecap="round" stroke-linejoin="round" stroke-width="8"/>
<path d="M1064.68 589.907C1064.84 590.174 1065.43 589.436 1065.43 589.436C1065.43 589.436 1064.04 591.189 1063.35 592.066C1061.92 593.878 1061.02 595.996 1060.13 598.071C1056.79 605.811 1053.8 613.995 1052.28 622.514C1051.58 626.471 1052.13 631.197 1052.17 635.253C1052.2 638.102 1053.54 641.175 1053.07 643.805C1052.84 645.087 1054.15 648.966 1052.78 649.988C1051.71 650.782 1045.19 647.307 1043.27 647.46C1042.01 647.56 1040.44 647.685 1039.18 647.786C1038.31 647.854 1037.55 649.349 1036.85 648.793C1036.2 648.28 1038.81 642.766 1039.12 642.041C1040.21 639.516 1041.55 632.714 1041.82 629.917C1041.95 628.578 1041.31 626.734 1041.54 625.422C1041.87 623.595 1043.15 621.709 1043.12 619.547C1043.05 611.749 1044.92 604.234 1043.73 596.502C1043.44 594.667 1041.34 590.631 1040.49 588.957C1040.33 588.628 1037.97 586.509 1038.01 586.28C1038.17 585.378 1044 586.405 1044.69 586.57C1048.65 587.515 1053.88 588.965 1057.94 589.211C1060.05 589.339 1063.31 587.707 1064.68 589.907Z" fill="none" fill-rule="evenodd" opacity="1" stroke="#c934ae" stroke-dasharray="4.709819346665401,3.1673178736672156,3.8818263886749875,15.0" stroke-linecap="round" stroke-linejoin="round" stroke-width="8"/>
<path d="M1118.65 671.437C1116.88 673.675 1116.97 675.338 1115.9 677.816C1114.27 681.603 1111.31 684.795 1109.68 688.577C1108.25 691.892 1106.79 695.128 1104.5 698.024" fill="none" fill-rule="evenodd" opacity="1" stroke="#c934ae" stroke-dasharray="4.709819346665401,3.1673178736672156,3.8818263886749875,15.0" stroke-linecap="round" stroke-linejoin="round" stroke-width="8"/>
<path d="M1081.81 749.93C1083.46 747.846 1078.87 753.196 1077.87 753.939C1074.3 756.59 1072.16 761.067 1068.6 763.712C1064.37 766.853 1061.22 771.354 1057 774.491C1053.54 777.053 1045.99 783.17 1041.39 783.536C1040.96 783.57 1040.51 783.11 1040.1 783.228C1039.74 783.333 1039.78 783.999 1039.41 784.104C1036.68 784.886 1030.55 783.294 1027.57 782.583" fill="none" fill-rule="evenodd" opacity="1" stroke="#c934ae" stroke-dasharray="4.709819346665401,3.1673178736672156,3.8818263886749875,15.0" stroke-linecap="round" stroke-linejoin="round" stroke-width="8"/>
<path d="M973.398 648.505C973.544 648.319 975.171 646.844 973.495 646.444C972.527 646.213 972.918 649.691 972.828 650.193C972.067 654.473 971.767 659.186 971.077 663.063C970.332 667.249 970.575 671.955 970.616 676.24C970.661 681.049 969.886 685.733 969.933 690.668C969.954 692.944 971.609 697.882 971.305 699.593C971.238 699.965 970.629 700.088 970.61 700.469C970.565 701.422 971.447 702.319 971.456 703.277C971.513 709.272 974.906 715.123 976.657 720.931C977.19 722.701 979.069 728.876 980.138 730.099C981.038 731.13 982.954 732.31 983.565 733.522C989.713 745.732 999.997 757.399 1008.83 768.47C1010.16 770.136 1012.69 770.909 1014.02 772.574C1017.58 777.04 1023.24 780.581 1027.82 784.206" fill="none" fill-rule="evenodd" opacity="1" stroke="#c934ae" stroke-dasharray="4.709819346665401,3.1673178736672156,3.8818263886749875,15.0" stroke-linecap="round" stroke-linejoin="round" stroke-width="8"/>
<path d="M1380.42 624.727C1382.4 622.221 1377.42 628.514 1376.95 629.11C1374.63 632.032 1372.32 634.954 1370.01 637.876C1366.27 642.596 1363.61 648.323 1361.26 653.766C1359.26 658.411 1356.46 662.585 1355.54 667.773C1354.09 675.903 1352.22 684.208 1351.44 692.328C1351.22 694.605 1351.76 697.118 1352.09 699.257C1352.46 701.678 1351.2 704.668 1351.23 707.128C1351.25 709.956 1351.06 714.137 1351.91 716.93C1352.16 717.767 1352.97 718.444 1353.1 719.299C1353.37 721.065 1352.88 723.278 1353.15 725.044C1353.75 728.917 1355.33 732.893 1355.37 736.776C1355.42 741.531 1355.61 746.406 1356.32 751.073C1357.35 757.722 1360.72 764.463 1362.72 771.097C1364.02 775.426 1366.69 779.494 1367.99 783.819C1369.21 787.856 1371.33 793.03 1374.08 796.475C1376.7 799.761 1379.21 803.751 1380.74 807.443C1381.43 809.114 1383 809.683 1383.82 811.304C1390.3 824.173 1398.1 835.563 1403.72 849.143C1405.18 852.669 1407.55 855.886 1408.62 859.43C1409.99 863.974 1413 868.004 1414.36 872.524C1415.07 874.887 1414.74 877.345 1415.48 879.827C1419.15 891.984 1421.24 905.385 1420.05 917.654C1419.78 920.508 1420.75 923.745 1420.61 926.644C1420.4 931.031 1418.46 935.237 1418.04 939.579C1417.81 941.89 1418.11 944.817 1417.52 947.012C1417.16 948.374 1416.15 950.055 1416.16 951.637C1416.21 956.407 1416.2 961.262 1415.01 965.691C1414.64 967.04 1413.54 968.595 1413.17 969.944C1411.51 976.127 1411.18 983.367 1408.67 989.192C1406.15 995.046 1403.79 1000.98 1400.99 1006.64C1397.83 1013.07 1396.18 1020.38 1393.34 1026.96C1392.55 1028.8 1390.32 1029.95 1389.53 1031.78C1388.28 1034.68 1386.11 1037.07 1384.1 1039.61C1378.54 1046.63 1373.26 1054.32 1366.5 1059.9C1363.91 1062.03 1359.65 1063.14 1356.82 1064.36C1355.04 1065.13 1352.8 1066.79 1351.12 1067.69C1347.61 1069.58 1343.06 1070.23 1339.21 1071.1C1336.97 1071.61 1335.49 1072.63 1333.26 1072.81C1332.06 1072.91 1330.93 1074.06 1329.76 1074.32C1326.38 1075.08 1322.85 1076.51 1319.37 1076.79C1314.13 1077.21 1308.85 1078.09 1303.59 1079.28C1300.04 1080.08 1296.13 1079.76 1292.59 1080.56C1287.5 1081.72 1281.48 1080.32 1276.57 1081.43C1273.6 1082.1 1269.79 1081.97 1266.74 1082.21C1265.88 1082.28 1265.24 1083.03 1264.41 1083.22C1260.03 1084.21 1256.11 1085.36 1252.15 1087.07C1249.25 1088.32 1245.02 1088.75 1242.36 1090.72C1238.59 1093.52 1234.92 1096.24 1231.2 1099C1229.13 1100.54 1228.83 1103.13 1225.49 1102.33" fill="none" fill-rule="evenodd" opacity="1" stroke="#c934ae" stroke-dasharray="4.709819346665401,3.1673178736672156,3.8818263886749875,15.0" stroke-linecap="round" stroke-linejoin="round" stroke-width="8"/>
<path d="M1039.87 956.953C1042.51 962.197 1051.95 966.205 1055.69 970.888C1058.57 974.504 1061.68 978.087 1064.8 981.661C1067.3 984.52 1070.73 986.684 1073.07 989.626C1079.28 997.407 1086.55 1004.56 1092.72 1012.29C1093.68 1013.5 1095.53 1014.06 1096.49 1015.28C1098.76 1018.12 1101.67 1020.46 1103.94 1023.31C1105.15 1024.82 1107.45 1025.52 1108.66 1027.04C1111.7 1030.84 1116.08 1033.19 1119.29 1036.87C1124.42 1042.75 1130.78 1047.38 1136.99 1052.3C1150.23 1062.76 1163.47 1072.1 1178.11 1079.82C1186.79 1084.4 1194.68 1090.05 1203.53 1094.22C1204.58 1094.72 1205.3 1095.97 1206.36 1096.46C1213.53 1099.85 1220.61 1103.13 1228.42 1102.51" fill="none" fill-rule="evenodd" opacity="1" stroke="#c934ae" stroke-dasharray="4.709819346665401,3.1673178736672156,3.8818263886749875,15.0" stroke-linecap="round" stroke-linejoin="round" stroke-width="8"/>
<path d="M1161.78 972.015C1149.35 969.048 1140.15 958.466 1128.99 952.577C1125.3 950.63 1122.59 946.7 1118.95 944.64C1110.69 939.957 1103.42 933.195 1094.73 929.095C1089.41 926.581 1083.93 924.608 1078.54 922.064C1076.68 921.185 1075.19 919.738 1073.41 918.728C1068.12 915.731 1062.25 913.918 1056.74 911.319C1054.81 910.41 1051.49 908.825 1049.24 909.004C1044.6 909.373 1039.75 909.76 1035.14 910.126C1033.28 910.275 1032.58 912.411 1030.9 912.544C1028.86 912.707 1028.34 913.707 1026.65 914.962C1021.4 918.856 1017.06 923.572 1018.14 930.616C1018.33 931.849 1017.28 933.181 1017.47 934.414C1017.69 935.853 1019.21 937.874 1019.88 939.214C1024.57 948.528 1033.97 955.408 1042.27 961.976" fill="none" fill-rule="evenodd" opacity="1" stroke="#c934ae" stroke-dasharray="4.709819346665401,3.1673178736672156,3.8818263886749875,15.0" stroke-linecap="round" stroke-linejoin="round" stroke-width="8"/>
<path d="M1053.66 924.045C1050.83 923.372 1051.07 919.729 1049.33 917.733C1045.47 913.313 1041.93 911.236 1036.1 910.882C1034.2 910.767 1032.37 910.154 1030.64 910.9" fill="none" fill-rule="evenodd" opacity="1" stroke="#c934ae" stroke-dasharray="4.709819346665401,3.1673178736672156,3.8818263886749875,15.0" stroke-linecap="round" stroke-linejoin="round" stroke-width="8"/>
<path d="M1041.8 937.053C1039.2 934.997 1030.96 927.246 1028.07 926.914C1027.06 926.798 1025.43 927.54 1024.4 927.622C1021.8 927.829 1019.15 927.624 1016.46 927.838" fill="none" fill-rule="evenodd" opacity="1" stroke="#c934ae" stroke-dasharray="4.709819346665401,3.1673178736672156,3.8818263886749875,15.0" stroke-linecap="round" stroke-linejoin="round" stroke-width="8"/>
<path d="M1033.01 909.88C1033.28 905.705 1024.04 908.785 1021.27 909.983C1020.84 910.168 1017.19 910.785 1017.25 911.135C1017.3 911.473 1022.63 911.461 1023.18 911.495C1024.84 911.595 1026.5 910.998 1028.16 911.099C1030.38 911.233 1032.85 912.361 1033.01 909.88Z" fill="none" fill-rule="evenodd" opacity="1" stroke="#c934ae" stroke-dasharray="4.709819346665401,3.1673178736672156,3.8818263886749875,15.0" stroke-linecap="round" stroke-linejoin="round" stroke-width="8"/>
<path d="M1022.02 927.187C1018.01 927.112 1015.54 926.952 1011.83 927.791C1010.88 928.005 1008.84 927.464 1008.99 928.433C1009.06 928.866 1009.86 928.779 1010.3 928.745C1013.81 928.465 1017.89 927.964 1021.43 927.442C1021.65 927.411 1022.24 927.191 1022.02 927.187Z" fill="none" fill-rule="evenodd" opacity="1" stroke="#c934ae" stroke-dasharray="4.709819346665401,3.1673178736672156,3.8818263886749875,15.0" stroke-linecap="round" stroke-linejoin="round" stroke-width="8"/>
<path d="M1073.42 681.184C1074.23 681.827 1075.17 682.393 1076.16 682.63C1076.16 682.63 1074.72 681.487 1073.29 680.362C1073.03 680.152 1070.9 678.472 1070.9 678.473C1071.6 679.484 1072.45 680.418 1073.42 681.184Z" fill="none" fill-rule="evenodd" opacity="1" stroke="#c934ae" stroke-dasharray="4.709819346665401,3.1673178736672156,3.8818263886749875,15.0" stroke-linecap="round" stroke-linejoin="round" stroke-width="8"/>
<path d="M1061.29 708.775C1062.28 709.058 1063.38 709.685 1064.32 709.366C1065.94 708.813 1057.51 706.476 1058.61 707.74C1059.24 708.464 1060.37 708.514 1061.29 708.775Z" fill="none" fill-rule="evenodd" opacity="1" stroke="#c934ae" stroke-dasharray="4.709819346665401,3.1673178736672156,3.8818263886749875,15.0" stroke-linecap="round" stroke-linejoin="round" stroke-width="8"/>
<path d="M1055.03 730.905C1055.75 731.345 1057.95 732.493 1057.3 731.973C1056.01 730.958 1054.6 730.09 1053.12 729.394C1052.39 729.048 1054.34 730.479 1055.03 730.905Z" fill="none" fill-rule="evenodd" opacity="1" stroke="#c934ae" stroke-dasharray="4.709819346665401,3.1673178736672156,3.8818263886749875,15.0" stroke-linecap="round" stroke-linejoin="round" stroke-width="8"/>
<path d="M1122.3 947.286C1119.67 942.069 1122.51 939.959 1123.37 935.136C1123.74 933.054 1122.86 931.079 1122.84 928.938C1122.8 925.128 1125.41 922.215 1126.78 919.056C1128.25 915.628 1128.61 912.101 1130.24 908.796C1130.77 907.718 1130.52 906.147 1130.91 904.999C1131.62 902.905 1132.99 901.291 1133.82 899.359C1134.37 898.089 1134.3 896.387 1134.85 895.117C1137.54 888.866 1143.08 884.069 1146.07 877.999C1147.42 875.256 1148.33 872.376 1150.74 870.139C1152.78 868.242 1155.4 867.048 1157.58 865.435C1164.12 860.58 1171.61 855.146 1179.51 852.456C1196.23 846.768 1215.45 847.921 1233 853.606C1244.47 857.321 1255.12 861.549 1265.39 867.668C1268.95 869.788 1271.39 873.135 1274.6 875.672C1279.01 879.163 1283.97 882.514 1287.63 886.699C1292.88 892.711 1296.36 900.884 1300.51 907.722C1301.61 909.529 1303.14 911.026 1304.24 912.833C1305.04 914.161 1305.01 915.501 1305.7 916.877C1308.88 923.188 1311.3 929.42 1313.23 935.83C1314.34 939.507 1316.73 943.013 1317.84 946.696C1318.56 949.096 1317.32 951.491 1317.67 953.781C1318.26 957.643 1319.75 960.875 1319.79 964.845C1319.81 967.125 1318.37 968.882 1319.49 971.109" fill="none" fill-rule="evenodd" opacity="1" stroke="#c934ae" stroke-dasharray="4.709819346665401,3.1673178736672156,3.8818263886749875,15.0" stroke-linecap="round" stroke-linejoin="round" stroke-width="8"/>
<path d="M1372.66 787.159C1373.14 784.465 1375 782.144 1376.15 779.809C1377.68 776.704 1377.94 773.062 1379.26 769.993C1381.77 764.165 1384.68 758.45 1387.52 752.695C1389.72 748.215 1391.08 743.026 1393.31 738.505C1397.74 729.518 1404.08 721.486 1409.08 712.706C1412.26 707.101 1417.66 702.854 1421.99 698.366C1424.67 695.583 1427.2 691.449 1430.2 688.976C1434.64 685.317 1439.27 681.164 1443.49 677.101C1450.5 670.334 1458.08 663.826 1466.19 658.237C1468.6 656.58 1471.54 655.718 1473.98 654.289C1481.53 649.885 1488.64 644.745 1496.75 641.244C1504.44 637.923 1511.31 633.203 1518.93 629.91C1522.09 628.548 1525.8 628.115 1528.99 627.03C1532.43 625.86 1535.77 624.072 1539.26 622.883C1540.43 622.486 1541.81 622.662 1542.93 622.175C1553.46 617.629 1565.31 614.199 1576.99 611.56C1580.81 610.696 1584.35 608.917 1588.22 608.17C1600.5 605.8 1612.2 603.349 1624.69 602.355C1625.56 602.285 1626.43 603.048 1627.3 602.978C1638.8 602.064 1663.03 605.959 1663.03 605.959C1663.03 605.959 1675.71 607.138 1681.91 608.616C1683.79 609.066 1686.14 608.936 1687.97 609.798C1695.42 613.315 1703.21 616.578 1710.6 620.476C1715.83 623.238 1719.98 627.819 1725.16 630.549C1730.11 633.162 1734.45 637.172 1738.89 640.689C1740.8 642.198 1743.49 643.756 1745.11 645.602C1755.03 656.971 1765.89 667.883 1775.9 679.344C1779.77 683.777 1782.5 689.389 1786.12 693.923C1786.88 694.872 1786.85 696.149 1787.45 697.145C1791.45 703.726 1795.65 711.051 1797.85 718.366C1798.85 721.673 1801.69 724.666 1802.69 727.965C1807.39 743.587 1814.27 758.345 1819.01 774.091C1820.4 778.701 1823.59 782.742 1824.83 787.356C1825.85 791.176 1826.02 795.098 1826.6 798.864C1827.67 805.856 1828.86 812.467 1828.93 819.479C1828.95 822.003 1829.95 824.837 1829.71 827.321C1828.68 838.028 1827.61 847.579 1824.78 858.082C1823.28 863.671 1823.05 870.409 1820.32 875.493C1816.98 881.724 1814.22 888.693 1811.14 894.945C1809.98 897.293 1807.99 899.26 1806.7 901.539C1803.28 907.54 1799.81 913.183 1795.47 918.657C1793.54 921.1 1791.58 924.64 1789.14 926.649C1785.02 930.048 1780.86 933.523 1776.91 937.191C1773.77 940.109 1769.08 940.99 1765.71 943.491C1757.25 949.765 1746.38 951.359 1736.15 953.332C1728.88 954.736 1721.87 953.885 1714.56 952.139C1712.77 951.713 1711.02 951.782 1709.33 950.892C1703.2 947.661 1697.35 943.851 1691.32 940.261C1686.7 937.509 1684.03 935.213 1679.98 932.011C1678.73 931.026 1675.81 929.254 1675.9 927.344C1675.97 925.905 1681.04 924.956 1682.16 924.349C1686.41 922.056 1690.59 918.234 1694.17 915.073C1697.4 912.215 1699.57 908.175 1702.73 905.239C1707.8 900.528 1714.04 894.932 1717.4 888.679C1720.03 883.778 1721.47 878.291 1722.94 872.846C1723.77 869.753 1724.77 865.658 1724.26 862.34C1723.68 858.557 1723.96 855.049 1723.8 851.144C1723.59 845.898 1721.18 840.019 1719.62 834.837C1717.43 827.581 1711.64 821.931 1707.46 815.836C1697.9 801.893 1680.68 780.527 1661.96 782.017C1660.82 782.108 1659.67 781.494 1658.52 781.459C1654.47 781.338 1650.69 781.962 1647.03 783.206C1642.34 784.8 1638.62 787.984 1634.77 790.838C1631.27 793.434 1626.99 795.24 1623.69 797.96C1621.76 799.546 1620.48 801.649 1618.64 803.354C1613.79 807.86 1609.84 813.395 1604.9 817.76C1601.46 820.805 1596.7 825.517 1594.58 829.814C1588.67 841.806 1585.09 854.033 1582.72 867.367C1581.83 872.387 1581.93 877.781 1581.33 882.871C1580.92 886.29 1579.45 889.256 1579.05 892.621C1578.02 901.265 1577.11 910.093 1578.46 918.876C1579.57 926.077 1581.28 933.062 1583.41 940.115C1584.74 944.546 1587.56 948.564 1588.75 953.002C1590.48 959.459 1591.5 966.177 1593.44 972.598C1595.1 978.107 1595.94 983.397 1596.79 988.971C1597.02 990.433 1597.89 991.849 1597.9 993.459C1598 1004.07 1599.29 1014.46 1599.39 1024.96C1599.43 1029.6 1596.39 1034.12 1595.6 1038.57C1594.03 1047.42 1590.14 1054.9 1587.65 1063.33C1583.46 1077.59 1577.83 1091.36 1571.32 1104.57C1568.92 1109.45 1564 1112.97 1561.61 1117.82C1558.84 1123.43 1554.04 1128.36 1550.13 1133.3C1548.48 1135.39 1546.88 1138.17 1544.86 1139.96C1539.6 1144.61 1534.16 1149.54 1528.5 1153.74C1522.93 1157.87 1516.04 1160.41 1509.86 1163.54C1506.28 1165.36 1502.97 1167.79 1499.48 1169.78C1498.29 1170.46 1496.78 1170.48 1495.46 1170.93C1494.31 1171.32 1493.51 1172.36 1492.4 1172.84C1487.82 1174.82 1483.14 1176.55 1478.58 1178.52C1471.09 1181.75 1462.34 1182.42 1454.8 1184.98C1449.99 1186.62 1444.08 1185.84 1439.04 1186.24C1428.84 1187.05 1419.11 1186.78 1408.8 1186.15C1400.44 1185.64 1387.62 1181.81 1379.91 1178.47C1375.39 1176.5 1370.98 1173.67 1366.33 1172.06C1354.09 1167.81 1341.79 1162.01 1330.6 1155.35C1327.59 1153.56 1324.12 1152.43 1321.07 1150.7C1317.91 1148.91 1315.27 1146.13 1312.12 1144.34C1302.57 1138.93 1292.84 1131.45 1285 1123.62C1280.27 1118.9 1278.18 1112.72 1274.53 1107.4C1271.28 1102.66 1269.18 1097.36 1265.97 1092.68C1264.87 1091.07 1262.78 1089.16 1263.08 1087.51" fill="none" fill-rule="evenodd" opacity="1" stroke="#c934ae" stroke-dasharray="4.709819346665401,3.1673178736672156,3.8818263886749875,15.0" stroke-linecap="round" stroke-linejoin="round" stroke-width="8"/>
<path d="M1214.94 598.156C1218.41 594.809 1221.58 591.214 1225.4 588.379C1226.73 587.392 1227.23 585.37 1228.56 584.383C1236.75 578.31 1242.71 576.601 1253.27 575.761C1257.2 575.447 1263.84 577.811 1267.3 579.636C1268.1 580.059 1269.09 579.874 1269.91 580.26C1273.23 581.825 1276.25 584.166 1279.57 585.731C1281.89 586.824 1284.4 587.4 1286.71 588.491C1289.81 589.953 1292.44 592.568 1295.54 594.028C1298.92 595.623 1302.16 597.456 1305.55 599.056C1305.91 599.228 1306.44 599.424 1306.5 599.812C1306.52 599.902 1301.6 604.042 1300.98 604.828C1296.95 609.91 1291.89 615.552 1286.89 619.678C1284.58 621.578 1281.19 622.254 1278.74 624.07C1264.36 634.747 1244.91 626.188 1231.71 615.75C1228.17 612.956 1222.03 608.399 1219.15 605.101C1218.56 604.419 1218.51 603.408 1217.95 602.701C1216.69 601.124 1213.35 599.691 1214.94 598.156Z" fill="none" fill-rule="evenodd" opacity="1" stroke="#c934ae" stroke-dasharray="4.709819346665401,3.1673178736672156,3.8818263886749875,15.0" stroke-linecap="round" stroke-linejoin="round" stroke-width="8"/>
<path d="M1237.06 579.547C1232.86 584.846 1229.84 588.863 1227.24 594.889C1226.79 595.944 1225.88 596.941 1226.09 598.309C1226.81 602.981 1227.96 607.769 1228.71 612.66" fill="none" fill-rule="evenodd" opacity="1" stroke="#c934ae" stroke-dasharray="4.709819346665401,3.1673178736672156,3.8818263886749875,15.0" stroke-linecap="round" stroke-linejoin="round" stroke-width="8"/>
<path d="M1267.55 581.28C1270.03 581.872 1281.89 589.894 1282.24 592.175C1284.18 604.824 1283.41 622.641 1269.77 628.528" fill="none" fill-rule="evenodd" opacity="1" stroke="#c934ae" stroke-dasharray="4.709819346665401,3.1673178736672156,3.8818263886749875,15.0" stroke-linecap="round" stroke-linejoin="round" stroke-width="8"/>
<path d="M1263.15 604.339C1262.29 603.282 1261.19 602.363 1260.55 601.168C1260.37 600.822 1264.65 597.282 1265.1 596.946C1268.68 594.286 1274.58 591.313 1278.57 595.874C1279.81 597.295 1282.66 601.325 1282.31 603.297C1281.73 606.514 1277.09 611.616 1273.49 611.397C1268.89 611.118 1265.92 607.715 1263.15 604.339Z" fill="none" fill-rule="evenodd" opacity="1" stroke="#c934ae" stroke-dasharray="4.709819346665401,3.1673178736672156,3.8818263886749875,15.0" stroke-linecap="round" stroke-linejoin="round" stroke-width="8"/>
<path d="M1261.19 581.706C1260.54 581.221 1259.81 580.773 1258.98 580.381C1255.81 578.886 1248.5 578.588 1245.6 579.842C1241.81 581.478 1234.91 592.731 1235.57 597.04C1235.73 598.029 1236.41 599.203 1236.71 600.184C1237.2 601.814 1236.87 603.349 1237.12 604.964C1237.77 609.217 1239.12 613.625 1241.91 617.132C1243.58 619.218 1246.48 619.663 1248.81 619.804C1253.81 620.107 1257.08 618.767 1260.88 615.943C1261.91 615.18 1262.3 613.625 1263.32 612.861C1265 611.62 1266.04 610.303 1266.86 608.396C1266.88 608.355 1266.87 608.307 1266.89 608.266C1263.77 605.888 1261.17 602.605 1262.1 600.716C1263.23 598.425 1264.94 597.075 1266.92 596.213C1266.9 596.097 1266.89 595.96 1266.87 595.845C1266.19 590.612 1265.74 585.102 1261.19 581.706ZM1250.26 587.5C1250.56 587.705 1251.99 590 1252.25 590.328C1252.9 591.146 1253.57 594.059 1254.01 594.931C1256.11 599.1 1248.67 600.906 1245.88 600.737C1244.86 600.675 1243.91 600.293 1243.11 599.661C1241.05 598.028 1238.53 596.62 1238.65 593.908C1238.73 592.259 1238.69 585.073 1244.46 584.98C1245.02 584.971 1248.15 586.065 1250.26 587.5Z" fill="none" fill-rule="evenodd" opacity="1" stroke="#c934ae" stroke-dasharray="4.709819346665401,3.1673178736672156,3.8818263886749875,15.0" stroke-linecap="round" stroke-linejoin="round" stroke-width="8"/>
</g>
<path d="M1132.61 377.755L1134.04 377.755L1134.04 384.93L1132.61 384.93L1132.61 377.755Z" fill="#000000" fill-opacity="0.995993" fill-rule="evenodd" opacity="1" stroke="#000000" stroke-linecap="round" stroke-linejoin="round" stroke-width="6"/>
<path d="M412.193 377.755C412.193 370.203 412.493 387.142 412.193 389.236C410.822 398.833 410.758 408.151 410.758 417.937C410.758 425.578 407.888 432.952 407.888 440.899C407.888 461.866 410.462 486.318 407.888 506.913C406.342 519.282 406.564 531.855 405.018 544.225C403.781 554.121 406.12 564.447 405.018 574.362C402.961 592.879 403.583 611.612 403.583 630.33C403.583 651.443 403.117 672.559 405.018 693.474C407.266 718.2 404.205 743.372 406.453 768.098C407.541 780.071 408.005 792.112 409.323 803.976C410.111 811.064 408.677 818.397 409.323 825.502C412.799 863.732 414.749 902.088 417.934 940.309C419.719 961.726 417.584 983.469 419.369 1004.89C421.863 1034.82 416.875 1065.37 419.369 1095.3C421.309 1118.59 420.804 1142.13 420.804 1165.62C420.804 1188.17 421.235 1210.67 419.369 1233.07C417.344 1257.36 420.142 1281.97 417.934 1306.26C415.734 1330.45 420.133 1355.25 417.934 1379.45C416.339 1396.99 418.252 1415.01 416.499 1432.54C412.395 1473.58 415.064 1516.04 415.064 1557.4" fill="none" fill-rule="evenodd" opacity="1" stroke="#000000" stroke-linecap="round" stroke-linejoin="round" stroke-width="6"/>
<path d="M438.025 1534.43C429.271 1538.81 422.899 1551.99 417.934 1560.27C416.368 1562.88 415.407 1567.59 412.193 1568.88C403.929 1572.18 404.249 1561.39 403.583 1557.4C403.182 1554.99 402.148 1552.66 402.148 1550.22C402.148 1545.44 402.148 1540.65 402.148 1535.87" fill="none" fill-rule="evenodd" opacity="1" stroke="#000000" stroke-linecap="round" stroke-linejoin="round" stroke-width="6"/>
<path d="M438.025 1571.75C438.025 1571.91 438.027 1572.06 438.032 1572.22" fill="none" fill-rule="evenodd" opacity="1" stroke="#000000" stroke-linecap="round" stroke-linejoin="round" stroke-width="6"/>
<path d="M410.758 384.93C414.615 384.93 418.421 385.82 422.239 386.366C429.355 387.382 437.111 386.261 443.765 384.93C452.465 383.19 462.227 384.963 471.032 383.495C479.875 382.021 489.455 384.969 498.299 383.495C506.811 382.077 515.595 381.845 524.13 380.625C541.969 378.077 562.039 380.625 580.098 380.625C616.454 380.625 652.809 380.625 689.165 380.625C729.024 380.625 768.379 382.06 808.277 382.06C811.66 382.06 814.974 383.017 818.323 383.495C828.989 385.019 840.831 383.227 851.33 382.06C869.931 379.994 890.012 382.06 908.733 382.06C927.404 382.06 946.301 381.195 964.702 383.495C971.767 384.379 979.163 382.612 986.228 383.495C999.092 385.103 1011.88 384.93 1024.98 384.93C1029.23 384.93 1035.1 385.775 1039.33 384.93C1046.22 383.552 1053.88 384.89 1060.85 383.495C1086.88 378.289 1115.67 380.625 1142.65 380.625C1151.51 380.625 1161.15 381.722 1169.92 380.625C1196.42 377.312 1223.27 376.32 1250.28 376.32C1265.19 376.32 1281.43 378.167 1296.21 376.32C1321.43 373.167 1348.06 374.885 1373.7 374.885C1412.93 374.885 1452.15 374.885 1491.38 374.885C1519.03 374.885 1545.87 376.459 1573.18 379.19C1594.99 381.371 1617.42 378.206 1639.19 380.625C1654.39 382.314 1669.85 381.969 1685.11 383.495C1706.67 385.651 1728.25 387.99 1749.69 390.671C1770.68 393.295 1791.48 393.541 1812.84 393.541C1814.19 393.541 1831.46 393.609 1831.49 393.541C1833.04 390.445 1825.16 390.295 1821.45 389.236C1809.17 385.728 1796.47 384.148 1784.14 380.625C1780.43 379.566 1776.46 379.824 1772.65 379.19C1771.6 379.014 1768.83 378.233 1769.78 377.755C1774.59 375.351 1786.54 378.594 1791.31 379.19C1807.01 381.152 1822.93 382.084 1837.23 389.236C1841.81 391.523 1848.71 393.89 1848.71 400.716C1848.71 406.145 1839.26 407.597 1835.8 409.327C1830.48 411.987 1825.68 415.812 1820.01 417.937C1812.1 420.906 1804.23 421.765 1797.05 426.548" fill="none" fill-rule="evenodd" opacity="1" stroke="#000000" stroke-linecap="round" stroke-linejoin="round" stroke-width="6"/>
<path d="M610.235 399.281C610.235 412.655 608.477 427.336 614.541 439.464" fill="none" fill-rule="evenodd" opacity="1" stroke="#000000" stroke-linecap="round" stroke-linejoin="round" stroke-width="6"/>
<path d="M614.541 479.646C614.541 490.956 612.3 503.866 617.411 514.088" fill="none" fill-rule="evenodd" opacity="1" stroke="#000000" stroke-linecap="round" stroke-linejoin="round" stroke-width="6"/>
<path d="M623.151 562.164C623.365 560.022 624.345 557.497 623.151 555.706C622.312 554.447 621.965 558.519 621.716 560.011C621.48 561.427 621.716 562.881 621.716 564.316C621.716 566.23 620.655 571.649 621.716 570.057C623.199 567.832 622.885 564.824 623.151 562.164Z" fill="none" fill-rule="evenodd" opacity="1" stroke="#000000" stroke-linecap="round" stroke-linejoin="round" stroke-width="6"/>
<path d="M626.021 626.025C626.021 636.071 626.021 646.116 626.021 656.162" fill="none" fill-rule="evenodd" opacity="1" stroke="#000000" stroke-linecap="round" stroke-linejoin="round" stroke-width="6"/>
<path d="M630.326 717.87C630.326 730.492 628.891 742.741 628.891 755.183" fill="none" fill-rule="evenodd" opacity="1" stroke="#000000" stroke-linecap="round" stroke-linejoin="round" stroke-width="6"/>
<path d="M628.891 809.716C628.891 823.033 627.456 836.383 627.456 849.898" fill="none" fill-rule="evenodd" opacity="1" stroke="#000000" stroke-linecap="round" stroke-linejoin="round" stroke-width="6"/>
<path d="M628.891 894.386C628.891 893.429 628.891 890.559 628.891 891.516C628.891 892.951 628.891 894.386 628.891 895.821C628.891 896.299 628.891 894.864 628.891 894.386Z" fill="none" fill-rule="evenodd" opacity="1" stroke="#000000" stroke-linecap="round" stroke-linejoin="round" stroke-width="6"/>
<path d="M631.762 930.263C631.762 935.638 632.403 933.285 630.326 937.439" fill="none" fill-rule="evenodd" opacity="1" stroke="#000000" stroke-linecap="round" stroke-linejoin="round" stroke-width="6"/>
<path d="M439.46 953.225C437.547 953.225 431.806 953.225 433.72 953.225C436.111 953.225 438.503 953.225 440.895 953.225C441.852 953.225 444.722 953.225 443.765 953.225C442.33 953.225 440.895 953.225 439.46 953.225Z" fill="none" fill-rule="evenodd" opacity="1" stroke="#000000" stroke-linecap="round" stroke-linejoin="round" stroke-width="6"/>
<path d="M484.665 953.942C482.023 953.942 479.363 954.141 476.772 954.66C475.365 954.941 479.642 954.66 481.078 954.66C483.948 954.66 487.659 956.689 489.688 954.66C490.884 953.464 486.357 953.942 484.665 953.942Z" fill="none" fill-rule="evenodd" opacity="1" stroke="#000000" stroke-linecap="round" stroke-linejoin="round" stroke-width="6"/>
<path d="M543.504 955.377C540.398 955.095 537.263 955.101 534.176 954.66C532.755 954.457 537.046 954.66 538.481 954.66C541.351 954.66 544.277 954.097 547.091 954.66C548.14 954.869 551.011 955.885 549.962 956.095C547.838 956.519 545.661 955.573 543.504 955.377Z" fill="none" fill-rule="evenodd" opacity="1" stroke="#000000" stroke-linecap="round" stroke-linejoin="round" stroke-width="6"/>
<path d="M587.274 951.789L591.579 951.789L595.884 950.354L600.19 950.354L600.19 950.354" fill="none" fill-rule="evenodd" opacity="1" stroke="#000000" stroke-linecap="round" stroke-linejoin="round" stroke-width="6"/>
<path d="M626.021 944.614C628.891 944.614 631.762 944.614 634.632 944.614" fill="none" fill-rule="evenodd" opacity="1" stroke="#000000" stroke-linecap="round" stroke-linejoin="round" stroke-width="6"/>
<path d="M445.2 1568.88C441.061 1566.81 439.096 1571.77 438.025 1576.05C436.339 1582.79 438.06 1601.6 446.635 1603.32C458.69 1605.73 463.782 1594.78 471.032 1587.53C473.471 1585.09 476.772 1578.92 476.772 1578.92C476.772 1578.92 474.322 1582.56 473.902 1584.66C472.855 1589.9 473.902 1596.53 473.902 1601.88C473.902 1614.3 476.302 1629.45 469.597 1640.63C465.715 1647.1 447.756 1652.17 442.33 1644.94C436.513 1637.18 442.336 1621.97 448.071 1616.23" fill="none" fill-rule="evenodd" opacity="1" stroke="#000000" stroke-linecap="round" stroke-linejoin="round" stroke-width="6"/>
<path d="M1919.03 390.671C1919.91 388.928 1924.02 382.06 1926.21 382.06C1927.28 382.06 1925.44 384.095 1924.77 384.93C1923.51 386.515 1921.9 387.801 1920.47 389.236C1917.17 392.539 1914.76 395.659 1911.86 399.281C1905.56 407.157 1896.63 412.932 1890.33 420.808C1888.59 422.986 1888 426.011 1886.03 427.983C1884.59 429.418 1882.63 430.473 1881.72 432.288" fill="none" fill-rule="evenodd" opacity="1" stroke="#000000" stroke-linecap="round" stroke-linejoin="round" stroke-width="6"/>
<path d="M1908.99 420.808C1908.99 406.909 1895.12 398.358 1891.77 384.93" fill="none" fill-rule="evenodd" opacity="1" stroke="#000000" stroke-linecap="round" stroke-linejoin="round" stroke-width="6"/>
<path d="M637.502 314.611C632.901 323.813 626.152 333.006 621.716 341.878C620.281 344.748 619.68 348.219 617.411 350.488" fill="none" fill-rule="evenodd" opacity="1" stroke="#000000" stroke-linecap="round" stroke-linejoin="round" stroke-width="6"/>
<path d="M631.762 349.053C629.233 343.995 624.55 338.863 623.151 333.267C622.919 332.339 623.579 331.253 623.151 330.397C621.904 327.902 619.728 325.868 618.846 323.222" fill="none" fill-rule="evenodd" opacity="1" stroke="#000000" stroke-linecap="round" stroke-linejoin="round" stroke-width="6"/>
<path d="M635.349 344.031C637.008 344.362 639.176 343.552 640.372 344.748C641.812 346.188 638.62 369.462 650.418 357.664C655.752 352.329 653.445 339.008 644.677 339.008C642.275 339.008 634.83 341.68 633.197 343.313C632.662 343.848 634.608 343.882 635.349 344.031Z" fill="none" fill-rule="evenodd" opacity="1" stroke="#000000" stroke-linecap="round" stroke-linejoin="round" stroke-width="6"/>
<path d="M323.029 941.713C323.029 940.556 323.029 938.244 323.029 938.244C323.029 938.244 322.287 946.418 321.295 950.384C318.984 959.629 321.308 967.744 326.498 974.665C327.274 975.699 327.076 977.555 328.232 978.133C335.514 981.774 349.504 968.894 350.778 962.524C351.572 958.556 350.206 954.39 350.778 950.384C351.01 948.765 356.407 936.51 354.247 936.51C351.871 936.51 350.778 956.717 350.778 959.056C350.778 976.709 350.7 995.866 347.31 1012.82C346.276 1017.99 345.752 1028.74 338.638 1030.16C327.167 1032.46 315.191 1011.15 319.561 1002.41C321.023 999.488 323.882 997.438 326.498 995.476C328.923 993.658 339.23 987.82 342.107 988.539C343.361 988.852 343.263 990.851 343.841 992.008" fill="none" fill-rule="evenodd" opacity="1" stroke="#000000" stroke-linecap="round" stroke-linejoin="round" stroke-width="6"/>
<path d="M369.856 979.867C372.012 981.952 364.269 996.443 366.387 1000.68C369.211 1006.33 384.151 1000.26 387.199 997.211C394.891 989.519 385.599 968.527 373.324 974.665C371.46 975.597 368.357 978.419 369.856 979.867Z" fill="none" fill-rule="evenodd" opacity="1" stroke="#000000" stroke-linecap="round" stroke-linejoin="round" stroke-width="6"/>
</g>
<g id="Layer-3">
<path d="M1036.46 390.671C1036.46 407.348 1036.16 423.618 1039.33 439.464C1040.72 446.438 1039.38 454.1 1040.76 460.99C1042.66 470.503 1040.81 481.401 1042.2 491.127C1044.09 504.382 1042.91 521.295 1040.76 534.179C1039.76 540.201 1041.96 546.853 1040.76 552.836C1037.95 566.89 1039.33 582.686 1039.33 597.323" fill="none" fill-rule="evenodd" opacity="1" stroke="#c934ae" stroke-dasharray="4.709819346665401,3.1673178736672156,3.8818263886749875,15.0" stroke-linecap="round" stroke-linejoin="round" stroke-width="8"/>
<path d="M1033.59 588.713C1018.08 580.958 1002.04 586.134 986.228 582.972C969.221 579.571 947.448 580.108 930.259 582.972C924.209 583.981 917.654 581.964 911.603 582.972C898.531 585.151 884.662 585.071 871.421 587.278C863.036 588.675 854.008 586.075 845.589 587.278C832.321 589.173 818.906 588.713 805.407 588.713C779.002 588.713 752.107 590.114 726.477 585.842C720.269 584.808 713.873 585.618 707.821 584.407C698.2 582.483 687.43 585.626 677.684 584.407C664.019 582.699 650.054 582.972 636.067 582.972C613.737 582.972 589.645 578.328 567.183 581.537C547.606 584.334 527.923 585.916 508.344 588.713C503.242 589.442 497.608 587.703 492.558 588.713C481.995 590.825 470.619 590.148 459.551 590.148C454.658 590.148 448.524 589.196 443.765 590.148C435.943 591.712 427.461 593.104 419.369 594.453C413.043 595.507 406.616 592.936 400.713 595.888" fill="none" fill-rule="evenodd" opacity="1" stroke="#c934ae" stroke-dasharray="4.709819346665401,3.1673178736672156,3.8818263886749875,15.0" stroke-linecap="round" stroke-linejoin="round" stroke-width="8"/>
<path d="M1660.58 1422.27C1659.26 1422.63 1656.05 1423.94 1656.49 1422.64C1657.13 1420.7 1660.44 1421.55 1662.44 1421.15C1663.21 1421 1665.35 1420.01 1664.67 1420.41C1663.39 1421.18 1662.03 1421.88 1660.58 1422.27Z" fill="none" fill-rule="evenodd" opacity="1" stroke="#000000" stroke-dasharray="4.71,3.1673178736672156,3.8818263886749875" stroke-linecap="round" stroke-linejoin="round" stroke-width="8"/>
<path d="M1657.23 1433.81C1663.17 1433.81 1668.37 1431.58 1673.61 1431.58" fill="none" fill-rule="evenodd" opacity="1" stroke="#000000" stroke-dasharray="4.71,3.1673178736672156,3.8818263886749875" stroke-linecap="round" stroke-linejoin="round" stroke-width="8"/>
<path d="M1721.99 1410.73C1721.99 1414.83 1721.18 1418.62 1720.5 1422.64C1720.06 1425.33 1720.28 1428.22 1719.76 1430.83C1719.21 1433.58 1718.74 1436.22 1718.27 1439.02C1718.19 1439.51 1718.77 1440.51 1718.27 1440.51C1715.31 1440.51 1719.66 1431.82 1719.76 1431.58C1722.46 1425.28 1725.59 1421.13 1730.93 1416.69C1732.05 1415.75 1736.92 1412.98 1738.37 1413.71C1742.6 1415.82 1740.6 1427.59 1740.6 1431.58C1740.6 1433.8 1740.86 1435.52 1739.86 1437.53C1739.61 1438.03 1739.36 1439.52 1739.11 1439.02C1736.38 1433.55 1747.85 1414.74 1751.77 1411.48C1753.44 1410.09 1760.09 1406.44 1762.19 1409.24C1766.63 1415.16 1762.19 1431.1 1762.19 1438.27" fill="none" fill-rule="evenodd" opacity="1" stroke="#000000" stroke-dasharray="4.71,3.1673178736672156,3.8818263886749875" stroke-linecap="round" stroke-linejoin="round" stroke-width="8"/>
<path d="M1805.37 1421.9C1805.37 1418.22 1806.27 1412.85 1805.37 1409.24C1804.22 1404.65 1795.01 1404.72 1791.97 1407.01C1785.1 1412.16 1775.54 1431.01 1781.55 1439.02C1789.33 1449.4 1799.48 1429.73 1802.39 1424.88C1803.74 1422.63 1804.62 1419.99 1804.62 1417.43C1804.62 1416.94 1804.62 1415.94 1804.62 1415.94C1804.62 1415.94 1804.74 1416.95 1804.62 1417.43C1804.02 1419.85 1803.88 1421.45 1803.88 1424.13C1803.88 1426.12 1803.88 1428.1 1803.88 1430.09C1803.88 1432.57 1803.88 1435.05 1803.88 1437.53C1803.88 1441.55 1802.39 1444.92 1802.39 1448.7" fill="none" fill-rule="evenodd" opacity="1" stroke="#000000" stroke-dasharray="4.71,3.1673178736672156,3.8818263886749875" stroke-linecap="round" stroke-linejoin="round" stroke-width="8"/>
<path d="M1847.8 1372.77C1846.01 1378.13 1843.67 1383.72 1842.59 1389.14C1841.19 1396.14 1840.67 1403.94 1838.12 1410.73C1835.54 1417.62 1833.15 1424.64 1831.42 1431.58C1828.66 1442.61 1844.21 1441.73 1847.8 1434.55" fill="none" fill-rule="evenodd" opacity="1" stroke="#000000" stroke-dasharray="4.71,3.1673178736672156,3.8818263886749875" stroke-linecap="round" stroke-linejoin="round" stroke-width="8"/>
<path d="M1849.29 1407.01C1849.29 1407.51 1849.73 1408.28 1849.29 1408.5C1847.23 1409.53 1843.83 1408 1841.84 1407.75C1837.32 1407.19 1832.97 1408.5 1828.44 1408.5" fill="none" fill-rule="evenodd" opacity="1" stroke="#000000" stroke-dasharray="4.71,3.1673178736672156,3.8818263886749875" stroke-linecap="round" stroke-linejoin="round" stroke-width="8"/>
<path d="M1863.43 1404.03C1863.43 1403.27 1865.63 1390.58 1868.64 1395.1C1870.36 1397.68 1867.47 1400.56 1870.87 1403.29C1872.99 1404.98 1882.78 1407.17 1882.78 1402.54C1882.78 1401.3 1880.8 1404.03 1879.81 1404.78C1878.03 1406.11 1878.15 1406.74 1876.83 1408.5C1873.07 1413.51 1871.19 1418.49 1870.13 1424.88C1868.2 1436.45 1878.72 1436.21 1886.51 1432.32" fill="none" fill-rule="evenodd" opacity="1" stroke="#000000" stroke-dasharray="4.71,3.1673178736672156,3.8818263886749875" stroke-linecap="round" stroke-linejoin="round" stroke-width="8"/>
<path d="M1906.6 1404.78C1906.6 1411.04 1902.83 1416.4 1902.14 1422.64C1901.94 1424.39 1901.55 1426.11 1901.39 1427.85C1901.16 1430.41 1901.87 1431.36 1900.65 1433.81C1900.43 1434.25 1900.65 1432.82 1900.65 1432.32" fill="none" fill-rule="evenodd" opacity="1" stroke="#000000" stroke-dasharray="4.71,3.1673178736672156,3.8818263886749875" stroke-linecap="round" stroke-linejoin="round" stroke-width="8"/>
<path d="M1911.07 1374.26L1912.56 1374.26L1911.07 1376.49L1910.33 1377.98L1911.07 1376.49L1911.07 1376.49" fill="none" fill-rule="evenodd" opacity="1" stroke="#000000" stroke-dasharray="4.71,3.1673178736672156,3.8818263886749875" stroke-linecap="round" stroke-linejoin="round" stroke-width="8"/>
<path d="M1955.73 1403.29C1950.15 1414.45 1938.81 1422.99 1933.4 1433.81" fill="none" fill-rule="evenodd" opacity="1" stroke="#000000" stroke-dasharray="4.71,3.1673178736672156,3.8818263886749875" stroke-linecap="round" stroke-linejoin="round" stroke-width="8"/>
<path d="M1952.01 1436.04C1952.01 1427.53 1940.67 1410.55 1934.89 1404.78C1931.94 1401.82 1932.82 1396.9 1931.17 1393.61" fill="none" fill-rule="evenodd" opacity="1" stroke="#000000" stroke-dasharray="4.71,3.1673178736672156,3.8818263886749875" stroke-linecap="round" stroke-linejoin="round" stroke-width="8"/>
<path d="M1988.88 1399.24C1988.88 1391.09 2003.78 1378.8 2011.96 1384.94C2013.85 1386.36 2013.06 1390.83 2013.06 1392.64C2013.06 1403.72 2004.76 1407.52 1996.57 1412.43C1995.44 1413.11 1994.6 1414.63 1993.28 1414.63C1991.81 1414.63 1992.06 1411.04 1993.28 1410.23C1995.17 1408.97 2001.94 1407.57 2004.27 1408.03C2009.76 1409.13 2014.56 1419.61 2015.26 1424.52C2017.68 1441.48 2002.22 1442.11 1989.98 1442.11" fill="none" fill-rule="evenodd" opacity="1" stroke="#000000" stroke-dasharray="4.71,3.1673178736672156,3.8818263886749875" stroke-linecap="round" stroke-linejoin="round" stroke-width="8"/>
<path d="M2052.64 1419.02C2057.24 1409.82 2055.7 1392.03 2041.65 1394.84C2033.05 1396.56 2029.55 1419.02 2029.55 1425.62C2029.55 1431.15 2027.93 1438.81 2036.15 1438.81C2040.08 1438.81 2047.1 1428.98 2049.34 1425.62C2057.94 1412.72 2059.93 1394.47 2061.43 1379.45C2061.99 1373.92 2063.69 1368.19 2064.73 1362.96C2065.09 1361.16 2066.56 1357.46 2064.73 1357.46C2062.41 1357.46 2063.17 1361.83 2062.53 1364.06C2061.2 1368.74 2060.17 1373.67 2059.24 1378.35C2056.97 1389.7 2058.08 1400.93 2057.04 1412.43C2056.12 1422.51 2053.74 1431.82 2053.74 1442.11" fill="none" fill-rule="evenodd" opacity="1" stroke="#000000" stroke-dasharray="4.71,3.1673178736672156,3.8818263886749875" stroke-linecap="round" stroke-linejoin="round" stroke-width="8"/>
<path d="M2092.22 1372.85C2084.87 1387.55 2082.21 1402.01 2079.02 1417.92C2078.26 1421.75 2079.45 1426.15 2079.02 1430.02C2078.29 1436.63 2076.83 1441.92 2076.83 1448.71" fill="none" fill-rule="evenodd" opacity="1" stroke="#000000" stroke-dasharray="4.71,3.1673178736672156,3.8818263886749875" stroke-linecap="round" stroke-linejoin="round" stroke-width="8"/>
<path d="M2096.61 1442.11C2096.98 1440.64 2097.71 1439.22 2097.71 1437.71C2097.71 1436.55 2096.8 1439.87 2096.61 1441.01C2096.43 1442.1 2096.83 1443.23 2096.61 1444.31C2096.45 1445.11 2095.51 1447.33 2095.51 1446.51C2095.51 1445 2096.25 1443.58 2096.61 1442.11Z" fill="none" fill-rule="evenodd" opacity="1" stroke="#000000" stroke-dasharray="4.71,3.1673178736672156,3.8818263886749875" stroke-linecap="round" stroke-linejoin="round" stroke-width="8"/>
<path d="M2119.7 1439.91C2119.7 1441.74 2119.7 1443.58 2119.7 1445.41" fill="none" fill-rule="evenodd" opacity="1" stroke="#000000" stroke-dasharray="4.71,3.1673178736672156,3.8818263886749875" stroke-linecap="round" stroke-linejoin="round" stroke-width="8"/>
<path d="M2138.39 1436.61L2138.39 1439.91L2138.39 1443.21L2138.39 1446.51L2137.29 1448.71L2137.29 1448.71" fill="none" fill-rule="evenodd" opacity="1" stroke="#000000" stroke-dasharray="4.71,3.1673178736672156,3.8818263886749875" stroke-linecap="round" stroke-linejoin="round" stroke-width="8"/>
<path d="M2154.88 1355.26C2158.75 1366.87 2161.2 1374.74 2162.57 1387.14C2163.2 1392.81 2166.04 1398.02 2166.97 1403.63C2168.77 1414.41 2166.44 1425.85 2162.57 1435.51C2160.65 1440.33 2160.59 1444.98 2158.18 1449.81" fill="none" fill-rule="evenodd" opacity="1" stroke="#000000" stroke-dasharray="4.71,3.1673178736672156,3.8818263886749875" stroke-linecap="round" stroke-linejoin="round" stroke-width="8"/>
<path d="M2226.34 1302.49C2222.52 1310.12 2220.25 1319.74 2218.64 1327.78C2217.3 1334.5 2212.29 1340.83 2210.94 1347.57C2208.62 1359.21 2208.22 1371.04 2206.55 1382.75C2205.72 1388.56 2203.9 1394.51 2203.25 1400.34C2202.15 1410.23 2202.97 1420.42 2201.05 1430.02C2199.64 1437.08 2202.24 1444.9 2201.05 1452C2199.41 1461.83 2198.93 1473.66 2199.95 1483.89C2200.73 1491.63 2203.48 1499.19 2204.35 1506.97C2204.87 1511.66 2203.68 1516.6 2204.35 1521.26C2205.05 1526.18 2207.8 1530.82 2208.75 1535.55C2209.97 1541.69 2210 1548.11 2212.04 1554.24C2214.34 1561.12 2218.64 1567.99 2218.64 1575.13" fill="none" fill-rule="evenodd" opacity="1" stroke="#000000" stroke-dasharray="4.71,3.1673178736672156,3.8818263886749875" stroke-linecap="round" stroke-linejoin="round" stroke-width="8"/>
<path d="M2265.91 1313.49C2264.45 1317.87 2261.55 1320.76 2259.32 1324.48C2254.31 1332.82 2249.43 1340.96 2245.02 1349.77" fill="none" fill-rule="evenodd" opacity="1" stroke="#000000" stroke-dasharray="4.71,3.1673178736672156,3.8818263886749875" stroke-linecap="round" stroke-linejoin="round" stroke-width="8"/>
<path d="M2262.61 1345.37C2261.02 1342.18 2261.08 1339.89 2260.42 1336.57C2259.47 1331.85 2255.57 1328.86 2253.82 1324.48C2252.14 1320.28 2251.99 1315.69 2250.52 1311.29" fill="none" fill-rule="evenodd" opacity="1" stroke="#000000" stroke-dasharray="4.71,3.1673178736672156,3.8818263886749875" stroke-linecap="round" stroke-linejoin="round" stroke-width="8"/>
<path d="M2275.81 1340.42C2274.96 1343.77 2273.27 1349.68 2275.81 1353.06C2280.53 1359.36 2287.92 1351.85 2289 1346.47C2289.62 1343.38 2287.59 1329.03 2281.3 1332.18C2278.91 1333.37 2276.12 1339.17 2275.81 1340.42Z" fill="none" fill-rule="evenodd" opacity="1" stroke="#000000" stroke-dasharray="4.71,3.1673178736672156,3.8818263886749875" stroke-linecap="round" stroke-linejoin="round" stroke-width="8"/>
<path d="M2247.22 1389.34C2247.22 1395.21 2242.08 1409.42 2251.62 1411.33C2260.32 1413.07 2264.61 1403.55 2265.91 1397.04C2266.46 1394.3 2269.21 1389.34 2269.21 1389.34C2269.21 1389.34 2268.11 1392.97 2268.11 1394.84C2268.11 1399.43 2267.54 1404.59 2268.11 1409.13C2269.1 1417.02 2273.06 1425.05 2271.41 1433.32C2269.72 1441.75 2257.27 1452.31 2251.62 1441.01" fill="none" fill-rule="evenodd" opacity="1" stroke="#000000" stroke-dasharray="4.71,3.1673178736672156,3.8818263886749875" stroke-linecap="round" stroke-linejoin="round" stroke-width="8"/>
<path d="M2282.4 1412.43C2282.03 1415.12 2281.17 1423.28 2283.5 1425.62C2290.95 1433.06 2298.67 1422.34 2299.99 1415.73C2301.33 1409.02 2293.68 1402.91 2287.9 1403.63C2286.75 1403.78 2285.22 1403.75 2284.6 1404.73C2283.19 1406.99 2282.77 1409.79 2282.4 1412.43Z" fill="none" fill-rule="evenodd" opacity="1" stroke="#000000" stroke-dasharray="4.71,3.1673178736672156,3.8818263886749875" stroke-linecap="round" stroke-linejoin="round" stroke-width="8"/>
<path d="M2242.83 1471.79C2242.83 1469.35 2246.58 1466.3 2249.42 1466.3C2252.54 1466.3 2253.32 1470.2 2254.92 1471.79C2257.52 1474.4 2266.41 1474.95 2268.11 1470.69C2269.25 1467.84 2267.95 1465.36 2264.81 1468.49C2262.6 1470.71 2262.75 1474.41 2261.51 1477.29C2257.49 1486.69 2256 1496.55 2249.42 1504.77C2247.73 1506.88 2240.49 1514.49 2237.33 1510.27C2235.86 1508.32 2238.15 1503.67 2240.63 1503.67C2243.05 1503.67 2248.11 1507.27 2250.52 1508.07C2255.82 1509.84 2262.12 1508.92 2267.01 1511.37" fill="none" fill-rule="evenodd" opacity="1" stroke="#000000" stroke-dasharray="4.71,3.1673178736672156,3.8818263886749875" stroke-linecap="round" stroke-linejoin="round" stroke-width="8"/>
<path d="M2254.37 1488.83C2256.76 1488.83 2259.25 1489.04 2261.51 1488.28C2263.25 1487.7 2257.85 1488.28 2256.02 1488.28C2255.38 1488.28 2248.32 1488.28 2248.32 1488.28C2250.24 1488.92 2252.35 1488.83 2254.37 1488.83Z" fill="none" fill-rule="evenodd" opacity="1" stroke="#000000" stroke-dasharray="4.71,3.1673178736672156,3.8818263886749875" stroke-linecap="round" stroke-linejoin="round" stroke-width="8"/>
<path d="M2282.95 1495.43C2281.36 1499.8 2281.15 1501.13 2280.2 1505.87C2277.14 1521.19 2297.69 1516.3 2299.99 1504.77C2301.91 1495.2 2286.86 1484.66 2282.95 1495.43Z" fill="none" fill-rule="evenodd" opacity="1" stroke="#000000" stroke-dasharray="4.71,3.1673178736672156,3.8818263886749875" stroke-linecap="round" stroke-linejoin="round" stroke-width="8"/>
<path d="M2256.02 1549.85C2256.02 1560.13 2255.96 1572.01 2252.72 1581.73" fill="none" fill-rule="evenodd" opacity="1" stroke="#000000" stroke-dasharray="4.71,3.1673178736672156,3.8818263886749875" stroke-linecap="round" stroke-linejoin="round" stroke-width="8"/>
<path d="M2318.68 1288.2C2318.68 1287.1 2318.68 1286 2318.68 1284.9C2318.68 1283.39 2319.48 1287.82 2319.78 1289.3C2320.36 1292.2 2320.24 1295.21 2320.88 1298.1C2322.53 1305.53 2325.69 1311.86 2327.48 1318.98C2332.47 1338.98 2336.66 1359.06 2339.57 1379.45C2339.9 1381.74 2341.44 1383.75 2341.77 1386.04C2344.73 1406.76 2348.52 1428.62 2346.16 1449.81C2343.28 1475.79 2339.45 1502.19 2335.17 1527.86C2333.83 1535.89 2329.51 1544.73 2326.38 1552.04C2324.49 1556.43 2324.38 1561.79 2323.08 1566.34C2320.88 1574.03 2316.85 1581.72 2314.28 1589.42" fill="none" fill-rule="evenodd" opacity="1" stroke="#000000" stroke-dasharray="4.71,3.1673178736672156,3.8818263886749875" stroke-linecap="round" stroke-linejoin="round" stroke-width="8"/>
<path d="M1053.17 303.487C1050.81 308.208 1047.82 308.845 1044.5 312.159C1042.67 313.987 1042.58 317.027 1041.03 319.096C1039.3 321.408 1036.14 322.255 1034.1 324.299C1030.68 327.71 1030.07 334.294 1027.16 338.173C1024.5 341.724 1021.64 345.423 1018.49 348.579" fill="none" fill-rule="evenodd" opacity="1" stroke="#c934ae" stroke-linecap="round" stroke-linejoin="round" stroke-width="8"/>
<path d="M1042.77 345.11C1040.26 337.601 1037.13 327.184 1032.36 320.83C1028.81 316.09 1025.42 313.302 1025.42 306.956" fill="none" fill-rule="evenodd" opacity="1" stroke="#c934ae" stroke-linecap="round" stroke-linejoin="round" stroke-width="8"/>
<path d="M1060.98 350.313C1061.31 348.006 1060.8 345.46 1061.84 343.376C1062.62 341.825 1062.19 346.878 1061.84 348.579C1061.38 350.916 1059.04 357.648 1060.11 355.516C1060.9 353.944 1060.73 352.054 1060.98 350.313Z" fill="none" fill-rule="evenodd" opacity="1" stroke="#c934ae" stroke-linecap="round" stroke-linejoin="round" stroke-width="8"/>
<path d="M321.295 580.976C318.183 587.202 313.236 615.438 323.029 617.397C330.611 618.913 343.837 600.07 345.575 593.117C346.276 590.312 345.575 584.445 345.575 584.445C345.575 584.445 345.575 590.226 345.575 593.117C345.575 598.898 345.575 604.679 345.575 610.46C345.575 624.014 342.593 637.024 340.372 650.349C339.524 655.44 339.29 663.571 335.17 667.692C319.038 683.824 306.209 653.556 326.498 643.412" fill="none" fill-rule="evenodd" opacity="1" stroke="#c934ae" stroke-linecap="round" stroke-linejoin="round" stroke-width="8"/>
<path d="M368.121 612.194C368.121 622.744 367.575 637.567 362.919 646.88" fill="none" fill-rule="evenodd" opacity="1" stroke="#c934ae" stroke-linecap="round" stroke-linejoin="round" stroke-width="8"/>
<path d="M1553.13 1344.32C1552.34 1345.91 1550.63 1346.82 1549.38 1348.07C1548.17 1349.29 1549.08 1351.64 1548.13 1353.07C1547.62 1353.85 1546.19 1353.58 1545.63 1354.32C1544.84 1355.38 1545.17 1357.02 1544.38 1358.07C1540.73 1362.94 1533.57 1367.2 1530.64 1373.07" fill="none" fill-rule="evenodd" opacity="1" stroke="#c934ae" stroke-linecap="round" stroke-linejoin="round" stroke-width="8"/>
<path d="M1530.64 1343.07C1532.73 1347.27 1532.69 1352.58 1534.39 1356.82C1537.47 1364.54 1543.13 1371.99 1543.13 1380.56" fill="none" fill-rule="evenodd" opacity="1" stroke="#c934ae" stroke-linecap="round" stroke-linejoin="round" stroke-width="8"/>
<path d="M1561.88 1380.56C1561.88 1377.65 1561.88 1374.73 1561.88 1371.82C1561.88 1370.57 1561.88 1374.32 1561.88 1375.57C1561.88 1379.32 1561.88 1383.06 1561.88 1386.81C1561.88 1387.65 1561.88 1390.15 1561.88 1389.31C1561.88 1386.4 1561.88 1383.48 1561.88 1380.56Z" fill="none" fill-rule="evenodd" opacity="1" stroke="#c934ae" stroke-linecap="round" stroke-linejoin="round" stroke-width="8"/>
<path d="M1526.89 1421.8C1526.89 1420.55 1525.64 1418.05 1526.89 1418.05C1528.53 1418.05 1528.14 1425.17 1528.14 1425.55C1528.14 1428.26 1527.35 1446.69 1529.39 1448.05C1537.49 1453.45 1546.35 1435.31 1548.13 1430.55C1549.64 1426.52 1549.38 1427.8 1549.38 1424.3C1549.38 1423.47 1549.38 1420.97 1549.38 1421.8C1549.38 1433.94 1549.43 1446.04 1550.63 1458.04C1551.31 1464.88 1554.32 1472.14 1553.13 1479.29C1552.05 1485.77 1540.18 1479.95 1536.88 1479.29C1534.43 1478.8 1531.62 1480.41 1529.39 1479.29C1528.55 1478.87 1528.55 1477.62 1528.14 1476.79" fill="none" fill-rule="evenodd" opacity="1" stroke="#c934ae" stroke-linecap="round" stroke-linejoin="round" stroke-width="8"/>
<path d="M1570 1454.92C1570 1452.2 1570.33 1449.5 1570.63 1446.8C1570.63 1446.8 1570.63 1448.35 1570.63 1451.8C1570.63 1454.71 1570.63 1457.63 1570.63 1460.54C1570.63 1461.38 1570.72 1463.87 1570.63 1463.04C1570.33 1460.34 1570 1457.63 1570 1454.92Z" fill="none" fill-rule="evenodd" opacity="1" stroke="#c934ae" stroke-linecap="round" stroke-linejoin="round" stroke-width="8"/>
<path d="M1530.64 1516.78C1530.64 1499.81 1536.39 1509.16 1546.88 1511.78C1547.68 1511.98 1554.09 1511.19 1554.38 1511.78C1554.66 1512.33 1550.24 1519.64 1549.38 1521.78C1544.69 1533.51 1541.44 1544.93 1534.39 1555.52C1530.48 1561.37 1519.72 1558.08 1518.14 1551.77C1517.29 1548.35 1518.49 1543.11 1523.14 1544.27C1528.13 1545.52 1523.16 1545.53 1528.14 1548.02C1534.83 1551.37 1551.91 1557.98 1558.13 1551.77" fill="none" fill-rule="evenodd" opacity="1" stroke="#c934ae" stroke-linecap="round" stroke-linejoin="round" stroke-width="8"/>
<path d="M1542.51 1531.77C1544.8 1531.77 1547.09 1531.77 1549.38 1531.77C1550.63 1531.77 1546.88 1531.77 1545.63 1531.77C1543.13 1531.77 1540.63 1531.77 1538.13 1531.77C1537.3 1531.77 1534.8 1531.77 1535.64 1531.77C1537.93 1531.77 1540.22 1531.77 1542.51 1531.77Z" fill="none" fill-rule="evenodd" opacity="1" stroke="#c934ae" stroke-linecap="round" stroke-linejoin="round" stroke-width="8"/>
<path d="M1578.12 1548.64C1578.12 1545.94 1578.12 1543.23 1578.12 1540.52C1578.12 1538.85 1578.12 1543.85 1578.12 1545.52C1578.12 1548.02 1578.12 1550.52 1578.12 1553.02C1578.12 1554.68 1578.12 1559.68 1578.12 1558.02C1578.12 1554.89 1578.12 1551.77 1578.12 1548.64Z" fill="none" fill-rule="evenodd" opacity="1" stroke="#c934ae" stroke-linecap="round" stroke-linejoin="round" stroke-width="8"/>
<path d="M1551.88 1591.76C1551.88 1602.14 1549.38 1612.38 1549.38 1623" fill="none" fill-rule="evenodd" opacity="1" stroke="#c934ae" stroke-linecap="round" stroke-linejoin="round" stroke-width="8"/>
<path d="M1608.12 1333.08C1608.12 1340.17 1611.45 1343.93 1613.11 1350.57C1616.55 1364.33 1621.83 1377.87 1624.36 1391.81C1626.76 1405 1627.88 1418.45 1629.36 1431.8C1630.18 1439.21 1628.86 1446.85 1629.36 1454.29C1630.02 1464.24 1631.38 1474.28 1630.61 1484.29C1629.87 1493.92 1627.4 1503.31 1626.86 1513.03C1626.28 1523.57 1627.52 1533.78 1625.61 1544.27C1624.36 1551.16 1621.22 1559.29 1618.11 1565.51C1617.59 1566.57 1616.05 1566.92 1615.61 1568.01C1611.08 1579.35 1606.87 1600 1606.87 1611.75" fill="none" fill-rule="evenodd" opacity="1" stroke="#c934ae" stroke-linecap="round" stroke-linejoin="round" stroke-width="8"/>
<path d="M1490.65 1328.08C1491.06 1328.91 1492.12 1329.67 1491.9 1330.58C1491.25 1333.17 1488.09 1334.44 1486.9 1336.83C1485.08 1340.47 1483.3 1344.22 1481.9 1348.07C1474.13 1369.43 1463.99 1388.91 1461.91 1411.81C1459.86 1434.32 1461.91 1457.94 1461.91 1480.54C1461.91 1501.06 1460.83 1521.49 1464.4 1541.77C1466.32 1552.6 1474.1 1566.63 1478.15 1576.76C1483.55 1590.25 1486.64 1604.99 1493.15 1618" fill="none" fill-rule="evenodd" opacity="1" stroke="#c934ae" stroke-linecap="round" stroke-linejoin="round" stroke-width="8"/>
</g>
</svg>
