<svg stroke-miterlimit="10" style="fill-rule:nonzero;clip-rule:evenodd;stroke-linecap:round;stroke-linejoin:round" viewBox="0 0 2388 1668" xml:space="preserve" xmlns="http://www.w3.org/2000/svg" xmlns:xlink="http://www.w3.org/1999/xlink"><g><g opacity=".691" stroke="#000" stroke-width="6"><path d="m790.906 765.249 1.205-.554M793.918 764.142c-4.047-.015-11.295 5.405-13.866 7.776-.753.695-1.562 2.261-2.418 2.787-.334.205-.868-.21-1.203-.005-1.579.97-2.865 3.199-4.229 4.457-7.77 7.166-13.652 16.257-18.753 25.648-1.841 3.389-4.444 6.343-5.456 10.043-2.221 8.125-5.826 16.273-9.722 23.444-1.147 2.113-2.105 4.813-3.637 6.696-1.918 2.359-4.403 4.975-6.045 7.245-.589.815-.823 2.43-1.818 3.348-2.947 2.718-6.8 5.788-9.06 8.912-3.338 4.615-1.99 12.921-.676 17.887 1.312 4.962 5.195 5.754 8.986 8.418 2.474 1.738 4.676 4.603 7.192 6.176.974.609 3.518 1.091 4.804 1.694 9.857 4.626 21.698 5.933 32.465 3.472 3.204-.732 6.674-3.071 9.642-4.437 1.291-.594 3.839-1.058 4.819-1.66.374-.229.232-.886.606-1.115 3.077-1.891 10.474-4.305 12.059-7.224M763.854 904.912c-.009 2.029 1.566 3.781 3.588 5.044.665.416 1.74-.407 2.405.009.372.232.225.887.597 1.12 1.602 1.001 3.993 1.223 6.008 1.699 2.401.567.006.563 2.398 1.686 1.601.751 4.232 1.279 6.008 1.699 1.696.4 3.106 1.853 4.802 2.253 3.436.812 7.392-.212 10.824.599 17.171 4.056 36.614-.548 52.947-4.28 3.357-.767 5.132-3.063 7.239-5.005.885-.816 2.611-.97 3.615-1.664 2.84-1.964 5.42-3.885 7.845-6.121.637-.587 1.774-.523 2.411-1.109 2.979-2.748 4.877-6.169 7.856-8.917 3.843-3.543 7.285-6.012 11.466-8.903 1.022-.707 2.127-2.236 3.019-2.784.334-.205.868.21 1.202.005 1.823-1.12 2.562-2.853 4.829-3.896" fill="none" opacity="1"/><path d="M720.73 861.709c4.256.015 9.446-1 13.244-2.748.72-.331 4.081-1.228 4.814-.541 2.155 2.018-.778 6.98-1.842 8.938-1.463 2.693-4.806 6.017-5.448 8.366-1.316 4.811-2.732 11.021-7.876 13.388M792.137 758.545c.4.188.883.857 1.201.564.318-.294-.49-.716-.597-1.121-.604-2.283.023-5.464.033-7.826.026-6.179-.324-13.126 1.283-19.003 1.509-5.52 2.183-11.286 3.679-16.758.731-2.672 2.311-5.149 3.04-7.815.391-1.429 1.531-2.252 2.42-3.346 2.46-3.024 3.594-7.013 6.057-10.041 2.156-2.65 4.505-4.611 6.647-7.243 2.956-3.634 5.037-8.164 7.269-12.272.25-.46 1.34-3.202 1.818-3.348.667-.204 5.567 7.459 6.581 8.409 2.575 2.413 3.979 5.973 6.581 8.41 5.865 5.494 13.78 12.692 13.744 21.294" fill="none" opacity="1"/><path d="M902.004 663.348c-1.154 2.126-1.533 4.851-3.035 6.698-7.458 9.167-18.136 16.169-26.565 23.942-2.224 2.051-6.843 3.646-9.043 4.999-7.484 4.598-12.642 10.534-18.117 17.264-1.103 1.356-1.117 3.165-1.823 4.466-.654 1.204-2.019 1.877-2.42 3.345-1.05 3.841-1.724 15.062-.681 19.005 1 3.782 2.563 7.42 3.561 11.194.521 1.971 1.574 3.135 2.385 5.04 2.037 4.788 2.211 10.349 4.748 15.111M897.234 796.383c-1.03-1.935-.49-3.162.022-5.031.782-2.862.441-6.019 1.24-8.94.527-1.927 1.901-3.649 2.429-5.582.943-3.448 2.811-7.047 5.453-9.484 2.474-2.281 3.341-6.331 5.451-8.925 2.502-3.075 5.366-5.854 7.857-8.916 3.18-3.909 3.663-8.993 4.868-13.399.444-1.624.016-3.907.023-5.591.037-8.81-2.497-14.267-6.524-21.826-1.254-2.354-1.501-4.213-3.583-6.162-2.043-1.915-3.524-6.508-4.172-8.96-.418-1.58-1.969-2.901-2.387-4.481-2.134-8.065-5.947-16.117-5.911-24.62" fill="none" opacity="1"/><path d="M864.817 781.73c.016-3.812 1.683-8.402.653-12.296-1.017-3.845-1.661-7.777-2.356-11.749-.686-3.92.466-8.461-.55-12.301-2.004-7.576-1.212-18.847 2.514-25.707 1.147-2.112 2.105-4.812 3.637-6.695 1.515-1.862 4.1-2.556 6.031-3.891 5.045-3.489 11.205-6.273 16.878-8.884 2.535-1.166 5.318-4.242 6.645-6.684l1.818-3.348s-.617 3.716-.625 5.589c-.013 3.038-.819 7.125-.042 10.062 1.406 5.316 3.941 10.357 5.347 15.673 1.263 4.775 1.681 9.761 2.946 14.546.567 2.144-.021 5.039-.03 7.267-.051 12.1-4.766 18.835-12.147 27.908-.541.665-1.663.65-2.411 1.109-.966.594-1.95 2.553-3.021 3.344-3.275 2.415-5.913 4.229-7.852 7.798M898.381 666.689c.008-1.807.769-3.361 1.225-5.027 1.913-6.997-1.186-18.68-2.902-25.167-.938-3.548-2.032-7.116-2.962-10.633-.071-.268-1.613-3.36-1.791-3.36-.401-.002-.003.745-.004 1.118M903.184 668.943c.039-9.4-.077-18.84 1.922-27.945.712-3.245.787-6.442 2.446-9.495M903.778 670.622c2.044-3.762 3.71-11.366 4.878-15.635 1.696-6.205 6.062-11.16 9.092-16.738M821.355 675.913c5.98-11.008 3.531-24.244 1.957-36.33-.588-4.518-.721-9.807-2.948-13.987M826.775 674.256c.012-2.752.682-5.299 1.236-7.822 1.139-5.187-.76-10.969.068-16.212 1.046-6.617 3.222-12.184 5.491-18.429M827.389 671.463s.995.323 1.202.004c.857-1.314.693-3.012 1.222-4.468 1.43-3.935 2.801-7.822 3.658-11.726 1.804-8.214 9.461-13.534 13.319-20.637M830.55 920.807c-1.185 2.181-1.806 4.404-2.434 6.7-.813 2.973-3.357 6.179-4.85 8.927-.491.905-1.049 2.638-1.818 3.347-3.885 3.583-6.253 9.108-10.279 12.821-7.072 6.522-15.427 12.601-25.926 15-2.125.486-3.901 2.288-6.026 2.773l-12.041 2.752c-4.506 1.029-10.19-1.448-14.437.506" fill="none" opacity="1"/><path d="M860.578 931.538c-3.549 6.534-7.863 12.264-13.305 17.282-1.51 1.392-2.12 3.626-3.63 5.018-8.595 7.926-18.197 17.023-29.565 22.254-9.06 4.17-19.543 6.56-29.509 8.838-4.919 1.124-9.54 3.297-14.454 4.42-13.612 3.11-28.357-.981-42.109 1.524-1.418.258-2.82.225-4.213.543-1.593.365-3.345 1.54-4.821 2.219-.74.341-2.405-.218-2.408.55-.002.417.954.216 1.201.564.456.641.01 1.693.592 2.238 1.874 1.756 4.73 2.237 7.205 2.822 2.545.6 4.659 2.78 7.204 3.38 1.031.24 7.151.27 6.606 2.26-.114.42-9.929 7.77-10.861 8.35-.335.2-.868-.21-1.203-.01-1.864 1.15-2.118 4.18-3.632 5.58-.578.53-3.245 2.75-2.422 3.9 1.204 1.7 6.582.16 8.418.59 2.377.57 3.622 2.82 6 3.38 1.272.3 4.213-.57 4.203 1.69-.007 1.65-2.123 1.4-3.017 2.23-2.622 2.42-4.655 5.4-7.25 7.8-.886.81-2.073 3.56-.62 4.47.721.45 2.747-.19 3.608.01 4.945 1.17 8.278 1.18 13.233.05 3.988-.91 13.854-3.87 16.868-6.65 6.225-5.74 14.301-10.57 23.502-10.54 4.675.02 8.851.14 13.227 1.17 4.803 1.14 10.218.04 15.032 1.17 3.393.81 7.433-.76 10.826.04 3.455.82 7.382-.21 10.824.6 3.584.85 7.225 1.43 10.817 2.28 4.375 1.03 9.456-.43 13.831.61 4.331 1.02 9.259.59 13.831.61 7.418.02 14.836.05 22.254.08 8.723.03 18.184.87 26.469-1.03 4.387-1 9.438.5 13.835-.5 8.146-1.87 17.108-4.25 24.693-7.74 2.887-1.33 6.405-1.5 9.036-3.32 6.008-4.16 12.685-7.52 18.695-11.67 1.769-1.23 4.256-1.55 6.026-2.78 2.502-1.73 3.866-3.73 6.635-5M672.785 963.839c2.153-.991 4.113-2.565 6.031-3.891 6.295-4.353 15.664-7.21 22.893-8.862 1.275-.291 2.341-1.373 3.616-1.664l14.449-3.302c4.439-1.014 10.907-.519 15.64-.502 5.836.021 9.004 6.729 5.366 11.201-1.817 2.233-3.65 3.931-5.439 6.129a29.86 29.86 0 0 1-6.038 5.569c-10.118 6.996-20.77 13.107-30.759 20.013-4.435 3.067-10.022 4.7-14.468 7.774-1.83 1.266-4.368 1.07-6.024 2.215-8.171 5.651-18.476 8.501-26.525 14.441-5.841 4.31-14.647 7.25-21.69 8.86-2.308.53-4.915.01-7.22.54-1.114.25-6.204 1.48-7.22.53-.565-.53.201-1.51.01-2.24-1.072-4.05 2.365-6.57 4.252-10.04 4.467-8.23 12.042-16.122 19.343-22.855 2.082-1.92 5.265-3.59 6.642-6.125" fill="none" opacity="1"/><path d="M650.984 927.702c.295.107.304-.838.304-.838l-.014 3.354c-.01 2.312.596 4.528 1.174 6.713 2.156 8.148 4.853 16.435 8.921 24.071 1.89 3.548 5.242 6.924 7.777 10.091 1.78 2.225 4.732 3.813 5.988 6.172.612 1.148 4.04 3.389 3.588 5.044-.351 1.284-7.625 2.577-9.038 3.88l-3.019 2.785c-.637.587-.316 2.235-1.213 2.231-.826-.003-2.175-5.953-2.377-6.717-.703-2.658-3.852-8.833-5.366-11.2-.726-1.133-2.367-2.189-2.994-3.365-.872-1.638-1.031-3.911-2.382-5.599-4.873-6.089-8.047-13.151-13.756-18.499-1.355-1.269-5.504-3.143-7.201-3.939-.333-.157-3.497-.367-3.606-.572-.431-.809 4.784-3.597 5.429-3.894 3.698-1.701 8.707-3.79 12.055-6.106 1.739-1.202 3.298-4.501 5.73-3.612ZM743.78 958.507c-.012 2.854 1.086 4.106 1.776 6.715 1.055 3.987.7 8.323 1.753 12.305.923 3.489 1.775 6.934 1.76 10.628M763.273 1042.99c.011-2.65-.296 4.39-.625 5.59-1.173 4.29-.089 9.13-1.259 13.41-1.391 5.09-1.083 10.57-2.472 15.65-1.134 4.14-3.301 13.62-6.687 16.74-.318.3-.955.21-1.205.56-.224.31.219.81-.004 1.12-1.664 2.3-7.467 4.83-10.251 6.11M615.367 1030.16c.001-.24.369-2.41-1.196-1.69-.904.42 1.55 2.92 1.79 3.37 2.044 3.83 4.718 7.73 6.569 11.2 1.999 3.75 5.097 7.3 7.774 10.65 3.005 3.75 5.288 7.92 8.371 11.77 1.423 1.78 5.774 4.64 6.59 6.17.178.34-.225.81-.004 1.12.553.78 1.8.94 2.399 1.69 3.746 4.68 10.028 7.19 14.991 10.67 1.512 1.07 6.804 4.76 8.399 5.07 1.344.25 3.581 0 4.81.57 12.375 5.81 27.668 8.64 41.451 11.89 2.073.49 4.542-.46 6.616.03 5.559 1.31 12.198.6 18.041.62M920.844 760.131l-.024 5.59-.047 11.181c-.025 6.021 1.417 12.17 2.932 17.9 1.294 4.89 1.672 9.899 4.149 14.55 3.883 7.289 7.541 14.975 11.938 21.846 1.232 1.927 3.211 3.57 4.79 5.049 1.788 1.675 2.645 4.803 4.182 6.724 1.767 2.207 4.199 5.614 6.586 7.291.715.503 1.769.536 2.401 1.127 1.304 1.221 2.286 3.264 3.59 4.486 2.859 2.678 6.562 4.827 8.989 7.859 2.971 3.712 6.132 7.428 9.578 10.656 4.91 4.599 11.725 7.82 17.393 11.804 3.699 2.599 8.309 4.155 11.999 6.752 3.45 2.425 8.32 5.182 12.61 6.195 4.09.966 8.52 2.556 12.01 4.516 1.57.887 3.16.364 4.8 1.136 13.05 6.121 26.22 10.264 39.03 17.472 3.32 1.872 7.17 2.94 10.2 5.068 3.88 2.729 8.74 4.04 12.6 6.754 2.02 1.42 3.27 3.561 5.39 5.051 10.39 7.301 20.31 16.55 26.96 26.932 1.54 2.416 4.3 4.365 5.98 6.731 2.55 3.579 3.62 8.087 5.97 11.761 1.25 1.956 3.29 4.074 4.18 6.165.55 1.298.8 3.243 1.79 4.479 2.98 3.723 5.97 7.544 7.77 11.764.54 1.29.63 3.2 1.18 4.48 2.51 5.89 6.72 11.79 8.35 17.92 1.63 6.16 3.43 12.29 4.73 18.47 1.48 7 4.7 13.78 6.53 20.7.51 1.94-.54 4.22-.03 6.15.81 3.06.58 6.28.56 9.51-.03 8.95.57 18.26-1.31 26.83-.72 3.28-3.38 6.78-4.85 9.48-.93 1.71-1.67 4.4-2.43 6.15-1.6 3.65-4.78 6.97-7.26 10.03-1.45 1.78-1.99 3.5-3.63 5.02-.89.82-1.07 2.42-1.82 3.35-2.19 2.68-4.09 5.99-6.65 8.36-3.86 3.56-7.48 7.52-10.88 11.7-2.3 2.82-5.56 4.99-7.85 7.8-3.3 4.05-8.89 6.66-12.08 10.58-1.91 2.35-4.99 4.61-7.24 6.68-.64.58-.67 1.56-1.21 2.23-2.84 3.48-5.21 6.81-7.27 10.59-1.51 2.79-4.57 5.73-5.45 8.93-1.23 4.52-2.44 8.93-3.66 13.4-.68 2.48.68 4.71-2.43 6.14" fill="none" opacity="1"/><path d="M858.112 1231.73c5.314 2.5 15.216-.18 21.046 1.2 4.501 1.06 9.16 1.96 13.822 2.84 3.729.71 7.76.3 11.423 1.16 9.686 2.29 19.822 3.43 29.448 5.7 1.508.36 3.303-.34 4.811.02 3.543.84 7.273.88 10.819 1.72 1.885.44 4.13-.43 6.015.02 4.739 1.12 9.632.26 14.43 1.17 7.67 1.45 15.527 1.17 23.452 1.2 16.872.06 33.052-.77 49.332-3.73 9.66-1.76 19.36-2.19 28.89-4.37 1.14-.26 2.48.27 3.61.01 7.73-1.76 15.33-3.55 21.09-8.86" fill="none" opacity="1"/><path d="M963.308 1168.31c-11.614 5.34-25.379 2.69-37.798 4.95-4.107.75-8.662-.67-12.796-.04-9.393 1.42-19.282.59-28.649 2.73-5.743 1.31-11.269 3.14-17.079 4.46-2.008.46-4.07.24-6.096.55-6.012.91-11.751 3.11-17.689 4.47-2.077.47-5.67 1.28-7.323 2.8-3.424 3.16-7.003 6.46-10.399 9.59-1.375 1.27-.609 3.38-1.847 4.52-1.502 1.39-1.291 2.5-1.847 4.53-1.723 6.3-2.229 12.69 2.973 17.57.91.85.903 2.55 1.813 3.4 1.063 1 3.507 1.65 4.865 2.28 9.44 4.43 21.079 4.04 31.667 4.08" fill="none" opacity="1"/><path d="M848.635 1197.34c-2.635 1.21-4.699-1.8-7.302-2.29-5.766-1.1-9.832-.55-14.635 2.77-1.569 1.09-3.381 1.73-4.28 3.39M847.342 1214.89c-3.314-.01-14.585-1.02-17.062.5-.868.54-1.687 2.12-2.45 2.83-1.918 1.77-4.127 3.24-6.114 5.07" fill="none" opacity="1"/><path d="M823.646 1198.95c-2.365-3.46-7.728 4.67-9.17 7.33-.223.4-2.71 3.14-2.452 3.38.25.24 4.434-3.06 4.889-3.38 1.369-.94 2.301-2.43 3.67-3.38 1.83-1.27 4.469-1.9 3.063-3.95ZM825.693 1219.34c-3.205 2.42-5.244 3.82-7.645 6.77-.612.75-2.552 1.59-1.837 2.26.32.3.898-.27 1.221-.56 2.588-2.39 5.489-5.31 7.954-7.9.15-.16.483-.7.307-.57ZM714.223 994.101c1.035.004 2.12-.128 3.049-.555l-3.656-.014-3.047-.011c1.171.368 2.418.575 3.654.58ZM721.716 1023.29c.957-.39 2.207-.57 2.748-1.4.937-1.44-7.142 1.93-5.493 2.24.944.18 1.863-.48 2.745-.84ZM730.462 1044.56c.831-.09 3.277-.55 2.439-.55-1.637-.01-3.286.18-4.876.54-.789.19 1.63.1 2.437.01ZM916.979 1173.23c-5.287-2.48-4.356-5.89-6.659-10.21-.994-1.87-2.908-2.88-4.246-4.55-2.381-2.97-2.124-6.88-3.004-10.21-.954-3.6-2.853-6.6-3.613-10.2-.248-1.18-1.409-2.27-1.813-3.41-.738-2.08-.655-4.2-1.193-6.23-.353-1.34-1.457-2.64-1.811-3.97-1.74-6.58-.346-13.78-1.742-20.4-.631-2.99-1.693-5.82-1.181-9.06.435-2.76 1.757-5.31 2.471-7.92 2.149-7.86 4.684-16.76 9.24-23.75 9.636-14.8 25.473-25.77 42.787-32.13 11.316-4.16 22.299-7.41 34.159-8.94 4.108-.53 8.095.6 12.184.61 5.628.02 11.602-.4 17.062.63 7.84 1.49 15.63 5.77 23.11 8.58 1.98.74 4.11.98 6.09 1.72 1.45.55 2.25 1.63 3.65 2.28 6.39 3 12.15 6.41 17.62 10.26 3.14 2.21 7.19 3.49 10.34 5.7 2.05 1.44 2.55 4.09 4.24 5.68 2.85 2.67 6.02 4.29 8.5 7.39 1.42 1.78 1.38 4.05 3.63 5.11" fill="none" opacity="1"/><path d="M1015.04 892.687c-1.29-2.414-1.26-5.388-1.79-7.935-.72-3.386-2.76-6.41-3.62-9.641-1.62-6.135-2.86-12.427-4.19-18.704-1.03-4.887-3.16-9.809-4.2-14.74-2.066-9.804-2.036-20.038-3.529-30.029-.952-6.377.667-13.048 1.3-19.251.392-3.845-.172-8.657.662-12.457 1.237-5.619 2.317-11.748 3.117-17.545 1.34-9.654 3.28-19.452 6.22-28.86.87-2.79 2.64-5.28 3.69-7.916 3.21-8.124 5.63-16.558 9.85-24.316 4-7.363 6.49-15.318 10.45-22.616 1.64-3.019 4.29-5.65 6.13-8.472 1.98-3.044 3.51-6.515 5.52-9.608.68-1.034 1.87-1.744 2.45-2.823 5.48-10.076 12.68-20.093 20.23-29.376 2.48-3.041 4.16-6.626 6.75-9.603 8.19-9.446 15.88-18.599 25.09-27.093.65-.595 1.8-.529 2.45-1.124 8.47-7.815 29.93-19.713 29.93-19.713s10.71-6.906 16.5-9.568c1.76-.81 3.52-2.361 5.49-2.811 8.04-1.836 16.18-4.078 24.4-5.575 5.82-1.06 11.91-.02 17.67-1.068 5.51-1.004 11.4-.525 17.07-.505 2.43.009 5.51-.428 7.92.029 14.82 2.813 30.1 4.691 45.05 7.526 5.79 1.097 11.4 3.826 17.04 5.159 1.18.279 1.95 1.3 3.04 1.71 7.21 2.71 15.03 5.879 21.28 10.272 2.83 1.986 6.92 2.584 9.73 4.566 13.35 9.381 27.87 16.746 41.33 26.201 3.94 2.769 8.94 3.978 12.76 6.843 3.17 2.372 5.72 5.355 8.5 7.96 5.16 4.836 10.18 9.302 14.56 14.777 1.58 1.971 4.12 3.581 5.46 5.683 5.8 9.061 10.86 17.231 15.12 27.24 2.27 5.326 6.25 10.766 7.24 16.45 1.22 6.963 3.35 14.151 4.79 20.971.54 2.561.19 5.337.58 7.931 1.02 6.828 1.77 13.412 1.74 20.395-.02 3.116.63 7.108-.05 10.194-1.14 5.22-2.27 10.521-3.11 15.846-.67 4.234-3.82 7.825-4.92 11.875-2.78 10.155-10.35 18.124-17.17 25.989-4.86 5.594-10.89 9.251-17.73 12.395-1.66.767-3 1.906-4.88 2.248-6.81 1.24-13.77 1.858-20.73 2.756-5.33.688-8.85.534-14.01.515-1.59-.005-4.98.404-6.09-1.154-.84-1.174 2.56-5.048 3.07-6.219 1.93-4.429 2.86-10.016 3.72-14.711.78-4.246-.01-8.763.66-13.024 1.08-6.837 2.54-15.093 1.31-22.082-.95-5.478-3.2-10.688-5.41-15.877-1.26-2.948-3-6.786-5.45-9.081-2.79-2.617-4.74-5.549-7.27-8.522-3.41-3.993-8.94-7.131-13.37-10.242-6.2-4.358-14.24-5.227-21.29-7.44-16.13-5.063-42.87-11.238-56.67 1.493-.84.775-2.13 1.003-3.06 1.688-3.26 2.405-5.85 5.23-7.95 8.466-2.7 4.147-3.67 8.955-4.94 13.574-1.14 4.203-3.4 8.265-4.31 12.444-.54 2.436-.25 4.885-.64 7.36-1.04 6.539-.72 13.33-1.91 19.815-.83 4.522-1.67 11.167-.68 15.855 2.76 13.08 7.49 24.908 13.86 36.862 2.4 4.5 5.81 8.679 8.47 13.056 1.8 2.941 2.47 6.184 4.23 9.077 4.53 7.435 9.27 14.937 15.75 21.012 5.32 4.981 10.98 9.418 17.01 13.654 3.78 2.661 8.48 4.084 12.16 6.84 5.34 4.009 10.3 8.661 15.79 12.517 4.7 3.308 8.63 6.951 12.75 10.807 1.08 1.011 2.63 1.588 3.64 2.844 6.63 8.289 14.06 15.667 20.62 23.862 2.9 3.628 3.3 9.056 5.42 13.045 4.23 7.932 5.79 16.221 9.04 24.385 5.5 13.802 9.58 28.117 12.62 42.517 1.12 5.32-.58 11.14.54 16.43 1.29 6.12.55 12.96.53 19.26-.01 2.66.45 5.84-.04 8.49-1.27 6.91-2.49 14.14-4.35 20.94-1.83 6.69-5.69 12.95-8.61 19.23-1.7 3.64-2.8 7.59-4.32 11.31-.52 1.27-1.69 2.22-2.45 3.39-.66 1.02-.65 2.32-1.23 3.39-2.38 4.38-5 8.63-7.37 13-3.89 7.16-10.36 13.09-14.7 19.77-2.78 4.26-7.91 7.29-11.63 10.71-7.52 6.94-15.34 12.73-23.84 18.61-6.89 4.76-19.34 9.66-27.47 11.79-4.77 1.25-9.99 1.74-14.63 3.34-12.26 4.23-25.51 7.26-38.43 8.93-3.47.44-6.9 1.7-10.37 2.22-3.59.55-7.38-.01-10.97.53-10.84 1.64-23.12 1.76-34.12.44-6.63-.79-12.09-4.36-18.25-6.29-5.49-1.72-10.41-4.59-15.82-6.29-1.86-.59-4.68-.81-5.47-2.29M774.273 841.408c.666-4.777.937-9.561 2.192-14.15.437-1.598-.415-3.5.022-5.097 2.688-9.832 6.319-14.854 14.107-22.036 2.9-2.675 9.579-4.914 13.428-5.615.891-.162 1.56-.922 2.442-1.123 3.576-.817 7.399-.842 10.975-1.66 2.497-.57 4.829-1.669 7.321-2.238 3.34-.764 7.026-.333 10.363-1.095 3.642-.833 7.323-1.391 10.977-2.226.394-.09.932-.263 1.218.005.067.062-1.245 6.355-1.249 7.358-.028 6.482-.522 14.043-1.914 20.381-.641 2.919-2.888 5.542-3.691 8.481-4.727 17.284-25.311 22.562-42.138 22.501-4.504-.017-12.147.189-16.449-.626-.889-.169-1.552-.934-2.432-1.142-1.963-.464-5.477.473-5.172-1.718Z" fill="none" opacity="1"/><path d="M780.181 813.113c-.029 6.759.073 11.785 1.751 18.129.294 1.111.194 2.456 1.205 3.402 3.449 3.232 7.315 6.284 10.927 9.668M805.236 795.647c2.317-1.066 16.597-2.077 18.281-.499 9.34 8.749 19.732 23.242 12.643 36.291" fill="none" opacity="1"/><path d="M816.014 816.502c-1.333-.297-2.762-.343-4.001-.891-.359-.158.82-5.584.968-6.127 1.178-4.307 3.984-10.288 9.933-9.16 1.854.352 6.582 1.763 7.523 3.531 1.537 2.884 1.037 9.762-1.934 11.816-3.789 2.621-8.229 1.779-12.489.831Z" fill="none" opacity="1"/><path d="M800.496 799.91c-.811.02-1.662.118-2.557.322-3.416.781-9.35 5.062-10.859 7.84-1.97 3.625-.446 16.736 2.736 19.716.73.684 1.993 1.186 2.831 1.775 1.392.979 2.082 2.389 3.274 3.506 3.141 2.942 6.921 5.578 11.287 6.61 2.597.613 5.153-.828 7.077-2.158 4.116-2.846 5.861-5.92 7.111-10.492.338-1.235-.321-2.695.017-3.93.549-2.01.554-3.688.024-5.695-.012-.044-.044-.08-.056-.123-3.923.057-7.993-.922-8.427-2.983-.527-2.499-.018-4.615 1.005-6.513-.085-.081-.18-.182-.262-.263-3.771-3.691-7.523-7.752-13.201-7.612Zm-5.023 11.309c.363-.024 2.906.897 3.315.994 1.018.24 3.34 2.12 4.224 2.535 4.225 1.983-.511 7.997-2.806 9.584a4.918 4.918 0 0 1-2.842.863c-2.632-.009-5.486.441-7.06-1.773-.956-1.344-5.43-6.968-.944-10.609.433-.351 3.571-1.423 6.113-1.594Z" fill-opacity=".996" fill-rule="evenodd" opacity="1"/></g><g fill="none" stroke="#c934ae" stroke-dasharray="4.709819346665401,3.1673178736672156,3.8818263886749875,15.0" stroke-width="8"><path d="m1275.05 548.52 1.29.308M1278.1 549.509c-3.17-2.51-12.22-2.723-15.71-2.445-1.02.081-2.62.814-3.62.699-.39-.045-.55-.701-.94-.746-1.84-.212-4.23.747-6.08.894-10.54.839-20.78 4.358-30.59 8.595-3.54 1.529-7.41 2.246-10.49 4.531-6.77 5.019-14.63 9.203-22.13 12.439-2.2.953-4.62 2.485-6.99 3.02-2.97.671-6.54 1.195-9.23 1.967-.97.277-2.15 1.403-3.5 1.51-3.99.319-8.92.355-12.63 1.416-5.47 1.569-9.54 8.936-11.57 13.652-2.04 4.714.53 7.734 1.87 12.171.87 2.895.83 6.508 1.84 9.298.39 1.081 2.09 3.031 2.73 4.3 4.9 9.725 13.41 18.064 23.4 22.777 2.97 1.403 7.14 1.705 10.32 2.463 1.38.33 3.67 1.539 4.82 1.67.43.05.73-.553 1.16-.503 3.59.413 10.9 3.081 13.95 1.764M1167.53 641.674c-1.26 1.592-1.1 3.941-.29 6.183.27.738 1.62.755 1.89 1.493.15.412-.38.837-.23 1.249.65 1.777 2.39 3.428 3.68 5.046 1.54 1.929-.34.448.85 2.808.79 1.578 2.53 3.619 3.67 5.045 1.09 1.363 1.3 3.375 2.39 4.738 2.2 2.76 5.94 4.398 8.14 7.154 11 13.793 29.14 22.178 44.29 29.327 3.12 1.469 5.93.76 8.79.533 1.2-.096 2.65.849 3.87.923 3.45.209 6.66.291 9.95.03.86-.069 1.72.684 2.58.615 4.04-.321 7.65-1.84 11.69-2.162 5.21-.415 9.44-.231 14.51.077 1.24.075 3.06-.446 4.1-.326.39.045.55.701.94.746 2.12.244 3.78-.662 6.2-.083"/><path d="M1160.29 581.063c3.34 2.64 8.04 5.047 12.11 6.017.77.184 3.97 1.553 4.12 2.547.45 2.918-4.92 5.01-6.97 5.893-2.81 1.215-7.49 1.765-9.45 3.216-4 2.973-8.95 6.983-14.46 5.669M1280.16 544.007c.19.395.16 1.219.59 1.185.43-.035.06-.866.22-1.25.94-2.169 3.4-4.284 4.86-6.136 3.84-4.844 7.85-10.525 12.75-14.155 4.59-3.41 8.68-7.53 13.24-10.91 2.22-1.651 4.99-2.623 7.21-4.27 1.19-.883 2.6-.827 3.97-1.138 3.81-.859 7.16-3.297 10.97-4.158 3.33-.753 6.39-.845 9.7-1.593 4.57-1.034 9-3.312 13.29-5.165.48-.208 3.04-1.691 3.5-1.511.65.251-.23 9.305-.01 10.679.53 3.487-.56 7.154-.02 10.678 1.22 7.943 3 18.492-2.34 25.236"/><path d="M1425.36 536.965c-2.22.959-4.2 2.869-6.53 3.394-11.52 2.606-24.24 1.52-35.67 2.43-3.02.24-7.64-1.357-10.2-1.652-8.73-1.004-16.45.481-24.92 2.394-1.7.385-2.83 1.8-4.19 2.387-1.25.543-2.74.23-3.97 1.137-3.19 2.372-10.65 10.783-12.27 14.528-1.55 3.593-2.56 7.42-4.11 11.005-.8 1.871-.69 3.437-1.23 5.437-1.36 5.024-4.65 9.505-5.6 14.818M1339.46 638.665c.39-2.159 1.57-2.79 3.12-3.945 2.39-1.768 4.07-4.462 6.5-6.266 1.6-1.19 3.75-1.696 5.36-2.891 2.87-2.13 6.56-3.807 10.14-4.093 3.36-.267 6.54-2.917 9.8-3.654 3.87-.874 7.84-1.292 11.69-2.162 4.91-1.112 8.43-4.812 12.1-7.534 1.35-1.004 2.43-3.063 3.47-4.383 5.47-6.908 6.85-12.765 8.35-21.197.46-2.626 1.42-4.241.98-7.06-.42-2.767 1.25-7.294 2.25-9.624.65-1.501.24-3.498.89-4.999 3.3-7.661 5.28-16.349 10.55-23.015"/><path d="M1323.01 607.122c2.37-2.989 6.51-5.57 8.11-9.269 1.57-3.652 3.49-7.143 5.4-10.697 1.88-3.507 5.59-6.367 7.16-10.015 3.1-7.196 10.68-15.573 17.85-18.668 2.21-.953 4.63-2.486 7-3.021 2.34-.529 4.8.521 7.14.663 6.12.371 12.69 1.985 18.76 3.434 2.72.648 6.81-.053 9.36-1.155 1.16-.503 3.49-1.51 3.49-1.51s-2.77 2.541-3.94 4.009c-1.88 2.383-5.04 5.099-6.24 7.889-2.18 5.05-3.3 10.581-5.48 15.63-1.95 4.536-4.7 8.716-6.66 13.261-.88 2.036-3.13 3.951-4.51 5.698-7.51 9.486-15.38 11.872-26.79 14.452-.83.189-1.71-.516-2.58-.616-1.13-.13-3.11.804-4.44.764-4.07-.122-7.26-.324-10.99 1.286M1420.45 537.356c1.12-1.417 2.68-2.169 4.06-3.198 5.83-4.323 10.6-15.426 13.26-21.588 1.45-3.37 2.8-6.853 4.23-10.193.11-.255.81-3.638.67-3.749-.31-.249-.46.585-.69.877M1422.83 542.094c5.84-7.369 11.57-14.867 18.77-20.794 2.56-2.113 4.6-4.581 7.78-5.959M1422.26 543.782c3.93-1.697 9.94-6.65 13.49-9.287 5.17-3.833 11.66-5.035 17.49-7.552M1354.16 497.05c11.5-4.966 17.75-16.889 23.97-27.368 2.33-3.917 5.49-8.16 6.32-12.823M1359.45 499.094c1.71-2.158 3.81-3.747 5.8-5.39 4.1-3.377 6.18-9.098 10.06-12.71 4.91-4.56 10.06-7.594 15.7-11.106M1361.66 497.275s.58.869.94.746c1.48-.505 2.4-1.941 3.72-2.76 3.55-2.212 7.03-4.423 10.12-6.965 6.49-5.347 15.8-4.804 23.22-8.008M1210.18 695.36c-2.28.984-4.14 2.349-6.05 3.767-2.48 1.837-6.46 2.788-9.33 4.028-.94.408-2.45 1.427-3.5 1.51-5.26.42-10.54 3.303-16 3.738-9.59.763-19.91.386-29.65-4.21-1.97-.93-4.48-.609-6.46-1.539-3.72-1.758-7.44-3.515-11.17-5.271-4.18-1.972-7.12-7.431-11.67-8.516"/><path d="M1227.17 722.343c-6.82 2.947-13.75 4.791-21.13 5.378-2.05.163-3.91 1.543-5.96 1.706-11.65.928-24.82 2.154-36.99-.751-9.71-2.314-19.43-6.907-28.67-11.269-4.57-2.153-9.54-3.297-14.1-5.448-12.63-5.959-21.7-18.281-34.07-24.802-1.27-.673-2.35-1.564-3.64-2.174-1.48-.697-3.59-.854-5.17-1.231-.79-.19-1.75-1.657-2.23-1.055-.26.327.62.759.6 1.185-.04.786-1.04 1.338-.92 2.126.39 2.539 2.34 4.68 3.93 6.669 1.63 2.044 1.94 5.062 3.57 7.107.66.828 5.46 4.627 3.81 5.857-.35.258-12.61-.017-13.7-.142-.39-.045-.56-.701-.95-.746-2.17-.25-4.24 1.981-6.3 2.144-.78.063-4.25.157-4.31 1.576-.1 2.075 5.08 4.187 6.25 5.662 1.53 1.91 1.12 4.45 2.64 6.36.82 1.022 3.66 2.157 2.26 3.927-1.02 1.293-2.53-.209-3.75-.113-3.55.283-7 1.379-10.52 1.659-1.2.096-3.83 1.522-3.24 3.133.29.801 2.28 1.547 2.83 2.239 3.17 3.972 5.78 6.039 10.38 8.208 3.7 1.746 13.28 5.513 17.37 5.187 8.44-.671 17.77.516 24.99 6.224 3.67 2.9 6.88 5.569 9.69 9.085 3.07 3.858 8.01 6.337 11.1 10.204 2.17 2.726 6.31 3.99 8.49 6.716 2.21 2.775 5.94 4.389 8.14 7.154 2.3 2.879 4.8 5.583 7.11 8.469 2.8 3.514 7.7 5.505 10.5 9.019 2.77 3.479 6.92 6.184 10.5 9.02l17.46 13.804c6.84 5.412 13.76 11.914 21.45 15.54 4.07 1.921 7.12 6.218 11.19 8.143 7.56 3.566 16.08 7.224 24.21 9.161 3.09.738 5.96 2.774 9.15 2.967 7.3.442 14.62 1.92 21.92 2.363 2.14.13 4.3 1.409 6.45 1.539 3.03.184 5.34-.548 8.31.16M1059.51 631.794c2.31.55 4.82.522 7.15.663 7.64.463 16.77 4.001 23.48 7.165 1.18.558 2.69.366 3.87.924 4.46 2.107 8.93 4.215 13.4 6.325 4.12 1.943 8.9 6.326 12.62 9.262 4.57 3.62 2.92 10.852-2.7 12.124-2.81.634-5.3.838-8.06 1.463-2.5.564-5.39.822-8.19.652-12.28-.745-24.43-2.515-36.55-3.25-5.38-.327-10.79-2.492-16.18-2.819-2.22-.134-4.1-1.856-6.11-1.978-9.91-.601-19.78-4.721-29.78-5.021-7.25-.217-16.001-3.336-22.535-6.419-2.141-1.01-3.87-3.03-6.008-4.039-1.034-.488-5.796-2.663-6.008-4.039-.117-.765 1.092-1.065 1.388-1.753 1.659-3.85 5.92-3.71 9.549-5.277 8.59-3.71 19.424-5.242 29.324-6.031 2.82-.224 6.36.427 9.01-.717"/><path d="M1064.68 589.907c.16.267.75-.471.75-.471s-1.39 1.753-2.08 2.63c-1.43 1.812-2.33 3.93-3.22 6.005-3.34 7.74-6.33 15.924-7.85 24.443-.7 3.957-.15 8.683-.11 12.739.03 2.849 1.37 5.922.9 8.552-.23 1.282 1.08 5.161-.29 6.183-1.07.794-7.59-2.681-9.51-2.528l-4.09.326c-.87.068-1.63 1.563-2.33 1.007-.65-.513 1.96-6.027 2.27-6.752 1.09-2.525 2.43-9.327 2.7-12.124.13-1.339-.51-3.183-.28-4.495.33-1.827 1.61-3.713 1.58-5.875-.07-7.798 1.8-15.313.61-23.045-.29-1.835-2.39-5.871-3.24-7.545-.16-.329-2.52-2.448-2.48-2.677.16-.902 5.99.125 6.68.29 3.96.945 9.19 2.395 13.25 2.641 2.11.128 5.37-1.504 6.74.696ZM1118.65 671.437c-1.77 2.238-1.68 3.901-2.75 6.379-1.63 3.787-4.59 6.979-6.22 10.761-1.43 3.315-2.89 6.551-5.18 9.447M1081.81 749.93c1.65-2.084-2.94 3.266-3.94 4.009-3.57 2.651-5.71 7.128-9.27 9.773-4.23 3.141-7.38 7.642-11.6 10.779-3.46 2.562-11.01 8.679-15.61 9.045-.43.034-.88-.426-1.29-.308-.36.105-.32.771-.69.876-2.73.782-8.86-.81-11.84-1.521M973.398 648.505c.146-.186 1.773-1.661.097-2.061-.968-.231-.577 3.247-.667 3.749-.761 4.28-1.061 8.993-1.751 12.87-.745 4.186-.502 8.892-.461 13.177.045 4.809-.73 9.493-.683 14.428.021 2.276 1.676 7.214 1.372 8.925-.067.372-.676.495-.695.876-.045.953.837 1.85.846 2.808.057 5.995 3.45 11.846 5.201 17.654.533 1.77 2.412 7.945 3.481 9.168.9 1.031 2.816 2.211 3.427 3.423 6.148 12.21 16.432 23.877 25.265 34.948 1.33 1.666 3.86 2.439 5.19 4.104 3.56 4.466 9.22 8.007 13.8 11.632M1380.42 624.727c1.98-2.506-3 3.787-3.47 4.383a5314.66 5314.66 0 0 0-6.94 8.766c-3.74 4.72-6.4 10.447-8.75 15.89-2 4.645-4.8 8.819-5.72 14.007-1.45 8.13-3.32 16.435-4.1 24.555-.22 2.277.32 4.79.65 6.929.37 2.421-.89 5.411-.86 7.871.02 2.828-.17 7.009.68 9.802.25.837 1.06 1.514 1.19 2.369.27 1.766-.22 3.979.05 5.745.6 3.873 2.18 7.849 2.22 11.732.05 4.755.24 9.63.95 14.297 1.03 6.649 4.4 13.39 6.4 20.024 1.3 4.329 3.97 8.397 5.27 12.722 1.22 4.037 3.34 9.211 6.09 12.656 2.62 3.286 5.13 7.276 6.66 10.968.69 1.671 2.26 2.24 3.08 3.861 6.48 12.869 14.28 24.259 19.9 37.839 1.46 3.526 3.83 6.743 4.9 10.287 1.37 4.544 4.38 8.574 5.74 13.094.71 2.363.38 4.821 1.12 7.303 3.67 12.157 5.76 25.558 4.57 37.827-.27 2.854.7 6.091.56 8.99-.21 4.387-2.15 8.593-2.57 12.935-.23 2.311.07 5.238-.52 7.433-.36 1.362-1.37 3.043-1.36 4.625.05 4.77.04 9.625-1.15 14.054-.37 1.349-1.47 2.904-1.84 4.253-1.66 6.183-1.99 13.423-4.5 19.248-2.52 5.854-4.88 11.788-7.68 17.448-3.16 6.43-4.81 13.74-7.65 20.32-.79 1.84-3.02 2.99-3.81 4.82-1.25 2.9-3.42 5.29-5.43 7.83-5.56 7.02-10.84 14.71-17.6 20.29-2.59 2.13-6.85 3.24-9.68 4.46-1.78.77-4.02 2.43-5.7 3.33-3.51 1.89-8.06 2.54-11.91 3.41-2.24.51-3.72 1.53-5.95 1.71-1.2.1-2.33 1.25-3.5 1.51-3.38.76-6.91 2.19-10.39 2.47-5.24.42-10.52 1.3-15.78 2.49-3.55.8-7.46.48-11 1.28-5.09 1.16-11.11-.24-16.02.87-2.97.67-6.78.54-9.83.78-.86.07-1.5.82-2.33 1.01-4.38.99-8.3 2.14-12.26 3.85-2.9 1.25-7.13 1.68-9.79 3.65-3.77 2.8-7.44 5.52-11.16 8.28-2.07 1.54-2.37 4.13-5.71 3.33"/><path d="M1039.87 956.953c2.64 5.244 12.08 9.252 15.82 13.935 2.88 3.616 5.99 7.199 9.11 10.773 2.5 2.859 5.93 5.023 8.27 7.965 6.21 7.781 13.48 14.934 19.65 22.664.96 1.21 2.81 1.77 3.77 2.99 2.27 2.84 5.18 5.18 7.45 8.03 1.21 1.51 3.51 2.21 4.72 3.73 3.04 3.8 7.42 6.15 10.63 9.83 5.13 5.88 11.49 10.51 17.7 15.43 13.24 10.46 26.48 19.8 41.12 27.52 8.68 4.58 16.57 10.23 25.42 14.4 1.05.5 1.77 1.75 2.83 2.24 7.17 3.39 14.25 6.67 22.06 6.05"/><path d="M1161.78 972.015c-12.43-2.967-21.63-13.549-32.79-19.438-3.69-1.947-6.4-5.877-10.04-7.937-8.26-4.683-15.53-11.445-24.22-15.545-5.32-2.514-10.8-4.487-16.19-7.031-1.86-.879-3.35-2.326-5.13-3.336-5.29-2.997-11.16-4.81-16.67-7.409-1.93-.909-5.25-2.494-7.5-2.315l-14.1 1.122c-1.86.149-2.56 2.285-4.24 2.418-2.04.163-2.56 1.163-4.25 2.418-5.25 3.894-9.59 8.61-8.51 15.654.19 1.233-.86 2.565-.67 3.798.22 1.439 1.74 3.46 2.41 4.8 4.69 9.314 14.09 16.194 22.39 22.762"/><path d="M1053.66 924.045c-2.83-.673-2.59-4.316-4.33-6.312-3.86-4.42-7.4-6.497-13.23-6.851-1.9-.115-3.73-.728-5.46.018M1041.8 937.053c-2.6-2.056-10.84-9.807-13.73-10.139-1.01-.116-2.64.626-3.67.708-2.6.207-5.25.002-7.94.216"/><path d="M1033.01 909.88c.27-4.175-8.97-1.095-11.74.103-.43.185-4.08.802-4.02 1.152.05.338 5.38.326 5.93.36 1.66.1 3.32-.497 4.98-.396 2.22.134 4.69 1.262 4.85-1.219ZM1022.02 927.187c-4.01-.075-6.48-.235-10.19.604-.95.214-2.99-.327-2.84.642.07.433.87.346 1.31.312 3.51-.28 7.59-.781 11.13-1.303.22-.031.81-.251.59-.255ZM1073.42 681.184c.81.643 1.75 1.209 2.74 1.446 0 0-1.44-1.143-2.87-2.268-.26-.21-2.39-1.89-2.39-1.889.7 1.011 1.55 1.945 2.52 2.711ZM1061.29 708.775c.99.283 2.09.91 3.03.591 1.62-.553-6.81-2.89-5.71-1.626.63.724 1.76.774 2.68 1.035ZM1055.03 730.905c.72.44 2.92 1.588 2.27 1.068a21.73 21.73 0 0 0-4.18-2.579c-.73-.346 1.22 1.085 1.91 1.511ZM1122.3 947.286c-2.63-5.217.21-7.327 1.07-12.15.37-2.082-.51-4.057-.53-6.198-.04-3.81 2.57-6.723 3.94-9.882 1.47-3.428 1.83-6.955 3.46-10.26.53-1.078.28-2.649.67-3.797.71-2.094 2.08-3.708 2.91-5.64.55-1.27.48-2.972 1.03-4.242 2.69-6.251 8.23-11.048 11.22-17.118 1.35-2.743 2.26-5.623 4.67-7.86 2.04-1.897 4.66-3.091 6.84-4.704 6.54-4.855 14.03-10.289 21.93-12.979 16.72-5.688 35.94-4.535 53.49 1.15 11.47 3.715 22.12 7.943 32.39 14.062 3.56 2.12 6 5.467 9.21 8.004 4.41 3.491 9.37 6.842 13.03 11.027 5.25 6.012 8.73 14.185 12.88 21.023 1.1 1.807 2.63 3.304 3.73 5.111.8 1.328.77 2.668 1.46 4.044 3.18 6.311 5.6 12.543 7.53 18.953 1.11 3.677 3.5 7.183 4.61 10.866.72 2.4-.52 4.795-.17 7.085.59 3.862 2.08 7.094 2.12 11.064.02 2.28-1.42 4.037-.3 6.264"/><path d="M1372.66 787.159c.48-2.694 2.34-5.015 3.49-7.35 1.53-3.105 1.79-6.747 3.11-9.816 2.51-5.828 5.42-11.543 8.26-17.298 2.2-4.48 3.56-9.669 5.79-14.19 4.43-8.987 10.77-17.019 15.77-25.799 3.18-5.605 8.58-9.852 12.91-14.34 2.68-2.783 5.21-6.917 8.21-9.39 4.44-3.659 9.07-7.812 13.29-11.875 7.01-6.767 14.59-13.275 22.7-18.864 2.41-1.657 5.35-2.519 7.79-3.948 7.55-4.404 14.66-9.544 22.77-13.045 7.69-3.321 14.56-8.041 22.18-11.334 3.16-1.362 6.87-1.795 10.06-2.88 3.44-1.17 6.78-2.958 10.27-4.147 1.17-.397 2.55-.221 3.67-.708 10.53-4.546 22.38-7.976 34.06-10.615 3.82-.864 7.36-2.643 11.23-3.39 12.28-2.37 23.98-4.821 36.47-5.815.87-.07 1.74.693 2.61.623 11.5-.914 35.73 2.981 35.73 2.981s12.68 1.179 18.88 2.657c1.88.45 4.23.32 6.06 1.182 7.45 3.517 15.24 6.78 22.63 10.678 5.23 2.762 9.38 7.343 14.56 10.073 4.95 2.613 9.29 6.623 13.73 10.14 1.91 1.509 4.6 3.067 6.22 4.913 9.92 11.369 20.78 22.281 30.79 33.742 3.87 4.433 6.6 10.045 10.22 14.579.76.949.73 2.226 1.33 3.222 4 6.581 8.2 13.906 10.4 21.221 1 3.307 3.84 6.3 4.84 9.599 4.7 15.622 11.58 30.38 16.32 46.126 1.39 4.61 4.58 8.651 5.82 13.265 1.02 3.82 1.19 7.742 1.77 11.508 1.07 6.992 2.26 13.603 2.33 20.615.02 2.524 1.02 5.358.78 7.842-1.03 10.707-2.1 20.258-4.93 30.761-1.5 5.589-1.73 12.327-4.46 17.411-3.34 6.231-6.1 13.2-9.18 19.452-1.16 2.348-3.15 4.315-4.44 6.594-3.42 6.001-6.89 11.644-11.23 17.118-1.93 2.443-3.89 5.983-6.33 7.992-4.12 3.399-8.28 6.874-12.23 10.542-3.14 2.918-7.83 3.799-11.2 6.3-8.46 6.274-19.33 7.868-29.56 9.841-7.27 1.404-14.28.553-21.59-1.193-1.79-.426-3.54-.357-5.23-1.247-6.13-3.231-11.98-7.041-18.01-10.631-4.62-2.752-7.29-5.048-11.34-8.25-1.25-.985-4.17-2.757-4.08-4.667.07-1.439 5.14-2.388 6.26-2.995 4.25-2.293 8.43-6.115 12.01-9.276 3.23-2.858 5.4-6.898 8.56-9.834 5.07-4.711 11.31-10.307 14.67-16.56 2.63-4.901 4.07-10.388 5.54-15.833.83-3.093 1.83-7.188 1.32-10.506-.58-3.783-.3-7.291-.46-11.196-.21-5.246-2.62-11.125-4.18-16.307-2.19-7.256-7.98-12.906-12.16-19.001-9.56-13.943-26.78-35.309-45.5-33.819-1.14.091-2.29-.523-3.44-.558-4.05-.121-7.83.503-11.49 1.747-4.69 1.594-8.41 4.778-12.26 7.632-3.5 2.596-7.78 4.402-11.08 7.122-1.93 1.586-3.21 3.689-5.05 5.394-4.85 4.506-8.8 10.041-13.74 14.406-3.44 3.045-8.2 7.757-10.32 12.054-5.91 11.992-9.49 24.219-11.86 37.553-.89 5.02-.79 10.414-1.39 15.504-.41 3.419-1.88 6.385-2.28 9.75-1.03 8.644-1.94 17.472-.59 26.255 1.11 7.201 2.82 14.186 4.95 21.239 1.33 4.431 4.15 8.449 5.34 12.887 1.73 6.457 2.75 13.175 4.69 19.596 1.66 5.509 2.5 10.799 3.35 16.373.23 1.462 1.1 2.878 1.11 4.488.1 10.611 1.39 21.001 1.49 31.501.04 4.64-3 9.16-3.79 13.61-1.57 8.85-5.46 16.33-7.95 24.76-4.19 14.26-9.82 28.03-16.33 41.24-2.4 4.88-7.32 8.4-9.71 13.25-2.77 5.61-7.57 10.54-11.48 15.48-1.65 2.09-3.25 4.87-5.27 6.66-5.26 4.65-10.7 9.58-16.36 13.78-5.57 4.13-12.46 6.67-18.64 9.8-3.58 1.82-6.89 4.25-10.38 6.24-1.19.68-2.7.7-4.02 1.15-1.15.39-1.95 1.43-3.06 1.91-4.58 1.98-9.26 3.71-13.82 5.68-7.49 3.23-16.24 3.9-23.78 6.46-4.81 1.64-10.72.86-15.76 1.26-10.2.81-19.93.54-30.24-.09-8.36-.51-21.18-4.34-28.89-7.68-4.52-1.97-8.93-4.8-13.58-6.41-12.24-4.25-24.54-10.05-35.73-16.71-3.01-1.79-6.48-2.92-9.53-4.65-3.16-1.79-5.8-4.57-8.95-6.36-9.55-5.41-19.28-12.89-27.12-20.72-4.73-4.72-6.82-10.9-10.47-16.22-3.25-4.74-5.35-10.04-8.56-14.72-1.1-1.61-3.19-3.52-2.89-5.17M1214.94 598.156c3.47-3.347 6.64-6.942 10.46-9.777 1.33-.987 1.83-3.009 3.16-3.996 8.19-6.073 14.15-7.782 24.71-8.622 3.93-.314 10.57 2.05 14.03 3.875.8.423 1.79.238 2.61.624 3.32 1.565 6.34 3.906 9.66 5.471 2.32 1.093 4.83 1.669 7.14 2.76 3.1 1.462 5.73 4.077 8.83 5.537 3.38 1.595 6.62 3.428 10.01 5.028.36.172.89.368.95.756.02.09-4.9 4.23-5.52 5.016-4.03 5.082-9.09 10.724-14.09 14.85-2.31 1.9-5.7 2.576-8.15 4.392-14.38 10.677-33.83 2.118-47.03-8.32-3.54-2.794-9.68-7.351-12.56-10.649-.59-.682-.64-1.693-1.2-2.4-1.26-1.577-4.6-3.01-3.01-4.545Z"/><path d="M1237.06 579.547c-4.2 5.299-7.22 9.316-9.82 15.342-.45 1.055-1.36 2.052-1.15 3.42.72 4.672 1.87 9.46 2.62 14.351M1267.55 581.28c2.48.592 14.34 8.614 14.69 10.895 1.94 12.649 1.17 30.466-12.47 36.353"/><path d="M1263.15 604.339c-.86-1.057-1.96-1.976-2.6-3.171-.18-.346 4.1-3.886 4.55-4.222 3.58-2.66 9.48-5.633 13.47-1.072 1.24 1.421 4.09 5.451 3.74 7.423-.58 3.217-5.22 8.319-8.82 8.1-4.6-.279-7.57-3.682-10.34-7.058Z"/><path d="M1261.19 581.706c-.65-.485-1.38-.933-2.21-1.325-3.17-1.495-10.48-1.793-13.38-.539-3.79 1.636-10.69 12.889-10.03 17.198.16.989.84 2.163 1.14 3.144.49 1.63.16 3.165.41 4.78.65 4.253 2 8.661 4.79 12.168 1.67 2.086 4.57 2.531 6.9 2.672 5 .303 8.27-1.037 12.07-3.861 1.03-.763 1.42-2.318 2.44-3.082 1.68-1.241 2.72-2.558 3.54-4.465.02-.041.01-.089.03-.13-3.12-2.378-5.72-5.661-4.79-7.55 1.13-2.291 2.84-3.641 4.82-4.503-.02-.116-.03-.253-.05-.368-.68-5.233-1.13-10.743-5.68-14.139Zm-10.93 5.794c.3.205 1.73 2.5 1.99 2.828.65.818 1.32 3.731 1.76 4.603 2.1 4.169-5.34 5.975-8.13 5.806a4.932 4.932 0 0 1-2.77-1.076c-2.06-1.633-4.58-3.041-4.46-5.753.08-1.649.04-8.835 5.81-8.928.56-.009 3.69 1.085 5.8 2.52Z"/></g><path d="M1132.61 377.755h1.43v7.175h-1.43v-7.175Z" fill-opacity=".996" fill-rule="evenodd" stroke="#000" stroke-width="6"/><path d="M412.193 377.755c0-7.552.3 9.387 0 11.481-1.371 9.597-1.435 18.915-1.435 28.701 0 7.641-2.87 15.015-2.87 22.962 0 20.967 2.574 45.419 0 66.014-1.546 12.369-1.324 24.942-2.87 37.312-1.237 9.896 1.102 20.222 0 30.137-2.057 18.517-1.435 37.25-1.435 55.968 0 21.113-.466 42.229 1.435 63.144 2.248 24.726-.813 49.898 1.435 74.624 1.088 11.973 1.552 24.014 2.87 35.878.788 7.088-.646 14.421 0 21.526 3.476 38.23 5.426 76.586 8.611 114.807 1.785 21.417-.35 43.16 1.435 64.581 2.494 29.93-2.494 60.48 0 90.41 1.94 23.29 1.435 46.83 1.435 70.32 0 22.55.431 45.05-1.435 67.45-2.025 24.29.773 48.9-1.435 73.19-2.2 24.19 2.199 48.99 0 73.19-1.595 17.54.318 35.56-1.435 53.09-4.104 41.04-1.435 83.5-1.435 124.86" fill="none" stroke="#000" stroke-width="6"/><path d="M438.025 1534.43c-8.754 4.38-15.126 17.56-20.091 25.84-1.566 2.61-2.527 7.32-5.741 8.61-8.264 3.3-7.944-7.49-8.61-11.48-.401-2.41-1.435-4.74-1.435-7.18v-14.35M438.025 1571.75c0 .16.002.31.007.47M410.758 384.93c3.857 0 7.663.89 11.481 1.436 7.116 1.016 14.872-.105 21.526-1.436 8.7-1.74 18.462.033 27.267-1.435 8.843-1.474 18.423 1.474 27.267 0 8.512-1.418 17.296-1.65 25.831-2.87 17.839-2.548 37.909 0 55.968 0h109.067c39.859 0 79.214 1.435 119.112 1.435 3.383 0 6.697.957 10.046 1.435 10.666 1.524 22.508-.268 33.007-1.435 18.601-2.066 38.682 0 57.403 0 18.671 0 37.568-.865 55.969 1.435 7.065.884 14.461-.883 21.526 0 12.864 1.608 25.652 1.435 38.752 1.435 4.25 0 10.12.845 14.35 0 6.89-1.378 14.55-.04 21.52-1.435 26.03-5.206 54.82-2.87 81.8-2.87 8.86 0 18.5 1.097 27.27 0 26.5-3.313 53.35-4.305 80.36-4.305 14.91 0 31.15 1.847 45.93 0 25.22-3.153 51.85-1.435 77.49-1.435h117.68c27.65 0 54.49 1.574 81.8 4.305 21.81 2.181 44.24-.984 66.01 1.435 15.2 1.689 30.66 1.344 45.92 2.87 21.56 2.156 43.14 4.495 64.58 7.176 20.99 2.624 41.79 2.87 63.15 2.87 1.35 0 18.62.068 18.65 0 1.55-3.096-6.33-3.246-10.04-4.305-12.28-3.508-24.98-5.088-37.31-8.611-3.71-1.059-7.68-.801-11.49-1.435-1.05-.176-3.82-.957-2.87-1.435 4.81-2.404 16.76.839 21.53 1.435 15.7 1.962 31.62 2.894 45.92 10.046 4.58 2.287 11.48 4.654 11.48 11.48 0 5.429-9.45 6.881-12.91 8.611-5.32 2.66-10.12 6.485-15.79 8.61-7.91 2.969-15.78 3.828-22.96 8.611M610.235 399.281c0 13.374-1.758 28.055 4.306 40.183M614.541 479.646c0 11.31-2.241 24.22 2.87 34.442M623.151 562.164c.214-2.142 1.194-4.667 0-6.458-.839-1.259-1.186 2.813-1.435 4.305-.236 1.416 0 2.87 0 4.305 0 1.914-1.061 7.333 0 5.741 1.483-2.225 1.169-5.233 1.435-7.893ZM626.021 626.025v30.137M630.326 717.87c0 12.622-1.435 24.871-1.435 37.313M628.891 809.716c0 13.317-1.435 26.667-1.435 40.182M628.891 894.386v-2.87 4.305-1.435ZM631.762 930.263c0 5.375.641 3.022-1.436 7.176M439.46 953.225h-5.74 10.045-4.305ZM484.665 953.942c-2.642 0-5.302.199-7.893.718-1.407.281 2.87 0 4.306 0 2.87 0 6.581 2.029 8.61 0 1.196-1.196-3.331-.718-5.023-.718ZM543.504 955.377c-3.106-.282-6.241-.276-9.328-.717-1.421-.203 2.87 0 4.305 0 2.87 0 5.796-.563 8.61 0 1.049.209 3.92 1.225 2.871 1.435-2.124.424-4.301-.522-6.458-.718ZM587.274 951.789h4.305l4.305-1.435h4.306M626.021 944.614h8.611M445.2 1568.88c-4.139-2.07-6.104 2.89-7.175 7.17-1.686 6.74.035 25.55 8.61 27.27 12.055 2.41 17.147-8.54 24.397-15.79 2.439-2.44 5.74-8.61 5.74-8.61s-2.45 3.64-2.87 5.74c-1.047 5.24 0 11.87 0 17.22 0 12.42 2.4 27.57-4.305 38.75-3.882 6.47-21.841 11.54-27.267 4.31-5.817-7.76.006-22.97 5.741-28.71M1919.03 390.671c.88-1.743 4.99-8.611 7.18-8.611 1.07 0-.77 2.035-1.44 2.87-1.26 1.585-2.87 2.871-4.3 4.306-3.3 3.303-5.71 6.423-8.61 10.045-6.3 7.876-15.23 13.651-21.53 21.527-1.74 2.178-2.33 5.203-4.3 7.175-1.44 1.435-3.4 2.49-4.31 4.305" fill="none" stroke="#000" stroke-width="6"/><path d="M1908.99 420.808c0-13.899-13.87-22.45-17.22-35.878M637.502 314.611c-4.601 9.202-11.35 18.395-15.786 27.267-1.435 2.87-2.036 6.341-4.305 8.61" fill="none" stroke="#000" stroke-width="6"/><path d="M631.762 349.053c-2.529-5.058-7.212-10.19-8.611-15.786-.232-.928.428-2.014 0-2.87-1.247-2.495-3.423-4.529-4.305-7.175M635.349 344.031c1.659.331 3.827-.479 5.023.717 1.44 1.44-1.752 24.714 10.046 12.916 5.334-5.335 3.027-18.656-5.741-18.656-2.402 0-9.847 2.672-11.48 4.305-.535.535 1.411.569 2.152.718ZM361.965 954.66c-4.453 4.453-6.981 9.243-10.045 14.35-6.073 10.121-13.355 19.536-18.656 30.137" fill="none" stroke="#000" stroke-width="6"/><path d="M344.744 979.056c2.166 2.166 5.01 3.575 7.176 5.74.756.757-2.015-.793-2.87-1.435-2.165-1.623-3.827-3.827-5.741-5.74-.956-.957-2.058-1.788-2.87-2.87-.642-.856-2.191-3.627-1.435-2.87 2.166 2.166 3.574 5.009 5.74 7.175ZM374.164 986.231c-7.575 4.401-11.621 26.409 2.152 22.959 6.761-1.69 13.248-19.382 4.306-22.959-.001 0-5.528-.54-6.458 0Z" fill="none" stroke="#000" stroke-width="6"/></g><g fill="none" stroke-width="8"><path d="M1036.46 390.671c0 16.677-.3 32.947 2.87 48.793 1.39 6.974.05 14.636 1.43 21.526 1.9 9.513.05 20.411 1.44 30.137 1.89 13.255.71 30.168-1.44 43.052-1 6.022 1.2 12.674 0 18.657-2.81 14.054-1.43 29.85-1.43 44.487M1033.59 588.713c-15.51-7.755-31.55-2.579-47.362-5.741-17.007-3.401-38.78-2.864-55.969 0-6.05 1.009-12.605-1.008-18.656 0-13.072 2.179-26.941 2.099-40.182 4.306-8.385 1.397-17.413-1.203-25.832 0-13.268 1.895-26.683 1.435-40.182 1.435-26.405 0-53.3 1.401-78.93-2.871-6.208-1.034-12.604-.224-18.656-1.435-9.621-1.924-20.391 1.219-30.137 0-13.665-1.708-27.63-1.435-41.617-1.435-22.33 0-46.422-4.644-68.884-1.435-19.577 2.797-39.26 4.379-58.839 7.176-5.102.729-10.736-1.01-15.786 0-10.563 2.112-21.939 1.435-33.007 1.435-4.893 0-11.027-.952-15.786 0-7.822 1.564-16.304 2.956-24.396 4.305-6.326 1.054-12.753-1.517-18.656 1.435" stroke="#c934ae" stroke-dasharray="4.709819346665401,3.1673178736672156,3.8818263886749875,15.0"/><path d="M364.836 580.102c0-1.972 2.829-4.346 1.435-5.74-.28-.28-10.334 12.917-11.481 14.351-8.697 10.871-11.733 30.98-24.397 37.312" stroke="#c934ae" stroke-dasharray="4.71,3.1673178736672156,3.8818263886749875"/><path d="M357.66 613.109c-5.444 0-20.317-23.413-22.961-28.702M378.469 623.872c0-3.595-.321-7.189-.718-10.763-.158-1.426 0 2.87 0 4.305v10.046c0 1.435-.281 5.712 0 4.305.518-2.59.718-5.251.718-7.893ZM985.017 314.22v-4.233l-1.411 9.877c-1.195 8.365-1.64 16.856 7.055 19.755 1.411.47 2.775 1.703 4.234 1.411 4.473-.895 9.555-12.055 11.285-15.522.87-1.734.94-3.762 1.41-5.644.26-1.02 2.47-2.822 1.42-2.822-4.32 0-2.83 9.015-2.83 11.288 0 11.095 1.23 23.314-1.41 33.866-1.51 6.062-16.523 10.285-21.164 5.644-1.487-1.488-1.881-3.763-2.822-5.644M1021.7 355.14c.24-1.924-.52-5.644 1.42-5.644 1.88 0 .3 3.789 0 5.644-.18 1.038-1.16 1.802-1.42 2.822-.22.913 0 3.763 0 2.823 0-1.882-.23-3.778 0-5.645Z" stroke="#c934ae" stroke-dasharray="4.71,3.1673178736672156,3.8818263886749875"/><path d="M1402.12 1367.77c-3.98 7.96-7.76 13.24-13.71 19.19-1.44 1.45-1.3 4.04-2.74 5.49-8.41 8.41-17.66 16.12-23.31 27.42" stroke="#000" stroke-dasharray="4.71,3.1673178736672156,3.8818263886749875"/><path d="M1371.96 1370.51v-4.11s-.56 4.64 0 6.85c1.11 4.46.98 9.32 2.74 13.71 3.99 9.99 10.97 20.74 10.97 31.54M1407.61 1404.79c0 8.83-2.75 18.53-2.75 27.42M1362.36 1477.46c0 11.15-4.64 24.26 1.37 34.27.98 1.64 4.15 6.17 6.86 5.49 1.25-.32 1.7-1.97 2.74-2.74 9.65-7.24 13.82-18.06 19.19-28.8 1.64-3.28 1.93-6.31 2.75-9.59.24-1 1.37-3.77 1.37-2.75 0 1.45-1.17 2.69-1.37 4.12-1.27 8.87-1.46 28.29 0 37.02 1.66 10 4.33 27.51-1.37 37.01-1.53 2.55-4.7 3.76-6.86 5.49-12 9.6-35.69 15.2-27.42-9.6M1417.2 1498.02c3.39 6.78 1.88 30.9 0 38.39M1339.05 1360.91c-2.76 5.52-4.04 12.06-5.48 17.83-2.26 9.01-6.69 16.83-8.23 26.05-.94 5.63-4.54 10.82-5.48 16.45-4.72 28.27-12.34 55.82-12.34 85.01 0 16.42-1.62 38.14 10.97 50.73M1444.63 1344.46c3.16 6.34 4.18 12.95 6.85 19.2.51 1.18 2.08 1.63 2.74 2.74 5.34 8.89 11.08 29.65 12.34 39.76 1.08 8.65 1.51 17.42 2.75 26.05 2 14.04 4.79 29.48 2.74 43.88-1.57 10.97-5.76 22.65-9.6 32.9-1.97 5.26-2.14 11.2-4.11 16.45-3.97 10.58-11.14 23.48-19.2 31.54M1508.38 1439.07c-1.97.74-8.28 1.37-6.17 1.37 2.33 0 4.67-.56 6.86-1.37 1.54-.58 5.76-2.75 4.11-2.75-1.84 0-3.07 2.1-4.8 2.75ZM1512.49 1454.83c-2.12.43-7.7.53-6.17 2.06 1.14 1.13 9.08-2.36 10.97-2.74.9-.18 3.65-.13 2.75 0-2.5.35-5.07.19-7.55.68ZM1559.8 1415.76c0-12.14-1.2 13.51-1.37 15.08-1.4 12.55.3 26.81-5.49 38.39" stroke="#000" stroke-dasharray="4.71,3.1673178736672156,3.8818263886749875"/><path d="M1558.43 1437.69c1.7-5.09 4.44-8.55 8.22-12.33 3.01-3.01 9.73-10.91 15.08-8.23 2.19 1.09 1.38 7.59 1.38 8.23 0 10.26-1.31 18.75-2.75 28.79-.29 2.02-.91 6.4-2.74 5.48-2.08-1.04 2.01-10.5 2.74-12.34.87-2.16.81-4.59 1.37-6.85 2.19-8.76 11.85-20.27 19.2-24.68 1.86-1.12 10.35-1.24 10.97 0 2.23 4.47-.49 13.4-1.37 17.82-.96 4.78-.2 10.4-1.37 15.08-1.25 4.97-4.55 10.47-6.86 15.09M1655.77 1441.81c.13-6.46 1.83-12.8 2.74-19.2 1.48-10.32-1.26-13.71-10.96-13.71-2.18 0-3.71-.41-5.49 1.37-9.31 9.31-12.34 25.69-12.34 38.39 0 2.76-.9 7.33 1.37 9.6 3.65 3.64 8.54.3 10.97-2.74 5.96-7.45 13.27-15.11 16.45-24.68 1.04-3.1 3.34-6.48 4.12-9.6.22-.89-.92-2.74 0-2.74 1.02 0 1.37 1.72 1.37 2.74 0 5.92-4.57 15.51-5.49 21.94-.19 1.36.23 2.76 0 4.11-.23 1.43-.72 5.41-1.37 4.12-1.44-2.89-1.43-6.37-1.37-9.6ZM1694.16 1351.32c-8.75 17.5-10.61 38.61-12.34 57.58-.46 5.09-2.28 10-2.74 15.08-.7 7.67.77 19.03-2.74 26.05" stroke="#000" stroke-dasharray="4.71,3.1673178736672156,3.8818263886749875"/><path d="M1692.79 1396.56c0-10.6-23.71.2-28.79 2.74M1710.62 1407.53c0-2.53-4.98-21 4.11-16.45.91.45.76 1.92 1.37 2.74 2.03 2.7 5.16 4.26 8.23 5.48 2.58 1.04 6.26-.59 8.22 1.38.04.03-2.78.5-5.48 4.11-1.6 2.13-2.74 4.57-4.11 6.85-5.89 9.82-10.59 22.48-8.23 34.28 1.09 5.45 8.72 4.92 12.34 2.74 1.65-.99 9.88-11.54 10.97-13.71M1755.86 1399.3c-7.8 15.6-3.47 37.11-10.97 52.11M1803.85 1393.82c-2.29 4.59-6.61 6.99-9.6 10.97-7.41 9.88-12.28 21.16-19.19 31.53-2.53 3.79-6.28 5.71-8.23 9.6" stroke="#000" stroke-dasharray="4.71,3.1673178736672156,3.8818263886749875"/><path d="M1780.54 1389.71c0 12.87 3.77 26.04 6.86 38.39 1.54 6.19 4.11 11.19 4.11 17.82M1754.49 1369.14v4.11l1.37 2.75v-4.12l-1.37 2.74h0M1825.79 1392.45c3.56-3.56 4.9-9.02 8.22-12.34 2.87-2.86 10.5-2.32 12.34 1.37 3.85 7.69-4.82 22.64-9.59 27.42-.42.41-5.17 7.18-6.86 5.49-.72-.73.52-2.18 1.37-2.75 1.9-1.26 4.57 0 6.86 0 6.48 0 17 .56 21.93 5.49 9.41 9.4 3.83 31.59-9.59 34.28-7.69 1.53-13.95-.81-20.57-4.12M1909.42 1422.61c-.98 2.72-1.45 5.64-2.74 8.23-.84 1.68 1.14-3.62 1.37-5.48.48-3.79 0-8.48 0-12.34 0-3.91 1.21-10.1 0-13.72-1.09-3.29-9.71-13.71-13.71-13.71-5.72 0-6.77 8.71-8.23 12.34-3.56 8.92-5.88 36.62 1.38 43.88 10.32 10.33 17.71-2.83 20.56-12.34.67-2.23.7-4.63 1.37-6.86.71-2.35 2.75-6.85 2.75-6.85s-1.91 4.54-2.75 6.85ZM1920.39 1317.04c-4.65 9.3-3.84 20.29-5.48 30.16-2.23 13.38-1.37 27.42-1.37 41.14v60.32M1968.38 1344.46c-12.17 24.33-15.89 50.34-19.2 76.78-1.38 11.12-5.26 23.75 0 34.28M1977.29 1435.64c.63-3.44.95-6.97 2.06-10.28.43-1.31 0 2.74 0 4.11 0 2.72-.73 5.64-1.37 8.22-.25 1-1.05 3.72-1.37 2.75-.51-1.54.39-3.21.68-4.8ZM2005.4 1426.73c-1.82 7.25-1.37 3.6-1.37 10.96M2032.82 1432.21c.21-1.87 1.37-7.37 1.37-5.48 0 4.13-.37 8.32-1.37 12.34-.55 2.21-.25-4.59 0-6.86ZM2061.61 1314.3c19.66 39.3 28.91 89.06 13.71 131.62-3.56 9.98-9.86 18.29-15.08 27.42M2139.77 1264.94c-12.52 25.03-19.31 54.01-24.68 80.89-2.79 13.93-2.37 28.5-4.12 42.51-3.32 26.54-10 53.81-5.48 80.89 2.8 16.78.56 38.13 8.23 53.47M2205.58 1282.76c-1.89 3.77-5.45 6.43-8.23 9.6-5.87 6.72-9.77 14.86-15.08 21.94-4.01 5.34-9.35 10.47-12.34 16.45" stroke="#000" stroke-dasharray="4.71,3.1673178736672156,3.8818263886749875"/><path d="M2175.41 1280.02c9.79 14.68 11.36 33.68 19.2 49.36M2172.67 1414.39c-6.03 12.06-8.74 28.09-5.48 41.13.57 2.29 6.76 10.3 9.59 9.6 6.95-1.74 13.93-22.49 16.46-28.8.28-.7 3.61-8.22 4.11-8.22.92 0 0 1.83 0 2.74v17.82c0 11.39 2.74 22.8 2.74 34.28 0 22.22 3.3 51-16.45 65.81-5.38 4.04-16.35 10.71-23.31 5.49-5.49-4.12.36-12.16-5.48-15.08M2227.52 1240.26c5.18 10.37 9.67 20.77 13.71 31.53 9.52 25.4 23.2 48.03 27.42 75.41 4.39 28.52.3 57.89-1.37 86.38-1.41 23.9-2.8 48.41-10.97 71.3-6.05 16.93-17.63 30.55-27.42 45.24" stroke="#000" stroke-dasharray="4.71,3.1673178736672156,3.8818263886749875"/></g></svg>