<svg width="102" height="85" viewBox="0 0 102 85" fill="none" xmlns="http://www.w3.org/2000/svg">
<path d="M42.2842 37.3448C42.2842 38.9732 41.6615 40.5061 41.278 42.0406C41.2054 42.3307 41.0152 42.589 40.9426 42.8791C40.7091 43.8124 40.6731 44.796 40.4395 45.7301C40.3211 46.2039 40.5579 46.7657 40.4395 47.2395C40.3181 47.725 40.3177 48.2617 40.4395 48.7488C40.4987 48.9853 40.3803 49.2671 40.4395 49.5035C40.5431 49.9178 40.5232 50.3412 40.6072 50.7613C40.7779 51.6149 40.9874 52.4493 41.1942 53.2769C41.5908 54.8634 42.2926 56.4214 42.6197 58.0565C42.7497 58.7072 42.6268 59.4267 42.7874 60.069C43.0269 61.0275 43.1326 62.0371 43.3743 63.0039C43.4463 63.2915 43.3255 63.6336 43.3743 63.9263C43.5182 64.79 43.5378 65.6662 43.7097 66.5257C43.7958 66.9559 43.6237 67.4372 43.7097 67.8674C44.0065 69.3516 43.7097 70.9976 43.7097 72.4793C43.7097 73.0704 43.7876 74.3358 43.542 74.8272" stroke="black" stroke-miterlimit="10" stroke-linecap="round" stroke-linejoin="round"/>
<path d="M53.8172 50.6115C53.4685 50.8572 53.2844 51.4995 53.1762 51.933C52.7684 53.564 52.9787 55.3719 52.9787 55.3719C52.9787 55.3719 53.0377 57.1806 53.1762 57.8732C53.4089 59.0371 53.0901 60.2286 53.3736 61.3623C53.5522 62.0768 53.5231 63.4083 53.7028 64.1278C54.1264 65.8216 54.6979 67.2136 55.1128 68.8731C55.1718 69.1087 55.3712 69.3124 55.4482 69.5439C55.7742 70.5216 56.0352 71.2872 56.0352 72.311C56.0352 72.6179 56.2335 73.0196 56.0352 73.3173C55.8098 73.6552 55.325 74.0174 54.8737 74.1835" stroke="black" stroke-miterlimit="10" stroke-linecap="round" stroke-linejoin="round"/>
<path d="M46.3051 76.4783C45.6917 76.5521 44.6818 76.5529 44.3814 76.2527C44.2425 76.1135 43.7622 75.4528 43.7106 75.2465C43.6601 75.0444 43.7277 74.9455 43.6268 74.7434" stroke="black" stroke-miterlimit="10" stroke-linecap="round" stroke-linejoin="round"/>
<path d="M54.6936 50.3427C55.3769 50.3427 55.6193 50.7653 56.0352 51.1812C56.1844 51.3304 56.3991 51.4151 56.5383 51.6004C57.2497 52.5488 57.6465 53.955 57.88 55.1223C58.0218 55.8317 58.1316 56.656 58.1316 57.3863C58.1316 57.9087 58.0288 58.5494 58.1316 59.0634C58.2775 59.7929 58.2154 60.5761 58.2154 61.3274C58.2154 62.2666 58.2712 63.2845 58.0477 64.1784C57.8044 65.152 58.291 66.3075 58.0477 67.281C57.8356 68.1287 57.7961 69.0662 57.7961 69.9643C57.7961 70.3408 57.8872 70.8573 57.7961 71.2221C57.7144 71.5491 57.593 72.1755 57.7961 72.4799C58.3689 73.3394 59.2217 73.2715 60.1068 73.2547" stroke="black" stroke-miterlimit="10" stroke-linecap="round" stroke-linejoin="round"/>
<path d="M67.4959 72.5122C68.0235 72.3596 68.5586 72.2288 69.1158 72.2288" stroke="black" stroke-miterlimit="10" stroke-linecap="round" stroke-linejoin="round"/>
<path d="M63.1632 34.9982C63.5532 35.3881 63.5511 35.7948 63.8341 36.1722C64.1196 36.5529 64.3962 36.8941 64.6726 37.2623C64.9671 37.6547 65.443 37.9532 65.7627 38.3524C66.0999 38.7741 66.4346 39.1926 66.7689 39.6102C67.0426 39.9523 67.211 40.4713 67.5236 40.7841C68.5714 41.8314 69.3116 43.1295 69.7876 44.5575C70.4008 46.3972 70.5029 48.9472 70.1231 50.8465C69.9939 51.4921 70.2314 52.2091 70.1231 52.8589C70.0064 53.5591 69.972 54.2517 69.8715 54.9553C69.7637 55.71 69.8008 56.7741 69.4522 57.4709C69.3205 57.7342 69.2565 57.5271 69.2007 57.8063C69.0304 58.6574 69.2585 59.5555 69.1168 60.4057C69.0611 60.7395 68.7653 61.0732 68.6976 61.412C68.6039 61.8807 68.6228 62.3729 68.5298 62.8375C68.3881 63.5469 68.4391 65.1577 68.6137 65.8562C68.7704 66.4834 68.522 67.2263 68.6137 67.8687C68.7377 68.7374 68.8228 69.6279 69.033 70.4681C69.1199 70.8161 69.03 71.211 69.1168 71.5582C69.1509 71.6949 69.2845 71.9246 69.2845 72.0613C69.2845 72.3447 68.9772 72.3967 68.7814 72.3967" stroke="black" stroke-miterlimit="10" stroke-linecap="round" stroke-linejoin="round"/>
<path d="M35.4071 19.4002C34.917 19.6451 34.7958 20.2429 34.4847 20.658C33.4917 21.982 33.5537 25.0762 34.0654 26.6116" stroke="black" stroke-miterlimit="10" stroke-linecap="round" stroke-linejoin="round"/>
<path d="M35.8262 31.5578C35.9635 31.832 36.2603 32.0391 36.4971 32.2286C36.9557 32.5959 37.2816 33.0479 37.7549 33.4026C38.0727 33.6407 38.251 33.8118 38.5828 34.0105C38.7151 34.0902 39.1583 34.2721 39.2642 34.325C39.3392 34.3627 39.3148 34.3585 39.3898 34.3962C39.402 34.4021 39.7713 34.7266 39.8037 34.7593C39.9026 34.8583 40.0748 34.9119 40.1866 34.9958C40.7171 35.3941 41.32 35.6264 41.7798 36.0859C41.9297 36.236 42.1139 36.127 42.2829 36.2536C42.9991 36.7911 43.4965 37.1089 44.2657 37.4938C44.5911 37.6564 45.1513 37.7395 45.4693 37.9306C46.0384 38.2719 46.7652 38.6107 47.398 38.7692C47.6348 38.8287 47.832 39.045 48.0688 39.1046C48.45 39.2002 48.7201 39.3318 49.0999 39.4274C49.2775 39.471 49.6474 39.5943 49.825 39.6387C50.1971 39.7318 50.3226 39.9255 50.7012 40.001C51.0824 40.0773 51.5361 40.2651 51.926 40.3624C52.0838 40.4018 52.2713 40.323 52.4292 40.3624C53.0776 40.5242 53.7962 40.6852 54.4416 40.3624" stroke="black" stroke-miterlimit="10" stroke-linecap="round" stroke-linejoin="round"/>
<path d="M54.3575 40.4479C55.0753 40.4479 55.5565 39.8626 56.1184 39.5255C56.7865 39.1247 57.4937 38.7775 58.1309 38.2677C58.3466 38.095 58.5673 37.8216 58.8017 37.6807C59.7373 37.1197 60.5398 36.3575 61.4011 35.6683C61.6004 35.5089 61.8684 35.4117 62.072 35.249C62.6008 34.8255 63.0321 34.2889 63.4975 33.8235C64.9647 32.3561 66.3534 30.9624 67.2709 29.1277C67.3664 28.9365 67.5878 28.8292 67.6901 28.6246" stroke="black" stroke-miterlimit="10" stroke-linecap="round" stroke-linejoin="round"/>
<path d="M67.7752 19.0647C67.6724 18.6538 67.4185 18.0375 67.1043 17.723C67.0055 17.6241 66.8528 17.583 66.7689 17.4715C66.5636 17.1981 66.3995 16.8166 66.2658 16.5491C66.115 16.2472 65.6007 15.9873 65.3434 15.7944C65.1282 15.6326 65.0556 15.3693 64.8403 15.2074C64.5821 15.0137 64.26 14.898 64.0018 14.7043C63.704 14.4813 63.5748 14.1174 63.1632 14.1174" stroke="black" stroke-miterlimit="10" stroke-linecap="round" stroke-linejoin="round"/>
<path fill-rule="evenodd" clip-rule="evenodd" d="M42.327 14.8296C42.1503 14.911 41.9609 14.963 41.782 15.0393C41.7007 15.0745 41.9515 14.9881 42.0336 14.9554C42.2626 14.864 42.4836 14.7307 42.7044 14.62C42.7603 14.5923 42.9268 14.506 42.8721 14.5362C42.6917 14.6368 42.5144 14.7433 42.327 14.8296Z" stroke="black" stroke-miterlimit="10" stroke-linecap="round" stroke-linejoin="round"/>
<path d="M46.8942 12.4389C46.3041 12.4389 47.7011 12.0482 47.8166 12.0197C48.1801 11.9291 48.5395 11.7581 48.9067 11.6843C49.3406 11.5971 49.8878 11.6843 50.3322 11.6843" stroke="black" stroke-miterlimit="10" stroke-linecap="round" stroke-linejoin="round"/>
<path d="M54.9464 11.0161C54.9464 11.0723 54.9069 11.1444 54.9464 11.1838C54.9494 11.1871 56.5566 11.1838 56.7073 11.1838" stroke="black" stroke-miterlimit="10" stroke-linecap="round" stroke-linejoin="round"/>
<path d="M42.6198 17.5555C42.6198 17.3928 42.4587 17.2721 42.3683 17.1362C42.1976 16.8805 42.1765 16.4411 41.949 16.2138C41.768 16.0327 41.6818 15.964 41.5297 15.7107C41.2293 15.2101 40.9566 14.7506 40.6074 14.2852C40.4027 14.0127 40.2667 13.6094 40.0204 13.3628C38.4588 11.8015 36.6809 10.6217 34.8215 9.50559C34.5179 9.32363 34.0679 9.33788 33.7314 9.25403C33.0833 9.09219 31.0557 8.30146 30.7965 9.33788C30.542 10.3559 31.1924 11.3755 31.5512 12.2727C31.6703 12.5704 31.6923 12.936 31.8866 13.1951C32.1181 13.5037 32.4106 13.7502 32.5575 14.1175C33.0044 15.2344 33.8422 16.1426 34.5699 17.0524C35.3046 17.9706 35.9115 18.5785 36.834 19.3164C36.9574 19.4154 37.0225 19.5931 37.1694 19.6518C37.3185 19.7114 37.6059 19.6602 37.7563 19.7357C37.9476 19.8313 38.0548 20.0526 38.2595 20.1549" stroke="black" stroke-miterlimit="10" stroke-linecap="round" stroke-linejoin="round"/>
<path d="M47.1458 15.5423C47.1458 15.2262 47.2074 14.8447 47.1458 14.5361C47.0027 13.8208 45.6309 12.4934 44.9656 12.2721C44.5268 12.1262 43.891 11.7203 43.5401 12.1882C43.2805 12.5345 43.6358 13.1701 43.7078 13.5299C43.7712 13.8468 43.7131 14.2217 43.7916 14.5361C43.8615 14.8153 44.0913 15.2195 44.2109 15.4585C44.4034 15.8434 44.8487 16.1469 45.0494 16.5486" stroke="black" stroke-miterlimit="10" stroke-linecap="round" stroke-linejoin="round"/>
<path d="M49.4957 18.7303C49.4957 18.5224 49.4626 18.2574 49.4957 18.0595C49.5425 17.7786 49.6285 17.9597 49.8311 17.8079C50.2275 17.5103 49.8063 17.1245 50.5019 17.4725C50.5519 17.4977 50.6231 17.4415 50.6696 17.4725C50.9645 17.6687 50.7921 18.2909 50.8373 18.5626C50.955 19.2687 51.005 19.9319 51.005 20.6589" stroke="black" stroke-miterlimit="10" stroke-linecap="round" stroke-linejoin="round"/>
<path d="M50.8376 20.8242C51.1677 20.1643 51.716 19.7165 52.1793 20.4888C52.2047 20.5308 52.4116 20.8125 52.4308 20.9081C52.6421 21.9647 52.7637 23.0933 52.2631 24.0945" stroke="black" stroke-miterlimit="10" stroke-linecap="round" stroke-linejoin="round"/>
<path d="M50.416 13.6976C50.416 12.5757 51.0991 11.0496 51.6738 10.092C51.8356 9.82195 52.2623 9.23666 52.5961 9.16958C54.2989 8.82913 54.4409 11.5225 54.4409 12.6076C54.4409 12.9555 54.5142 13.3832 54.3571 13.6976" stroke="black" stroke-miterlimit="10" stroke-linecap="round" stroke-linejoin="round"/>
<path d="M57.2949 13.6143C57.1871 13.2906 57.2756 13.0148 57.211 12.6919C57.1016 12.1444 56.9561 11.5784 56.8756 11.0149C56.7417 10.0774 56.3385 9.18352 56.2048 8.24772C55.9419 6.40798 56.3442 4.04416 57.798 2.88112C58.4963 2.32265 59.0469 1.45561 60.062 1.45561C60.9295 1.45561 61.9831 3.78338 62.2422 4.47433C62.446 5.01769 62.4395 5.5988 62.5776 6.15139C62.901 7.4444 63.3451 9.44179 63.0808 10.7633C62.9897 11.2186 62.8209 11.6513 62.7453 12.105C62.7093 12.3213 62.7884 12.5611 62.7453 12.7758C62.6297 13.3535 62.2743 13.8734 62.1584 14.4528C62.1169 14.66 62.1759 14.753 62.0745 14.956" stroke="black" stroke-miterlimit="10" stroke-linecap="round" stroke-linejoin="round"/>
<path d="M35.7418 27.7861C35.5892 27.4809 35.2801 27.6075 34.9871 27.5345C34.112 27.3157 33.4687 26.8285 32.6392 27.4507C32.4567 27.5874 32.1127 27.7123 32.0522 27.9538C31.8184 28.8888 33.1656 29.329 33.7293 29.7986C34.0212 30.0417 34.345 30.4878 34.7355 30.5532C35.1888 30.6287 35.4841 30.508 35.9095 30.7209" stroke="black" stroke-miterlimit="10" stroke-linecap="round" stroke-linejoin="round"/>
<path d="M42.3648 57.4217C42.0602 56.8129 41.604 56.4583 41.1466 56.0013C40.7285 55.5828 40.4382 54.621 39.8269 54.377C39.6667 54.3125 39.4574 54.3787 39.3194 54.2747C38.9643 54.0089 38.7781 53.5393 38.4057 53.2601C38.0211 52.9716 37.3193 52.8844 36.9845 52.549C36.931 52.4962 36.9436 52.3914 36.883 52.3461C36.5191 52.0736 35.9445 52.2824 35.5633 52.3461C34.8217 52.4702 34.5475 52.6513 34.0406 53.1586C33.8714 53.328 33.64 53.4521 33.533 53.6659C33.4306 53.8705 33.4631 53.9963 33.33 54.1733C33.1995 54.3477 33.0701 54.3561 33.0254 54.5799C32.8461 55.4763 32.7581 56.8356 33.0254 57.7269C33.1392 58.106 33.3755 58.4514 33.4315 58.843C33.6257 60.2023 34.1415 61.7351 34.6497 63.0055C34.9018 63.6361 34.8992 64.395 35.2588 64.9341" stroke="black" stroke-miterlimit="10" stroke-linecap="round" stroke-linejoin="round"/>
<path fill-rule="evenodd" clip-rule="evenodd" d="M46.527 75.7459C46.298 75.8608 46.3971 76.2532 46.4255 76.5073C46.4562 76.784 47.3046 77.3542 47.5422 77.1169C47.9094 76.7488 47.9452 75.3057 47.2376 75.1874C46.1866 75.0122 46.9203 75.5497 46.527 75.7459Z" stroke="black" stroke-miterlimit="10" stroke-linecap="round" stroke-linejoin="round"/>
<path fill-rule="evenodd" clip-rule="evenodd" d="M49.4701 74.8321C49.2703 75.1659 49.3938 75.6178 49.4701 75.9994C49.518 76.2383 50.139 76.3096 50.2822 76.2023C50.837 75.7864 50.2316 73.5601 49.4701 74.8321Z" stroke="black" stroke-miterlimit="10" stroke-linecap="round" stroke-linejoin="round"/>
<path fill-rule="evenodd" clip-rule="evenodd" d="M51.7544 74.1741C51.7706 74.5875 51.9273 75.1082 52.2113 75.3916C52.716 75.8964 54.0594 73.707 52.2113 73.9712C51.9807 74.0039 51.7466 73.9745 51.7544 74.1741Z" stroke="black" stroke-miterlimit="10" stroke-linecap="round" stroke-linejoin="round"/>
<path fill-rule="evenodd" clip-rule="evenodd" d="M53.9888 73.5623C53.8551 73.6965 53.7436 73.881 53.7351 74.0705C53.7086 74.6524 54.2614 75.0457 54.7502 74.6792C55.0994 74.4176 54.9221 73.1582 54.5472 73.2579C54.3423 73.3124 54.1387 73.4131 53.9888 73.5623Z" stroke="black" stroke-miterlimit="10" stroke-linecap="round" stroke-linejoin="round"/>
<path d="M54.1405 74.3756C53.8379 74.3002 53.4945 74.4184 53.227 74.5785" stroke="black" stroke-miterlimit="10" stroke-linecap="round" stroke-linejoin="round"/>
<path d="M47.8891 76.0928C48.2999 76.0928 48.8209 75.7985 49.1066 75.5134" stroke="black" stroke-miterlimit="10" stroke-linecap="round" stroke-linejoin="round"/>
<path fill-rule="evenodd" clip-rule="evenodd" d="M51.2216 75.1086C51.1099 75.1547 50.9754 75.1857 50.9028 75.2822C50.855 75.3459 51.0591 75.2495 51.1347 75.2243C51.2522 75.1849 51.3716 75.1061 51.4825 75.0507C51.5212 75.0314 51.6407 74.9828 51.5985 74.992C51.4702 75.0205 51.343 75.0574 51.2216 75.1086Z" stroke="black" stroke-miterlimit="10" stroke-linecap="round" stroke-linejoin="round"/>
<path fill-rule="evenodd" clip-rule="evenodd" d="M60.2953 72.4413C59.9788 72.7105 59.9801 73.2429 60.0634 73.6588C60.1112 73.8978 60.4348 73.9255 60.5851 73.7754C60.9484 73.4115 61.0483 71.8023 60.2953 72.4413Z" stroke="black" stroke-miterlimit="10" stroke-linecap="round" stroke-linejoin="round"/>
<path fill-rule="evenodd" clip-rule="evenodd" d="M62.4985 72.2655C62.5003 72.3871 62.402 72.5741 62.3826 72.6714C62.3434 72.8676 62.3625 73.6961 62.7884 73.4831C63.0906 73.3321 63.3481 72.5733 63.1942 72.2655C63.0612 71.9997 62.4954 72.0517 62.4985 72.2655Z" stroke="black" stroke-miterlimit="10" stroke-linecap="round" stroke-linejoin="round"/>
<path fill-rule="evenodd" clip-rule="evenodd" d="M64.9323 71.9168C64.6971 72.0946 64.8114 72.1424 64.7004 72.4384C64.5208 72.9172 64.8562 73.7767 65.3381 73.1344C65.4571 72.9759 65.4244 72.7906 65.454 72.6128C65.5342 72.1315 65.5093 71.4816 64.9323 71.9168Z" stroke="black" stroke-miterlimit="10" stroke-linecap="round" stroke-linejoin="round"/>
<path fill-rule="evenodd" clip-rule="evenodd" d="M66.731 71.7732C66.6128 72.1128 66.5916 72.4977 66.731 72.8457C67.066 73.6834 67.535 72.7828 67.6005 72.3241C67.6722 71.8227 66.8864 71.3271 66.731 71.7732Z" stroke="black" stroke-miterlimit="10" stroke-linecap="round" stroke-linejoin="round"/>
<path d="M66.499 72.5557H66.3251L66.1512 72.6135H65.9773" stroke="black" stroke-miterlimit="10" stroke-linecap="round" stroke-linejoin="round"/>
<path d="M64.4692 73.0204C64.2303 73.0204 63.9901 73.1939 63.7736 73.1939C63.5575 73.1939 63.4304 72.9357 63.2519 72.8459" stroke="black" stroke-miterlimit="10" stroke-linecap="round" stroke-linejoin="round"/>
<path d="M62.2081 73.2519C61.795 73.2519 61.156 73.5832 60.9328 73.1362" stroke="black" stroke-miterlimit="10" stroke-linecap="round" stroke-linejoin="round"/>
<path d="M69.873 55.4551C69.873 54.9671 70.2232 54.9629 70.4731 54.63C70.9267 54.0246 71.5926 53.6137 72.1984 53.129C73.8176 51.8343 76.0759 50.0491 78.35 50.5036C78.8238 50.5983 79.2775 50.8926 79.7001 51.104C80.3818 51.4444 80.9587 51.7907 81.2757 52.5295C82.2727 54.8572 81.6606 58.1233 80.9 60.4058C80.6392 61.189 80.1462 61.9168 79.8502 62.6564C79.5005 63.5302 79.0167 64.4391 78.6494 65.3565C78.5479 65.6114 78.4716 65.624 78.35 65.8068C78.2578 65.9451 78.2838 66.2394 78.1999 66.4072C78.1748 66.4575 78.1807 66.5573 78.1245 66.5573C78.0691 66.5573 78.075 66.4575 78.0499 66.4072" stroke="black" stroke-miterlimit="10" stroke-linecap="round" stroke-linejoin="round"/>
<path fill-rule="evenodd" clip-rule="evenodd" d="M72.8728 66.2571C72.8868 66.3837 72.8576 66.5422 72.9477 66.6319C72.9945 66.6788 72.9477 66.3309 72.9477 66.0323C72.9477 65.6005 72.8448 65.151 72.6477 64.7569C72.5439 64.549 72.3026 64.2765 72.0476 64.5314C71.5059 65.0731 71.4782 67.4092 72.3477 67.7572C72.7993 67.9383 72.9805 66.5187 72.9477 66.2571C72.935 66.1548 72.9758 65.9569 72.8728 65.9569C72.7727 65.9569 72.8617 66.1573 72.8728 66.2571Z" stroke="black" stroke-miterlimit="10" stroke-linecap="round" stroke-linejoin="round"/>
<path fill-rule="evenodd" clip-rule="evenodd" d="M75.5738 65.7337C75.6007 65.9333 75.7986 65.3958 75.8732 65.2088C75.9202 65.0923 75.713 65.4008 75.6485 65.5082C75.4305 65.8721 75.5479 65.5845 75.4237 65.9585C75.3149 66.2838 74.6506 67.6942 75.3484 67.8343C76.0258 67.9693 77.1461 66.2503 76.9239 65.5836C76.7662 65.1107 75.4506 64.8348 75.5738 65.7337Z" stroke="black" stroke-miterlimit="10" stroke-linecap="round" stroke-linejoin="round"/>
<path fill-rule="evenodd" clip-rule="evenodd" d="M78.987 67.6825C79.107 67.6531 79.3795 67.6422 79.325 67.5324C79.2973 67.4787 78.5049 67.8057 78.4244 67.8326C77.98 67.9801 76.5687 68.3776 77.2991 69.1071C78.0504 69.8585 79.3887 69.0535 79.7744 68.282C80.1761 67.4804 77.9255 67.9407 78.987 67.6825Z" stroke="black" stroke-miterlimit="10" stroke-linecap="round" stroke-linejoin="round"/>
<path fill-rule="evenodd" clip-rule="evenodd" d="M80.2261 70.4598C80.2219 70.5386 80.2269 70.6627 80.1514 70.6845C79.9536 70.7407 79.5007 70.5738 79.2509 70.6099C78.8559 70.666 78.8106 70.7985 78.5004 70.9847C77.9595 71.3092 77.9008 71.1591 77.9008 71.8844C77.9008 71.9347 77.8706 71.9951 77.9008 72.0345C78.4794 72.806 80.3611 72.0739 80.6764 71.2849C80.7133 71.1926 80.247 70.0304 80.2261 70.4598Z" stroke="black" stroke-miterlimit="10" stroke-linecap="round" stroke-linejoin="round"/>
<path d="M69.2741 69.9355C69.2741 69.1347 70.2817 67.5776 70.8495 67.0099C71.0038 66.8548 71.1889 66.8556 71.2995 66.6342" stroke="black" stroke-miterlimit="10" stroke-linecap="round" stroke-linejoin="round"/>
<path d="M73.1729 65.6565C73.4668 65.363 74.4002 65.2506 74.8232 65.3563C75.0604 65.4158 75.1635 65.5064 75.4237 65.5064" stroke="black" stroke-miterlimit="10" stroke-linecap="round" stroke-linejoin="round"/>
<path d="M77.1493 66.3321C77.1241 66.2827 77.0747 66.182 77.0747 66.182C77.0747 66.182 77.1158 66.2877 77.1493 66.3321ZM77.1493 66.3321C77.2759 66.5015 77.3916 66.691 77.525 66.8579C77.7614 67.1531 77.9744 67.4197 77.9744 67.8331" stroke="black" stroke-miterlimit="10" stroke-linecap="round" stroke-linejoin="round"/>
<path d="M78.801 69.485L78.8765 69.8598V70.0099V70.3101" stroke="black" stroke-miterlimit="10" stroke-linecap="round" stroke-linejoin="round"/>
<path d="M69.4238 71.8835C69.7107 72.4579 69.8998 73.0038 70.324 73.5345C70.6722 73.9697 71.1886 74.1056 71.5993 74.4343C71.7794 74.5785 71.9664 74.8066 72.1994 74.8846C72.3437 74.9324 72.5135 74.8913 72.6495 74.9592C72.8866 75.0783 72.9257 75.2795 73.0996 75.4095C73.6064 75.7894 74.531 75.8355 75.125 75.9344C75.6434 76.0208 76.4425 75.9915 76.9255 75.7843C77.1041 75.708 77.2844 75.4757 77.4504 75.4095C77.52 75.3818 77.6056 75.4372 77.6752 75.4095C77.8789 75.3282 78.1204 75.0397 78.2755 74.8846C78.8893 74.2708 79.1007 73.8088 79.1007 72.9342" stroke="black" stroke-miterlimit="10" stroke-linecap="round" stroke-linejoin="round"/>
<path fill-rule="evenodd" clip-rule="evenodd" d="M32.7782 69.7463C32.9368 69.7136 32.5034 69.5744 32.3738 69.4771C32.2874 69.4126 32.1968 69.353 32.1042 69.2977C31.616 69.0042 30.8697 68.3988 30.3071 68.3988C30.0591 68.3988 29.6648 68.2721 29.5882 68.5782C29.4232 69.2381 30.0933 69.5325 30.4868 69.9266C30.9339 70.3735 32.3207 71.2875 33.0927 71.0946C33.8201 70.9127 32.369 69.831 32.7782 69.7463Z" stroke="black" stroke-miterlimit="10" stroke-linecap="round" stroke-linejoin="round"/>
<path fill-rule="evenodd" clip-rule="evenodd" d="M32.4639 66.7334C32.4443 66.7611 32.3512 66.7544 32.3741 66.7787C32.5914 67.0118 32.8339 67.2223 33.093 67.4076C33.3439 67.587 33.6508 67.6776 33.9017 67.857C34.3237 68.1581 34.8673 68.7559 35.3394 68.1262C35.3796 68.0734 35.4293 68.0138 35.4293 67.9468C35.4293 67.187 34.6241 66.6923 34.1713 66.2395C34.0949 66.1632 34.0853 66.0232 33.9916 65.9703C33.7464 65.8295 33.1948 65.7901 32.9133 65.7901C32.8234 65.7901 32.7208 65.7439 32.6437 65.7901C32.236 66.0349 32.6883 66.4248 32.4639 66.7334Z" stroke="black" stroke-miterlimit="10" stroke-linecap="round" stroke-linejoin="round"/>
<path fill-rule="evenodd" clip-rule="evenodd" d="M36.1031 64.8475C36.1239 64.7066 36.0688 64.3427 35.9682 64.4433C35.8412 64.57 35.9682 64.8022 35.9682 64.9825C35.9682 65.6273 36.0623 66.5841 36.6871 66.9589C36.8821 67.0763 37.2935 67.2516 37.4959 67.0487C37.9338 66.6109 38.1276 65.146 37.5858 64.7125C37.379 64.5473 36.4875 64.2932 36.2378 64.4433C36.0874 64.5331 36.0492 65.2123 36.1031 64.8475Z" stroke="black" stroke-miterlimit="10" stroke-linecap="round" stroke-linejoin="round"/>
<path fill-rule="evenodd" clip-rule="evenodd" d="M39.831 64.9364C39.8238 64.8828 39.7455 65.0178 39.7411 65.0714C39.7101 65.4597 39.6467 65.8622 39.7411 66.2395C39.7954 66.4567 40.1326 66.7418 40.3702 66.5992C40.7712 66.3586 41.3293 64.4727 40.7296 64.1725C40.4358 64.0258 39.9904 63.9805 39.831 64.3528C39.7866 64.4559 39.8667 65.2014 39.831 64.9364Z" stroke="black" stroke-miterlimit="10" stroke-linecap="round" stroke-linejoin="round"/>
<path d="M41.0015 66.4187C40.6104 65.6363 41.7998 66.9478 41.8103 66.9579C42.3179 67.466 42.7114 67.7771 42.8886 68.4857C43.2977 70.1225 43.273 73.6787 41.8103 74.7755C41.6095 74.9264 41.319 74.9541 41.0914 75.0455C40.6331 75.2291 40.2285 75.5528 39.7435 75.6744C39.1593 75.8203 37.4408 75.9075 36.8681 75.7641C36.7336 75.7306 36.5154 75.5427 36.4188 75.4949C36.0799 75.3256 35.6706 75.2677 35.3404 75.1352C34.8709 74.9474 34.2954 74.5625 33.9027 74.3269C33.6805 74.1935 33.4 74.129 33.1838 73.9671C32.5273 73.4749 32.2161 72.7965 31.7462 72.1702C31.5587 71.9203 31.3867 71.6905 31.3867 71.361" stroke="black" stroke-miterlimit="10" stroke-linecap="round" stroke-linejoin="round"/>
<path fill-rule="evenodd" clip-rule="evenodd" d="M32.4625 68.1735C32.3411 68.3102 32.1936 68.4577 32.0133 68.4879C31.9068 68.5055 32.1374 68.311 32.193 68.2188C32.3245 67.9991 32.313 67.8892 32.5524 67.7693C32.6123 67.7391 32.7467 67.6142 32.7321 67.6796C32.6915 67.8624 32.5872 68.0334 32.4625 68.1735Z" stroke="black" stroke-miterlimit="10" stroke-linecap="round" stroke-linejoin="round"/>
<path fill-rule="evenodd" clip-rule="evenodd" d="M35.4733 65.6115C35.2945 65.6937 34.8648 65.8966 34.8892 65.7013C34.9227 65.4338 36.3329 64.8116 36.0574 65.1621C35.9056 65.3549 35.6963 65.5084 35.4733 65.6115Z" stroke="black" stroke-miterlimit="10" stroke-linecap="round" stroke-linejoin="round"/>
<path fill-rule="evenodd" clip-rule="evenodd" d="M39.1141 65.1174C38.9362 65.1467 38.4749 65.3119 38.5749 65.1618C38.6959 64.9807 38.9951 65.0444 39.204 64.9824C39.2947 64.9547 39.3788 64.8926 39.4735 64.8926C39.5405 64.8926 39.71 64.9463 39.6532 64.9824C39.4961 65.0805 39.2968 65.0863 39.1141 65.1174Z" stroke="black" stroke-miterlimit="10" stroke-linecap="round" stroke-linejoin="round"/>
<path d="M67.5997 40.0709C67.9293 40.0709 68.2633 40.226 68.5907 40.1606C69.0122 40.0767 69.4169 39.7371 69.7619 39.53C70.2606 39.2307 70.8782 39.1124 71.3835 38.8097C73.1372 37.7574 74.7806 36.3646 76.0681 34.7554C76.645 34.0351 77.3577 33.4372 77.7804 32.5928C77.9061 32.3413 77.9238 32.0344 78.0504 31.782C78.1225 31.6378 78.2306 31.4935 78.2306 31.3317" stroke="black" stroke-miterlimit="10" stroke-linecap="round" stroke-linejoin="round"/>
<path d="M78.4376 31.2745C78.3663 31.3106 78.1424 31.3709 78.2221 31.3827C78.5424 31.4279 78.8694 31.3827 79.1931 31.3827C79.6065 31.3827 79.8849 31.3298 80.2731 31.2745C81.4068 31.1127 82.5791 30.7345 83.7262 30.7345C84.3157 30.7345 84.8708 30.5919 85.4536 30.519C86.5143 30.3865 87.6346 30.5617 88.6911 30.4108C89.3553 30.316 89.9666 29.9664 90.634 29.8716C91.5296 29.7433 92.4302 29.5899 93.3324 29.4398C93.6922 29.3794 93.9269 29.2234 94.3034 29.2234" stroke="black" stroke-miterlimit="10" stroke-linecap="round" stroke-linejoin="round"/>
<path d="M94.1973 29.4406C94.1973 28.623 94.6552 29.6829 94.8447 29.8724C95.0636 30.0913 95.3814 30.1927 95.6002 30.4116C95.9272 30.7386 96.0589 31.2426 96.3557 31.5989C96.9494 32.3109 97.1146 32.7695 97.4349 33.65C97.5699 34.0206 97.8089 34.1825 97.9749 34.5128C98.2634 35.0914 98.2131 35.395 98.4059 36.0239C98.5904 36.6234 98.951 37.1718 99.1615 37.7512C99.652 39.0988 99.7719 40.9653 99.5933 42.3917C99.4684 43.3929 99.2227 44.3387 98.946 45.3064C98.8705 45.5697 98.6885 45.7961 98.6223 46.0619C98.5149 46.4921 98.6617 46.9156 98.5141 47.3566" stroke="black" stroke-miterlimit="10" stroke-linecap="round" stroke-linejoin="round"/>
<path d="M97.9729 47.6803C97.9729 47.1411 97.4162 46.7311 97.0011 46.3856C96.752 46.1776 96.1198 46.1382 95.8137 46.0619C94.0981 45.6326 93.6931 46.7562 92.468 47.573" stroke="black" stroke-miterlimit="10" stroke-linecap="round" stroke-linejoin="round"/>
<path d="M92.7939 48.221C92.4996 47.4839 91.4724 46.3762 90.6356 46.0626C90.1266 45.8714 89.6377 46.0274 89.1245 45.9544C88.899 45.9217 88.7044 45.7381 88.4772 45.7381C87.8391 45.7381 87.071 46.4416 86.5343 46.71" stroke="black" stroke-miterlimit="10" stroke-linecap="round" stroke-linejoin="round"/>
<path d="M93.9802 29.2234C94.7064 31.4011 95.4561 33.7876 95.2758 36.1313C95.2087 37.0025 95.2305 37.976 95.0594 38.8297C94.9722 39.2657 94.7727 39.6808 94.7358 40.1244C94.6251 41.4551 94.3442 42.7523 93.8721 44.0101C93.6029 44.7287 93.4645 45.4725 93.1165 46.1685C92.9874 46.4284 92.787 46.6523 92.6855 46.924C92.5245 47.3525 92.6822 47.5755 92.361 47.8959" stroke="black" stroke-miterlimit="10" stroke-linecap="round" stroke-linejoin="round"/>
<path d="M94.0879 29.2232C94.1239 29.1159 94.196 28.8996 94.196 28.8996C94.196 28.8996 94.0879 29.3281 94.0879 29.5469C94.0879 30.066 93.957 30.5498 93.8715 31.0579C93.63 32.5094 93.6258 33.8679 93.116 35.2674C92.8586 35.9759 92.6992 36.7499 92.3605 37.4257C91.8104 38.5267 91.1194 39.5305 90.6339 40.6642C90.4377 41.122 90.3178 41.6201 90.0948 42.067C89.8315 42.5928 89.3476 43.0548 89.1229 43.5781C89.0147 43.8296 88.9745 44.1231 88.7992 44.3336C88.25 44.9927 87.4576 45.588 86.7482 46.0609" stroke="black" stroke-miterlimit="10" stroke-linecap="round" stroke-linejoin="round"/>
<path d="M70.8842 51.0257C70.7403 51.1699 70.6345 51.3669 70.4525 51.4575C70.3806 51.4936 70.2366 51.4298 70.2366 51.3502C70.2366 51.2965 71.3211 49.8542 71.4239 49.731C72.5113 48.4262 73.5714 47.2573 74.8776 46.1689C75.4244 45.7136 76.1783 45.483 76.8206 45.1979C77.6457 44.8306 78.5018 44.34 79.4108 44.226C79.6959 44.1908 79.9894 44.2671 80.2745 44.226C80.6401 44.174 80.9738 44.0549 81.3537 44.1187C81.8887 44.2076 82.4278 44.3644 82.972 44.4423C83.2756 44.4851 84.6617 44.7283 84.8076 44.8742C84.9703 45.0369 85.299 44.9983 85.4834 45.1367C85.891 45.4427 86.3169 45.4117 86.6423 45.9534C86.8159 46.2427 86.8125 46.6183 86.966 46.9244" stroke="black" stroke-miterlimit="10" stroke-linecap="round" stroke-linejoin="round"/>
<path d="M71.9716 42.0236C71.8542 42.2584 71.8051 42.5427 71.6195 42.728C71.5576 42.7901 71.4809 42.5779 71.5021 42.4932C71.5495 42.3037 71.7159 42.162 71.8542 42.0236C72.2057 41.6723 72.8536 41.2279 73.2626 40.9679C74.4904 40.1864 75.4821 39.9114 76.9009 39.9114" stroke="black" stroke-miterlimit="10" stroke-linecap="round" stroke-linejoin="round"/>
<path d="M30.7786 31.4614C30.9957 31.027 31.4771 31.7473 31.7175 32.0475C32.5287 33.0621 33.0443 34.3132 33.9475 35.2163C35.0328 36.3022 35.9687 37.425 37.2336 38.2686C37.5249 38.4623 38.0282 38.4757 38.2899 38.7373C38.5803 39.0283 39.053 39.5121 39.4635 39.6765C39.9061 39.8534 40.2621 39.6538 40.6371 40.0287" stroke="black" stroke-miterlimit="10" stroke-linecap="round" stroke-linejoin="round"/>
<path d="M30.7776 31.3457C29.6591 30.7864 28.2411 30.4921 27.0219 30.2891C26.6425 30.2263 26.23 30.3369 25.8483 30.2891C24.0574 30.0653 22.2446 29.9269 20.4496 29.7022C19.7572 29.6158 19.0275 29.8011 18.337 29.7022C17.0264 29.5152 15.0458 29.0389 13.7598 29.4674" stroke="black" stroke-miterlimit="10" stroke-linecap="round" stroke-linejoin="round"/>
<path d="M13.6418 29.5846C13.7201 29.4672 13.7427 29.2777 13.8765 29.2324C13.9595 29.2048 14.0151 29.3825 13.9939 29.4672C13.942 29.6752 13.5047 29.9762 13.4071 30.1716C13.1942 30.5976 13.0192 31.1326 12.8202 31.5803C12.2356 32.8952 11.4755 34.3576 11.2945 35.8049C11.1771 36.7449 10.9428 37.6806 10.825 38.6215C10.7723 39.0441 10.8635 39.4902 10.825 39.9128C10.701 41.2771 10.359 42.7496 10.5903 44.1382C10.6473 44.4795 10.8833 44.8392 10.9424 45.1939C11.0401 45.7809 11.0785 46.3628 11.1771 46.9548C11.2463 47.369 11.7208 47.7975 11.2945 48.0105" stroke="black" stroke-miterlimit="10" stroke-linecap="round" stroke-linejoin="round"/>
<path d="M11.4133 48.5972C11.4133 47.9381 11.826 47.7151 12.2348 47.3067C12.498 47.0434 12.6937 46.6661 13.0563 46.4849C13.6885 46.1688 14.6377 46.1822 15.2862 46.3675C15.4788 46.4229 16.3923 46.9403 16.3425 47.1893C16.3148 47.3277 16.186 47.4241 16.1078 47.5415" stroke="black" stroke-miterlimit="10" stroke-linecap="round" stroke-linejoin="round"/>
<path d="M16.2256 47.8905C16.5518 46.5866 19.9493 45.0026 21.2722 45.1913C21.703 45.2533 22.896 46.1405 22.2112 46.4826" stroke="black" stroke-miterlimit="10" stroke-linecap="round" stroke-linejoin="round"/>
<path d="M14.4657 28.7621C14.4657 32.8558 14.0044 36.916 14.5831 40.9677C14.6993 41.7803 15.1533 42.4436 15.4046 43.1974C15.6034 43.7936 15.6129 44.3705 15.874 44.9575C16.2946 45.9042 16.9303 46.4484 16.9303 47.5402" stroke="black" stroke-miterlimit="10" stroke-linecap="round" stroke-linejoin="round"/>
<path d="M14.9331 29.9354C14.9331 31.2728 15.5188 32.6321 16.1068 33.8085C16.2895 34.1741 16.3415 34.5909 16.4589 34.9825C16.7907 36.0885 17.4261 37.197 17.8672 38.2687C18.1374 38.9244 18.4493 39.6389 18.8061 40.2636C18.9806 40.5688 19.2636 40.7616 19.3929 41.0853C19.4813 41.3058 19.4351 41.5633 19.5103 41.7888C19.6252 42.1335 19.7875 42.1192 19.9798 42.3758C20.2052 42.6768 20.0096 42.6701 20.2145 43.0802C20.3588 43.3686 20.8355 43.6613 21.036 43.9019C21.5395 44.5057 22.0923 45.0801 22.0923 45.8968" stroke="black" stroke-miterlimit="10" stroke-linecap="round" stroke-linejoin="round"/>
<path d="M22.0915 45.8976C22.0132 45.937 21.8568 46.015 21.8568 46.015C21.8568 46.015 22.299 45.6503 22.5609 45.5454C22.6699 45.5018 22.7979 45.5689 22.913 45.5454C23.4265 45.4431 23.8813 45.1454 24.4387 45.0759C25.062 44.9979 25.6896 44.8285 26.3166 44.7237C26.8495 44.6356 27.4231 44.7908 27.9596 44.7237C28.4354 44.665 28.8743 44.5358 29.368 44.6071C29.5765 44.6365 29.747 44.8067 29.9548 44.8411C30.5813 44.9459 31.2189 44.9534 31.8326 45.0759C32.1051 45.1304 32.3807 45.3828 32.6542 45.428C33.1519 45.5111 33.717 45.5027 34.1799 45.7802C34.3476 45.8808 34.4677 46.0595 34.6493 46.1324C34.7257 46.1626 35.1444 46.2758 35.2361 46.3672C35.6833 46.8141 36.3522 47.2636 36.7619 47.7759C36.9044 47.9537 36.9527 48.2011 37.114 48.3621C37.4342 48.6824 38.0052 48.7134 38.2876 49.0664C38.4737 49.2995 38.4665 49.6458 38.6397 49.8882C38.9393 50.3074 39.2237 50.3259 39.5786 50.5926C39.7186 50.6974 39.6896 50.938 39.8133 51.0613C40.1187 51.3674 40.5426 51.229 40.7522 51.6483" stroke="black" stroke-miterlimit="10" stroke-linecap="round" stroke-linejoin="round"/>
<path d="M38.642 42.3755C38.321 42.269 37.8288 42.1491 37.5857 41.9059C37.3057 41.6258 36.8412 41.2074 36.4121 41.085C36.2616 41.0414 36.097 41.1101 35.9426 41.085C35.6948 41.043 35.4852 40.7823 35.2384 40.7328C34.4874 40.5827 33.5406 40.7328 32.7738 40.7328" stroke="black" stroke-miterlimit="10" stroke-linecap="round" stroke-linejoin="round"/>
<path fill-rule="evenodd" clip-rule="evenodd" d="M55.0729 28.6464C55.0463 28.1626 54.9815 27.5413 55.0811 26.9442C55.1346 26.6231 55.1585 26.2088 55.2204 25.8994C55.5069 24.4672 56.1618 23.2824 57.0681 22.074C57.3005 21.7638 57.6971 21.3672 58.007 21.1349C58.147 21.0301 58.3527 21.0242 58.4764 20.9001C58.9466 20.4297 59.3741 20.0406 60.0021 19.7262C61.5288 18.9631 64.1057 19.3287 65.0488 20.9001C65.3983 21.4829 65.5768 21.7655 65.7003 22.3826C65.7981 22.8723 65.7425 23.6522 65.6356 24.1863C65.1581 26.5744 62.788 27.4306 61.0697 28.7194C60.4424 29.1898 59.427 29.6527 58.5938 29.8196C58.2343 29.8917 57.7102 30.051 57.3442 30.1122C56.7184 30.2162 56.1059 30.4753 55.5338 29.9034C55.2062 29.5755 55.2232 29.7349 55.0115 29.3114C54.9766 29.2418 55.0995 29.1294 55.0729 28.6464Z" fill="#644EFE" stroke="black" stroke-miterlimit="10" stroke-linecap="round" stroke-linejoin="round"/>
<path fill-rule="evenodd" clip-rule="evenodd" d="M38.6419 25.242C38.6419 25.6697 38.2452 25.6269 38.1724 26.063C37.8079 28.2507 39.2259 30.3445 40.8718 31.5797C41.2885 31.8916 41.5749 31.8715 42.0399 32.1507C42.6679 32.5272 43.252 32.7813 43.9497 32.8978C44.1746 32.9356 44.6503 32.9029 44.8622 32.9876C45.1059 33.0848 45.6531 32.9876 45.9185 32.9876C46.2424 32.9876 46.6579 33.0513 46.9747 32.9876C47.1462 32.9532 47.2716 32.7821 47.4442 32.7528C47.7269 32.7058 48.0106 32.84 48.2657 32.6354C48.3759 32.5473 48.4007 32.383 48.5005 32.2832C48.6241 32.1599 48.8462 32.1725 48.9699 32.0484C49.2603 31.7583 49.7066 31.0648 49.7915 30.6405C49.8699 30.2481 49.625 30.0435 49.5567 29.7013C49.4025 28.9307 49.2131 28.3438 48.7352 27.7065C48.4636 27.3442 48.3557 26.8579 48.031 26.5325C47.8629 26.3648 47.6466 26.0973 47.4442 25.9456C47.3042 25.8408 47.1733 25.5489 47.0495 25.4248C46.8735 25.2487 46.7987 25.1833 46.6227 25.0073C46.4466 24.8312 46.2119 24.7138 46.0358 24.5377C45.8265 24.328 45.4321 24.2324 45.1675 24.1796C44.7109 24.0882 44.439 23.674 43.922 23.5708C43.4476 23.4753 43.2101 23.3386 42.7496 23.2463C42.1259 23.1222 41.8182 23.1264 41.3203 23.3486C40.2685 23.8199 40.178 23.8232 39.4634 24.5377C39.3037 24.697 38.6419 25.045 38.6419 25.242Z" fill="#644EFE" stroke="black" stroke-miterlimit="10" stroke-linecap="round" stroke-linejoin="round"/>
<path fill-rule="evenodd" clip-rule="evenodd" d="M52.3711 36.0984C51.4846 35.5785 52.958 36.9067 52.958 36.3919C52.958 36.3046 52.7851 36.3365 52.7232 36.2745C52.6235 36.1747 52.5883 36.0221 52.4885 35.9223C52.4266 35.8602 52.2538 35.7177 52.2538 35.8049C52.2538 36.0321 53.1984 36.7382 53.4274 36.5092C53.5733 36.3633 52.9182 35.9608 52.8406 35.9223C52.7624 35.8837 52.6059 35.7177 52.6059 35.8049C52.6059 36.033 53.8545 36.4883 53.1927 36.1571C53.1145 36.1185 53.0452 36.0464 52.958 36.0397C52.7619 36.0263 52.5408 36.1982 52.3711 36.0984Z" stroke="black" stroke-miterlimit="10" stroke-linecap="round" stroke-linejoin="round"/>
<path fill-rule="evenodd" clip-rule="evenodd" d="M56.9503 35.6852C57.0003 35.3037 56.1981 35.9183 55.894 36.1548C55.7705 36.2512 55.7422 36.6621 55.894 36.6244C56.2181 36.543 56.6833 35.7817 56.9503 35.5678C57.0186 35.5133 57.2725 35.4504 57.185 35.4504C56.7686 35.4504 56.524 35.8152 56.2461 36.0374C56.1778 36.0919 55.9239 36.1548 56.0114 36.1548C56.355 36.1548 56.9062 36.0223 56.9503 35.6852Z" stroke="black" stroke-miterlimit="10" stroke-linecap="round" stroke-linejoin="round"/>
<path d="M3.7842 39.2086C3.58739 39.996 3.16276 41.1834 2.7279 41.9079C2.44623 42.3774 1.96936 43.0097 1.78899 43.5514C1.55781 44.2448 1.69684 45.0683 1.55429 45.781C1.51991 45.9529 1.35388 46.0787 1.3195 46.2506C1.20672 46.8149 1.43237 47.4472 1.3195 48.0107C1.16823 48.767 1.20219 49.5628 1.20219 50.3586C1.20219 52.3845 1.19028 54.371 1.43689 56.344C1.60485 57.6873 2.34762 58.9024 2.6105 60.2172C2.89284 61.6284 3.36476 63.1336 4.0189 64.4417C4.49494 65.3943 5.19536 66.1481 5.77931 67.0236C6.25191 67.7329 6.62984 68.4859 7.18771 69.1366C7.70534 69.7404 8.37474 69.8326 8.94812 70.3098C9.71605 70.9504 10.5563 71.6288 11.5301 71.9533C11.9377 72.0891 12.4391 72.0606 12.8211 72.1881C13.2527 72.3315 13.5042 72.4698 13.9947 72.5402C15.1096 72.6996 16.2797 72.5176 17.3983 72.6576C18.0293 72.7365 18.6452 72.931 19.2761 73.0098C20.0711 73.1088 20.9396 73.0098 21.7408 73.0098C22.2599 73.0098 22.2891 72.7843 22.7971 72.6576C23.2268 72.5503 23.6392 72.6685 24.0881 72.5402C26.1459 71.9524 28.0395 71.1508 29.9562 70.1924" stroke="black" stroke-miterlimit="10" stroke-linecap="round" stroke-linejoin="round"/>
<path d="M4.48778 40.1473C4.48778 39.754 4.37047 38.9734 4.37047 38.9734C4.37047 38.9734 4.47856 39.692 4.60517 40.0299C4.96859 40.9992 5.26376 42.0097 5.66147 42.9639C6.57539 45.1575 6.49573 47.5926 7.06979 49.8885C7.12102 50.0931 7.16244 50.4034 7.30449 50.5929C7.44142 50.7748 7.616 50.8184 7.65659 51.0616C7.73893 51.5555 7.70204 52.1257 8.36079 52.2356C9.76969 52.4704 11.3109 51.9605 12.5859 51.4138C12.905 51.2771 13.3009 51.013 13.6422 50.9451C13.9895 50.8755 14.3623 50.9392 14.6984 50.8277C15.2881 50.6306 15.7237 50.3531 16.3415 50.2407C17.2005 50.0839 18.0536 50.1233 18.9235 50.1233C19.0409 50.1233 19.1926 50.0403 19.2756 50.1233C19.4236 50.2709 19.2365 50.9057 19.1582 51.0616C18.9322 51.5144 18.6277 52.0813 18.5714 52.5878C18.5282 52.9768 18.62 53.3735 18.5714 53.7617C18.5688 53.7827 18.3499 54.4786 18.454 54.5826C18.8472 54.9759 20.1998 53.277 20.5666 53.6443C20.6338 53.7114 20.5847 54.7512 20.5666 54.8174C20.4882 55.105 20.3001 55.3541 20.2145 55.6392C20.147 55.8639 20.2145 56.1087 20.2145 56.3435C20.2145 56.4182 20.162 56.8626 20.3318 56.9305C20.9183 57.1645 21.8526 56.5196 22.4444 56.4609C23.1528 56.3896 23.8396 56.6974 24.5569 56.5783C24.8871 56.523 25.1854 56.3293 25.4958 56.2261C25.8319 56.1138 26.2015 56.1591 26.5521 56.1087C26.7257 56.0836 28.0854 55.6744 28.1952 55.7566C28.5294 56.0073 28.365 56.7225 28.4299 57.0479C28.6262 58.029 28.9944 59.0453 29.3689 59.9819C29.4471 60.1773 29.4151 60.4741 29.6036 60.568C30.0208 60.7768 31.0624 60.1832 31.4814 60.0993C31.8974 60.0155 31.7851 60.1496 32.1856 60.2167C32.6255 60.2897 33.1472 60.2167 33.594 60.2167" stroke="black" stroke-miterlimit="10" stroke-linecap="round" stroke-linejoin="round"/>
<path d="M4.48964 39.4416C5.25866 39.185 6.0504 39.221 6.83694 39.0894C7.95437 38.9032 9.25325 38.8387 10.3578 39.2068" stroke="black" stroke-miterlimit="10" stroke-linecap="round" stroke-linejoin="round"/>
<path d="M22.7978 46.1323C23.5047 46.4861 24.2606 46.8006 25.0277 46.954C25.3027 47.0085 26.0223 46.8308 26.2014 47.1888C26.3063 47.3984 26.2014 47.6584 26.2014 47.8923C26.2014 48.616 26.2909 49.4067 26.2014 50.1228C26.1844 50.2578 25.9902 50.7568 26.084 50.9446C26.2277 51.2314 26.7495 50.9438 26.9056 50.8272C27.7558 50.1891 28.8753 49.6901 29.957 49.5359C31.0975 49.3732 29.9264 51.4569 30.3091 51.6481C30.408 51.6976 30.4588 51.4846 30.5438 51.4133C30.7142 51.2716 31.1476 50.9572 31.3654 50.8272C31.9883 50.4532 32.8384 49.9711 33.5953 50.1228C34.2405 50.252 33.4274 53.1407 35.0036 52.3525" stroke="black" stroke-miterlimit="10" stroke-linecap="round" stroke-linejoin="round"/>
<path d="M83.0053 81.811C83.6644 81.811 84.4761 81.9393 85.1175 81.811C85.7481 81.6844 86.4533 81.541 87.1132 81.4588C87.7312 81.3817 87.4453 81.6148 87.9342 81.224C88.6737 80.632 89.0863 79.6962 89.5777 78.877C89.7873 78.5265 89.8695 78.1148 90.1647 77.8204C90.4682 77.516 91.2338 77.7072 91.5726 77.8204C92.0606 77.9831 92.6132 78.2858 93.0987 78.4074C93.5481 78.5198 94.0605 78.4183 94.5066 78.6422C94.8789 78.8283 94.5812 78.9944 95.0935 78.9944C95.3636 78.9944 95.761 78.2741 95.7979 78.0552C95.8239 77.9009 95.7761 77.7408 95.7979 77.5856C95.8021 77.558 96.8444 75.4776 96.8545 75.4734C97.5169 75.1422 98.1517 75.9438 98.7319 76.0604C99.542 76.2222 101.528 74.9518 101.079 73.8299C100.854 73.2664 99.8866 73.4777 99.4363 73.4777C98.9407 73.4777 98.5047 73.2052 98.0276 73.1263C97.4909 73.0366 96.7597 73.2546 96.2675 73.0089C96.1895 72.9695 96.2121 72.8354 96.1501 72.7742C96.0671 72.6911 94.9912 71.721 94.9761 71.7176C94.6927 71.6463 94.3145 72.3272 94.2718 72.5394C94.1955 72.9209 94.1686 73.2018 94.0378 73.5951C93.959 73.8315 93.7343 74.0563 93.6856 74.2994C93.6479 74.4889 93.6563 75.1019 93.4509 75.2386C93.3469 75.3074 92.7255 74.6793 92.6291 74.6516C92.479 74.6089 92.3147 74.6734 92.1595 74.6516C91.7394 74.5913 91.2019 74.198 90.869 73.9473C90.7122 73.8299 90.6912 73.5657 90.5168 73.4777C90.3911 73.4156 88.4557 74.2483 88.2863 74.4168C88.039 74.6642 87.7505 76.5937 87.7002 76.9987C87.6893 77.0825 87.556 77.9512 87.348 78.0552C87.0009 78.2288 86.9179 77.9118 86.6437 77.8204C86.4206 77.7466 86.1623 77.8951 85.9393 77.8204C85.4093 77.6435 84.9188 77.3441 84.2966 77.4683C84.0182 77.5236 83.6702 77.781 83.5922 78.0552C83.531 78.2682 83.6375 78.6489 83.5922 78.877C83.4187 79.744 83.0044 80.928 83.3575 81.811C83.5168 82.2101 83.8606 82.3938 84.1792 82.6328C84.435 82.8248 84.5616 83.1124 84.8827 83.2189C85.6793 83.4847 86.5254 83.4537 87.348 83.6885C87.8444 83.8302 88.3492 84.0927 88.8733 84.1581C89.5123 84.2377 90.2242 84.1581 90.869 84.1581C92.1897 84.1581 93.4089 84.179 94.624 83.5711C95.0164 83.3749 95.6084 83.0571 95.9153 82.7502C96.0151 82.6504 96.0402 82.486 96.1501 82.398C96.2465 82.32 96.3991 82.3485 96.5023 82.2806C97.3534 81.7129 98.0695 80.8358 98.8493 80.1675C99.9763 79.2015 100.223 77.6544 100.844 76.4125C100.919 76.2624 101.236 75.3937 101.196 75.2386C101.175 75.1539 101.04 75.1606 100.962 75.1212" stroke="black" stroke-miterlimit="10" stroke-linecap="round" stroke-linejoin="round"/>
<path d="M57.0673 70.6613L56.9499 70.8961L56.7152 71.0135H56.2457" stroke="black" stroke-miterlimit="10" stroke-linecap="round" stroke-linejoin="round"/>
<path d="M53.8228 50.6009C53.9594 50.4642 54.5662 50.2655 54.7259 50.346" stroke="black" stroke-miterlimit="10" stroke-linecap="round" stroke-linejoin="round"/>
<path d="M67.117 20.8768C67.2657 20.5799 67.3479 20.2076 67.5507 19.9376C67.9781 19.3674 68.5985 19.0706 69.1409 18.6362C69.4675 18.3746 70.272 18.0325 70.6589 18.419C71.033 18.7939 70.8332 19.3129 70.7311 19.7204C70.3947 21.0663 69.3502 22.3014 67.9844 22.7568" stroke="black" stroke-miterlimit="10" stroke-linecap="round" stroke-linejoin="round"/>
<path d="M67.4042 28.7583C67.6335 28.2996 67.7921 27.8577 67.9102 27.3856C67.9824 27.0963 67.983 27.384 68.127 27.0963C68.286 26.7785 68.4727 26.2922 68.5608 25.94C68.7637 25.1275 68.7053 24.2998 68.7053 23.4823" stroke="black" stroke-miterlimit="10" stroke-linecap="round" stroke-linejoin="round"/>
<path fill-rule="evenodd" clip-rule="evenodd" d="M41.4669 23.6587C41.4669 23.6931 41.4669 23.7962 41.4669 23.7619C41.4669 23.7099 41.4669 23.6076 41.4669 23.6076C41.4669 23.6076 41.4485 23.8172 41.4155 23.9161C41.3707 24.0503 41.3393 24.1937 41.3127 24.327C41.2267 24.7572 41.2099 25.215 41.2099 25.6628C41.2099 27.1327 41.349 28.3209 42.392 29.3632C42.8021 29.7733 43.6819 30.0223 44.2422 29.9293C44.3773 29.9066 44.5125 29.7984 44.6533 29.775C44.8525 29.7414 45.0722 29.8144 45.2701 29.775C45.5967 29.7096 45.9586 29.2509 46.1437 29.0035C46.7151 28.2421 47.2215 27.2485 47.0174 26.2288C46.948 25.8808 46.7077 25.4045 46.4521 25.1496C46.3641 25.0616 46.192 25.0549 46.0923 24.9953C45.9661 24.919 45.9531 24.7748 45.8354 24.6868C45.6347 24.5358 45.2361 24.3136 45.0131 24.2239C44.8464 24.1576 44.5976 24.1685 44.4477 24.0184C44.1576 23.7283 43.8338 23.5363 43.4199 23.4533C43.2345 23.4164 43.0412 23.439 42.8545 23.4021C42.7124 23.3736 42.6342 23.2403 42.5462 23.1967C42.3853 23.1162 42.0978 23.2478 41.9295 23.2478C41.7882 23.2478 41.6876 23.3501 41.5697 23.3501C41.5314 23.3501 41.479 23.2629 41.4669 23.299C41.429 23.413 41.4669 23.5388 41.4669 23.6587Z" fill="black" stroke="black" stroke-miterlimit="10" stroke-linecap="round" stroke-linejoin="round"/>
<path fill-rule="evenodd" clip-rule="evenodd" d="M56.2161 23.6862C56.1476 23.7802 56.0538 23.8607 56.0105 23.9688C56.0047 23.9831 56.3818 24.7629 56.4217 24.8426C56.7534 25.5059 57.3554 26.7351 58.169 26.8978C58.4767 26.9599 58.8138 27.1703 59.1456 27.1041C60.3203 26.8685 61.3351 26.0685 62.0236 25.1512C62.6854 24.2682 62.4354 22.8393 61.818 22.0159C61.71 21.8717 61.6876 21.6285 61.561 21.5019C61.4157 21.3568 61.1925 21.2361 61.0471 21.091C60.9419 20.9853 60.7955 20.8906 60.6874 20.7824C60.5412 20.6365 60.5522 20.4093 60.3275 20.3195C60.146 20.2474 59.5966 20.281 59.4025 20.3195C59.2728 20.3455 59.2622 20.4671 59.1456 20.525C58.7572 20.7195 58.3652 20.8948 58.0663 21.1933C58.0121 21.2478 58.0176 21.3451 57.9635 21.3987C57.7964 21.5664 57.507 21.5983 57.3467 21.7585C57.1925 21.9127 57.0897 22.1182 56.9356 22.2725C56.8151 22.3932 56.946 22.3748 56.8842 22.5299C56.8161 22.7001 56.5926 22.8737 56.5245 23.0439C56.412 23.3248 56.4325 23.3886 56.2161 23.6862Z" fill="black" stroke="black" stroke-miterlimit="10" stroke-linecap="round" stroke-linejoin="round"/>
<path fill-rule="evenodd" clip-rule="evenodd" d="M42.9046 24.5086C42.8388 24.5396 42.4106 24.7006 42.3392 24.8432C42.2938 24.9337 42.3392 25.2021 42.3392 25.3052C42.3392 26.0196 42.5713 26.7701 43.4699 26.5907C44.1928 26.4456 44.3797 25.0503 43.8296 24.6377C43.6185 24.4792 43.1306 24.709 42.956 24.5346C42.8386 24.4172 43.2256 24.3057 43.1616 24.3803C43.0992 24.4532 42.9912 24.4683 42.9046 24.5086Z" fill="white" stroke="black" stroke-miterlimit="10" stroke-linecap="round" stroke-linejoin="round"/>
<path fill-rule="evenodd" clip-rule="evenodd" d="M58.7603 22.0944C58.5114 21.9451 58.46 22.2973 58.3235 22.4793C58.0545 22.8382 58.0296 23.4704 58.3749 23.8159C58.4964 23.9375 58.6908 23.9408 58.8374 23.9702C58.9749 23.9979 59.0942 24.0524 59.2485 24.0213C59.4019 23.9912 59.4169 23.8528 59.5055 23.7648C59.8437 23.426 60.1261 23.0646 60.0195 22.5313C59.9968 22.4181 59.9313 22.4139 59.8653 22.3258C59.463 21.7892 59.0777 22.2847 58.7603 22.0944Z" fill="white" stroke="black" stroke-miterlimit="10" stroke-linecap="round" stroke-linejoin="round"/>
</svg>
