<svg width="116" height="128" fill="none" xmlns="http://www.w3.org/2000/svg" viewBox="0 0 116 128">
    <path
        d="M26.867 91.674a.876.876 0 10.5-1.68c-1.461-.498-3.098-1.145-4.682-1.67a57.785 57.785 0 00-4.068-1.22l-.044-.011c-2.465-.626-4.89.054-6.958.8l-.055.02c-5.451 2.319-7.295 7.735-9.672 12.003l-.023.046C-.4 104.202-.412 109.37.816 113.805l.03.114c.952 3.095 3.29 4.762 5.263 6.33l.103.077c5.647 3.648 11.477 1.134 16.423-.005l.065-.018c6.766-2.358 8.928-8.847 11.158-14.026l.091-.361.003-.021c.342-3.273.325-6.789-1.3-10.054l-.017-.031-.073-.13a5.746 5.746 0 00-.265-.342c-.993-.988-1.654-2.411-1.92-4.118a.164.164 0 00-.056-.094.155.155 0 00-.098-.041.156.156 0 00-.1.036.165.165 0 00-.06.09c-.348 1.591-.732 3.725.396 5.406l.185.317-.073-.13.01.025c1.04 2.588.866 5.728.527 8.735l-.002.019.09-.36c-2.053 5.075-4.655 10.873-9.261 12.289l-.064.017c-4.883 1.283-10.462 3.039-13.993.564a5.998 5.998 0 01-.1-.074c-1.943-1.446-3.992-2.945-4.55-4.763l-.03-.105c-1.226-4.083-1.28-8.46.622-12.206l.023-.046c2.23-4.343 4.281-9.42 8.407-11.132l.053-.02c1.983-.767 3.991-1.43 5.836-.956l.043.011c1.323.34 2.638.743 3.943 1.183 1.58.523 3.052 1.115 4.742 1.689zM1.467 52.172a.004.004 0 00.003.005l.003-.001.001-.003.004-.03.061-.55.004-.03-.001-.004-.003-.001h-.002l-.002.003-.003.03-.062.551-.003.03z"
        fill="currentColor" />
    <path
        d="M2.54 49.34a.81.81 0 10-1.59-.311 42.697 42.697 0 00.074 11.128c.084.598.307 1.174.615 1.662a5.322 5.322 0 001.346 1.438c6.84 3.801 13.562.504 19.823 1.523.086.008.171.018.257.028 7.395.971 14.132 5.315 20.02 10.107.04.032.077.064.115.097 7.64 11.014 5.425 27.306 6.332 41.307l.006.21c.141 2.031-.27 4.173 1.139 6.535a5.8 5.8 0 00.113.168c1.57 2.219 4.04 3.137 6.214 3.704.055.015.111.028.167.041 2.444.569 4.816-.147 6.775-1.03.049-.022.096-.044.144-.068 6.714-5.923 6.052-13.683 7.314-20.666.01-.076.017-.153.026-.229 1.295-14.8-5.21-28.526-12.438-40.655l-.05-.08C52.808 53.4 41.565 45.22 29.338 42.986l-.187-.03-.087-.006c-4.173-.284-8.35-.5-12.563-.46-3.142.124-6.119-.075-9.579 1.29l-.01.005c-.95.445-1.487 1.34-2.276 1.877a.313.313 0 00-.09.031.128.128 0 00-.056.063.127.127 0 00-.002.084c.009.03.026.058.044.084 1.296.888 2.578.33 3.456-.064h.002c2.255-.924 5.6-1.001 8.551-1.106 4.107-.092 8.246.058 12.375.34l.086.006-.187-.03c12.028 2.274 22.214 9.798 28.237 20.33l.047.079c7.105 11.924 13.317 25.446 12.023 39.255a38.53 38.53 0 01-.024.213c-.951 6.636-1.756 15.115-6.1 18.69l-.067.03c-1.755.781-3.578 1.227-5.185.842a4.468 4.468 0 01-.112-.028c-1.966-.496-3.813-1.308-4.774-2.698l-.073-.106c-.793-1.113-.957-3.276-1.042-5.21a54.273 54.273 0 01-.005-.204c-1.169-14.243 1.804-29.599-7.2-42.79a8.502 8.502 0 00-.154-.13c-6.074-4.917-12.926-9.496-21.082-10.597-.094-.011-.189-.022-.284-.031-6.661-.918-13.892 2.021-18.932-.947a6.386 6.386 0 01-.047-.035c-.377-.28-.724-.568-.983-.892-.225-.28-.38-.588-.43-.92A41.865 41.865 0 012.54 49.34z"
        fill="currentColor" />
    <path
        d="M7.984 10.629a.851.851 0 00-.962-1.404C4.257 11.58 2.51 14.35 1.279 17.557l-.005.015c-.85 2.598.604 4.86 1.892 6.475l.002.002c.857 1.027 1.932 1.739 3.008 2.297 4.267 2.08 8.726 2.582 12.847 3.783l.107.03c10.159 2.33 20.077 1.969 29.81 4.102l.072.014c11.818 1.482 18.941 11.559 25.93 20.845l.021.027c9.53 11.844 14.505 26.285 14.923 41.596l.012.121c1.256 9.337-.334 18.803 3.546 28.463.037.065.075.128.116.191.77 1.249 2.292 1.735 3.407 1.783 1.162.069 2.204-.099 3.21-.3 2-.41 3.88-1.062 5.645-1.455.226-.049.448-.107.67-.174 2.55-.752 4.353-2.716 5.751-4.443.143-.175.28-.357.41-.546 5.442-11.825 2.079-23.721.874-35.22a30.6 30.6 0 00-.104-.64c-1.777-8.513-5.808-15.87-9.162-23.482a76.202 76.202 0 00-.221-.485C97.452 46.311 89.99 32.41 80.302 19.895l-.208-.26c-6-8.47-16.14-13.02-25.516-16.104l-.181-.065C45.073.186 35.029-.694 25.249.522l-.1.013c-1.802.238-3.611.526-5.41.92-2.911.635-5.816 1.573-8.503 3.005l-.096.058-.034.022C9.353 5.699 7.69 7.103 6.36 8.833l-.064.09-.007.01c-.5.703-.65 1.967-.324 2.762.29.836.765 1.463 1.184 2.093.02.028.052.05.088.06a.155.155 0 00.103 0 .156.156 0 00.077-.07.168.168 0 00.024-.104c-.105-.73-.08-1.497.071-2.117.163-.655.403-.88.728-1.38l.005-.007-.064.09c1.161-1.451 2.634-2.67 4.24-3.731l.03-.02-.096.057c2.454-1.308 5.128-2.204 7.892-2.832a60.718 60.718 0 015.306-.94c9.399-1.224 19.173-.45 28.128 2.694l.175.062c9.54 3.175 18.691 7.212 24.582 15.418l.203.252c9.485 12.249 16.93 26.102 23.445 40.23l.219.481c3.347 7.585 7.253 15.133 8.834 22.99.034.194.064.388.092.577 1.275 11.209 3.998 23.886-.587 33.488a6.45 6.45 0 01-.294.388c-1.37 1.684-2.801 3.11-4.577 3.626a6.45 6.45 0 01-.478.125c-2.025.465-3.815 1.131-5.62 1.534-1.743.423-3.719.494-4.178-.4a1.703 1.703 0 01-.047-.076c-3.334-8.006-2.162-18.211-3.347-27.537l-.012-.123c-.343-15.17-5.603-30.807-15.289-42.773l-.02-.028c-6.744-9.055-14.684-20.291-27.297-21.832l-.075-.015c-9.88-2.155-20.265-1.826-29.654-3.964l-.098-.027c-4.328-1.218-8.784-1.717-12.5-3.477-.926-.458-1.769-1.022-2.371-1.723l-.002-.001c-1.214-1.406-2.432-3.089-1.909-4.538l.005-.014c1.039-2.827 2.95-5.674 5.103-7.502z"
        fill="currentColor" />
</svg>