<svg stroke-miterlimit="10" viewBox="0 0 419.58 297.675" xmlns="http://www.w3.org/2000/svg" clip-rule="evenodd" stroke-linecap="round" stroke-linejoin="round"><g fill="none" stroke-width="3"><path d="M150.921 172.302h-2.392m-4.386.399c12.717 0 25.482-.399 38.278-.399 4.558 0 9.87-.747 14.354 0 8.252 1.375 17.495.399 25.917.399 4.537 0 9.496 1.036 13.956.399 10.484-1.498 21.518-1.595 32.297-1.595" stroke="#000"/><path d="M143.744 173.498c3.947-11.841 1.595-24.347 1.595-36.683 0-7.502-.399-14.89-.399-22.328 0-1.589.733-3.115.399-4.785-1.052-5.261-1.595-10.861-1.595-16.348 0-.797.156-1.61 0-2.392-.116-.583-1.218-1.175-.797-1.595.398-.398 4.075-.28 4.784-.4 3.761-.626 7.256-.796 11.165-.796 7.028 0 13.799.797 20.734.797 3.601 0 6.839-.797 10.367-.797 4.362 0 9.691.852 13.955 0 3.321-.665 7.023.27 10.367-.4 3.851-.77 9.541-1.8 13.557-.797 4.502 1.126 11.211 1.986 15.949 1.197 5.811-.97 11.788-1.64 17.544-2.792 2.212-.442 4.191-1.845 6.38-2.392.257-.064.65-.221.797 0 .673 1.01 0 5.145 0 6.38 0 5.708-.707 11.888 0 17.544 1.895 15.159 3.514 31.299 1.595 46.651-.79 6.321.82 13.49-1.196 19.538M142.947 87.772c3.247-3.248 6.761-6.685 10.367-9.57 2.484-1.987 5.37-3.377 7.575-5.582 3.415-3.415 10.926-5.901 13.158-10.367m96.891 21.133c2.6-2.6 4.94-6.097 7.975-8.374 6.409-4.806 14.533-7.754 20.335-13.556 1.421-1.421 8.24-5.182 8.772-6.779.314-.942-9.175-1.196-10.367-1.196-11.238 0-22.248.798-33.493.798-12.905 0-25.911.398-38.677.398-7.222 0-15.148-.897-22.328 0-4.144.518-8.615.107-12.76.798-5.178.863-10.207 3.19-15.55 3.19m94.897 112.441c3.613-1.806 6.522-5.036 9.57-7.576 3.362-2.802 7.649-3.662 10.765-6.778 3.574-3.574 6.831-7.204 11.563-9.57" stroke="#000"/><path d="M306.425 57.07c.133-.266.189-1.008.399-.798.257.257-.399 9.468-.399 10.766v19.538c0 8.602.399 16.979.399 25.518 0 4.098-.801 9.152 0 13.158.497 2.488.797 4.582.797 7.177 0 4.923 2.008 12.09-3.588 13.956M92.308 124.853c5.911 0 12.418-2.05 18.342-2.791 4.351-.544 8.84-.18 13.158-.797 4.187-.598 8.914 0 13.158 0 .309 0 3.19.285 3.19-.399 0-.625-9.57-3.789-9.57-3.987 0-.892 1.595.797 2.392 1.196 1.274.637 5.28.193 5.981 1.595.891 1.781-7.042 5.139-8.373 5.582m-84.463-18.65c-.78 1.558-3.435 7.646-1.985 8.733.299.224 2.787 0 3.176 0m.794-16.672l-.397-.794-.794.397.794.397.793-.397-.793-.397-.397.794.794.397h0m7.542 5.954c.132-.264.397-1.089.397-.794 0 2.429-1.117 5.581-1.588 7.94-.133.661-.397 2.659-.397 1.984 0-4.049 3.848-7.542 7.542-7.542.397 0 .91-.281 1.19 0 .92.919-.105 6.377-.396 7.542m9.13-9.13c0 3.245-1.222 6.633-1.588 9.924-.45 4.054-.147 9.026-1.985 12.703" stroke="#000"/><path d="M70.734 111.961c-1.093-1.947-.369-3.102.794-4.962.857-1.372 5.696-6.43 7.542-3.969 3.483 4.644-3.76 17.082-8.336 8.931zm14.29-8.138c-.652 1.305-1.468 8.884-.397 9.527 2.728 1.637 6.251-5.257 7.145-6.748.457-.761.564-3.009 1.191-2.382.504.504-3.345 9.641-1.19 10.718m12.305-17.863c-2.321 4.642-3.176 8.656-3.176 13.894 0 2.316 1.536 4.021 3.573 1.984" stroke="#000"/><path d="M105.269 105.411c-3.334 0-6.522-.397-9.924-.397m230.845 3.516c2.459-1.23 5.782-.812 8.521-.812 7.833 0 15.387.812 23.128.812 1.616 0 3.687-.318 5.275 0 .596.119 3.517 1.351 4.057.811 1.477-1.476-5.386-2.14-6.086-2.84-.214-.214-.676-.676-.406-.811.232-.116 7.743 1.318 8.115 2.434.427 1.281-5.324 4.209-6.086 4.463m-22.722-27.185c-4.404 2.202-6.612 12.212.811 9.738 4.011-1.337 8.573-8.51 2.435-9.738-1.254-.25-1.95-.648-3.246 0zm13.795 0c-.958.959-1.759 2.064-2.434 3.246-.312.545-1.109 2.082-1.217 2.84-1.132 7.923 7.436-2.434 8.115-2.434.092 0-1.938 2.659-2.029 2.84-.585 1.17-1.217 3.158-1.217 4.463m14.607-17.447c-1.138 2.276-13.528 20.154-4.058 15.419" stroke="#000"/><path d="M368.389 88.242l-1.218-.406h-1.217l-1.623-.405h-2.84 0m14.201-2.435c-3.147 6.294-5.508 12.468-7.709 19.071" stroke="#000"/><path d="M372.852 90.88c.291-1.237.869-2.426 1.623-3.45 1.055-1.431 7.303-1.655 7.303.812 0 3.4-2.325 6.492-5.68 6.492-1.091 0-2.918.634-3.246-.405-.346-1.097-.264-2.33 0-3.45zm14.607-4.667c-.581 1.163-1.657 1.944-2.029 3.246-.27.947-.649 1.87-.811 2.84-1.37 8.22 8.552-3.651 8.926-3.651.789 0-.811 1.352-1.217 2.029-.156.259-.293.53-.406.811-.642 1.606-1.623 3.14-1.623 4.87m13.796-17.854c-1.114 4.454-3.668 8.294-5.275 12.578-.494 1.317-2.463 3.635-.406 4.87.66.395 2.771.112 3.652.405m-4.057-8.927h1.623-3.652 2.029z" stroke="#000"/><path d="M400.849 88.242h2.434l.812-.406h.811l.812-.405h0" stroke="#000"/><path d="M320.095 138.674c-1.835 0-.256-2.403 0-2.403.855 0 1.174 1.395 2.003 1.602 1 .25 6.41-.75 6.41-1.602 0-.267-.542-.065-.801 0-1.44.36-3.554 2.067-4.407 3.205-3.654 4.873-1.905 13.924 4.808 7.211m4.384-4.923c2.172 0 5.422-1.252 6.801-3.091 1.726-2.302.296-4.264-2.473-3.71-3.113.623-7.448 9.856-5.565 12.366 1.463 1.951 4.765-.618 6.492-.618m10.82-7.111c.697-1.393.33-3.404-1.545-3.091-2.76.46-7.42 5.284-7.42 8.038 0 4.742 7.233-.369 8.347-1.855.451-.602 1.546-2.063 1.546-2.782 0-.231-.191.42-.309.618-.739 1.232-.554.546-.928 1.855-.532 1.864-.773 3.71-1.236 5.564m12.057-16.385c-2.531 1.266-6.493 12.323-6.493 15.149m-25.041 13.293c.204-.028.196-.683 0-.618-2.832.944-6.331 8.688-1.855 9.584 3.322.664 7.705-5.994 7.111-8.966-.614-3.069-6.707.204-5.256 0zm11.13-1.545c-.92.919-1.793 2.266-2.474 3.4-.491.819-.664 1.551-.927 2.473-2.288 8.009 5.903 1.882 7.729-.309.06-.072 2.208-2.428 1.855-2.782-.163-.163-.456.146-.619.309-1.863 1.863-2.473 5.601-2.473 8.038m10.511-15.458c-1.766 3.532-3.151 7.221-3.71 11.13-.067.474-.768 2.323-.309 2.782.246.246 2.401 0 2.783 0" stroke="#32b886" stroke-opacity=".996"/><path d="M354.132 160.004l-.618-.309-1.546-.309h-1.855l-.927.309-.928.309h0m11.748-1.236c-1.704 2.556-2.087 6.569-2.782 9.583-.912 3.949-2.12 7.904-3.401 11.748" stroke="#32b886" stroke-opacity=".996"/><path d="M359.233 164.178c-.589-.524-.498-1.531-.464-2.319.109-2.498 6.973-5.633 8.966-4.637 1.647.824.133 4.044-.619 4.946-2.407 2.889-4.936 4.628-7.883 2.01zm14.376-7.574c-1.12 1.119-3.171 8.038-.31 8.038 1.903 0 3.973-3.486 4.947-4.947.461-.691 1.236-2.164 1.236-2.164s-1.069 1.781-1.236 2.782c-.305 1.829-.928 3.728-.928 5.565m11.13-16.694c-1.969 2.954-8.725 18.984 0 16.076M389.684 156.913c-2.261 0-4.101-.543-6.183-1.237" stroke="#32b886" stroke-opacity=".996"/><path d="M333.619 69.22c.552-1.105-.426-.86-.964-.32-1.578 1.577-2.379 3.857-3.535 5.783-2.428 4.047-4.729 8.116-7.069 12.211-1.946 3.404-2.627 7.237-3.856 10.925-3.045 9.134-5.222 18.956-6.427 28.599-.808 6.463.215 13.5.643 19.922.767 11.515-.908 28.782 6.426 38.56 1.686 2.247 4.319 3.927 6.748 5.142 3.399 1.699 6.142 3.971 9.962 4.82 8.97 1.993 24.356.342 33.097-2.571 3.653-1.218 6.771-4.188 10.282-5.784 3.296-1.498 7.044-2.23 9.962-4.499 17.952-13.962 21.813-39.365 23.457-60.731.302-3.93-.07-7.975.321-11.89 1.225-12.245 2.428-25.642-3.856-36.953-4.759-8.566-13.935-15.236-23.457-17.352-2.816-.626-5.908.366-8.676.643-2.982.298-6.002.049-8.997.321-3.591.327-6.814 1.8-10.283 2.57-5.884 1.308-10.571 3.02-16.066 5.463-1.855.825-4.071 1.179-5.784 2.25-3.848 2.405-6.838 6.882-9.319 10.604m-4.177 160.344c2.391-1.195 4.247-5.238 5.784-7.39 3.349-4.69 6.52-9.413 10.604-13.496m-17.031 25.385c3.732-2.488 5.518-6.439 8.033-9.961 3.438-4.813 6.781-10.959 10.926-15.103" stroke="#c934ae"/><path d="M330.245 217.194c-.182.153 3.953-2.046 4.98-2.731 2.753-1.835 6.038-3.34 8.998-4.82.94-.47 1.737-1.303 2.57-1.928.243-.182.643-.946.643-.643 0 1.392-2.376 3.764-2.892 5.142-1.56 4.16-3.534 8.244-4.82 12.531-.028.092-.999 4.178-.964 4.178.832 0 .086-4.84 0-5.141-1.282-4.486-3.663-8.418-5.141-12.854-.09-.269-1.033-2.755-.964-2.892.239-.479 1.127-.239 1.606 0 2.168 1.084 3.891 3.485 6.427 4.499 3.032 1.213 5.988 2.331 8.997 3.535.22.088 2.571.922 2.571.964 0 .239-.407.281-.643.321-1.698.283-3.742 0-5.462 0-4.86 0-11.767-3.659-15.906-.161zm7.872 25.225c-1.916 3.832-5.681 6.66-6.748 10.925-1.186 4.744 9.093-.095 10.283-1.285m2.571-2.732c.32-.289.988-1.383.642-1.124-1.856 1.392-3.978 6.254-1.606 8.033 2.86 2.145 8.059-3.641 8.676-6.105.694-2.777-4.38-4.043-6.106-2.892-.5.333-4.086 4.33-1.606 2.088zm16.709-2.41c2.46 0-3.641-3.645-4.499.643-.795 3.976 8.709 8.997-.964 8.997h-2.249m18.958-8.354c0-5.441-6.148-2.076-7.069 1.606-1.448 5.792 4.711 2.94 6.105 6.427 1.389 3.471-2.605 6.257-5.784 5.463-.967-.242-1.927-.964-2.892-1.286M351.179 51.092c1.174-2.348-1.982-4.966-3.002-7.004-5.279-10.56-7.633-18.482-20.679-20.346-12.204-1.744-23.59 14.16-28.351 23.681" stroke="#c934ae"/><path d="M307.152 43.087c-2.487 1.244-6.338 5.504-8.338 6.004-1.127.282-.667-2.803-.667-3.336 0-3.073 1-6.182 1-9.339" stroke="#c934ae"/><path d="M170.401 105.792c0-2.237-1 3.806-1 5.003 0 3.888.938 6.566.938 10.503 0 9.051-12.787 14.351-12.787 23.442 0 2.916 5.122 8.515 14.74 6.927" stroke="#000"/><path d="M172.292 150.601c.851-1.702 2.005 6.997 3.446 5.556 4.38-4.38 9.938-9.765 15.343-13.008 1.276-.766 5.06-2.783 5.67-4.003 1.21-2.42.101-8.731-.334-11.34-.432-2.596 5.611-9.418 5.178-12.014-.986-5.918-5.525-8.083-6.512-14.002-.209-1.258-7.175 3.083-8.005 2.668-1.346-.673-4.415-3.629-5.67-3.002-4.977 2.489-4.053-3.463-8.672 0-1.045.784-2.383.764-3.002 2.002m43.76-7.557s-9.235 5.783-9.235 6.572c0 3.766 8.237 10.978 7.501 14.66-.795 3.975 4.359 7.772 3.688 11.801-.714 4.282-4.689 9.861-4.689 14.215 0 3.472-.866 3.703 4.689 4.078m1.066.355c5.86 6.926 13.852 15.273 23.797-.888" stroke="#000"/><path d="M241.022 145.806c0-5.2-8.195-17.956-8.916-23.003-.655-4.583.425-12.131 1.334-16.677.31-1.551 1.336-9.671.334-10.673-.975-.975-8.435-4.244-9.446-3.991-4.213 1.053-11.366 5.15-11.366 5.15m36.065 12.48c-1.178 2.355-.211 3.807-.578 6.373-.658 4.605-1 9.247-1 14.009 0 .657-.353 6.975-.334 7.004.957 1.435 3.048 6.395 3.658 5.785 3.517-3.517 10.238-6.223 13.792-9.777m.873-.698c1.386-2.772-4.359-15.297-3.981-18.324.246-1.964 3.806-6.029 3.806-8.039 0-.949-3.706-8.457-5.063-8.729-5.012-1.002-6.667 10.89-10.416 12.765m-100.729 10.674h1m5.004.667h1m5.337 2.334c.444.89.111.556 1 1.001m11.674 5.003l.667.334m7.338.667h2.001m7.338-.667c1.352 0 .684-.106 2.001.333m18.345-.667l.667-.333m11.007-.668h1.001m6.003-.667h1.001m9.339-1.667h1.668" stroke="#000"/><path d="M247.782 124.137h1.001l.667-.334h1.001m4.002-2.001l.667-.667 1.001-.333h1m16.01-4.67l.667-.333 1.001-.334 1.001-.667h0m7.337-1.334l.667-.667.668-.334h.667m7.337-1l.668-.334.667-.334h.667l.667-.333h0m7.004-1.001c1.249 0 .702.149 1.668-.333m7.004-.667h2.001m7.672 1h.667l1-.333h1.001l.667-.334h0" stroke="#000"/><path d="M295.145 54.427l-.334 1.001-.333 1.334v1.334h0m0 5.004v4.335h0m0 6.005c0 2.526.127 5.287-.667 7.67m-.667 5.004v1l-.334 1-.334.668-.667 1-.333.668-.667 1h0m-5.504 7.338c.585-.584 1.147-1.21 1.835-1.668.392-.261-.667.667-1.001 1.001l-1.667 1.668c-.223.222-.869.908-.668.667a24.99 24.99 0 011.501-1.668zm-7.171 7.338l-.667.333-.333.668h-.667l-.667.333-1.001.334-.667.333-.667.334h0m-7.338 4.336c-2.402 1.201-4.936.8-7.338 2.001m-3.669.333l-.667-.333-1.668.333-.667.334h0m-9.339 1.001l-.667.333-1.334.334h-1.001 0m-9.339.667h-1.667l-.668-.334h-2.001l-.667.334h0m-6.004 1l-.667.334h-2.334 0m-9.339.333l-1.001.334-1.334.334h-1.001l-.667-.334h-1.001 0m-12.34-.667h1.334-3.002 1.668zm-8.005 0l-1.001-.334h-2.668l-1.668.334-1.001.333h0m-7.671-2.668h-2.001m-8.339-3.669l-1-.333h-3.336l-1 .333h0" stroke="#c934ae"/></g><g fill="none" stroke-width="3"><path d="M150.921 172.302h-2.392m-4.386.399c12.717 0 25.482-.399 38.278-.399 4.558 0 9.87-.747 14.354 0 8.252 1.375 17.495.399 25.917.399 4.537 0 9.496 1.036 13.956.399 10.484-1.498 21.518-1.595 32.297-1.595" stroke="#000"/><path d="M143.744 173.498c3.947-11.841 1.595-24.347 1.595-36.683 0-7.502-.399-14.89-.399-22.328 0-1.589.733-3.115.399-4.785-1.052-5.261-1.595-10.861-1.595-16.348 0-.797.156-1.61 0-2.392-.116-.583-1.218-1.175-.797-1.595.398-.398 4.075-.28 4.784-.4 3.761-.626 7.256-.796 11.165-.796 7.028 0 13.799.797 20.734.797 3.601 0 6.839-.797 10.367-.797 4.362 0 9.691.852 13.955 0 3.321-.665 7.023.27 10.367-.4 3.851-.77 9.541-1.8 13.557-.797 4.502 1.126 11.211 1.986 15.949 1.197 5.811-.97 11.788-1.64 17.544-2.792 2.212-.442 4.191-1.845 6.38-2.392.257-.064.65-.221.797 0 .673 1.01 0 5.145 0 6.38 0 5.708-.707 11.888 0 17.544 1.895 15.159 3.514 31.299 1.595 46.651-.79 6.321.82 13.49-1.196 19.538M142.947 87.772c3.247-3.248 6.761-6.685 10.367-9.57 2.484-1.987 5.37-3.377 7.575-5.582 3.415-3.415 10.926-5.901 13.158-10.367m96.891 21.133c2.6-2.6 4.94-6.097 7.975-8.374 6.409-4.806 14.533-7.754 20.335-13.556 1.421-1.421 8.24-5.182 8.772-6.779.314-.942-9.175-1.196-10.367-1.196-11.238 0-22.248.798-33.493.798-12.905 0-25.911.398-38.677.398-7.222 0-15.148-.897-22.328 0-4.144.518-8.615.107-12.76.798-5.178.863-10.207 3.19-15.55 3.19m94.897 112.441c3.613-1.806 6.522-5.036 9.57-7.576 3.362-2.802 7.649-3.662 10.765-6.778 3.574-3.574 6.831-7.204 11.563-9.57" stroke="#000"/><path d="M306.425 57.07c.133-.266.189-1.008.399-.798.257.257-.399 9.468-.399 10.766v19.538c0 8.602.399 16.979.399 25.518 0 4.098-.801 9.152 0 13.158.497 2.488.797 4.582.797 7.177 0 4.923 2.008 12.09-3.588 13.956M92.308 124.853c5.911 0 12.418-2.05 18.342-2.791 4.351-.544 8.84-.18 13.158-.797 4.187-.598 8.914 0 13.158 0 .309 0 3.19.285 3.19-.399 0-.625-9.57-3.789-9.57-3.987 0-.892 1.595.797 2.392 1.196 1.274.637 5.28.193 5.981 1.595.891 1.781-7.042 5.139-8.373 5.582m-84.463-18.65c-.78 1.558-3.435 7.646-1.985 8.733.299.224 2.787 0 3.176 0m.794-16.672l-.397-.794-.794.397.794.397.793-.397-.793-.397-.397.794.794.397h0m7.542 5.954c.132-.264.397-1.089.397-.794 0 2.429-1.117 5.581-1.588 7.94-.133.661-.397 2.659-.397 1.984 0-4.049 3.848-7.542 7.542-7.542.397 0 .91-.281 1.19 0 .92.919-.105 6.377-.396 7.542m9.13-9.13c0 3.245-1.222 6.633-1.588 9.924-.45 4.054-.147 9.026-1.985 12.703" stroke="#000"/><path d="M70.734 111.961c-1.093-1.947-.369-3.102.794-4.962.857-1.372 5.696-6.43 7.542-3.969 3.483 4.644-3.76 17.082-8.336 8.931zm14.29-8.138c-.652 1.305-1.468 8.884-.397 9.527 2.728 1.637 6.251-5.257 7.145-6.748.457-.761.564-3.009 1.191-2.382.504.504-3.345 9.641-1.19 10.718m12.305-17.863c-2.321 4.642-3.176 8.656-3.176 13.894 0 2.316 1.536 4.021 3.573 1.984" stroke="#000"/><path d="M105.269 105.411c-3.334 0-6.522-.397-9.924-.397m230.845 3.516c2.459-1.23 5.782-.812 8.521-.812 7.833 0 15.387.812 23.128.812 1.616 0 3.687-.318 5.275 0 .596.119 3.517 1.351 4.057.811 1.477-1.476-5.386-2.14-6.086-2.84-.214-.214-.676-.676-.406-.811.232-.116 7.743 1.318 8.115 2.434.427 1.281-5.324 4.209-6.086 4.463m-22.722-27.185c-4.404 2.202-6.612 12.212.811 9.738 4.011-1.337 8.573-8.51 2.435-9.738-1.254-.25-1.95-.648-3.246 0zm13.795 0c-.958.959-1.759 2.064-2.434 3.246-.312.545-1.109 2.082-1.217 2.84-1.132 7.923 7.436-2.434 8.115-2.434.092 0-1.938 2.659-2.029 2.84-.585 1.17-1.217 3.158-1.217 4.463m14.607-17.447c-1.138 2.276-13.528 20.154-4.058 15.419" stroke="#000"/><path d="M368.389 88.242l-1.218-.406h-1.217l-1.623-.405h-2.84 0m14.201-2.435c-3.147 6.294-5.508 12.468-7.709 19.071" stroke="#000"/><path d="M372.852 90.88c.291-1.237.869-2.426 1.623-3.45 1.055-1.431 7.303-1.655 7.303.812 0 3.4-2.325 6.492-5.68 6.492-1.091 0-2.918.634-3.246-.405-.346-1.097-.264-2.33 0-3.45zm14.607-4.667c-.581 1.163-1.657 1.944-2.029 3.246-.27.947-.649 1.87-.811 2.84-1.37 8.22 8.552-3.651 8.926-3.651.789 0-.811 1.352-1.217 2.029-.156.259-.293.53-.406.811-.642 1.606-1.623 3.14-1.623 4.87m13.796-17.854c-1.114 4.454-3.668 8.294-5.275 12.578-.494 1.317-2.463 3.635-.406 4.87.66.395 2.771.112 3.652.405m-4.057-8.927h1.623-3.652 2.029z" stroke="#000"/><path d="M400.849 88.242h2.434l.812-.406h.811l.812-.405h0" stroke="#000"/><path d="M320.095 138.674c-1.835 0-.256-2.403 0-2.403.855 0 1.174 1.395 2.003 1.602 1 .25 6.41-.75 6.41-1.602 0-.267-.542-.065-.801 0-1.44.36-3.554 2.067-4.407 3.205-3.654 4.873-1.905 13.924 4.808 7.211m4.384-4.923c2.172 0 5.422-1.252 6.801-3.091 1.726-2.302.296-4.264-2.473-3.71-3.113.623-7.448 9.856-5.565 12.366 1.463 1.951 4.765-.618 6.492-.618m10.82-7.111c.697-1.393.33-3.404-1.545-3.091-2.76.46-7.42 5.284-7.42 8.038 0 4.742 7.233-.369 8.347-1.855.451-.602 1.546-2.063 1.546-2.782 0-.231-.191.42-.309.618-.739 1.232-.554.546-.928 1.855-.532 1.864-.773 3.71-1.236 5.564m12.057-16.385c-2.531 1.266-6.493 12.323-6.493 15.149m-25.041 13.293c.204-.028.196-.683 0-.618-2.832.944-6.331 8.688-1.855 9.584 3.322.664 7.705-5.994 7.111-8.966-.614-3.069-6.707.204-5.256 0zm11.13-1.545c-.92.919-1.793 2.266-2.474 3.4-.491.819-.664 1.551-.927 2.473-2.288 8.009 5.903 1.882 7.729-.309.06-.072 2.208-2.428 1.855-2.782-.163-.163-.456.146-.619.309-1.863 1.863-2.473 5.601-2.473 8.038m10.511-15.458c-1.766 3.532-3.151 7.221-3.71 11.13-.067.474-.768 2.323-.309 2.782.246.246 2.401 0 2.783 0" stroke="#32b886" stroke-opacity=".996"/><path d="M354.132 160.004l-.618-.309-1.546-.309h-1.855l-.927.309-.928.309h0m11.748-1.236c-1.704 2.556-2.087 6.569-2.782 9.583-.912 3.949-2.12 7.904-3.401 11.748" stroke="#32b886" stroke-opacity=".996"/><path d="M359.233 164.178c-.589-.524-.498-1.531-.464-2.319.109-2.498 6.973-5.633 8.966-4.637 1.647.824.133 4.044-.619 4.946-2.407 2.889-4.936 4.628-7.883 2.01zm14.376-7.574c-1.12 1.119-3.171 8.038-.31 8.038 1.903 0 3.973-3.486 4.947-4.947.461-.691 1.236-2.164 1.236-2.164s-1.069 1.781-1.236 2.782c-.305 1.829-.928 3.728-.928 5.565m11.13-16.694c-1.969 2.954-8.725 18.984 0 16.076M389.684 156.913c-2.261 0-4.101-.543-6.183-1.237" stroke="#32b886" stroke-opacity=".996"/><path d="M333.619 69.22c.552-1.105-.426-.86-.964-.32-1.578 1.577-2.379 3.857-3.535 5.783-2.428 4.047-4.729 8.116-7.069 12.211-1.946 3.404-2.627 7.237-3.856 10.925-3.045 9.134-5.222 18.956-6.427 28.599-.808 6.463.215 13.5.643 19.922.767 11.515-.908 28.782 6.426 38.56 1.686 2.247 4.319 3.927 6.748 5.142 3.399 1.699 6.142 3.971 9.962 4.82 8.97 1.993 24.356.342 33.097-2.571 3.653-1.218 6.771-4.188 10.282-5.784 3.296-1.498 7.044-2.23 9.962-4.499 17.952-13.962 21.813-39.365 23.457-60.731.302-3.93-.07-7.975.321-11.89 1.225-12.245 2.428-25.642-3.856-36.953-4.759-8.566-13.935-15.236-23.457-17.352-2.816-.626-5.908.366-8.676.643-2.982.298-6.002.049-8.997.321-3.591.327-6.814 1.8-10.283 2.57-5.884 1.308-10.571 3.02-16.066 5.463-1.855.825-4.071 1.179-5.784 2.25-3.848 2.405-6.838 6.882-9.319 10.604m-4.177 160.344c2.391-1.195 4.247-5.238 5.784-7.39 3.349-4.69 6.52-9.413 10.604-13.496m-17.031 25.385c3.732-2.488 5.518-6.439 8.033-9.961 3.438-4.813 6.781-10.959 10.926-15.103" stroke="#c934ae"/><path d="M330.245 217.194c-.182.153 3.953-2.046 4.98-2.731 2.753-1.835 6.038-3.34 8.998-4.82.94-.47 1.737-1.303 2.57-1.928.243-.182.643-.946.643-.643 0 1.392-2.376 3.764-2.892 5.142-1.56 4.16-3.534 8.244-4.82 12.531-.028.092-.999 4.178-.964 4.178.832 0 .086-4.84 0-5.141-1.282-4.486-3.663-8.418-5.141-12.854-.09-.269-1.033-2.755-.964-2.892.239-.479 1.127-.239 1.606 0 2.168 1.084 3.891 3.485 6.427 4.499 3.032 1.213 5.988 2.331 8.997 3.535.22.088 2.571.922 2.571.964 0 .239-.407.281-.643.321-1.698.283-3.742 0-5.462 0-4.86 0-11.767-3.659-15.906-.161zm7.872 25.225c-1.916 3.832-5.681 6.66-6.748 10.925-1.186 4.744 9.093-.095 10.283-1.285m2.571-2.732c.32-.289.988-1.383.642-1.124-1.856 1.392-3.978 6.254-1.606 8.033 2.86 2.145 8.059-3.641 8.676-6.105.694-2.777-4.38-4.043-6.106-2.892-.5.333-4.086 4.33-1.606 2.088zm16.709-2.41c2.46 0-3.641-3.645-4.499.643-.795 3.976 8.709 8.997-.964 8.997h-2.249m18.958-8.354c0-5.441-6.148-2.076-7.069 1.606-1.448 5.792 4.711 2.94 6.105 6.427 1.389 3.471-2.605 6.257-5.784 5.463-.967-.242-1.927-.964-2.892-1.286M351.179 51.092c1.174-2.348-1.982-4.966-3.002-7.004-5.279-10.56-7.633-18.482-20.679-20.346-12.204-1.744-23.59 14.16-28.351 23.681" stroke="#c934ae"/><path d="M307.152 43.087c-2.487 1.244-6.338 5.504-8.338 6.004-1.127.282-.667-2.803-.667-3.336 0-3.073 1-6.182 1-9.339" stroke="#c934ae"/><path d="M170.401 105.792c0-2.237-1 3.806-1 5.003 0 3.888-.334 7.737-.334 11.674 0 9.052-.333 17.926-.333 27.017 0 2.916-.952 7.77.333 10.34" stroke="#000"/><path d="M170.068 160.826c.851-1.702 4.229-3.228 5.67-4.669 4.38-4.38 9.938-9.765 15.343-13.008 1.276-.766 5.06-2.783 5.67-4.003 1.21-2.42.101-8.731-.334-11.34-.432-2.596.433-5.409 0-8.005-.986-5.919-.347-12.092-1.334-18.011-.209-1.258-.171-9.591-1-10.006-1.346-.673-5.083 1.707-6.338 2.334-4.977 2.49-10.39 3.875-15.009 7.338-1.045.784-2.383.764-3.002 2.002m42.026-3.669v5.336c0 3.767.736 8.326 0 12.008-.795 3.975.338 8.311-.333 12.341-.714 4.281-.668 9.321-.668 13.675 0 3.472.773 8.022-.333 11.34m0 2.335c3.659-7.318 17.456-13.398 24.682-17.011m-.667-1.334c0-5.199-1.614-10.629-2.335-15.676-.655-4.583.425-12.131 1.334-16.677.31-1.551 1.336-9.671.334-10.673-.975-.975-4.992.414-6.004.667-4.213 1.053-12.505 2.33-14.676 6.671m36.022 4.336c-1.177 2.355-.3 5.772-.667 8.338-.658 4.605-1 9.247-1 14.009 0 .657-.353 6.975-.334 7.004.957 1.435 4.06-1.058 4.67-1.668l10.339-10.339" stroke="#000"/><path d="M261.124 123.803c1.386-2.771-.045-7.312.333-10.339.246-1.964.667-3.661.667-5.67 0-.95 1.024-3.398-.333-3.669-5.013-1.003-8.258 3.461-12.007 5.336m-100.729 10.674h1m5.004.667h1m5.337 2.334c.444.89.111.556 1 1.001m11.674 5.003l.667.334m7.338.667h2.001m7.338-.667c1.352 0 .684-.106 2.001.333m18.345-.667l.667-.333m11.007-.668h1.001m6.003-.667h1.001m9.339-1.667h1.668m5.336-1.668h1.001l.667-.334h1.001m4.002-2.001l.667-.667 1.001-.333h1m16.01-4.67l.667-.333 1.001-.334 1.001-.667h0m7.337-1.334l.667-.667.668-.334h.667m7.337-1l.668-.334.667-.334h.667l.667-.333h0m7.004-1.001c1.249 0 .702.149 1.668-.333m7.004-.667h2.001m7.672 1h.667l1-.333h1.001l.667-.334h0" stroke="#000"/></g><g fill="none" stroke-width="3"><path d="M150.921 172.302h-2.392m-4.386.399c12.717 0 25.482-.399 38.278-.399 4.558 0 9.87-.747 14.354 0 8.252 1.375 17.495.399 25.917.399 4.537 0 9.496 1.036 13.956.399 10.484-1.498 21.518-1.595 32.297-1.595" stroke="#000"/><path d="M143.744 173.498c3.947-11.841 1.595-24.347 1.595-36.683 0-7.502-.399-14.89-.399-22.328 0-1.589.733-3.115.399-4.785-1.052-5.261-1.595-10.861-1.595-16.348 0-.797.156-1.61 0-2.392-.116-.583-1.218-1.175-.797-1.595.398-.398 4.075-.28 4.784-.4 3.761-.626 7.256-.796 11.165-.796 7.028 0 13.799.797 20.734.797 3.601 0 6.839-.797 10.367-.797 4.362 0 9.691.852 13.955 0 3.321-.665 7.023.27 10.367-.4 3.851-.77 9.541-1.8 13.557-.797 4.502 1.126 11.211 1.986 15.949 1.197 5.811-.97 11.788-1.64 17.544-2.792 2.212-.442 4.191-1.845 6.38-2.392.257-.064.65-.221.797 0 .673 1.01 0 5.145 0 6.38 0 5.708-.707 11.888 0 17.544 1.895 15.159 3.514 31.299 1.595 46.651-.79 6.321.82 13.49-1.196 19.538M142.947 87.772c3.247-3.248 6.761-6.685 10.367-9.57 2.484-1.987 5.37-3.377 7.575-5.582 3.415-3.415 10.926-5.901 13.158-10.367m96.891 21.133c2.6-2.6 4.94-6.097 7.975-8.374 6.409-4.806 14.533-7.754 20.335-13.556 1.421-1.421 8.24-5.182 8.772-6.779.314-.942-9.175-1.196-10.367-1.196-11.238 0-22.248.798-33.493.798-12.905 0-25.911.398-38.677.398-7.222 0-15.148-.897-22.328 0-4.144.518-8.615.107-12.76.798-5.178.863-10.207 3.19-15.55 3.19m94.897 112.441c3.613-1.806 6.522-5.036 9.57-7.576 3.362-2.802 7.649-3.662 10.765-6.778 3.574-3.574 6.831-7.204 11.563-9.57" stroke="#000"/><path d="M306.425 57.07c.133-.266.189-1.008.399-.798.257.257-.399 9.468-.399 10.766v19.538c0 8.602.399 16.979.399 25.518 0 4.098-.801 9.152 0 13.158.497 2.488.797 4.582.797 7.177 0 4.923 2.008 12.09-3.588 13.956M92.308 124.853c5.911 0 12.418-2.05 18.342-2.791 4.351-.544 8.84-.18 13.158-.797 4.187-.598 8.914 0 13.158 0 .309 0 3.19.285 3.19-.399 0-.625-9.57-3.789-9.57-3.987 0-.892 1.595.797 2.392 1.196 1.274.637 5.28.193 5.981 1.595.891 1.781-7.042 5.139-8.373 5.582m-84.463-18.65c-.78 1.558-3.435 7.646-1.985 8.733.299.224 2.787 0 3.176 0m.794-16.672l-.397-.794-.794.397.794.397.793-.397-.793-.397-.397.794.794.397h0m7.542 5.954c.132-.264.397-1.089.397-.794 0 2.429-1.117 5.581-1.588 7.94-.133.661-.397 2.659-.397 1.984 0-4.049 3.848-7.542 7.542-7.542.397 0 .91-.281 1.19 0 .92.919-.105 6.377-.396 7.542m9.13-9.13c0 3.245-1.222 6.633-1.588 9.924-.45 4.054-.147 9.026-1.985 12.703" stroke="#000"/><path d="M70.734 111.961c-1.093-1.947-.369-3.102.794-4.962.857-1.372 5.696-6.43 7.542-3.969 3.483 4.644-3.76 17.082-8.336 8.931zm14.29-8.138c-.652 1.305-1.468 8.884-.397 9.527 2.728 1.637 6.251-5.257 7.145-6.748.457-.761.564-3.009 1.191-2.382.504.504-3.345 9.641-1.19 10.718m12.305-17.863c-2.321 4.642-3.176 8.656-3.176 13.894 0 2.316 1.536 4.021 3.573 1.984" stroke="#000"/><path d="M105.269 105.411c-3.334 0-6.522-.397-9.924-.397m230.845 3.516c2.459-1.23 5.782-.812 8.521-.812 7.833 0 15.387.812 23.128.812 1.616 0 3.687-.318 5.275 0 .596.119 3.517 1.351 4.057.811 1.477-1.476-5.386-2.14-6.086-2.84-.214-.214-.676-.676-.406-.811.232-.116 7.743 1.318 8.115 2.434.427 1.281-5.324 4.209-6.086 4.463m-22.722-27.185c-4.404 2.202-6.612 12.212.811 9.738 4.011-1.337 8.573-8.51 2.435-9.738-1.254-.25-1.95-.648-3.246 0zm13.795 0c-.958.959-1.759 2.064-2.434 3.246-.312.545-1.109 2.082-1.217 2.84-1.132 7.923 7.436-2.434 8.115-2.434.092 0-1.938 2.659-2.029 2.84-.585 1.17-1.217 3.158-1.217 4.463m14.607-17.447c-1.138 2.276-13.528 20.154-4.058 15.419" stroke="#000"/><path d="M368.389 88.242l-1.218-.406h-1.217l-1.623-.405h-2.84 0m14.201-2.435c-3.147 6.294-5.508 12.468-7.709 19.071" stroke="#000"/><path d="M372.852 90.88c.291-1.237.869-2.426 1.623-3.45 1.055-1.431 7.303-1.655 7.303.812 0 3.4-2.325 6.492-5.68 6.492-1.091 0-2.918.634-3.246-.405-.346-1.097-.264-2.33 0-3.45zm14.607-4.667c-.581 1.163-1.657 1.944-2.029 3.246-.27.947-.649 1.87-.811 2.84-1.37 8.22 8.552-3.651 8.926-3.651.789 0-.811 1.352-1.217 2.029-.156.259-.293.53-.406.811-.642 1.606-1.623 3.14-1.623 4.87m13.796-17.854c-1.114 4.454-3.668 8.294-5.275 12.578-.494 1.317-2.463 3.635-.406 4.87.66.395 2.771.112 3.652.405m-4.057-8.927h1.623-3.652 2.029z" stroke="#000"/><path d="M400.849 88.242h2.434l.812-.406h.811l.812-.405h0" stroke="#000"/><path d="M320.095 138.674c-1.835 0-.256-2.403 0-2.403.855 0 1.174 1.395 2.003 1.602 1 .25 6.41-.75 6.41-1.602 0-.267-.542-.065-.801 0-1.44.36-3.554 2.067-4.407 3.205-3.654 4.873-1.905 13.924 4.808 7.211m4.384-4.923c2.172 0 5.422-1.252 6.801-3.091 1.726-2.302.296-4.264-2.473-3.71-3.113.623-7.448 9.856-5.565 12.366 1.463 1.951 4.765-.618 6.492-.618m10.82-7.111c.697-1.393.33-3.404-1.545-3.091-2.76.46-7.42 5.284-7.42 8.038 0 4.742 7.233-.369 8.347-1.855.451-.602 1.546-2.063 1.546-2.782 0-.231-.191.42-.309.618-.739 1.232-.554.546-.928 1.855-.532 1.864-.773 3.71-1.236 5.564m12.057-16.385c-2.531 1.266-6.493 12.323-6.493 15.149m-25.041 13.293c.204-.028.196-.683 0-.618-2.832.944-6.331 8.688-1.855 9.584 3.322.664 7.705-5.994 7.111-8.966-.614-3.069-6.707.204-5.256 0zm11.13-1.545c-.92.919-1.793 2.266-2.474 3.4-.491.819-.664 1.551-.927 2.473-2.288 8.009 5.903 1.882 7.729-.309.06-.072 2.208-2.428 1.855-2.782-.163-.163-.456.146-.619.309-1.863 1.863-2.473 5.601-2.473 8.038m10.511-15.458c-1.766 3.532-3.151 7.221-3.71 11.13-.067.474-.768 2.323-.309 2.782.246.246 2.401 0 2.783 0" stroke="#32b886" stroke-opacity=".996"/><path d="M354.132 160.004l-.618-.309-1.546-.309h-1.855l-.927.309-.928.309h0m11.748-1.236c-1.704 2.556-2.087 6.569-2.782 9.583-.912 3.949-2.12 7.904-3.401 11.748" stroke="#32b886" stroke-opacity=".996"/><path d="M359.233 164.178c-.589-.524-.498-1.531-.464-2.319.109-2.498 6.973-5.633 8.966-4.637 1.647.824.133 4.044-.619 4.946-2.407 2.889-4.936 4.628-7.883 2.01zm14.376-7.574c-1.12 1.119-3.171 8.038-.31 8.038 1.903 0 3.973-3.486 4.947-4.947.461-.691 1.236-2.164 1.236-2.164s-1.069 1.781-1.236 2.782c-.305 1.829-.928 3.728-.928 5.565m11.13-16.694c-1.969 2.954-8.725 18.984 0 16.076M389.684 156.913c-2.261 0-4.101-.543-6.183-1.237" stroke="#32b886" stroke-opacity=".996"/><path d="M333.619 69.22c.552-1.105-.426-.86-.964-.32-1.578 1.577-2.379 3.857-3.535 5.783-2.428 4.047-4.729 8.116-7.069 12.211-1.946 3.404-2.627 7.237-3.856 10.925-3.045 9.134-5.222 18.956-6.427 28.599-.808 6.463.215 13.5.643 19.922.767 11.515-.908 28.782 6.426 38.56 1.686 2.247 4.319 3.927 6.748 5.142 3.399 1.699 6.142 3.971 9.962 4.82 8.97 1.993 24.356.342 33.097-2.571 3.653-1.218 6.771-4.188 10.282-5.784 3.296-1.498 7.044-2.23 9.962-4.499 17.952-13.962 21.813-39.365 23.457-60.731.302-3.93-.07-7.975.321-11.89 1.225-12.245 2.428-25.642-3.856-36.953-4.759-8.566-13.935-15.236-23.457-17.352-2.816-.626-5.908.366-8.676.643-2.982.298-6.002.049-8.997.321-3.591.327-6.814 1.8-10.283 2.57-5.884 1.308-10.571 3.02-16.066 5.463-1.855.825-4.071 1.179-5.784 2.25-3.848 2.405-6.838 6.882-9.319 10.604m-4.177 160.344c2.391-1.195 4.247-5.238 5.784-7.39 3.349-4.69 6.52-9.413 10.604-13.496m-17.031 25.385c3.732-2.488 5.518-6.439 8.033-9.961 3.438-4.813 6.781-10.959 10.926-15.103" stroke="#c934ae"/><path d="M330.245 217.194c-.182.153 3.953-2.046 4.98-2.731 2.753-1.835 6.038-3.34 8.998-4.82.94-.47 1.737-1.303 2.57-1.928.243-.182.643-.946.643-.643 0 1.392-2.376 3.764-2.892 5.142-1.56 4.16-3.534 8.244-4.82 12.531-.028.092-.999 4.178-.964 4.178.832 0 .086-4.84 0-5.141-1.282-4.486-3.663-8.418-5.141-12.854-.09-.269-1.033-2.755-.964-2.892.239-.479 1.127-.239 1.606 0 2.168 1.084 3.891 3.485 6.427 4.499 3.032 1.213 5.988 2.331 8.997 3.535.22.088 2.571.922 2.571.964 0 .239-.407.281-.643.321-1.698.283-3.742 0-5.462 0-4.86 0-11.767-3.659-15.906-.161zm7.872 25.225c-1.916 3.832-5.681 6.66-6.748 10.925-1.186 4.744 9.093-.095 10.283-1.285m2.571-2.732c.32-.289.988-1.383.642-1.124-1.856 1.392-3.978 6.254-1.606 8.033 2.86 2.145 8.059-3.641 8.676-6.105.694-2.777-4.38-4.043-6.106-2.892-.5.333-4.086 4.33-1.606 2.088zm16.709-2.41c2.46 0-3.641-3.645-4.499.643-.795 3.976 8.709 8.997-.964 8.997h-2.249m18.958-8.354c0-5.441-6.148-2.076-7.069 1.606-1.448 5.792 4.711 2.94 6.105 6.427 1.389 3.471-2.605 6.257-5.784 5.463-.967-.242-1.927-.964-2.892-1.286M351.179 51.092c1.174-2.348-1.982-4.966-3.002-7.004-5.279-10.56-7.633-18.482-20.679-20.346-12.204-1.744-23.59 14.16-28.351 23.681" stroke="#c934ae"/><path d="M307.152 43.087c-2.487 1.244-6.338 5.504-8.338 6.004-1.127.282-.667-2.803-.667-3.336 0-3.073 1-6.182 1-9.339" stroke="#c934ae"/></g><g fill="none" stroke="#000" stroke-width="3"><path d="M150.921 172.302h-2.392m-4.386.399c12.717 0 25.482-.399 38.278-.399 4.558 0 9.87-.747 14.354 0 8.252 1.375 17.495.399 25.917.399 4.537 0 9.496 1.036 13.956.399 10.484-1.498 21.518-1.595 32.297-1.595"/><path d="M143.744 173.498c3.947-11.841 1.595-24.347 1.595-36.683 0-7.502-.399-14.89-.399-22.328 0-1.589.733-3.115.399-4.785-1.052-5.261-1.595-10.861-1.595-16.348 0-.797.156-1.61 0-2.392-.116-.583-1.218-1.175-.797-1.595.398-.398 4.075-.28 4.784-.4 3.761-.626 7.256-.796 11.165-.796 7.028 0 13.799.797 20.734.797 3.601 0 6.839-.797 10.367-.797 4.362 0 9.691.852 13.955 0 3.321-.665 7.023.27 10.367-.4 3.851-.77 9.541-1.8 13.557-.797 4.502 1.126 11.211 1.986 15.949 1.197 5.811-.97 11.788-1.64 17.544-2.792 2.212-.442 4.191-1.845 6.38-2.392.257-.064.65-.221.797 0 .673 1.01 0 5.145 0 6.38 0 5.708-.707 11.888 0 17.544 1.895 15.159 3.514 31.299 1.595 46.651-.79 6.321.82 13.49-1.196 19.538M142.947 87.772c3.247-3.248 6.761-6.685 10.367-9.57 2.484-1.987 5.37-3.377 7.575-5.582 3.415-3.415 10.926-5.901 13.158-10.367m96.891 21.133c2.6-2.6 4.94-6.097 7.975-8.374 6.409-4.806 14.533-7.754 20.335-13.556 1.421-1.421 8.24-5.182 8.772-6.779.314-.942-9.175-1.196-10.367-1.196-11.238 0-22.248.798-33.493.798-12.905 0-25.911.398-38.677.398-7.222 0-15.148-.897-22.328 0-4.144.518-8.615.107-12.76.798-5.178.863-10.207 3.19-15.55 3.19m94.897 112.441c3.613-1.806 6.522-5.036 9.57-7.576 3.362-2.802 7.649-3.662 10.765-6.778 3.574-3.574 6.831-7.204 11.563-9.57"/><path d="M306.425 57.07c.133-.266.189-1.008.399-.798.257.257-.399 9.468-.399 10.766v19.538c0 8.602.399 16.979.399 25.518 0 4.098-.801 9.152 0 13.158.497 2.488.797 4.582.797 7.177 0 4.923 2.008 12.09-3.588 13.956M92.308 124.853c5.911 0 12.418-2.05 18.342-2.791 4.351-.544 8.84-.18 13.158-.797 4.187-.598 8.914 0 13.158 0 .309 0 3.19.285 3.19-.399 0-.625-9.57-3.789-9.57-3.987 0-.892 1.595.797 2.392 1.196 1.274.637 5.28.193 5.981 1.595.891 1.781-7.042 5.139-8.373 5.582m-84.463-18.65c-.78 1.558-3.435 7.646-1.985 8.733.299.224 2.787 0 3.176 0m.794-16.672l-.397-.794-.794.397.794.397.793-.397-.793-.397-.397.794.794.397h0m7.542 5.954c.132-.264.397-1.089.397-.794 0 2.429-1.117 5.581-1.588 7.94-.133.661-.397 2.659-.397 1.984 0-4.049 3.848-7.542 7.542-7.542.397 0 .91-.281 1.19 0 .92.919-.105 6.377-.396 7.542m9.13-9.13c0 3.245-1.222 6.633-1.588 9.924-.45 4.054-.147 9.026-1.985 12.703"/><path d="M70.734 111.961c-1.093-1.947-.369-3.102.794-4.962.857-1.372 5.696-6.43 7.542-3.969 3.483 4.644-3.76 17.082-8.336 8.931zm14.29-8.138c-.652 1.305-1.468 8.884-.397 9.527 2.728 1.637 6.251-5.257 7.145-6.748.457-.761.564-3.009 1.191-2.382.504.504-3.345 9.641-1.19 10.718m12.305-17.863c-2.321 4.642-3.176 8.656-3.176 13.894 0 2.316 1.536 4.021 3.573 1.984"/><path d="M105.269 105.411c-3.334 0-6.522-.397-9.924-.397m230.845 3.516c2.459-1.23 5.782-.812 8.521-.812 7.833 0 15.387.812 23.128.812 1.616 0 3.687-.318 5.275 0 .596.119 3.517 1.351 4.057.811 1.477-1.476-5.386-2.14-6.086-2.84-.214-.214-.676-.676-.406-.811.232-.116 7.743 1.318 8.115 2.434.427 1.281-5.324 4.209-6.086 4.463m-22.722-27.185c-4.404 2.202-6.612 12.212.811 9.738 4.011-1.337 8.573-8.51 2.435-9.738-1.254-.25-1.95-.648-3.246 0zm13.795 0c-.958.959-1.759 2.064-2.434 3.246-.312.545-1.109 2.082-1.217 2.84-1.132 7.923 7.436-2.434 8.115-2.434.092 0-1.938 2.659-2.029 2.84-.585 1.17-1.217 3.158-1.217 4.463m14.607-17.447c-1.138 2.276-13.528 20.154-4.058 15.419"/><path d="M368.389 88.242l-1.218-.406h-1.217l-1.623-.405h-2.84 0m14.201-2.435c-3.147 6.294-5.508 12.468-7.709 19.071"/><path d="M372.852 90.88c.291-1.237.869-2.426 1.623-3.45 1.055-1.431 7.303-1.655 7.303.812 0 3.4-2.325 6.492-5.68 6.492-1.091 0-2.918.634-3.246-.405-.346-1.097-.264-2.33 0-3.45zm14.607-4.667c-.581 1.163-1.657 1.944-2.029 3.246-.27.947-.649 1.87-.811 2.84-1.37 8.22 8.552-3.651 8.926-3.651.789 0-.811 1.352-1.217 2.029-.156.259-.293.53-.406.811-.642 1.606-1.623 3.14-1.623 4.87m13.796-17.854c-1.114 4.454-3.668 8.294-5.275 12.578-.494 1.317-2.463 3.635-.406 4.87.66.395 2.771.112 3.652.405m-4.057-8.927h1.623-3.652 2.029z"/><path d="M400.849 88.242h2.434l.812-.406h.811l.812-.405h0"/></g></svg>