<?xml version="1.0" encoding="UTF-8" standalone="no"?>
<!DOCTYPE svg PUBLIC "-//W3C//DTD SVG 1.1//EN" "http://www.w3.org/Graphics/SVG/1.1/DTD/svg11.dtd">
<!-- Created with Vectornator (http://vectornator.io/) -->
<svg height="100%" stroke-miterlimit="10" style="fill-rule:nonzero;clip-rule:evenodd;stroke-linecap:round;stroke-linejoin:round;" version="1.1" viewBox="0 0 454.722 343.222" width="100%" xml:space="preserve" xmlns="http://www.w3.org/2000/svg" xmlns:xlink="http://www.w3.org/1999/xlink">
<defs/>
<g id="Layer-1">
<path d="M29.7323 160.786C31.1233 158.458 36.4743 156.343 38.6553 155.253C42.6793 153.241 46.9873 153.081 51.1473 152.041C57.7173 150.398 64.0573 149.235 70.7783 148.115C76.8353 147.105 83.2603 146.118 89.3383 144.902C94.6823 143.834 102.689 144.574 107.898 145.616C110.575 146.152 113.464 145.669 116.107 146.33C121.633 147.712 127.03 148.525 132.526 149.899C136.599 150.918 138.848 153.978 142.163 155.967C146.797 158.748 150.61 162.233 153.941 166.675C155.02 168.113 156.748 168.751 157.867 170.244C160.319 173.513 160.258 177.012 161.794 180.595C164.374 186.615 165.176 194.907 163.578 201.296C162.745 204.63 160.562 207.222 158.581 209.863C150.797 220.241 139.563 230.105 126.101 232.349C118.338 233.643 111.023 237.307 103.258 238.417C94.8613 239.616 86.5373 238.379 78.2733 237.346C74.3473 236.855 70.4143 236.478 66.4953 235.918C64.4313 235.623 62.5083 234.365 60.4273 234.134C57.4773 233.806 53.4913 233.699 50.7903 232.349C42.3413 228.124 33.8233 223.618 26.5193 217.358C23.2833 214.584 23.4093 211.647 21.8793 208.078C20.6883 205.297 18.7873 202.786 17.9533 199.869C15.2733 190.489 17.0493 179.722 21.8793 171.672C23.2423 169.401 28.5873 162.7 29.7323 160.786Z" fill="none" fill-rule="evenodd" opacity="1" stroke="#000000" stroke-linecap="round" stroke-linejoin="round" stroke-width="4.46713"/>
<path d="M67.3873 204.687C66.9483 199.855 77.0713 196.976 81.1293 196.3C83.2293 195.95 85.1013 194.934 87.1963 194.515C94.5573 193.043 113.561 193.705 117.535 201.653C118.05 202.682 118.017 204.418 118.249 205.58C119.315 210.908 112.825 217.554 107.898 218.786C105.214 219.457 102.38 219.675 99.6893 220.213C94.7983 221.192 87.9603 222.294 82.9133 221.284C80.5053 220.803 78.2273 219.633 75.7753 219.143C74.1033 218.808 68.3813 217.561 67.5663 215.93C65.5993 211.998 67.7533 208.713 67.3873 204.687Z" fill="none" fill-rule="evenodd" opacity="1" stroke="#000000" stroke-linecap="round" stroke-linejoin="round" stroke-width="4.46713"/>
<path d="M84.6983 208.613C84.1503 208.64 83.7933 210.22 84.3413 210.22C85.5543 210.22 85.0553 206.65 85.0553 206.65C85.0553 206.65 85.3623 208.582 84.6983 208.613Z" fill="none" fill-rule="evenodd" opacity="1" stroke="#000000" stroke-linecap="round" stroke-linejoin="round" stroke-width="4.46713"/>
<path d="M100.581 208.613C100.528 208.367 100.145 208.917 100.046 209.149C99.0103 211.565 101.759 205.651 100.046 207.364C98.1263 209.284 101.229 211.65 100.581 208.613Z" fill="none" fill-rule="evenodd" opacity="1" stroke="#000000" stroke-linecap="round" stroke-linejoin="round" stroke-width="4.46713"/>
<path d="M132.883 173.456C129.289 173.456 123.374 174.431 120.39 176.669C119.09 177.644 118.302 179.141 116.821 179.881" fill="none" fill-rule="evenodd" opacity="1" stroke="#000000" stroke-linecap="round" stroke-linejoin="round" stroke-width="4.46713"/>
<path d="M57.9293 181.666C59.4483 180.146 60.7993 181.037 62.5693 180.595C67.8313 179.279 72.5233 180.753 77.2033 183.093" fill="none" fill-rule="evenodd" opacity="1" stroke="#000000" stroke-linecap="round" stroke-linejoin="round" stroke-width="4.46713"/>
<path d="M142.877 156.681C141.178 154.983 142.072 149.281 142.52 147.044C143.024 144.523 142.457 141.707 142.877 139.192C143.092 137.899 144.408 136.997 145.018 135.979C149.549 128.429 157.542 125.499 165.72 122.773C169.018 121.674 177.528 116.108 176.428 111.708C175.75 108.998 175.135 114.392 175.357 115.278C176.025 117.95 177.298 120.388 178.212 123.13C179.785 127.848 182.113 132.169 183.923 136.693C185.065 139.548 185.379 142.461 186.778 145.259C192.289 156.281 181.766 173.04 173.215 179.881C170.168 182.319 166.255 183.629 163.578 186.306" fill="none" fill-rule="evenodd" opacity="1" stroke="#000000" stroke-linecap="round" stroke-linejoin="round" stroke-width="4.46713"/>
<path d="M55.7873 150.97C57.4433 150.97 58.9203 146.131 59.7133 144.546C62.9033 138.165 61.0553 127.524 56.5013 122.059C50.9243 115.367 44.4493 110.076 37.5843 104.927C36.9023 104.415 32.7933 98.6534 33.6583 97.7884C33.8603 97.5864 34.0153 100.533 34.0153 100.644C34.0153 101.774 33.5403 103.22 32.9443 104.213C30.6613 108.017 27.8213 111.51 25.0923 114.921C22.2943 118.417 18.4603 121.809 16.1683 125.629C13.3983 130.246 11.0943 135.064 8.67333 139.905C7.35532 142.542 5.47733 145.842 5.10433 148.829C3.99633 157.692 6.83933 162.496 11.5283 169.53C12.5483 171.059 14.1363 171.853 15.0983 173.456C15.3073 173.805 16.4333 176.669 16.8823 176.669C17.1483 176.669 17.1203 176.193 17.2393 175.955" fill="none" fill-rule="evenodd" opacity="1" stroke="#000000" stroke-linecap="round" stroke-linejoin="round" stroke-width="4.46713"/>
<path d="M25.4493 135.979C24.6973 134.475 24.1763 139.685 24.0213 140.619C23.4313 144.161 23.3863 146.805 25.4493 149.899" fill="none" fill-rule="evenodd" opacity="1" stroke="#000000" stroke-linecap="round" stroke-linejoin="round" stroke-width="4.46713"/>
<path d="M135.634 97.8139C135.634 89.729 139.552 82.8759 142.444 75.5952C149.504 57.8189 163.561 46.2283 180.961 38.8157C184.121 37.4692 186.853 35.402 190.336 34.5457C197.011 32.9045 204.088 33.6837 210.911 33.6837C214.328 33.6837 217.799 33.0773 221.161 33.6837C225.333 34.4359 229.174 37.396 233.103 38.8157C236.691 40.1122 240.726 40.6192 244.236 42.2037C262.13 50.2836 276.727 65.2686 286.996 81.5558C319.405 132.958 317.097 198.612 290.437 251.781C286.737 259.16 284.038 267.16 279.304 274.007C274.406 281.092 267.44 286.8 261.362 292.831C236.801 317.201 199.384 334.915 164.709 321.919C155.518 318.474 144.099 308.405 138.194 300.522C133.391 294.111 133.283 284.953 127.943 279.172" fill="none" fill-rule="evenodd" opacity="1" stroke="#000000" stroke-linecap="round" stroke-linejoin="round" stroke-width="4.46713"/>
<path d="M142.444 271.434C142.692 271.916 144.523 273.688 144.201 274.007C143.975 274.231 140.576 270.827 137.318 269.737C133.612 268.497 129.894 267.934 126.192 267.177C125.651 267.067 118.501 265.461 118.501 266.309C118.501 267.108 120.813 268.074 121.067 268.875C122.853 274.497 120.252 282.769 120.252 288.574C120.252 289.835 120.954 293.706 119.376 293.706" fill="none" fill-rule="evenodd" opacity="1" stroke="#000000" stroke-linecap="round" stroke-linejoin="round" stroke-width="4.46713"/>
<path d="M328.072 135.469C325.611 136.675 325.579 134.553 327.196 132.909C330.591 129.461 335.256 126.902 340.02 126.902C340.895 126.902 342.25 126.121 342.646 126.902C345.427 132.38 336.607 138.986 333.204 141.429C331.441 142.695 328.954 144.291 328.954 143.995C328.954 142.787 330.568 142.182 331.513 141.429C336.024 137.84 344.819 135.722 348.58 141.429C352.927 148.027 347.73 156.297 340.889 158.563C339.219 159.116 333.204 160.918 333.204 157.694" fill="none" fill-rule="evenodd" opacity="1" stroke="#000000" stroke-linecap="round" stroke-linejoin="round" stroke-width="4.46713"/>
<path d="M369.148 125.205C369.148 126.521 365.782 128.927 364.838 130.337C362.597 133.685 356.024 146.742 358.837 150.865C360.023 152.603 363.978 152.602 365.713 152.602C370.65 152.602 377.401 148.657 378.53 143.167C379.525 138.33 376.222 136.22 371.714 138.041C369.944 138.757 368.178 139.542 366.589 140.601C364.406 142.056 362.701 144.139 360.588 145.693" fill="none" fill-rule="evenodd" opacity="1" stroke="#000000" stroke-linecap="round" stroke-linejoin="round" stroke-width="4.46713"/>
<path d="M392.222 124.359C392.053 124.728 393.281 124.843 393.098 125.205C392.802 125.786 391.809 125.619 391.347 126.08C388.052 129.369 382.541 138.157 384.531 143.167C386.05 146.992 393.682 149.466 397.347 148.252C404.181 145.989 412.24 132.152 411.046 125.205C409.35 115.334 395.909 116.3 392.222 124.359Z" fill="none" fill-rule="evenodd" opacity="1" stroke="#000000" stroke-linecap="round" stroke-linejoin="round" stroke-width="4.46713"/>
<path d="M411.481 94.8403C413.708 99.2638 408.861 103.821 412.73 106.381C421.05 111.884 426.541 104.421 428.988 96.992C429.329 95.957 430.72 92.2715 429.864 90.9913C426.853 86.4935 419.286 88.6178 416.165 90.9913C413.885 92.7246 410.06 92.019 411.481 94.8403Z" fill="none" fill-rule="evenodd" opacity="1" stroke="#000000" stroke-linecap="round" stroke-linejoin="round" stroke-width="4.46713"/>
</g>
</svg>
