<?xml version="1.0" encoding="UTF-8" standalone="no"?>
<!DOCTYPE svg PUBLIC "-//W3C//DTD SVG 1.1//EN" "http://www.w3.org/Graphics/SVG/1.1/DTD/svg11.dtd">
<!-- Created with Vectornator (http://vectornator.io/) -->
<svg height="100%" stroke-miterlimit="10" style="fill-rule:nonzero;clip-rule:evenodd;stroke-linecap:round;stroke-linejoin:round;" version="1.1" viewBox="0 0 678.087 674.938" width="100%" xml:space="preserve" xmlns="http://www.w3.org/2000/svg" xmlns:xlink="http://www.w3.org/1999/xlink">
<defs/>
<g id="Layer-1">
<path d="M129.382 326.763C130.773 324.435 136.124 322.32 138.305 321.23C142.329 319.218 146.637 319.058 150.797 318.018C157.367 316.375 163.707 315.212 170.428 314.092C176.485 313.082 182.91 312.095 188.988 310.879C194.332 309.811 202.339 310.551 207.548 311.593C210.225 312.129 213.114 311.646 215.757 312.307C221.283 313.689 226.68 314.502 232.176 315.876C236.249 316.895 238.498 319.955 241.813 321.944C246.447 324.725 250.26 328.21 253.591 332.652C254.67 334.09 256.398 334.728 257.517 336.221C259.969 339.49 259.908 342.989 261.444 346.572C264.024 352.592 264.826 360.884 263.228 367.273C262.395 370.607 260.212 373.199 258.231 375.84C250.447 386.218 239.213 396.082 225.751 398.326C217.988 399.62 210.673 403.284 202.908 404.394C194.511 405.593 186.187 404.356 177.923 403.323C173.997 402.832 170.064 402.455 166.145 401.895C164.081 401.6 162.158 400.342 160.077 400.111C157.127 399.783 153.141 399.676 150.44 398.326C141.991 394.101 133.473 389.595 126.169 383.335C122.933 380.561 123.059 377.624 121.529 374.055C120.338 371.274 118.437 368.763 117.603 365.846C114.923 356.466 116.699 345.699 121.529 337.649C122.892 335.378 128.237 328.677 129.382 326.763Z" fill="none" fill-rule="evenodd" opacity="1" stroke="#000000" stroke-linecap="round" stroke-linejoin="round" stroke-width="4.46713"/>
<path d="M167.037 370.664C166.598 365.832 176.721 362.953 180.779 362.277C182.879 361.927 184.751 360.911 186.846 360.492C194.207 359.02 213.211 359.682 217.185 367.63C217.7 368.659 217.667 370.395 217.899 371.557C218.965 376.885 212.475 383.531 207.548 384.763C204.864 385.434 202.03 385.652 199.339 386.19C194.448 387.169 187.61 388.271 182.563 387.261C180.155 386.78 177.877 385.61 175.425 385.12C173.753 384.785 168.031 383.538 167.216 381.907C165.249 377.975 167.403 374.69 167.037 370.664Z" fill="none" fill-rule="evenodd" opacity="1" stroke="#000000" stroke-linecap="round" stroke-linejoin="round" stroke-width="4.46713"/>
<path d="M184.348 374.59C183.8 374.617 183.443 376.197 183.991 376.197C185.204 376.197 184.705 372.627 184.705 372.627C184.705 372.627 185.012 374.559 184.348 374.59Z" fill="none" fill-rule="evenodd" opacity="1" stroke="#000000" stroke-linecap="round" stroke-linejoin="round" stroke-width="4.46713"/>
<path d="M200.231 374.59C200.178 374.344 199.795 374.894 199.696 375.126C198.66 377.542 201.409 371.628 199.696 373.341C197.776 375.261 200.879 377.627 200.231 374.59Z" fill="none" fill-rule="evenodd" opacity="1" stroke="#000000" stroke-linecap="round" stroke-linejoin="round" stroke-width="4.46713"/>
<path d="M232.533 339.433C228.939 339.433 223.024 340.408 220.04 342.646C218.74 343.621 217.952 345.118 216.471 345.858" fill="none" fill-rule="evenodd" opacity="1" stroke="#000000" stroke-linecap="round" stroke-linejoin="round" stroke-width="4.46713"/>
<path d="M157.579 347.643C159.098 346.123 160.449 347.014 162.219 346.572C167.481 345.256 172.173 346.73 176.853 349.07" fill="none" fill-rule="evenodd" opacity="1" stroke="#000000" stroke-linecap="round" stroke-linejoin="round" stroke-width="4.46713"/>
<path d="M242.527 322.658C240.828 320.96 241.722 315.258 242.17 313.021C242.674 310.5 242.107 307.684 242.527 305.169C242.742 303.876 244.058 302.974 244.668 301.956C249.199 294.406 257.192 291.476 265.37 288.75C268.668 287.651 277.178 282.085 276.078 277.685C275.4 274.975 274.785 280.369 275.007 281.255C275.675 283.927 276.948 286.365 277.862 289.107C279.435 293.825 281.763 298.146 283.573 302.67C284.715 305.525 285.029 308.438 286.428 311.236C291.939 322.258 281.416 339.017 272.865 345.858C269.818 348.296 265.905 349.606 263.228 352.283" fill="none" fill-rule="evenodd" opacity="1" stroke="#000000" stroke-linecap="round" stroke-linejoin="round" stroke-width="4.46713"/>
<path d="M155.437 316.947C157.093 316.947 158.57 312.108 159.363 310.523C162.553 304.142 160.705 293.501 156.151 288.036C150.574 281.344 144.099 276.053 137.234 270.904C136.552 270.392 132.443 264.63 133.308 263.765C133.51 263.563 133.665 266.51 133.665 266.621C133.665 267.751 133.19 269.197 132.594 270.19C130.311 273.994 127.471 277.487 124.742 280.898C121.944 284.394 118.11 287.786 115.818 291.606C113.048 296.223 110.744 301.041 108.323 305.882C107.005 308.519 105.127 311.819 104.754 314.806C103.646 323.669 106.489 328.473 111.178 335.507C112.198 337.036 113.786 337.83 114.748 339.433C114.957 339.782 116.083 342.646 116.532 342.646C116.798 342.646 116.77 342.17 116.889 341.932" fill="none" fill-rule="evenodd" opacity="1" stroke="#000000" stroke-linecap="round" stroke-linejoin="round" stroke-width="4.46713"/>
<path d="M125.099 301.956C124.347 300.452 123.826 305.662 123.671 306.596C123.081 310.138 123.036 312.782 125.099 315.876" fill="none" fill-rule="evenodd" opacity="1" stroke="#000000" stroke-linecap="round" stroke-linejoin="round" stroke-width="4.46713"/>
<path d="M411.342 138.763C414.054 138.807 418.556 142.39 420.589 143.736C424.34 146.22 426.628 149.874 429.605 152.96C434.306 157.835 438.477 162.749 442.801 168.015C446.698 172.761 450.759 177.837 454.845 182.498C458.436 186.596 461.789 193.905 463.485 198.939C464.356 201.527 466.216 203.79 466.962 206.41C468.521 211.889 470.508 216.972 472.06 222.42C473.208 226.459 471.678 229.934 471.608 233.8C471.51 239.203 470.392 244.246 468.204 249.349C467.496 251.002 467.805 252.818 467.069 254.532C465.459 258.288 462.396 259.981 460.057 263.1C456.127 268.339 449.341 273.171 443.006 274.973C439.701 275.915 436.366 275.316 433.089 274.916C420.211 273.348 406.058 268.532 397.397 257.985C392.403 251.902 385.578 247.39 380.742 241.215C375.514 234.535 372.433 226.704 369.206 219.026C367.673 215.379 366.038 211.782 364.568 208.106C363.794 206.17 363.925 203.876 363.087 201.957C361.899 199.237 360.003 195.729 359.826 192.715C359.273 183.285 358.928 173.654 360.71 164.201C361.5 160.013 364.108 158.657 366.438 155.55C368.254 153.131 369.482 150.23 371.594 148.052C378.386 141.05 388.604 137.218 397.99 137.388C400.638 137.436 409.112 138.726 411.342 138.763Z" fill="none" fill-rule="evenodd" opacity="1" stroke="#000000" stroke-linecap="round" stroke-linejoin="round" stroke-width="4.46713"/>
<path d="M392.08 193.299C396.049 190.508 403.594 197.845 406.204 201.025C407.555 202.67 409.37 203.786 410.778 205.392C415.726 211.037 424.633 227.838 419.727 235.247C419.092 236.207 417.571 237.044 416.68 237.825C412.594 241.407 403.596 239.098 400.071 235.442C398.15 233.451 396.547 231.104 394.739 229.04C391.45 225.289 387.084 219.913 385.441 215.035C384.657 212.708 384.534 210.15 383.736 207.78C383.192 206.164 381.418 200.583 382.425 199.063C384.852 195.397 388.773 195.625 392.08 193.299Z" fill="none" fill-rule="evenodd" opacity="1" stroke="#000000" stroke-linecap="round" stroke-linejoin="round" stroke-width="4.46713"/>
<path d="M397.313 210.26C397.017 209.799 395.469 210.278 395.743 210.753C396.348 211.804 399.193 209.591 399.193 209.591C399.193 209.591 397.671 210.82 397.313 210.26Z" fill="none" fill-rule="evenodd" opacity="1" stroke="#000000" stroke-linecap="round" stroke-linejoin="round" stroke-width="4.46713"/>
<path d="M405.237 224.026C405.424 223.857 404.756 223.8 404.506 223.83C401.895 224.137 408.392 223.569 406.053 222.939C403.431 222.233 402.928 226.103 405.237 224.026Z" fill="none" fill-rule="evenodd" opacity="1" stroke="#000000" stroke-linecap="round" stroke-linejoin="round" stroke-width="4.46713"/>
<path d="M451.821 234.482C450.028 231.367 446.233 226.727 442.804 225.258C441.311 224.617 439.62 224.681 438.24 223.767" fill="none" fill-rule="evenodd" opacity="1" stroke="#000000" stroke-linecap="round" stroke-linejoin="round" stroke-width="4.46713"/>
<path d="M407.313 173.617C409.388 174.175 409.29 175.791 410.556 177.104C414.322 181.008 415.385 185.81 415.692 191.033" fill="none" fill-rule="evenodd" opacity="1" stroke="#000000" stroke-linecap="round" stroke-linejoin="round" stroke-width="4.46713"/>
<path d="M471.346 234.775C471.97 232.455 477.357 230.385 479.52 229.658C481.956 228.837 484.114 226.94 486.503 226.05C487.731 225.591 489.169 226.282 490.356 226.302C499.159 226.463 505.686 231.928 512.129 237.656C514.726 239.966 523.796 244.565 527.06 241.416C529.071 239.477 524.089 241.635 523.432 242.269C521.45 244.181 519.972 246.501 518.051 248.661C514.747 252.378 512.164 256.551 509.146 260.376C507.241 262.791 504.873 264.516 503.146 267.124C496.343 277.399 476.569 276.64 466.374 272.642C462.741 271.217 459.653 268.48 455.998 267.495" fill="none" fill-rule="evenodd" opacity="1" stroke="#000000" stroke-linecap="round" stroke-linejoin="round" stroke-width="4.46713"/>
<path d="M432.848 156.447C433.674 157.882 438.605 156.748 440.374 156.645C447.496 156.226 455.796 149.316 458.26 142.643C461.278 134.471 462.633 126.22 463.671 117.701C463.774 116.855 466.718 110.419 467.899 110.737C468.175 110.812 465.698 112.416 465.602 112.471C464.623 113.035 463.133 113.345 461.975 113.324C457.539 113.243 453.095 112.524 448.777 111.861C444.352 111.18 439.499 109.549 435.045 109.468C429.662 109.371 424.337 109.778 418.933 110.095C415.99 110.268 412.193 110.287 409.419 111.454C401.185 114.915 398.439 119.775 394.682 127.348C393.866 128.995 393.97 130.768 393.061 132.401C392.863 132.756 390.942 135.161 391.166 135.55C391.299 135.781 391.698 135.519 391.963 135.503" fill="none" fill-rule="evenodd" opacity="1" stroke="#000000" stroke-linecap="round" stroke-linejoin="round" stroke-width="4.46713"/>
<path d="M430.705 122.675C431.633 121.273 426.858 123.421 425.971 123.753C422.607 125.008 420.293 126.288 418.641 129.62" fill="none" fill-rule="evenodd" opacity="1" stroke="#000000" stroke-linecap="round" stroke-linejoin="round" stroke-width="4.46713"/>
<path d="M507.357 440.625C508.668 442.999 507.8 448.687 507.643 451.12C507.355 455.61 505.323 459.412 504.126 463.53C502.237 470.033 500.049 476.096 497.631 482.467C495.453 488.208 493.07 494.256 491.059 500.119C489.291 505.274 484.619 511.818 481.095 515.794C479.284 517.836 478.246 520.576 476.344 522.526C472.367 526.604 468.946 530.857 464.991 534.913C462.06 537.919 458.283 538.32 454.895 540.183C450.159 542.785 445.228 544.324 439.713 544.965C437.927 545.173 436.506 546.344 434.652 546.559C430.593 547.031 427.601 545.216 423.732 544.738C417.232 543.935 409.664 540.452 404.95 535.854C402.489 533.455 401.349 530.264 400.065 527.222C395.02 515.271 392.156 500.598 396.997 487.837C399.789 480.479 400.308 472.314 403.26 465.047C406.453 457.189 411.714 450.621 416.769 444.001C419.17 440.857 421.476 437.649 423.934 434.545C425.228 432.911 427.284 431.883 428.531 430.202C430.3 427.818 432.4 424.429 434.927 422.775C442.832 417.604 451.015 412.514 460.102 409.357C464.128 407.959 466.602 409.547 470.456 410.022C473.458 410.394 476.585 410.016 479.525 410.765C488.978 413.174 497.386 420.131 501.907 428.358C503.183 430.679 506.28 438.672 507.357 440.625Z" fill="none" fill-rule="evenodd" opacity="1" stroke="#000000" stroke-linecap="round" stroke-linejoin="round" stroke-width="4.46713"/>
<path d="M450.466 451.045C454.861 453.1 452.25 463.295 450.79 467.141C450.035 469.132 449.97 471.261 449.277 473.282C446.841 480.382 436.698 496.467 427.83 495.897C426.682 495.823 425.199 494.921 424.078 494.536C418.938 492.773 416.465 483.819 417.882 478.942C418.655 476.286 419.894 473.728 420.784 471.132C422.402 466.413 424.893 459.951 428.308 456.099C429.936 454.261 432.094 452.883 433.752 451.011C434.884 449.735 438.843 445.42 440.663 445.537C445.05 445.818 446.803 449.334 450.466 451.045Z" fill="none" fill-rule="evenodd" opacity="1" stroke="#000000" stroke-linecap="round" stroke-linejoin="round" stroke-width="4.46713"/>
<path d="M438.355 464.023C438.608 463.536 437.423 462.432 437.147 462.905C436.536 463.953 439.872 465.32 439.872 465.32C439.872 465.32 438.048 464.612 438.355 464.023Z" fill="none" fill-rule="evenodd" opacity="1" stroke="#000000" stroke-linecap="round" stroke-linejoin="round" stroke-width="4.46713"/>
<path d="M430.356 477.745C430.595 477.823 430.313 477.215 430.163 477.013C428.597 474.901 432.322 480.254 431.705 477.912C431.013 475.286 427.406 476.775 430.356 477.745Z" fill="none" fill-rule="evenodd" opacity="1" stroke="#000000" stroke-linecap="round" stroke-linejoin="round" stroke-width="4.46713"/>
<path d="M444.46 523.357C446.27 520.252 448.407 514.651 447.976 510.946C447.789 509.332 446.892 507.897 446.999 506.245" fill="none" fill-rule="evenodd" opacity="1" stroke="#000000" stroke-linecap="round" stroke-linejoin="round" stroke-width="4.46713"/>
<path d="M475.117 454.469C475.665 456.546 474.215 457.265 473.706 459.017C472.192 464.225 468.556 467.536 464.177 470.401" fill="none" fill-rule="evenodd" opacity="1" stroke="#000000" stroke-linecap="round" stroke-linejoin="round" stroke-width="4.46713"/>
<path d="M453.919 540.44C456.242 539.827 460.717 543.471 462.424 544.985C464.348 546.69 467.067 547.618 469.028 549.248C470.037 550.085 470.153 551.676 470.726 552.716C474.966 560.433 473.472 568.814 471.708 577.252C470.996 580.654 471.519 590.809 475.874 592.075C478.557 592.854 474.207 589.606 473.329 589.352C470.685 588.583 467.937 588.455 465.108 587.864C460.24 586.847 455.335 586.682 450.515 585.967C447.473 585.515 444.798 584.32 441.676 584.119C429.379 583.329 420.2 565.798 418.597 554.965C418.025 551.105 418.864 547.064 417.9 543.403" fill="none" fill-rule="evenodd" opacity="1" stroke="#000000" stroke-linecap="round" stroke-linejoin="round" stroke-width="4.46713"/>
<path d="M502.715 468.078C501.881 469.508 505.317 473.222 506.287 474.705C510.193 480.675 520.317 484.437 527.332 483.255C535.922 481.808 543.754 478.879 551.66 475.541C552.446 475.21 559.493 474.562 559.805 475.745C559.877 476.021 557.253 474.671 557.157 474.615C556.181 474.046 555.171 472.907 554.613 471.892C552.477 468.004 550.89 463.791 549.317 459.716C547.706 455.538 546.707 450.517 544.561 446.613C541.967 441.895 538.965 437.478 536.002 432.948C534.388 430.481 532.483 427.197 530.09 425.37C522.992 419.949 517.409 419.986 508.971 420.494C507.136 420.605 505.651 421.577 503.781 421.601C503.375 421.606 500.333 421.136 500.107 421.524C499.973 421.754 500.399 421.97 500.544 422.192" fill="none" fill-rule="evenodd" opacity="1" stroke="#000000" stroke-linecap="round" stroke-linejoin="round" stroke-width="4.46713"/>
<path d="M530.945 449.418C532.623 449.526 528.385 446.452 527.656 445.848C524.893 443.554 522.631 442.184 518.919 442.408" fill="none" fill-rule="evenodd" opacity="1" stroke="#000000" stroke-linecap="round" stroke-linejoin="round" stroke-width="4.46713"/>
<path d="M181.811 248.08C184.333 245.578 184.776 242.055 186.426 238.868C187.046 237.671 185.808 235.514 186.426 234.316C190.381 226.648 195.068 217.417 197.914 209.073C199.575 204.206 206.181 200.801 209.393 196.483C214.063 190.203 219.297 188.401 225.415 183.831C236.866 175.275 251.42 167.807 265.577 164.359C281.9 160.383 299.069 156.303 316.044 156.303C322.165 156.303 328.285 156.303 334.405 156.303C337.087 156.303 342.452 156.303 342.452 156.303C342.452 156.303 340.887 156.303 340.104 156.303" fill="none" fill-rule="evenodd" opacity="1" stroke="#000000" stroke-linecap="round" stroke-linejoin="round" stroke-width="4.46713"/>
<path d="M328.079 160.331C328.093 157.081 327.993 153.783 328.625 150.595C328.793 149.75 330.148 151.421 330.964 151.697C331.769 151.97 332.408 152.651 333.231 152.862C335.021 153.322 341.171 153.867 342.452 155.138C346.284 158.941 333.104 164.525 330.964 166.626C330.096 167.478 326.266 169.893 327.532 171.169C330.029 173.686 328.065 163.385 328.079 160.331Z" fill="none" fill-rule="evenodd" opacity="1" stroke="#000000" stroke-linecap="round" stroke-linejoin="round" stroke-width="4.46713"/>
<path d="M457.141 302.015C454.997 299.772 455.428 303.318 455.976 305.456C456.637 308.034 462.455 311.335 464.023 313.44C466.379 316.601 464.267 314.801 465.107 318.055C465.665 320.214 467.808 321.872 468.548 323.763C470.224 328.044 472.374 334.135 473.163 338.691C475.615 352.844 476.4 369.176 474.337 383.415C473.694 387.852 470.896 391.462 470.896 396.067C470.896 397.863 469.722 398.555 469.722 400.611C469.722 400.999 469.722 401.775 469.722 401.775C469.722 401.775 469.48 397.397 470.896 396.067" fill="none" fill-rule="evenodd" opacity="1" stroke="#000000" stroke-linecap="round" stroke-linejoin="round" stroke-width="4.46713"/>
<path d="M472.025 382.859C477.525 385.26 482.375 387.232 482.375 384.517C482.375 383.707 478.052 387.592 477.769 387.967C476.831 389.207 470.704 398.834 469.722 398.343C467.396 397.18 466.556 393.207 466.281 391.462C465.562 386.892 462.539 381.482 465.107 377.635C466.712 375.232 469.377 381.703 472.025 382.859Z" fill="none" fill-rule="evenodd" opacity="1" stroke="#000000" stroke-linecap="round" stroke-linejoin="round" stroke-width="4.46713"/>
<path d="M208.228 131.114C205.379 131.114 204.674 138.761 203.613 141.437C200.16 150.145 200.318 157.493 205.961 165.461C206.269 165.896 206.55 166.455 207.054 166.626C208.235 167.027 214.158 167.094 215.092 166.626C219.239 164.548 227.389 152.847 220.8 149.421C219.788 148.895 216.093 149.421 215.092 149.421C206.912 149.421 206.865 160.909 204.787 160.909" fill="none" fill-rule="evenodd" opacity="1" stroke="#000000" stroke-linecap="round" stroke-linejoin="round" stroke-width="4.46713"/>
<path d="M231.154 125.317C230.763 125.977 230.637 123.541 231.194 123.014C231.463 122.759 231.457 121.642 231.194 121.902C226.729 126.334 225.066 152.354 236.893 148.319C246.659 144.988 248.381 135.605 248.381 126.455C248.381 126.069 248.635 120.992 248.381 120.738C247.528 119.882 246.033 120.106 244.949 119.573C237.961 116.133 235.407 118.131 231.154 125.317Z" fill="none" fill-rule="evenodd" opacity="1" stroke="#000000" stroke-linecap="round" stroke-linejoin="round" stroke-width="4.46713"/>
<path d="M256.979 98.9897C251.464 91.1314 253.2 105.575 257.521 106.974C262.803 108.684 271.467 96.9864 269.009 92.1078C268.111 90.3258 265.976 90.9429 264.394 90.9429C259.626 90.9429 260.221 103.61 256.979 98.9897Z" fill="none" fill-rule="evenodd" opacity="1" stroke="#000000" stroke-linecap="round" stroke-linejoin="round" stroke-width="4.46713"/>
<path d="M530.503 305.456C530.503 309.013 526.9 312.96 524.804 315.779C521.98 319.577 521.275 324.075 520.189 328.368C519.657 330.473 518.203 331.649 519.025 334.077C519.733 336.17 524.134 337.526 525.897 337.526C527.433 337.526 529.046 338.008 530.503 337.526C533.857 336.417 540.266 325.667 537.385 322.598C535.242 320.314 530.042 321.412 528.245 323.763C526.758 325.708 525.359 327.744 523.63 329.48" fill="none" fill-rule="evenodd" opacity="1" stroke="#000000" stroke-linecap="round" stroke-linejoin="round" stroke-width="4.46713"/>
<path d="M559.218 303.735C559.241 305.562 554.575 312.287 554.563 312.329C552.802 318.581 547.646 326.864 555.746 329.48C560.189 330.914 564.271 329.039 567.225 326.039C570.322 322.893 574.352 320.343 575.28 315.779C576.435 310.103 576.837 306.143 574.107 300.796C570.544 293.819 559.089 293.552 559.218 303.735Z" fill="none" fill-rule="evenodd" opacity="1" stroke="#000000" stroke-linecap="round" stroke-linejoin="round" stroke-width="4.46713"/>
<path d="M586.719 267.032C582.836 273.224 580.643 284.176 592.467 280.204C596.029 279.008 601.809 269.031 599.34 265.284C596.402 260.825 588.033 265.761 585.585 267.614C585.247 267.871 586.945 266.672 586.719 267.032Z" fill="none" fill-rule="evenodd" opacity="1" stroke="#000000" stroke-linecap="round" stroke-linejoin="round" stroke-width="4.46713"/>
</g>
</svg>
