<?xml version="1.0" encoding="UTF-8" standalone="no"?>
<!DOCTYPE svg PUBLIC "-//W3C//DTD SVG 1.1//EN" "http://www.w3.org/Graphics/SVG/1.1/DTD/svg11.dtd">
<!-- Created with Vectornator (http://vectornator.io/) -->
<svg height="100%" stroke-miterlimit="10" style="fill-rule:nonzero;clip-rule:evenodd;stroke-linecap:round;stroke-linejoin:round;" version="1.1" viewBox="0 0 199.309 156.466" width="100%" xml:space="preserve" xmlns="http://www.w3.org/2000/svg" xmlns:xlink="http://www.w3.org/1999/xlink">
<defs/>
<g id="Layer-1">
<path d="M31.5286 67.2369C32.9196 64.9089 38.2706 62.7939 40.4516 61.7039C44.4756 59.6919 48.7836 59.5319 52.9436 58.4919C59.5136 56.8489 65.8536 55.6859 72.5746 54.5659C78.6316 53.5559 85.0566 52.5689 91.1346 51.3529C96.4786 50.2849 104.486 51.0249 109.695 52.0669C112.372 52.6029 115.261 52.1199 117.904 52.7809C123.43 54.1629 128.827 54.9759 134.323 56.3499C138.396 57.3689 140.645 60.4289 143.96 62.4179C148.594 65.1989 152.407 68.6839 155.738 73.1259C156.817 74.5639 158.545 75.2019 159.664 76.6949C162.116 79.9639 162.055 83.4629 163.591 87.0459C166.171 93.0659 166.973 101.358 165.375 107.747C164.542 111.081 162.359 113.673 160.378 116.314C152.594 126.692 141.36 136.556 127.898 138.8C120.135 140.094 112.82 143.758 105.055 144.868C96.6576 146.067 88.3336 144.83 80.0696 143.797C76.1436 143.306 72.2106 142.929 68.2916 142.369C66.2276 142.074 64.3046 140.816 62.2236 140.585C59.2736 140.257 55.2876 140.15 52.5866 138.8C44.1376 134.575 35.6196 130.069 28.3156 123.809C25.0796 121.035 25.2056 118.098 23.6756 114.529C22.4846 111.748 20.5836 109.237 19.7496 106.32C17.0696 96.9399 18.8456 86.1729 23.6756 78.1229C25.0386 75.8519 30.3836 69.1509 31.5286 67.2369Z" fill="none" fill-rule="evenodd" opacity="1" stroke="#000000" stroke-linecap="round" stroke-linejoin="round" stroke-width="4.46713"/>
<path d="M69.1836 111.138C68.7446 106.306 78.8676 103.427 82.9256 102.751C85.0256 102.401 86.8976 101.385 88.9926 100.966C96.3536 99.4939 115.358 100.156 119.332 108.104C119.847 109.133 119.814 110.869 120.046 112.031C121.112 117.359 114.622 124.005 109.695 125.237C107.011 125.908 104.177 126.126 101.486 126.664C96.5946 127.643 89.7566 128.745 84.7096 127.735C82.3016 127.254 80.0236 126.084 77.5716 125.594C75.8996 125.259 70.1776 124.012 69.3626 122.381C67.3956 118.449 69.5496 115.164 69.1836 111.138Z" fill="none" fill-rule="evenodd" opacity="1" stroke="#000000" stroke-linecap="round" stroke-linejoin="round" stroke-width="4.46713"/>
<path d="M86.4946 115.064C85.9466 115.091 85.5896 116.671 86.1376 116.671C87.3506 116.671 86.8516 113.101 86.8516 113.101C86.8516 113.101 87.1586 115.033 86.4946 115.064Z" fill="none" fill-rule="evenodd" opacity="1" stroke="#000000" stroke-linecap="round" stroke-linejoin="round" stroke-width="4.46713"/>
<path d="M102.378 115.064C102.325 114.818 101.942 115.368 101.843 115.6C100.807 118.016 103.556 112.102 101.843 113.815C99.9226 115.735 103.026 118.101 102.378 115.064Z" fill="none" fill-rule="evenodd" opacity="1" stroke="#000000" stroke-linecap="round" stroke-linejoin="round" stroke-width="4.46713"/>
<path d="M134.68 79.9069C131.086 79.9069 125.171 80.8819 122.187 83.1199C120.887 84.0949 120.099 85.5919 118.618 86.3319" fill="none" fill-rule="evenodd" opacity="1" stroke="#000000" stroke-linecap="round" stroke-linejoin="round" stroke-width="4.46713"/>
<path d="M59.7256 88.1169C61.2446 86.5969 62.5956 87.4879 64.3656 87.0459C69.6276 85.7299 74.3196 87.2039 78.9996 89.5439" fill="none" fill-rule="evenodd" opacity="1" stroke="#000000" stroke-linecap="round" stroke-linejoin="round" stroke-width="4.46713"/>
<path d="M144.674 63.1319C142.975 61.4339 143.869 55.7319 144.317 53.4949C144.821 50.9739 144.254 48.1579 144.674 45.6429C144.889 44.3499 146.205 43.4479 146.815 42.4299C151.346 34.8799 159.339 31.9499 167.517 29.2239C170.815 28.1249 179.325 22.5589 178.225 18.1589C177.547 15.4489 176.932 20.8429 177.154 21.7289C177.822 24.4009 179.095 26.8389 180.009 29.5809C181.582 34.2989 183.91 38.6199 185.72 43.1439C186.862 45.9989 187.176 48.9119 188.575 51.7099C194.086 62.7319 183.563 79.4909 175.012 86.3319C171.965 88.7699 168.052 90.0799 165.375 92.7569" fill="none" fill-rule="evenodd" opacity="1" stroke="#000000" stroke-linecap="round" stroke-linejoin="round" stroke-width="4.46713"/>
<path d="M57.5836 57.4209C59.2396 57.4209 60.7166 52.5819 61.5096 50.9969C64.6996 44.6159 62.8516 33.9749 58.2976 28.5099C52.7206 21.8179 46.2456 16.5269 39.3806 11.3779C38.6986 10.8659 34.5896 5.10389 35.4546 4.23888C35.6566 4.03688 35.8116 6.98388 35.8116 7.09488C35.8116 8.22487 35.3366 9.67089 34.7406 10.6639C32.4576 14.4679 29.6176 17.9609 26.8886 21.3719C24.0906 24.8679 20.2566 28.2599 17.9646 32.0799C15.1946 36.6969 12.8906 41.5149 10.4696 46.3559C9.15157 48.9929 7.27358 52.2929 6.90058 55.2799C5.79258 64.1429 8.63558 68.9469 13.3246 75.9809C14.3446 77.5099 15.9326 78.3039 16.8946 79.9069C17.1036 80.2559 18.2296 83.1199 18.6786 83.1199C18.9446 83.1199 18.9166 82.6439 19.0356 82.4059" fill="none" fill-rule="evenodd" opacity="1" stroke="#000000" stroke-linecap="round" stroke-linejoin="round" stroke-width="4.46713"/>
<path d="M27.2456 42.4299C26.4936 40.9259 25.9726 46.1359 25.8176 47.0699C25.2276 50.6119 25.1826 53.2559 27.2456 56.3499" fill="none" fill-rule="evenodd" opacity="1" stroke="#000000" stroke-linecap="round" stroke-linejoin="round" stroke-width="4.46713"/>
</g>
</svg>
