<?xml version="1.0" encoding="UTF-8" standalone="no"?>
<!DOCTYPE svg PUBLIC "-//W3C//DTD SVG 1.1//EN" "http://www.w3.org/Graphics/SVG/1.1/DTD/svg11.dtd">
<!-- Created with Vectornator (http://vectornator.io/) -->
<svg height="100%" stroke-miterlimit="10" style="fill-rule:nonzero;clip-rule:evenodd;stroke-linecap:round;stroke-linejoin:round;" version="1.1" viewBox="0 0 678.087 674.938" width="100%" xml:space="preserve" xmlns="http://www.w3.org/2000/svg" xmlns:xlink="http://www.w3.org/1999/xlink">
<defs/>
<g id="Layer-1">
<path d="M137.774 238.502C132.554 244.169 130.235 259.368 132.986 266.435C136.588 275.689 146.607 277.036 153.643 269.992C155.26 268.373 157.356 266.78 158.683 264.924C164.02 257.459 168.788 241.819 161.186 234.225C158.159 231.202 144.219 228.549 140.572 232.203C139.866 232.91 138.367 237.859 137.774 238.502Z" fill="none" fill-rule="evenodd" opacity="1" stroke="#000000" stroke-linecap="round" stroke-linejoin="round" stroke-width="4.46713"/>
<path d="M173.301 218.608C173.301 216.151 175.588 214.09 176.834 212.077C180.037 206.899 183.685 202.738 187.402 197.971C197.647 184.832 211.676 177.702 228.189 175.311C238.088 173.878 246.777 171.611 256.905 172.266C265.995 172.853 275.649 175.528 284.589 177.31C294.798 179.344 305.104 182.141 314.816 185.86C317.451 186.869 318.818 187.788 321.367 188.882C321.709 189.029 322.094 189.66 322.358 189.397C323.079 188.682 320.072 187.077 319.856 186.859C317.598 184.594 316.839 182.319 315.331 179.82C315.115 179.463 312.789 178.226 312.789 177.821C312.789 177.585 313.14 178.139 313.309 178.305C313.908 178.897 314.736 179.224 315.331 179.82C316.102 180.593 319.858 187.354 318.829 187.882C314.756 189.975 309.134 185.959 305.243 189.881" fill="none" fill-rule="evenodd" opacity="1" stroke="#000000" stroke-linecap="round" stroke-linejoin="round" stroke-width="4.46713"/>
<path d="M174.036 188.382C173.476 186.864 173.089 185.256 172.27 183.861C171.932 183.287 172.082 185.221 172.27 185.86C173.037 188.47 174.376 189.597 175.327 191.904C175.531 192.399 175.95 193.953 175.803 193.438C175.313 191.721 174.654 190.057 174.036 188.382Z" fill="none" fill-rule="evenodd" opacity="1" stroke="#000000" stroke-linecap="round" stroke-linejoin="round" stroke-width="4.46713"/>
<path d="M166.745 173.265C167.503 173.265 167.15 173.136 167.741 173.8" fill="none" fill-rule="evenodd" opacity="1" stroke="#000000" stroke-linecap="round" stroke-linejoin="round" stroke-width="4.46713"/>
<path d="M179.852 174.264C181.506 172.664 183.35 182.096 183.35 183.861C183.35 184.201 183.35 183.182 183.35 182.842C183.35 182.337 183.35 181.832 183.35 181.327C183.35 180.32 183.35 179.313 183.35 178.305C183.35 176.397 184.25 167.952 187.914 169.755C189.745 170.656 191.412 179.15 191.412 178.821" fill="none" fill-rule="evenodd" opacity="1" stroke="#000000" stroke-linecap="round" stroke-linejoin="round" stroke-width="4.46713"/>
<path d="M200.409 161.785C198.106 159.622 193.999 174.469 202.13 172.417C203.109 172.17 203.228 173.035 203.852 172.417" fill="none" fill-rule="evenodd" opacity="1" stroke="#000000" stroke-linecap="round" stroke-linejoin="round" stroke-width="4.46713"/>
<path d="M211.328 158.923C210.281 158.923 208.835 157.047 209.878 156.059C210.658 155.321 213.402 156.846 214.477 156.337C215.277 155.959 215.865 153.993 216.495 154.614C216.634 154.75 216.543 155.009 216.495 155.197C215.764 158.045 213.545 161.265 214.183 164.37C214.723 166.998 221.365 169.724 221.365 165.818" fill="none" fill-rule="evenodd" opacity="1" stroke="#000000" stroke-linecap="round" stroke-linejoin="round" stroke-width="4.46713"/>
<path d="M227.12 157.199C229.795 157.199 232.746 151.422 231.131 150.874C229.224 150.227 228.265 153.362 227.982 154.614C227.04 158.778 227.89 165.961 234.009 162.077C235.103 161.382 235.992 160.415 236.884 159.491" fill="none" fill-rule="evenodd" opacity="1" stroke="#000000" stroke-linecap="round" stroke-linejoin="round" stroke-width="4.46713"/>
<path d="M243.206 148.583C243.206 150.762 242.671 153.543 242.347 155.767C242.176 156.94 241.804 158.074 241.483 159.215C241.431 159.398 241.483 159.785 241.483 159.785C241.483 159.785 242.138 157.631 242.639 156.629C243.655 154.594 245.062 152.78 246.944 151.444C247.437 151.094 248.388 150.337 248.667 150.874C249.358 152.203 248.667 158.512 248.667 160.355C248.667 160.842 248.855 159.399 248.959 158.923C249.333 157.215 249.142 157.365 249.821 155.476C250.691 153.052 252.374 149.647 255.28 149.151C258.866 148.538 257.003 156.812 257.003 158.923" fill="none" fill-rule="evenodd" opacity="1" stroke="#000000" stroke-linecap="round" stroke-linejoin="round" stroke-width="4.46713"/>
<path d="M264.751 153.738C266.555 153.387 269.491 153.492 271.072 152.598C273.469 151.242 272.163 148.888 269.644 149.445C266.922 150.046 264.666 155.688 266.767 157.767C268.919 159.898 271.473 157.767 273.655 157.767" fill="none" fill-rule="evenodd" opacity="1" stroke="#000000" stroke-linecap="round" stroke-linejoin="round" stroke-width="4.46713"/>
<path d="M284.009 148.861C285.242 148.861 279.978 158.227 279.978 159.785C279.978 160.535 280.957 158.647 281.426 158.061C281.806 157.586 282.129 157.06 282.559 156.629C283.951 155.232 287.5 151.874 289.741 152.598C290.795 152.938 289.157 160.971 288.879 162.077C288.732 162.663 288.314 164.405 288.314 163.8" fill="none" fill-rule="evenodd" opacity="1" stroke="#000000" stroke-linecap="round" stroke-linejoin="round" stroke-width="4.46713"/>
<path d="M305.556 146.567C303.379 150.822 297.339 156.842 298.374 162.077C298.889 164.683 305.747 168.276 307.551 165.538" fill="none" fill-rule="evenodd" opacity="1" stroke="#000000" stroke-linecap="round" stroke-linejoin="round" stroke-width="4.46713"/>
<path d="M306.416 155.476C304.627 152.844 301.107 151.736 298.077 151.736" fill="none" fill-rule="evenodd" opacity="1" stroke="#000000" stroke-linecap="round" stroke-linejoin="round" stroke-width="4.46713"/>
<path d="M350.028 201.546C350.028 199.593 353.751 198.29 355.424 197.624C356.747 197.097 361.922 195.363 363.248 196.154C365.674 197.602 364.897 202.888 364.21 204.953C363.761 206.304 363.011 208.104 362.244 209.348C360.972 211.409 359.119 213.065 357.348 214.717C355.641 216.31 353.355 217.65 351.024 217.65C350.152 217.65 352.609 216.888 353.457 216.68C354.6 216.399 355.693 215.984 356.886 215.687C360.969 214.669 367.769 213.689 369.572 219.139C370.443 221.773 370.611 226.277 369.572 228.907C367.994 232.901 359.759 238.771 355.424 237.228C354.773 236.997 353.723 234.678 353.457 234.272" fill="none" fill-rule="evenodd" opacity="1" stroke="#000000" stroke-linecap="round" stroke-linejoin="round" stroke-width="4.46713"/>
<path d="M381.788 263.615C385.059 269.957 389.287 276.149 392.541 282.678C394.943 287.498 398.563 291.466 399.904 296.842C409.526 335.432 400.365 374.539 386.218 410.742C379.586 427.712 372.084 444.436 364.711 461.084C362.325 466.471 359.347 471.657 357.348 477.214C357.151 477.764 355.79 480.639 356.886 480.639" fill="none" fill-rule="evenodd" opacity="1" stroke="#000000" stroke-linecap="round" stroke-linejoin="round" stroke-width="4.46713"/>
<path d="M366.177 476.244C366.665 476.077 367.29 476.122 367.64 475.744C368.098 475.248 366.247 475.883 365.677 476.244C364.683 476.873 363.697 477.518 362.744 478.207C359.817 480.324 356.833 482.374 353.953 484.542C352.838 485.382 350.48 487.326 350.028 486.005C348.854 482.572 353.269 477.645 353.953 474.255C354.234 472.863 352.957 473.011 352.957 471.822" fill="none" fill-rule="evenodd" opacity="1" stroke="#000000" stroke-linecap="round" stroke-linejoin="round" stroke-width="4.46713"/>
<path d="M350.528 512.892C351.188 512.892 352.276 512.573 351.024 511.922C349.847 511.31 346.322 512.417 345.132 512.892C341.201 514.462 338.287 516.804 334.875 519.254C326.803 525.052 321.197 534.039 321.197 544.175C321.197 546.391 320.795 548.928 321.693 551.033C323.318 554.844 326.694 555.406 330.484 555.406C335.601 555.406 342.207 553.065 344.666 548.101C348.776 539.806 342.499 531.377 333.413 534.411C330.098 535.517 327.144 537.574 324.122 539.283" fill="none" fill-rule="evenodd" opacity="1" stroke="#000000" stroke-linecap="round" stroke-linejoin="round" stroke-width="4.46713"/>
<path d="M424.34 282.678C424.495 283 425.065 283.399 424.805 283.644C424.323 284.101 423.541 283.148 422.877 283.148C420.235 283.148 419.154 283.182 416.519 284.141C414.083 285.027 405.505 288.787 409.195 292.466C410.67 293.936 412.4 294.049 414.052 294.902" fill="none" fill-rule="evenodd" opacity="1" stroke="#000000" stroke-linecap="round" stroke-linejoin="round" stroke-width="4.46713"/>
<path d="M438.026 278.776L438.992 278.275L438.992 277.779L438.492 277.779L438.026 277.779L438.026 277.779" fill="none" fill-rule="evenodd" opacity="1" stroke="#000000" stroke-linecap="round" stroke-linejoin="round" stroke-width="4.46713"/>
<path d="M426.776 293.932C430.73 293.932 416.781 298.236 416.519 298.801C416.318 299.234 420.287 299.67 420.914 299.771C423.942 300.256 427.884 299.511 428.739 303.673C429.813 308.905 418.46 312.495 414.552 312.495" fill="none" fill-rule="evenodd" opacity="1" stroke="#000000" stroke-linecap="round" stroke-linejoin="round" stroke-width="4.46713"/>
<path d="M426.776 328.147C429.936 328.147 430.614 324.127 428.238 322.259C423.876 318.828 411.073 322.646 414.552 329.614C415.204 330.919 416.774 331.646 417.481 333.016" fill="none" fill-rule="evenodd" opacity="1" stroke="#000000" stroke-linecap="round" stroke-linejoin="round" stroke-width="4.46713"/>
<path d="M428.238 346.237C428.238 336.041 428.419 354.694 426.776 355.505C422.703 357.513 418.069 347.169 412.124 354.535C411.062 355.85 410.631 357.72 411.123 359.407C411.516 360.755 412.593 362.309 413.586 363.31" fill="none" fill-rule="evenodd" opacity="1" stroke="#000000" stroke-linecap="round" stroke-linejoin="round" stroke-width="4.46713"/>
<path d="M415.518 370.665C417.984 372.998 419.605 375.366 422.877 377C425.603 378.361 427.308 375.713 426.272 373.097C423.875 367.045 413.444 370.449 411.123 374.568C410.539 375.604 409.91 381.896 411.623 381.896" fill="none" fill-rule="evenodd" opacity="1" stroke="#000000" stroke-linecap="round" stroke-linejoin="round" stroke-width="4.46713"/>
<path d="M420.914 389.72C420.914 391.981 409.261 388.685 406.228 389.72C405.922 389.825 405.999 390.462 406.228 390.69C406.98 391.44 408.795 392.227 409.657 392.653C412.114 393.867 416.184 395.362 418.447 397.052C419.268 397.665 420.367 399.505 419.448 399.958C418.782 400.286 414.831 400.951 414.552 400.978C413.747 401.056 412.933 400.978 412.124 400.978C402.91 400.978 416.519 403.634 416.519 406.816C416.519 410.345 404.988 411.439 402.833 409.276" fill="none" fill-rule="evenodd" opacity="1" stroke="#000000" stroke-linecap="round" stroke-linejoin="round" stroke-width="4.46713"/>
<path d="M397.437 421.973C400.275 424.778 404.301 426.74 408.19 427.838C409.204 428.125 414.589 428.933 412.589 425.898C409.074 420.563 396.745 420.678 394.508 427.365C393.183 431.325 395.974 431.295 395.974 434.2" fill="none" fill-rule="evenodd" opacity="1" stroke="#000000" stroke-linecap="round" stroke-linejoin="round" stroke-width="4.46713"/>
<path d="M405.261 443.491C405.261 444.891 391.605 441.203 389.612 442.521C388.455 443.287 391.617 444.883 393.546 445.931C397.525 448.094 409.854 455.245 396.475 456.211C395.013 456.317 393.544 456.211 392.079 456.211C389.822 456.211 387.736 455.199 385.721 455.199" fill="none" fill-rule="evenodd" opacity="1" stroke="#000000" stroke-linecap="round" stroke-linejoin="round" stroke-width="4.46713"/>
<path d="M412.589 472.792C416.18 474.567 406.792 470.27 404.765 469.382C400.563 467.54 394.844 465.028 390.113 466.449C380.827 469.238 381.774 477.91 385.221 484.542" fill="none" fill-rule="evenodd" opacity="1" stroke="#000000" stroke-linecap="round" stroke-linejoin="round" stroke-width="4.46713"/>
<path d="M400.366 471.822C400.366 467.65 401.809 463.167 402.833 459.121" fill="none" fill-rule="evenodd" opacity="1" stroke="#000000" stroke-linecap="round" stroke-linejoin="round" stroke-width="4.46713"/>
<path d="M318.264 495.299C314.009 493.113 311.444 485.58 308.973 481.609C303.299 472.492 298.929 462.403 295.291 452.267C291.818 442.592 287.802 433.227 284.533 423.439C282.623 417.719 281.716 411.625 280.142 405.85C276.143 391.182 278.242 372.837 279.642 357.941C281.33 339.972 280.823 321.997 284.033 304.17C287.4 285.471 295.133 267.877 308.007 253.828C311.937 249.539 315.698 244.762 320.23 241.131C320.718 240.74 326.554 236.77 326.554 235.735C326.554 235.369 325.588 235.892 325.588 236.258" fill="none" fill-rule="evenodd" opacity="1" stroke="#000000" stroke-linecap="round" stroke-linejoin="round" stroke-width="4.46713"/>
<path d="M313.869 238.695C316.246 238.695 320.744 237.301 322.659 235.735C323.089 235.384 327.302 231.087 328.055 231.84C331.079 234.864 320.945 247.231 323.159 249.429" fill="none" fill-rule="evenodd" opacity="1" stroke="#000000" stroke-linecap="round" stroke-linejoin="round" stroke-width="4.46713"/>
<path d="M279.157 449.341C275.257 452.247 275.427 450.005 272.814 451.297C271.626 451.884 270.19 453.9 269.885 455.199C268.372 461.633 285.518 461.719 282.571 455.719C280.241 450.977 268.195 447.667 263.527 446.894C261.746 446.599 259.922 446.648 258.131 446.424C257.311 446.321 256.528 445.931 255.702 445.931C255.535 445.931 255.035 445.931 255.202 445.931C261.251 445.931 267.699 446.406 273.78 446.894C275.56 447.036 277.352 446.894 279.138 446.894C279.793 446.894 281.444 446.333 281.104 446.894C280.564 447.786 279.993 448.718 279.157 449.341Z" fill="none" fill-rule="evenodd" opacity="1" stroke="#000000" stroke-linecap="round" stroke-linejoin="round" stroke-width="4.46713"/>
<path d="M272.317 439.096C270.819 436.191 269.383 432.903 265.955 431.741C264.503 431.249 259.298 432.034 260.598 434.674C262.491 438.521 276.775 441.079 279.138 437.106C280.665 434.538 275.777 429.861 274.746 427.838" fill="none" fill-rule="evenodd" opacity="1" stroke="#000000" stroke-linecap="round" stroke-linejoin="round" stroke-width="4.46713"/>
<path d="M255.202 411.216C250.821 411.216 254.815 414.677 256.664 415.611C260.196 417.394 264.738 419.059 268.884 418.051C272.305 417.219 270.709 406.816 267.922 406.816" fill="none" fill-rule="evenodd" opacity="1" stroke="#000000" stroke-linecap="round" stroke-linejoin="round" stroke-width="4.46713"/>
<path d="M252.273 397.526C251.276 397.526 243.797 396.335 245.445 394.593C246.554 393.42 249.208 395.725 249.844 392.653C250.436 389.798 249.253 388.133 247.878 385.817C247.579 385.315 246.912 384.355 246.912 384.355C246.912 384.355 247.256 384.641 247.377 384.825C248.235 386.122 249.981 387.8 251.307 388.75C255.056 391.437 260.931 392.109 265.455 391.19C269.026 390.465 264.09 382.459 263.026 381.395" fill="none" fill-rule="evenodd" opacity="1" stroke="#000000" stroke-linecap="round" stroke-linejoin="round" stroke-width="4.46713"/>
<path d="M254.236 372.127C254.236 369.038 253.786 364.575 249.844 363.803C247.201 363.285 244.829 366.663 245.911 369.195C246.249 369.985 248.832 371.734 249.34 372.127C250.838 373.288 252.428 374.809 254.236 375.534C259.181 377.516 268.225 375.275 266.456 368.225C265.625 364.916 262.369 362.652 260.097 360.377" fill="none" fill-rule="evenodd" opacity="1" stroke="#000000" stroke-linecap="round" stroke-linejoin="round" stroke-width="4.46713"/>
<path d="M250.306 347.699C253.56 347.699 257.61 349.919 260.598 351.109C262.913 352.032 264.086 353.072 263.993 353.072C261.347 353.072 255.061 344.288 254.236 341.815C254.204 341.719 252.992 338.147 253.239 337.912C255.413 335.838 260.538 341.815 262.526 341.815C262.892 341.815 262.319 341.081 262.06 340.822C261.088 339.848 260.107 338.883 259.131 337.912C257.868 336.655 251.833 330.105 252.773 328.147C253.625 326.374 262.917 331.517 264.489 332.046" fill="none" fill-rule="evenodd" opacity="1" stroke="#000000" stroke-linecap="round" stroke-linejoin="round" stroke-width="4.46713"/>
<path d="M258.131 317.86C261.835 314.354 256.559 301.305 252.273 306.606C247.667 312.303 260.812 321.641 265.455 319.326C268.255 317.93 269.957 308.069 266.921 308.069" fill="none" fill-rule="evenodd" opacity="1" stroke="#000000" stroke-linecap="round" stroke-linejoin="round" stroke-width="4.46713"/>
<path d="M257.165 290.476C259.111 292.407 260.28 293.653 263.026 294.902C264.02 295.354 264.979 295.88 265.955 296.368C265.998 296.39 271.351 298.589 271.351 299.301C271.351 299.892 270.376 298.633 269.885 298.304C268.418 297.321 266.769 296.579 265.455 295.398C262.256 292.523 259.505 287.203 261.06 282.678C262.103 279.643 274.1 288.044 273.28 288.044" fill="none" fill-rule="evenodd" opacity="1" stroke="#000000" stroke-linecap="round" stroke-linejoin="round" stroke-width="4.46713"/>
<path d="M253.239 259.22C253.931 257.868 256.21 261.818 257.669 263.123C261.483 266.533 265.803 270.103 270.351 272.391C273.538 273.994 280.052 272.627 281.604 268.988C282.467 266.965 281.953 263.615 279.642 263.615" fill="none" fill-rule="evenodd" opacity="1" stroke="#000000" stroke-linecap="round" stroke-linejoin="round" stroke-width="4.46713"/>
<path d="M268.422 262.622C266.203 260.539 261.545 270.403 260.598 271.421" fill="none" fill-rule="evenodd" opacity="1" stroke="#000000" stroke-linecap="round" stroke-linejoin="round" stroke-width="4.46713"/>
</g>
</svg>
