<?xml version="1.0" encoding="UTF-8" standalone="no"?>
<!DOCTYPE svg PUBLIC "-//W3C//DTD SVG 1.1//EN" "http://www.w3.org/Graphics/SVG/1.1/DTD/svg11.dtd">
<!-- Created with Vectornator (http://vectornator.io/) -->
<svg height="100%" stroke-miterlimit="10" style="fill-rule:nonzero;clip-rule:evenodd;stroke-linecap:round;stroke-linejoin:round;" version="1.1" viewBox="0 0 159.183 190.796" width="100%" xml:space="preserve" xmlns="http://www.w3.org/2000/svg" xmlns:xlink="http://www.w3.org/1999/xlink">
<defs/>
<g id="Layer-1">
<path d="M74.0365 29.9005C76.5569 30.9016 79.5 35.8458 80.9245 37.8245C83.5538 41.4752 84.4003 45.7023 86.0918 49.6426C88.7637 55.8655 90.925 61.9382 93.1048 68.3938C95.0699 74.2115 97.0711 80.3961 99.2429 86.2017C101.151 91.3063 101.701 99.3286 101.504 104.637C101.403 107.365 102.342 110.14 102.112 112.855C101.631 118.531 101.691 123.988 101.213 129.633C100.858 133.817 98.1965 136.526 96.7629 140.116C94.7583 145.135 91.9275 149.456 88.075 153.454C86.8279 154.749 86.4743 156.557 85.1793 157.9C82.3442 160.843 78.8805 161.342 75.589 163.431C70.0588 166.94 62.0015 169.057 55.4393 168.501C52.015 168.211 49.1074 166.47 46.1837 164.937C34.6951 158.912 23.1624 149.399 18.7957 136.468C16.2776 129.012 11.4915 122.377 9.15477 114.889C6.62912 106.791 6.51983 98.3766 6.21875 90.0538C6.07599 86.0998 5.81954 82.1571 5.74598 78.199C5.70732 76.1143 6.6418 74.015 6.53722 71.9238C6.38952 68.9593 5.85808 65.0075 6.75905 62.1254C9.57938 53.1098 12.6661 43.9811 17.6782 35.7705C19.8994 32.1327 22.8187 31.7877 26.0973 29.7069C28.6522 28.0868 30.8272 25.8089 33.5734 24.5194C42.4044 20.3747 53.3169 20.407 62.0354 23.8883C64.495 24.8709 71.9641 29.0762 74.0365 29.9005Z" fill="none" fill-rule="evenodd" opacity="1" stroke="#000000" stroke-linecap="round" stroke-linejoin="round" stroke-width="4.46713"/>
<path d="M36.7181 74.088C41.4178 72.8824 45.8777 82.4151 47.1936 86.3129C47.8747 88.33 49.1769 90.0155 49.9253 92.0166C52.5549 99.0477 54.9387 117.913 47.728 123.106C46.7945 123.779 45.0756 124.024 43.9656 124.439C38.8765 126.343 31.2786 120.998 29.275 116.332C28.1837 113.789 27.5155 111.027 26.5544 108.456C24.8062 103.785 22.6255 97.2106 22.8159 92.067C22.9058 89.6131 23.6967 87.1774 23.7885 84.6786C23.852 82.9745 24.1684 77.1268 25.6482 76.0616C29.2153 73.4915 32.8023 75.0927 36.7181 74.088Z" fill="none" fill-rule="evenodd" opacity="1" stroke="#000000" stroke-linecap="round" stroke-linejoin="round" stroke-width="4.46713"/>
<path d="M35.6093 91.8039C35.4951 91.2673 33.8783 91.1674 33.9659 91.7084C34.1598 92.9058 37.6041 91.8426 37.6041 91.8426C37.6041 91.8426 35.746 92.4544 35.6093 91.8039Z" fill="none" fill-rule="evenodd" opacity="1" stroke="#000000" stroke-linecap="round" stroke-linejoin="round" stroke-width="4.46713"/>
<path d="M38.1478 107.483C38.3822 107.391 37.778 107.101 37.5332 107.04C34.9826 106.404 41.26 108.172 39.2952 106.755C37.093 105.167 35.2534 108.608 38.1478 107.483Z" fill="none" fill-rule="evenodd" opacity="1" stroke="#000000" stroke-linecap="round" stroke-linejoin="round" stroke-width="4.46713"/>
<path d="M78.0155 133.751C77.4411 130.203 75.5333 124.52 72.8471 121.932C71.6769 120.804 70.0732 120.266 69.106 118.922" fill="none" fill-rule="evenodd" opacity="1" stroke="#000000" stroke-linecap="round" stroke-linejoin="round" stroke-width="4.46713"/>
<path d="M57.9315 61.0722C59.6748 62.3288 59.0112 63.8048 59.7303 65.4814C61.8704 70.4654 61.1653 75.3327 59.6034 80.3265" fill="none" fill-rule="evenodd" opacity="1" stroke="#000000" stroke-linecap="round" stroke-linejoin="round" stroke-width="4.46713"/>
<path d="M96.1722 140.935C97.5768 138.986 103.348 138.958 105.628 139.042C108.197 139.137 110.887 138.127 113.436 138.14C114.747 138.145 115.848 139.3 116.95 139.74C125.127 143.006 129.297 150.428 133.295 158.065C134.907 161.145 141.762 168.656 145.929 166.867C148.496 165.764 143.073 166.02 142.234 166.38C139.703 167.467 137.5 169.113 134.939 170.454C130.533 172.76 126.64 175.749 122.463 178.259C119.828 179.842 117.002 180.618 114.464 182.446C104.464 189.648 86.2389 181.939 78.1192 174.591C75.2255 171.973 73.307 168.319 70.2366 166.105" fill="none" fill-rule="evenodd" opacity="1" stroke="#000000" stroke-linecap="round" stroke-linejoin="round" stroke-width="4.46713"/>
<path d="M87.8906 54.0518C88.1553 55.6865 93.1681 56.3711 94.8595 56.9006C101.668 59.0297 111.877 55.5048 116.544 50.1359C122.259 43.561 126.447 36.3236 130.432 28.7239C130.829 27.9689 135.86 22.9918 136.852 23.7074C137.084 23.8745 134.2 24.4985 134.09 24.5163C132.974 24.6969 131.471 24.4591 130.396 24.0295C126.276 22.3838 122.374 20.1386 118.57 17.9898C114.672 15.7865 110.711 12.5439 106.574 10.8919C101.573 8.89544 96.4491 7.39111 91.2833 5.77494C88.4696 4.89533 84.9119 3.56891 81.9036 3.6781C72.9775 4.00087 68.6896 7.57513 62.4955 13.3281C61.1492 14.5793 60.6192 16.2738 59.1905 17.4797C58.8794 17.7417 56.2322 19.311 56.3039 19.7542C56.3464 20.0168 56.8119 19.9131 57.0658 19.9925" fill="none" fill-rule="evenodd" opacity="1" stroke="#000000" stroke-linecap="round" stroke-linejoin="round" stroke-width="4.46713"/>
<path d="M97.8401 21.7078C99.2046 20.7251 93.9783 21.0435 93.0315 21.0398C89.4408 21.0234 86.8236 21.4016 84.0991 23.9326" fill="none" fill-rule="evenodd" opacity="1" stroke="#000000" stroke-linecap="round" stroke-linejoin="round" stroke-width="4.46713"/>
</g>
</svg>
